<svg width="49" height="49" viewBox="0 0 49 49" fill="none" xmlns="http://www.w3.org/2000/svg">
<path d="M28.6831 31.8335L44.2584 39.6215C45.1783 40.0813 45.9723 40.7585 46.5715 41.5943C47.1707 42.4301 47.5572 43.3994 47.6974 44.4183L48.0863 47.2444H0.84375L1.23266 44.4183C1.37287 43.3994 1.75933 42.4301 2.35857 41.5943C2.9578 40.7585 3.75175 40.0813 4.67166 39.6215L20.2469 31.8335H28.6831Z" fill="#F18324"/>
<path d="M4.67061 39.6213L5.90545 39.0044V47.2444H0.84375L1.23287 44.4183C1.37322 43.3997 1.75958 42.4305 2.35856 41.5947C2.95754 40.7589 3.7511 40.0816 4.67061 39.6213Z" fill="#F18324"/>
<path d="M48.0864 47.2444H43.0247V39.0044L44.2595 39.6213C45.179 40.0816 45.9726 40.7589 46.5715 41.5947C47.1705 42.4305 47.5569 43.3997 47.6972 44.4183L48.0864 47.2444Z" fill="#F18324"/>
<path d="M35.2422 35.1133L24.465 43.8701L13.6877 35.1133L17.3174 33.2985L20.2469 31.8337H28.683L32.1018 33.5431L35.2422 35.1133Z" fill="#F18324"/>
<path d="M30.3702 32.6771L28.683 31.8335V28.459H20.2468V31.8335L18.5596 32.6771L24.4649 35.2079L30.3702 32.6771Z" fill="#F6BB92"/>
<path d="M28.683 28.4592V29.6867C28.6746 29.693 28.6651 29.6983 28.6566 29.7046C27.4148 30.5455 25.9487 30.9934 24.449 30.9902C22.9492 30.987 21.4851 30.5328 20.2468 29.6867V28.4592H28.683Z" fill="#F6BB92"/>
<path d="M28.683 28.4592V29.6867C28.6746 29.693 28.6651 29.6983 28.6566 29.7046C27.4148 30.5455 25.9487 30.9934 24.449 30.9902C22.9492 30.987 21.4851 30.5328 20.2468 29.6867V28.4592H28.683Z" fill="#E6AF89"/>
<path d="M5.90545 39.0044V47.2444H0.84375L1.23287 44.4183C1.37322 43.3997 1.75958 42.4305 2.35856 41.5947C2.95754 40.7589 3.7511 40.0816 4.67061 39.6213L5.90545 39.0044Z" fill="#CBCBCB"/>
<path d="M48.0864 47.2444H43.0247V39.0044L44.2595 39.6213C45.179 40.0816 45.9726 40.7589 46.5715 41.5947C47.1705 42.4305 47.5569 43.3997 47.6972 44.4183L48.0864 47.2444Z" fill="#CBCBCB"/>
<path d="M24.465 30.1463C22.9708 30.1463 21.5109 29.6986 20.2736 28.8609C19.0363 28.0232 18.0784 26.834 17.5234 25.4467C16.5361 22.9785 16.0288 20.3446 16.0288 17.6862V10.9689C16.0288 8.73147 16.9176 6.5857 18.4997 5.00361C20.0818 3.42152 22.2276 2.53271 24.465 2.53271C26.7024 2.53271 28.8482 3.42152 30.4303 5.00361C32.0123 6.5857 32.9012 8.73147 32.9012 10.9689V17.6862C32.9012 20.3448 32.394 22.979 31.4066 25.4475C30.8515 26.8346 29.8935 28.0237 28.6562 28.8612C27.4189 29.6987 25.9591 30.1463 24.465 30.1463Z" fill="#F6BB92"/>
<path d="M29.5268 15.187H26.996C26.7722 15.187 26.5576 15.0981 26.3994 14.9399C26.2412 14.7817 26.1523 14.5671 26.1523 14.3434C26.1523 14.1196 26.2412 13.9051 26.3994 13.7468C26.5576 13.5886 26.7722 13.4998 26.996 13.4998H29.5268C29.7506 13.4998 29.9651 13.5886 30.1233 13.7468C30.2815 13.9051 30.3704 14.1196 30.3704 14.3434C30.3704 14.5671 30.2815 14.7817 30.1233 14.9399C29.9651 15.0981 29.7506 15.187 29.5268 15.187Z" fill="#683B0D"/>
<path d="M28.0504 17.914C28.6328 17.914 29.1049 17.4418 29.1049 16.8595C29.1049 16.2771 28.6328 15.8049 28.0504 15.8049C27.468 15.8049 26.9958 16.2771 26.9958 16.8595C26.9958 17.4418 27.468 17.914 28.0504 17.914Z" fill="#683B0D"/>
<path d="M21.934 15.187H19.4032C19.1794 15.187 18.9649 15.0981 18.8067 14.9399C18.6485 14.7817 18.5596 14.5671 18.5596 14.3434C18.5596 14.1196 18.6485 13.9051 18.8067 13.7468C18.9649 13.5886 19.1794 13.4998 19.4032 13.4998H21.934C22.1578 13.4998 22.3724 13.5886 22.5306 13.7468C22.6888 13.9051 22.7777 14.1196 22.7777 14.3434C22.7777 14.5671 22.6888 14.7817 22.5306 14.9399C22.3724 15.0981 22.1578 15.187 21.934 15.187Z" fill="#683B0D"/>
<path d="M20.8797 17.914C21.4621 17.914 21.9342 17.4418 21.9342 16.8595C21.9342 16.2771 21.4621 15.8049 20.8797 15.8049C20.2973 15.8049 19.8252 16.2771 19.8252 16.8595C19.8252 17.4418 20.2973 17.914 20.8797 17.914Z" fill="#683B0D"/>
<path d="M16.3451 14.1177H14.8629C14.2772 14.1177 13.7155 14.3503 13.3013 14.7644C12.8871 15.1786 12.6544 15.7403 12.6543 16.326V17.814C12.6543 18.1569 12.7341 18.4951 12.8875 18.8018C13.0709 19.1686 13.3529 19.4771 13.7018 19.6927C14.0507 19.9084 14.4527 20.0226 14.8629 20.0226H16.4506L16.3451 14.1177Z" fill="#F6BB92"/>
<path d="M32.5847 14.1177H34.0669C34.6526 14.1177 35.2144 14.3503 35.6285 14.7644C36.0427 15.1786 36.2754 15.7403 36.2755 16.326V17.814C36.2755 18.1569 36.1957 18.4951 36.0424 18.8018C35.8589 19.1686 35.5769 19.4771 35.228 19.6927C34.8791 19.9084 34.4771 20.0226 34.0669 20.0226H32.4792L32.5847 14.1177Z" fill="#F6BB92"/>
<path d="M32.9012 15.1869L32.7957 14.7633C32.3209 12.8645 31.1554 11.2108 29.5267 10.1252L29.5056 10.1335C26.7325 11.2428 23.7746 11.8177 20.7879 11.8279L17.1841 11.8403C16.3361 11.8435 15.5041 11.61 14.7817 11.166C14.0592 10.7221 13.475 10.0853 13.0949 9.32735L13.0128 9.16389C12.6461 8.43289 12.4866 7.61544 12.5515 6.8002C12.6164 5.98496 12.9033 5.20305 13.3811 4.53929L13.4416 4.45493C14.2462 3.33657 15.3054 2.42577 16.5316 1.79779C17.7579 1.16982 19.116 0.842712 20.4937 0.843507C21.467 0.84414 22.4848 0.844562 23.4186 0.844773C25.7097 0.845515 27.9068 1.75607 29.5267 3.37626L29.8682 3.37531C30.5247 3.37344 31.1686 3.5549 31.7275 3.89923C32.2865 4.24357 32.7382 4.73711 33.0317 5.32428L33.0634 5.38871C34.0487 7.35471 34.2969 9.60869 33.7631 11.742C33.335 13.4515 32.9012 15.1869 32.9012 15.1869Z" fill="#683B0D"/>
<path d="M21.0906 37.121L24.465 39.6519L27.8395 37.121L24.465 35.208L21.0906 37.121Z" fill="#CBCBCB"/>
<path d="M35.2422 35.1132L24.465 43.8699L13.6877 35.1132L17.3174 33.2983L24.465 39.6518L32.1018 33.543L35.2422 35.1132Z" fill="#C38325"/>
<path d="M19.4032 31.2158L24.4649 35.2081L17.7159 40.4956L16.8723 33.5209L19.4032 31.2158Z" fill="#EAEAE8"/>
<path d="M29.5268 31.2158L24.4651 35.2081L31.214 40.4956L32.0576 33.5209L29.5268 31.2158Z" fill="#EAEAE8"/>
<path d="M26.996 15.187H29.5268C29.7506 15.187 29.9651 15.0981 30.1233 14.9399C30.2815 14.7817 30.3704 14.5671 30.3704 14.3434C30.3704 14.1196 30.2815 13.9051 30.1233 13.7468C29.9651 13.5886 29.7506 13.4998 29.5268 13.4998H26.996C26.7722 13.4998 26.5576 13.5886 26.3994 13.7468C26.2412 13.9051 26.1523 14.1196 26.1523 14.3434C26.1523 14.5671 26.2412 14.7817 26.3994 14.9399C26.5576 15.0981 26.7722 15.187 26.996 15.187Z" fill="black"/>
<path d="M28.0504 17.914C28.6328 17.914 29.1049 17.4418 29.1049 16.8595C29.1049 16.2771 28.6328 15.8049 28.0504 15.8049C27.468 15.8049 26.9958 16.2771 26.9958 16.8595C26.9958 17.4418 27.468 17.914 28.0504 17.914Z" fill="black"/>
<path d="M21.934 15.187C22.1578 15.187 22.3724 15.0981 22.5306 14.9399C22.6888 14.7817 22.7777 14.5671 22.7777 14.3434C22.7777 14.1196 22.6888 13.9051 22.5306 13.7468C22.3724 13.5886 22.1578 13.4998 21.934 13.4998H19.4032C19.1794 13.4998 18.9649 13.5886 18.8067 13.7468C18.6485 13.9051 18.5596 14.1196 18.5596 14.3434C18.5596 14.5671 18.6485 14.7817 18.8067 14.9399C18.9649 15.0981 19.1794 15.187 19.4032 15.187H21.934Z" fill="black"/>
<path d="M20.8797 17.914C21.4621 17.914 21.9342 17.4418 21.9342 16.8595C21.9342 16.2771 21.4621 15.8049 20.8797 15.8049C20.2973 15.8049 19.8252 16.2771 19.8252 16.8595C19.8252 17.4418 20.2973 17.914 20.8797 17.914Z" fill="black"/>
<path d="M0.84371 48.0881H48.0863C48.2068 48.0881 48.3259 48.0623 48.4356 48.0124C48.5453 47.9625 48.643 47.8897 48.7222 47.7989C48.8014 47.708 48.8602 47.6013 48.8947 47.4858C48.9292 47.3703 48.9385 47.2488 48.9221 47.1294L48.5331 44.3033C48.3745 43.1486 47.9367 42.05 47.2576 41.1028C46.5786 40.1555 45.6788 39.3881 44.6362 38.8671L32.5393 32.8186L30.0948 30.5922C29.9395 30.4507 29.7368 30.3725 29.5267 30.373V29.2817C30.7156 28.3692 31.6358 27.1522 32.1899 25.7596C32.8203 24.186 33.2639 22.5437 33.5116 20.8667H34.067C34.6343 20.8686 35.1907 20.7116 35.6732 20.4133C36.1558 20.1151 36.5451 19.6877 36.797 19.1794C37.0084 18.7554 37.1187 18.2882 37.1193 17.8144V16.3259C37.1183 15.548 36.8207 14.7998 36.2872 14.2338C35.7537 13.6677 35.0243 13.3264 34.2479 13.2795C34.3542 12.8551 34.4681 12.4002 34.5818 11.9467C35.1635 9.61777 34.8928 7.15757 33.8186 5.01088L33.787 4.94697C33.4265 4.21945 32.8693 3.60754 32.1786 3.18069C31.4879 2.75385 30.6914 2.52916 29.8794 2.53212H29.8668C28.1172 0.900309 25.8121 -0.00454118 23.4196 0.00126554C22.4861 0.00126554 21.4681 0.000632713 20.495 0H20.4891C18.9788 0.00195574 17.4904 0.362199 16.1463 1.05114C14.8022 1.74008 13.6407 2.73806 12.7573 3.9631L12.6973 4.04641C12.128 4.83448 11.7862 5.76376 11.709 6.73285C11.6318 7.70194 11.8223 8.67361 12.2596 9.54184L12.3417 9.70571C12.9342 10.8964 13.9474 11.825 15.1852 12.3115V13.274H14.8629C14.0538 13.2749 13.278 13.5967 12.7058 14.1689C12.1336 14.741 11.8117 15.5167 11.8107 16.3259V17.8139C11.8113 18.2877 11.9216 18.7549 12.133 19.1789C12.3849 19.6871 12.7742 20.1146 13.2567 20.4128C13.7393 20.711 14.2957 20.8681 14.8629 20.8661H15.4184C15.666 22.5434 16.1096 24.1859 16.7401 25.7597C17.2942 27.1523 18.2144 28.3692 19.4033 29.2817V30.373C19.1932 30.3725 18.9905 30.4506 18.8352 30.5921L16.3908 32.8186L4.29379 38.867C3.25119 39.388 2.35138 40.1554 1.67232 41.1027C0.993254 42.0499 0.555436 43.1485 0.396804 44.3032L0.00789624 47.1293C-0.00855491 47.2487 0.000766886 47.3702 0.0352338 47.4857C0.0697007 47.6012 0.128513 47.708 0.207709 47.7988C0.286906 47.8897 0.384649 47.9625 0.494356 48.0124C0.604064 48.0623 0.723189 48.0881 0.84371 48.0881ZM33.7448 17.6862V15.2908L33.8272 14.9612H34.067C34.4289 14.9617 34.7758 15.1056 35.0317 15.3614C35.2875 15.6172 35.4315 15.9641 35.432 16.3259V17.8139C35.4317 18.0258 35.3824 18.2347 35.288 18.4243C35.1753 18.6516 35.0012 18.8427 34.7854 18.9761C34.5696 19.1095 34.3207 19.1797 34.067 19.1789H33.6934C33.7272 18.6837 33.7443 18.1861 33.7448 17.6862ZM43.8682 40.369L43.8816 40.3756C44.6789 40.774 45.367 41.3609 45.8863 42.0853C46.4056 42.8097 46.7404 43.6498 46.8617 44.5329L47.1186 46.4008H43.8682V40.369ZM32.7513 34.8106L33.6956 35.2827L32.5848 36.1855L32.7513 34.8106ZM31.1677 33.852L30.5561 38.909L25.8301 35.2064L29.4875 32.3216L31.1677 33.852ZM27.8435 31.4688L24.465 34.1337L21.0905 31.4721V30.282C22.1543 30.7489 23.3033 30.99 24.465 30.99C25.6267 30.99 26.7757 30.7489 27.8395 30.282V31.3892C27.8395 31.4161 27.841 31.4427 27.8435 31.4688ZM24.465 36.2798L25.9123 37.4137L24.4936 38.5487L23.1235 37.3308L24.465 36.2798ZM23.9045 40.2824C24.0533 40.4147 24.2441 40.4901 24.4431 40.4953C24.6421 40.5004 24.8366 40.435 24.992 40.3107L27.2769 38.4828L28.5398 39.4722L24.465 42.783L20.3902 39.4718L21.7736 38.388L23.9045 40.2824ZM14.8629 19.1793C14.6093 19.1802 14.3604 19.1099 14.1446 18.9765C13.9288 18.8432 13.7547 18.652 13.642 18.4247C13.5475 18.2351 13.4982 18.0262 13.498 17.8144V16.3259C13.4984 15.964 13.6423 15.617 13.8982 15.3611C14.1541 15.1052 14.501 14.9612 14.8629 14.9608H15.1852V17.6862C15.1852 18.1861 15.2023 18.6839 15.2366 19.1796L14.8629 19.1793ZM13.8492 8.94962L13.7672 8.78575C13.4684 8.19307 13.3382 7.52973 13.3907 6.86809C13.4432 6.20645 13.6763 5.57194 14.0648 5.03376L14.1266 4.94782C14.8535 3.93989 15.8091 3.11879 16.915 2.55198C18.0209 1.98516 19.2455 1.6888 20.4882 1.68723H20.4931C21.4665 1.68787 22.4846 1.68829 23.4183 1.6885C24.4424 1.68606 25.4569 1.8867 26.4029 2.27881C27.349 2.67093 28.208 3.24673 28.9302 3.97291C29.0085 4.05125 29.1015 4.11338 29.2039 4.15578C29.3062 4.19817 29.4159 4.21999 29.5267 4.21998H29.5289L29.8705 4.21904H29.8784C30.3769 4.21729 30.8659 4.35533 31.2899 4.6175C31.714 4.87967 32.056 5.25546 32.2772 5.70222L32.3088 5.76612C33.2029 7.5522 33.4285 9.59921 32.9447 11.5371C32.8749 11.8155 32.805 12.0947 32.7368 12.367C32.0652 11.1849 31.1259 10.1768 29.9943 9.42342C29.8803 9.34742 29.7495 9.30033 29.6133 9.2862C29.477 9.27207 29.3394 9.29133 29.2122 9.34232L29.1922 9.35034C26.5184 10.4224 23.6654 10.9769 20.7847 10.9843L17.1807 10.9968H17.166C16.4772 10.9991 15.8015 10.8086 15.2153 10.4468C14.6291 10.085 14.1559 9.56639 13.8492 8.94962ZM18.3066 25.1335C17.3571 22.7655 16.8703 20.2375 16.8724 17.6862V12.6754C16.9698 12.6805 17.0675 12.684 17.1659 12.684H17.187L20.7908 12.6716C23.7363 12.664 26.6561 12.1236 29.4092 11.0766C30.684 12.0426 31.59 13.4157 31.9767 14.9678L32.0574 15.2908V17.6862C32.0596 20.2375 31.5728 22.7656 30.6233 25.1337C30.1309 26.3644 29.2811 27.4194 28.1834 28.1626C27.0857 28.9057 25.7905 29.3029 24.4649 29.3029C23.1393 29.3029 21.8441 28.9057 20.7464 28.1626C19.6487 27.4194 18.7989 26.3644 18.3065 25.1337L18.3066 25.1335ZM19.4424 32.3211L23.0998 35.2058L18.3739 38.9085L17.7622 33.852L19.4424 32.3211ZM16.1786 34.8109L16.3452 36.1855L15.2346 35.2831L16.1786 34.8109ZM13.5779 36.1112L16.636 38.5963L16.878 40.5969C16.896 40.7453 16.9531 40.8864 17.0435 41.0055C17.1339 41.1247 17.2544 41.2176 17.3925 41.2749C17.5307 41.3322 17.6816 41.3517 17.8298 41.3314C17.978 41.3112 18.1181 41.2519 18.2358 41.1597L19.0275 40.5394L23.9325 44.5247C24.0828 44.6469 24.2707 44.7136 24.4645 44.7136C24.6582 44.7136 24.8461 44.6469 24.9965 44.5247L29.9015 40.5394L30.6931 41.1597C30.8108 41.2519 30.951 41.3112 31.0992 41.3314C31.2473 41.3517 31.3982 41.3322 31.5364 41.2749C31.6746 41.2176 31.795 41.1247 31.8854 41.0055C31.9758 40.8864 32.033 40.7453 32.0509 40.5969L32.2934 38.5964L35.3516 36.1114L42.1902 39.5306C42.1842 39.5708 42.1811 39.6113 42.181 39.6519V46.4008H6.74903V39.6519C6.7487 39.6113 6.74545 39.5708 6.73933 39.5306L13.5779 36.1112ZM2.06822 44.5333C2.18954 43.6503 2.52436 42.8102 3.04367 42.0857C3.56297 41.3613 4.2511 40.7745 5.0484 40.376L5.0618 40.369V46.4008H1.81134L2.06822 44.5333Z" fill="black"/>
</svg>
