<svg width="36" height="52" viewBox="0 0 36 52" fill="none" xmlns="http://www.w3.org/2000/svg">
<path d="M17.4179 0.8125C12.6246 0.8125 8.73926 4.69798 8.73926 9.49122V13.0003C9.31928 12.4626 10.1445 12.1705 10.95 12.2781V11.8456C10.95 11.5019 11.2435 11.2304 11.5838 11.2561C14.9392 11.4971 18.3541 10.4309 20.9361 8.74412C21.1771 8.5866 21.4963 8.6258 21.6921 8.83634C23.8995 11.209 23.8862 11.1172 23.8862 11.4271V12.2764C24.7692 12.144 25.5523 12.4168 26.0965 12.9227V9.49132C26.0966 4.69808 22.2112 0.8125 17.4179 0.8125Z" fill="#584836"/>
<path d="M23.8746 11.9621V16.7348C23.8746 16.7865 23.8718 16.8376 23.8706 16.8892C25.5595 17.1449 26.8823 15.9245 26.8823 14.4259C26.8824 12.9241 25.5585 11.7097 23.8746 11.9621Z" fill="#F0A479"/>
<path d="M25.9216 12.465C25.3881 12.0522 24.6717 11.8425 23.8746 11.9621V16.7348C23.8746 16.7865 23.8718 16.8376 23.8706 16.8892C24.6702 17.0102 25.3875 16.8001 25.9215 16.3865V12.4651H25.9216V12.465Z" fill="#E59770"/>
<path d="M10.9691 16.7406V11.9576C9.49493 11.7607 7.95361 12.892 7.95361 14.4256C7.95361 15.9262 9.27687 17.1519 10.9729 16.8951C10.9716 16.8436 10.9691 16.7923 10.9691 16.7406Z" fill="#F0A479"/>
<path d="M10.9691 16.4079C10.3612 15.9471 9.98497 15.2255 9.98497 14.4256C9.98497 13.646 10.3837 12.9709 10.9691 12.5207V11.9576C9.49493 11.7607 7.95361 12.8921 7.95361 14.4256C7.95361 15.9262 9.27687 17.1519 10.9729 16.8951C10.9716 16.8435 10.9691 16.792 10.9691 16.7405V16.4079Z" fill="#E59770"/>
<path d="M17.5102 22.7969C16.1081 22.7969 14.8759 22.412 13.8682 21.768V25.3235L17.4946 29.7997L21.1209 25.3235V21.6719C20.0937 22.3806 18.8499 22.7969 17.5102 22.7969Z" fill="#F0A479"/>
<path d="M15.939 22.6252C15.1745 22.4533 14.4797 22.1588 13.8682 21.7681V25.3236L15.939 27.8798V22.6252Z" fill="#E59770"/>
<path d="M30.7145 28.7342L21.1209 25.0188L17.4945 29.4951L13.8682 25.0188L4.28462 28.7342C4.28462 28.7342 0.736328 30.1929 0.736328 34.2378C0.736328 37.8979 0.736328 47.1498 0.736328 50.1065C0.736328 50.7594 1.26567 51.2889 1.91872 51.2889C2.41627 51.2889 32.5753 51.2889 33.0805 51.2889C33.7335 51.2889 34.2629 50.7595 34.2629 50.1065C34.2629 47.1496 34.2629 37.8978 34.2629 34.2378C34.2628 30.1929 30.7145 28.7342 30.7145 28.7342Z" fill="#E4EAF8"/>
<path d="M2.76057 50.1066C2.76057 47.1498 2.76057 36.7807 2.76057 33.1207C2.76057 30.7744 3.95403 29.2996 4.95676 28.4736L4.28462 28.7342C4.28462 28.7342 0.736328 30.193 0.736328 34.2379C0.736328 37.898 0.736328 47.1499 0.736328 50.1065C0.736328 50.7595 1.26577 51.2889 1.91872 51.2889C1.99327 51.2889 2.73498 51.2889 3.94296 51.2889C3.29012 51.289 2.76057 50.7595 2.76057 50.1066Z" fill="#D8DCE5"/>
<path d="M21.6921 8.53173C21.4962 8.32119 21.1771 8.28209 20.9361 8.43951C18.3541 10.1262 14.9393 11.1925 11.5838 10.9514C11.2435 10.9256 10.95 11.1971 10.95 11.5408V16.7256C10.95 20.0579 13.561 23.1014 17.5104 23.1014C21.0261 23.1014 23.8863 20.2412 23.8863 16.7256V11.1223C23.8863 10.8125 23.8996 10.9044 21.6921 8.53173Z" fill="#F0A479"/>
<path d="M12.9813 16.7256V10.9772C12.5159 10.9922 12.0493 10.9848 11.5838 10.9514C11.2435 10.9256 10.95 11.1972 10.95 11.541V16.7257C10.95 20.058 13.561 23.1015 17.5104 23.1015C17.824 23.1015 18.1321 23.0778 18.4338 23.0338C15.3543 22.5849 12.9813 19.9276 12.9813 16.7256Z" fill="#E59770"/>
<path d="M21.8734 31.7951L24.5853 26.3603L21.1213 25.0188L17.4949 29.4951L21.0305 32.006C21.3165 32.2094 21.7166 32.1093 21.8734 31.7951Z" fill="#D8DCE5"/>
<path d="M13.121 31.7951L10.4092 26.3603L13.8732 25.0188L17.4996 29.4951L13.964 32.006C13.6779 32.2094 13.2777 32.1093 13.121 31.7951Z" fill="#D8DCE5"/>
<path d="M21.1829 46.8975L18.8555 33.1206H17.4994H17.4951H16.139L13.8116 46.8975C13.7871 47.075 13.8392 47.2552 13.9501 47.3774L17.1635 50.9189C17.3424 51.1162 17.6521 51.1162 17.8311 50.9189L21.0445 47.3774C21.1553 47.2552 21.2073 47.075 21.1829 46.8975Z" fill="#E88032"/>
<path d="M17.4993 29.4982V29.4951L17.4971 29.4966L17.4949 29.4951V29.4982L14.9233 31.3246L16.1389 33.154H17.4949H17.4993H18.8553L20.0709 31.3246L17.4993 29.4982Z" fill="#F18324"/>
<path d="M15.9813 47.3774C15.8702 47.2551 15.8182 47.0749 15.8427 46.8975L18.1701 33.1206H17.4992H17.4948H16.1388L13.8114 46.8975C13.7869 47.075 13.8389 47.2552 13.9499 47.3774L17.1631 50.9189C17.3421 51.1162 17.6519 51.1162 17.8308 50.9189L18.5126 50.1675L15.9813 47.3774Z" fill="#F18324"/>
<path d="M18.513 30.218L17.4994 29.4983V29.4951L17.4971 29.4966L17.495 29.4951V29.4983L14.9233 31.3246L16.1389 33.154H17.495H17.4994H18.1703L17.1173 31.5692C17.0267 31.4329 17.0607 31.2493 17.1942 31.1544L18.513 30.218Z" fill="#E88032"/>
<path d="M34.288 40.1011C34.7087 40.1011 35.0497 39.7601 35.0497 39.3394V34.1872C35.0497 29.6835 31.1935 28.0464 31.0294 27.9788C31.0246 27.9768 31.0197 27.9749 31.0149 27.9731L21.9079 24.4462V22.3103C23.3544 21.1854 24.3573 19.5179 24.6091 17.6154C25.3303 17.5646 25.9995 17.2953 26.546 16.8254C27.2597 16.2116 27.6692 15.3184 27.6692 14.3751C27.6692 13.5922 27.3867 12.8447 26.8834 12.2622V9.44054C26.8833 4.23505 22.6483 0 17.4429 0C12.2374 0 8.00241 4.23505 8.00241 9.44054V12.3362C7.49369 12.9128 7.21703 13.6225 7.21703 14.375C7.21703 15.3186 7.62633 16.2117 8.34021 16.8256C8.88631 17.2953 9.5551 17.5643 10.2761 17.6152C10.5299 19.5533 11.5621 21.283 13.1317 22.4231V24.4462L4.03467 27.973C4.0299 27.9748 4.02513 27.9767 4.02035 27.9786C3.85612 28.0462 0 29.6833 0 34.187V50.0556C0 51.1276 0.872117 51.9997 1.94411 51.9997H9.20146C9.62213 51.9997 9.96318 51.6586 9.96318 51.238C9.96318 50.8173 9.62213 50.4763 9.20146 50.4763H7.56255V35.4759C7.56255 35.0552 7.2215 34.7142 6.80083 34.7142C6.38016 34.7142 6.03911 35.0552 6.03911 35.4759V50.4765H1.94421C1.71234 50.4765 1.52364 50.2878 1.52364 50.0559V34.1871C1.52364 30.7574 4.41746 29.4658 4.5952 29.3899L10.0627 27.2702L12.4649 32.0845C12.6947 32.5449 13.1614 32.8229 13.6588 32.8229C14.1464 32.8229 14.4052 32.5945 14.7494 32.35L15.363 33.2736L13.0858 46.7274C13.0845 46.735 13.0834 46.7426 13.0823 46.7503C13.0272 47.1489 13.1504 47.5585 13.4117 47.8461L15.8028 50.4766H12.7565C12.3358 50.4766 11.9947 50.8176 11.9947 51.2383C11.9947 51.659 12.3358 52 12.7565 52H33.106C34.178 52 35.0501 51.1279 35.0501 50.0559V42.8943C35.0501 42.4736 34.7091 42.1326 34.2884 42.1326C33.8677 42.1326 33.5267 42.4736 33.5267 42.8943V50.0559C33.5267 50.2878 33.338 50.4765 33.1061 50.4765H29.0114V35.4759C29.0114 35.0552 28.6704 34.7142 28.2497 34.7142C27.829 34.7142 27.488 35.0552 27.488 35.4759V50.4765H19.2426L21.6337 47.846C21.8949 47.5586 22.0181 47.1492 21.9632 46.7504C21.9622 46.7427 21.961 46.735 21.9596 46.7273L19.6821 33.2736L20.2956 32.35C20.6349 32.5909 20.8962 32.8229 21.3862 32.8229C21.8847 32.8229 22.3508 32.5439 22.5801 32.0846V32.0845L24.982 27.2704L30.4538 29.3895C30.6518 29.4745 33.5263 30.769 33.5263 34.1872V39.3394C33.5263 39.7601 33.8673 40.1011 34.288 40.1011ZM25.5526 15.6702C25.3035 15.8845 25.0026 16.0215 24.673 16.0751V12.6751C25.5485 12.8173 26.1456 13.5436 26.1456 14.375C26.1455 14.874 25.9294 15.3461 25.5526 15.6702ZM9.52595 9.44054C9.52595 5.07508 13.0774 1.52354 17.4429 1.52354C21.8083 1.52354 25.3598 5.07508 25.3598 9.44054V11.273C25.1383 11.2057 24.9087 11.1612 24.673 11.1403C24.673 10.4053 24.6794 10.5471 22.2749 7.96199C21.8327 7.48688 21.1012 7.38735 20.5446 7.75105C17.8907 9.48462 14.6534 10.3555 11.6665 10.141C11.0116 10.092 10.4147 10.5235 10.2542 11.1613C10.0115 11.1891 9.73345 11.2549 9.52616 11.3253V9.44054H9.52595ZM8.74047 14.375C8.74047 13.5607 9.41556 12.8978 10.2131 12.7135V16.0752C9.3277 15.9315 8.74047 15.1994 8.74047 14.375ZM11.7367 16.6749V11.9226V11.6723C15.0247 11.8648 18.4721 10.888 21.257 9.10447C22.3598 10.2885 22.957 10.9095 23.1495 11.1458C23.1495 11.7434 23.1495 15.9908 23.1495 16.6748C23.1495 19.7671 20.6282 22.2888 17.5355 22.2888C14.0626 22.2889 11.7367 19.5949 11.7367 16.6749ZM17.5354 23.8124C18.534 23.8124 19.5134 23.5996 20.3844 23.2187V24.6982L17.5223 28.231L14.6551 24.692V23.2664C15.5805 23.6395 16.5695 23.8124 17.5354 23.8124ZM11.4894 26.7179L13.6519 25.8804L16.4186 29.2954C15.0118 30.2946 13.8564 31.1153 13.7287 31.206L11.4894 26.7179ZM17.5223 50.1033L14.6028 46.8916L16.8076 33.8649H18.2367L20.4415 46.8916L17.5223 50.1033ZM18.472 32.3415H16.5725L15.9917 31.4673L17.5223 30.3803L19.0528 31.4673L18.472 32.3415ZM21.3157 31.206C21.2601 31.1665 20.0733 30.3233 18.6226 29.2932C19.2521 28.5161 18.5157 29.4251 21.3887 25.8789L23.5551 26.718L21.3157 31.206Z" fill="black"/>
</svg>
