<svg width="58" height="38" viewBox="0 0 58 38" fill="none" xmlns="http://www.w3.org/2000/svg">
<path d="M57.0518 34.7212C38.3504 42.3029 19.6488 27.1395 0.947266 34.7212C0.947266 24.1911 0.947266 13.6608 0.947266 3.13078C19.6488 -4.4509 38.3504 10.7125 57.0518 3.13078C57.0518 13.6608 57.0518 24.191 57.0518 34.7212Z" fill="#F2F2F2"/>
<path d="M57.0523 24.1913C57.0523 27.7017 57.0523 31.2107 57.0523 34.721C38.3508 42.3027 19.6492 27.1394 0.947754 34.721C0.947754 31.2107 0.947754 27.7017 0.947754 24.1913C19.6492 16.6096 38.3508 31.773 57.0523 24.1913Z" fill="#31AF0E"/>
<path d="M57.0523 3.13058C57.0523 6.64094 57.0523 10.1499 57.0523 13.6603C38.3508 21.242 19.6492 6.07861 0.947754 13.6603C0.947754 10.1499 0.947754 6.64094 0.947754 3.13058C19.6492 -4.45122 38.3508 10.7123 57.0523 3.13058Z" fill="#F7B239"/>
<path d="M57.5818 2.3445C57.3203 2.16834 56.9883 2.13368 56.6962 2.25229C47.61 5.93585 38.6618 4.12222 29.1883 2.20176C19.8565 0.310078 10.207 -1.64584 0.591668 2.25229C0.234039 2.39717 0 2.74461 0 3.13056V34.721C0 35.0362 0.156781 35.3308 0.418234 35.5069C0.679688 35.6831 1.0116 35.7175 1.30375 35.5991C10.3898 31.9154 19.3381 33.7293 28.8117 35.6496C34.1902 36.7399 39.6732 37.8514 45.1953 37.8514C49.2542 37.8514 53.3349 37.2505 57.4082 35.5991C57.766 35.4542 58 35.1068 58 34.7207V3.13033C58 2.81518 57.8433 2.52065 57.5818 2.3445ZM56.1046 23.5442C47.2211 26.9168 38.4562 25.141 29.1883 23.2623C20.2781 21.4563 11.0785 19.5918 1.89542 22.8201V14.3072C10.7786 10.9346 19.5438 12.7104 28.8117 14.589C34.1902 15.6792 39.6732 16.7908 45.1953 16.7907C48.8213 16.7906 52.4646 16.3088 56.1046 15.0292V23.5442ZM28.8117 4.05935C37.7223 5.86551 46.9217 7.73057 56.1046 4.50182V13.0132C47.2211 16.3858 38.4562 14.61 29.1883 12.7315C20.2781 10.9252 11.0785 9.06094 1.89542 12.2892V3.7766C10.7788 0.404329 19.544 2.18081 28.8117 4.05935ZM29.1883 33.7921C23.8098 32.7018 18.3268 31.5903 12.8046 31.5903C9.17839 31.5903 5.5356 32.0696 1.89542 33.3493V24.8382C10.7786 21.4656 19.5438 23.2414 28.8117 25.1199C34.1902 26.2101 39.6732 27.3217 45.1953 27.3217C48.8213 27.3217 52.4646 26.8398 56.1046 25.5601V34.0748C47.2215 37.4472 38.4562 35.6708 29.1883 33.7921Z" fill="#1D1D1D"/>
<path d="M31.1478 18.0414H30.2722L30.8913 17.4223C31.1382 17.1755 31.1382 16.7755 30.8913 16.5289C30.6448 16.2823 30.2445 16.2823 29.998 16.5289L29.3789 17.1479V16.2724C29.3789 15.9235 29.0962 15.6406 28.7471 15.6406C28.3982 15.6406 28.1154 15.9236 28.1154 16.2724V17.1479L27.4963 16.5287C27.2494 16.2821 26.8496 16.2819 26.6028 16.5287C26.3561 16.7756 26.356 17.1756 26.6028 17.4222L27.2219 18.0413H26.3464C25.9975 18.0413 25.7146 18.3243 25.7146 18.6731C25.7146 19.0218 25.9976 19.3048 26.3464 19.3048H27.2219L26.6028 19.9239C26.356 20.1707 26.356 20.5707 26.6028 20.8174C26.7263 20.9407 26.8879 21.0023 27.0496 21.0023C27.2114 21.0023 27.3729 20.9407 27.4964 20.8174L28.1155 20.1982V21.0737C28.1155 21.4226 28.3985 21.7055 28.7473 21.7055C29.0963 21.7055 29.379 21.4225 29.379 21.0737V20.1982L29.9981 20.8172C30.1215 20.9406 30.2832 21.0022 30.4448 21.0022C30.6064 21.0022 30.7683 20.9406 30.8914 20.8172C31.1382 20.5704 31.1382 20.1704 30.8914 19.9238L30.2724 19.3047H31.1479C31.4969 19.3047 31.7797 19.0217 31.7797 18.6729C31.7797 18.324 31.4968 18.0414 31.1478 18.0414Z" fill="#0C7AAA"/>
</svg>
