<svg xmlns="http://www.w3.org/2000/svg" viewBox="0 0 70.88 70.88"><title>feature-5</title><g id="Layer_2" data-name="Layer 2"><g id="Layer_1-2" data-name="Layer 1"><circle cx="35.44" cy="35.44" r="35.44" style="fill:#e1f3f5"/><path d="M32.48,15.49h2.1q.17.85.86.85t.87-.85h2.1c.16.65.4.85,1.06.85H49.6c.3,0,.45,0,.51.4a6.29,6.29,0,0,0,5.06,5c.29,0,.37.13.37.41q0,4.55,0,9.11c0,.26-.06.35-.34.39a6.3,6.3,0,0,0-5.09,5.1c0,.28-.13.34-.39.34H39c-.27,0-.36-.06-.36-.35,0-1.12,0-2.24,0-3.36a.72.72,0,0,1,.4-.73A7,7,0,0,0,42.2,25a7,7,0,0,0-13.74,1.53A6.86,6.86,0,0,0,32,32.79a.41.41,0,0,1,.24.4q0,1.83,0,3.66c0,.23-.08.28-.29.28H21.11c-.21,0-.28-.05-.32-.28a6.26,6.26,0,0,0-5.17-5.16c-.23,0-.28-.12-.27-.32,0-.58,0-1.16,0-1.74q0-3.7,0-7.4c0-.18-.07-.37.25-.42a6.22,6.22,0,0,0,5.15-5c.08-.42.24-.46.6-.46H31.48A.87.87,0,0,0,32.48,15.49ZM23,24a2.72,2.72,0,1,0,2.71,2.73A2.72,2.72,0,0,0,23,24Zm24.84,5.45a2.72,2.72,0,1,0-2.72-2.73A2.72,2.72,0,0,0,47.86,29.46Z" style="fill:#5bbf90"/><path d="M32.48,15.49a.87.87,0,0,1-1,.86H21.35c-.35,0-.51,0-.6.46a6.22,6.22,0,0,1-5.15,5c-.32.06-.25.24-.25.42q0,3.7,0,7.4c0,.58,0,1.16,0,1.74,0,.2,0,.28.27.32a6.26,6.26,0,0,1,5.17,5.16c0,.22.11.28.32.28H31.92c.21,0,.29,0,.29-.28q0-1.83,0-3.66a.41.41,0,0,0-.24-.4,6.86,6.86,0,0,1-3.51-6.27A7,7,0,0,1,42.2,25a7,7,0,0,1-3.13,7.7.72.72,0,0,0-.4.73c0,1.12,0,2.24,0,3.36,0,.29.09.35.36.35H49.7c.26,0,.35-.06.39-.34a6.3,6.3,0,0,1,5.09-5.1c.28,0,.34-.13.34-.39q0-4.55,0-9.11c0-.28-.08-.37-.37-.41a6.29,6.29,0,0,1-5.06-5c-.07-.38-.21-.4-.51-.4H39.47c-.66,0-.9-.2-1.06-.85.17-.66.4-.85,1.06-.85H54.28a2.89,2.89,0,0,1,2.95,3q0,9.13,0,18.26a2.89,2.89,0,0,1-2.95,3c-2.1,0-4.2,0-6.3,0-.35,0-.48,0-.47.45,0,1,0,2.07,0,3.11a13.77,13.77,0,0,1-1.6,6.52l-1.5,2.87h1a.84.84,0,0,1,.91.89q0,2.34,0,4.68a.84.84,0,0,1-.91.89H30.91a.86.86,0,0,1-.92-.93c0-1.49,0-3,0-4.47,0-.73.27-1,1.05-1.09a11.21,11.21,0,0,1,0-9.12h-1a6.57,6.57,0,0,1-1.65-.1,2.74,2.74,0,0,1-2-3.42l.08-.27H16.67a2.89,2.89,0,0,1-3-3q0-9.06,0-18.13a2.89,2.89,0,0,1,3-3H31.47A.87.87,0,0,1,32.48,15.49Zm5.26,36.27c1.46,0,2.92,0,4.38,0a.52.52,0,0,0,.56-.32c.57-1.12,1.16-2.23,1.74-3.34a12.79,12.79,0,0,0,1.07-2.84A28.63,28.63,0,0,0,45.83,39c0-.21-.1-.22-.26-.22H43c-.21,0-.26.06-.26.26a7.88,7.88,0,0,1,0,1.44A2.89,2.89,0,0,1,37,39.94q0-3.62,0-7.23a1.65,1.65,0,0,0-.36-1.1,1.53,1.53,0,0,0-2.7,1c0,2.35,0,4.71,0,7.06a4.42,4.42,0,0,1-.69,2.51,9.29,9.29,0,0,0-.44,9.27.47.47,0,0,0,.52.31C34.79,51.75,36.26,51.76,37.74,51.76ZM35.4,21.46a4.61,4.61,0,0,0-.74.07,5.27,5.27,0,0,0-2.42,9.4c.25.19.33.15.49-.1a3.21,3.21,0,0,1,5.42,0c.19.3.3.25.53.08a5.28,5.28,0,0,0-3.28-9.45Zm2.81,32H32.08c-.27,0-.4,0-.39.35,0,.81,0,1.62,0,2.42,0,.25.08.3.31.3H44.34c.24,0,.31-.07.3-.31,0-.79,0-1.59,0-2.38,0-.33-.09-.39-.4-.39C42.23,53.47,40.22,53.46,38.2,53.46ZM17.69,37.12h1.15c.19,0,.28,0,.23-.25A4.7,4.7,0,0,0,15.6,33.4c-.19,0-.25,0-.25.19,0,.79,0,1.59,0,2.38a1.18,1.18,0,0,0,1.19,1.14C16.93,37.13,17.31,37.12,17.69,37.12Zm37.83-2.34c0-.38,0-.77,0-1.15s-.07-.28-.29-.22a4.58,4.58,0,0,0-3.42,3.42c-.06.23,0,.3.22.29.76,0,1.53,0,2.3,0a1.19,1.19,0,0,0,1.19-1.19C55.54,35.55,55.53,35.16,55.53,34.78ZM19.08,16.36c-.88,0-1.76,0-2.63,0a1.14,1.14,0,0,0-1.09,1.1c0,.81,0,1.61,0,2.42,0,.16,0,.22.22.19A4.58,4.58,0,0,0,19.08,16.36Zm34.12,0H52.06c-.21,0-.31,0-.24.28a4.61,4.61,0,0,0,3.45,3.44c.21.06.27,0,.27-.21,0-.76,0-1.53,0-2.3a1.19,1.19,0,0,0-1.21-1.21ZM30.54,38.82H29.26c-.74,0-1.23.43-1.23,1s.46,1,1.2,1,1.61,0,2.42,0c.42,0,.54-.21.55-.57s0-.82,0-1.23-.1-.3-.32-.29C31.44,38.83,31,38.82,30.54,38.82Zm9.37,0c-1.36,0-1.36,0-1.23,1.32,0,0,0,0,0,0a1.19,1.19,0,0,0,2.37-.13c.06-1.23.06-1.23-1-1.23Z" style="fill:#040504"/><path d="M36.3,15.5q-.17.85-.87.85t-.86-.85c.12-.56.4-.84.84-.85S36.18,14.92,36.3,15.5Z" style="fill:#040504"/><path d="M23,24a2.72,2.72,0,1,1-2.74,2.71A2.72,2.72,0,0,1,23,24Zm1,2.74a1,1,0,1,0-1,1A1,1,0,0,0,24,26.75Z" style="fill:#040504"/><path d="M47.86,29.46a2.72,2.72,0,1,1,2.73-2.72A2.72,2.72,0,0,1,47.86,29.46Zm0-3.74a1,1,0,1,0,1,1A1,1,0,0,0,47.87,25.72Z" style="fill:#040504"/><path d="M37.74,51.76c-1.47,0-2.95,0-4.42,0a.47.47,0,0,1-.52-.31,9.29,9.29,0,0,1,.44-9.27,4.42,4.42,0,0,0,.69-2.51c-.05-2.35,0-4.71,0-7.06a1.53,1.53,0,0,1,2.7-1,1.65,1.65,0,0,1,.36,1.1q0,3.62,0,7.23a2.89,2.89,0,0,0,5.74.58,7.88,7.88,0,0,0,0-1.44c0-.2.06-.27.26-.26h2.55c.16,0,.26,0,.26.22a28.63,28.63,0,0,1-.34,6.22,12.79,12.79,0,0,1-1.07,2.84c-.58,1.11-1.17,2.22-1.74,3.34a.52.52,0,0,1-.56.32C40.66,51.75,39.2,51.76,37.74,51.76Z" style="fill:#fcd3bf"/><path d="M35.4,21.46a5.28,5.28,0,0,1,3.28,9.45c-.23.18-.34.22-.53-.08a3.21,3.21,0,0,0-5.42,0c-.16.24-.24.29-.49.1a5.27,5.27,0,0,1,2.42-9.4A4.61,4.61,0,0,1,35.4,21.46Z" style="fill:#c5e4d5"/><path d="M38.2,53.46c2,0,4,0,6,0,.31,0,.41.06.4.39,0,.79,0,1.59,0,2.38,0,.24-.06.31-.3.31H32c-.23,0-.32,0-.31-.3,0-.81,0-1.62,0-2.42,0-.33.13-.35.39-.35Z" style="fill:#385f7e"/><path d="M17.69,37.12c-.38,0-.77,0-1.15,0A1.18,1.18,0,0,1,15.36,36c0-.79,0-1.59,0-2.38,0-.2.06-.23.25-.19a4.7,4.7,0,0,1,3.47,3.47c0,.24,0,.26-.23.25Z" style="fill:#c5e4d5"/><path d="M55.53,34.78c0,.38,0,.77,0,1.15a1.19,1.19,0,0,1-1.19,1.19c-.76,0-1.53,0-2.3,0-.25,0-.28-.07-.22-.29a4.58,4.58,0,0,1,3.42-3.42c.23-.06.3,0,.29.22S55.53,34.4,55.53,34.78Z" style="fill:#c5e4d5"/><path d="M19.08,16.36a4.58,4.58,0,0,1-3.52,3.72c-.18,0-.22,0-.22-.19,0-.81,0-1.62,0-2.42a1.14,1.14,0,0,1,1.09-1.1C17.33,16.33,18.2,16.36,19.08,16.36Z" style="fill:#c5e4d5"/><path d="M53.2,16.35h1.11a1.19,1.19,0,0,1,1.21,1.21c0,.76,0,1.53,0,2.3,0,.22-.06.26-.27.21a4.61,4.61,0,0,1-3.45-3.44c-.07-.26,0-.28.24-.28Z" style="fill:#c5e4d5"/><path d="M30.54,38.82c.45,0,.91,0,1.36,0,.22,0,.33,0,.32.29s0,.82,0,1.23-.13.58-.55.57c-.81,0-1.61,0-2.42,0s-1.19-.41-1.2-1,.49-1,1.23-1Z" style="fill:#fcd3bf"/><path d="M39.91,38.82H40c1.08,0,1.08,0,1,1.23a1.19,1.19,0,0,1-2.37.13s0,0,0,0C38.55,38.82,38.55,38.82,39.91,38.82Z" style="fill:#fcd3bf"/><path d="M24,26.75a1,1,0,1,1-1-1A1,1,0,0,1,24,26.75Z" style="fill:#c5e4d5"/><path d="M47.87,25.72a1,1,0,1,1-1,1A1,1,0,0,1,47.87,25.72Z" style="fill:#c5e4d5"/></g></g></svg>