<svg xmlns="http://www.w3.org/2000/svg" viewBox="0 0 70.88 70.88"><title>feature-7</title><g id="Layer_2" data-name="Layer 2"><g id="Layer_1-2" data-name="Layer 1"><circle cx="35.44" cy="35.44" r="35.44" style="fill:#e1f3f5"/><path d="M52,43.93c.22,0,.31-.14.42-.27.62-.74,1.27-1.47,1.85-2.25a10.33,10.33,0,0,0,.86-2c.11-.24.19-.5.31-.74a1.94,1.94,0,0,1,2.46-1,1.86,1.86,0,0,1,1.17,2.35,15.48,15.48,0,0,1-1.91,4.42,26.11,26.11,0,0,0-1.48,2.27A10.39,10.39,0,0,1,51,50.91a13.3,13.3,0,0,0-3.73,2.43,2.81,2.81,0,0,0-.69,1.12c-.12.37-.22.69.18,1a1,1,0,0,1,.33.82c0,.75,0,1.5,0,2.24a1.37,1.37,0,0,1-1.46,1.37H37.44A1.42,1.42,0,0,1,36,58.42c0-.65,0-1.31,0-2a1.35,1.35,0,0,1,.64-1.25.63.63,0,0,0,.32-.66,10.39,10.39,0,0,1,1.22-4.79,5.86,5.86,0,0,1,3.74-3.11,12.46,12.46,0,0,0,5.2-3.18c.62-.55,1.26-1.07,1.89-1.61a1.84,1.84,0,0,1,3,1.94A.57.57,0,0,0,52,43.93ZM41.5,58.44l3.82,0c.21,0,.32,0,.31-.29,0-.51,0-1,0-1.53,0-.24-.11-.29-.32-.29l-3.82,0-3.8,0c-.22,0-.31.06-.3.3,0,.51,0,1,0,1.52,0,.24.09.29.31.29Zm16-19.32c-.49-.15-.65-.09-.84.45a10.17,10.17,0,0,1-2.32,4.09,9,9,0,0,0-.83,1,2,2,0,0,1-.78.61L49.78,46.6a1.25,1.25,0,0,0-.47.31c-.47.56-1,1.1-1.44,1.65s-.92.69-1.28.37-.31-.76.19-1.32l3.68-4.07c.2-.22.37-.44.11-.7s-.46-.07-.66.1c-.81.69-1.67,1.33-2.43,2.08A11,11,0,0,1,42.41,48,4.24,4.24,0,0,0,40.51,49a7.8,7.8,0,0,0-2.17,5.66c0,.24.11.25.29.24l2.29,0c1.24,0,2.48,0,3.72,0,.28,0,.35-.12.39-.35a4.43,4.43,0,0,1,1.41-2.48,14.28,14.28,0,0,1,3.7-2.39,9.36,9.36,0,0,0,4.45-3.93,15.67,15.67,0,0,1,1.19-1.83,15.88,15.88,0,0,0,1.89-4.18A.46.46,0,0,0,57.48,39.12Z" style="fill:#0a0808"/><path d="M18.94,44a2.2,2.2,0,0,1-.12-1.43,1.83,1.83,0,0,1,3-.82c1.46,1.23,2.91,2.46,4.36,3.7a1.89,1.89,0,0,0,.65.38q1.15.38,2.28.79a7,7,0,0,1,4.45,5.19A9.38,9.38,0,0,1,34,54.71a.43.43,0,0,0,.26.45,1.39,1.39,0,0,1,.7,1.27c0,.68,0,1.37,0,2.05a1.41,1.41,0,0,1-1.44,1.41H25.22a1.35,1.35,0,0,1-1.4-1.33c0-.78,0-1.56,0-2.34a1,1,0,0,1,.39-.83c.34-.22.24-.47.17-.74a3.93,3.93,0,0,0-1.73-2.14,16.22,16.22,0,0,0-2.75-1.59,11.37,11.37,0,0,1-3.66-2.68,4.72,4.72,0,0,1-.44-.56c-.68-1-1.3-2.11-2-3.11a15.87,15.87,0,0,1-2-4.5A1.87,1.87,0,0,1,13,37.72a2,2,0,0,1,2.46,1,3.29,3.29,0,0,1,.24.57A9.24,9.24,0,0,0,18,43.11C18.26,43.4,18.44,43.79,18.94,44ZM29.37,58.44c1.27,0,2.54,0,3.81,0,.26,0,.32-.1.31-.33,0-.48,0-1,0-1.43,0-.28-.09-.35-.35-.34l-3.85,0-3.72,0c-.21,0-.32,0-.31.29,0,.51,0,1,0,1.53,0,.24.09.29.31.29ZM24,47.49a6.15,6.15,0,0,1,.38.49.68.68,0,0,1-.1.95.67.67,0,0,1-.95,0,2.19,2.19,0,0,1-.36-.38,7.13,7.13,0,0,0-3.56-2.71,14.1,14.1,0,0,1-1.34-.61,1.75,1.75,0,0,1-.67-.52c-.5-.62-1-1.24-1.52-1.83A5.1,5.1,0,0,1,14.82,41c-.18-.56-.42-1.09-.64-1.63a.5.5,0,0,0-.69-.33.48.48,0,0,0-.3.69l0,.09a15.77,15.77,0,0,0,2.11,4.49,17.63,17.63,0,0,1,1.17,1.79,8.38,8.38,0,0,0,3.58,3.25,23.92,23.92,0,0,1,3.46,2,5.11,5.11,0,0,1,2.3,3.25c0,.23.14.31.38.31.73,0,1.46,0,2.19,0l3.81,0c.22,0,.3-.05.3-.29a7.1,7.1,0,0,0-.11-1.23A7.15,7.15,0,0,0,30.37,49a5.76,5.76,0,0,0-2.48-1.26A8.82,8.82,0,0,1,24,45.56c-1-.93-2-1.76-3.08-2.63-.2-.17-.42-.28-.64-.08a.39.39,0,0,0,0,.59Z" style="fill:#0a0808"/><path d="M35.44,21.66A12.09,12.09,0,1,1,23.35,33.74,12.09,12.09,0,0,1,35.44,21.66Zm0,1.44A10.64,10.64,0,1,0,46.09,33.67,10.64,10.64,0,0,0,35.42,23.1Z" style="fill:#0e0a07"/><path d="M48.38,27.08c.12-.44.26-1,.43-1.59.1-.31.1-.51-.21-.71a14.11,14.11,0,0,1-1.12-.89A1,1,0,0,1,47,22.68,1.09,1.09,0,0,1,48.17,22c.51,0,1-.06,1.53-.06a.35.35,0,0,0,.37-.28c.17-.48.34-1,.53-1.42s.54-.83,1-.82a1,1,0,0,1,1,.8c.17.48.37.94.53,1.42a.38.38,0,0,0,.41.3c.49,0,1,0,1.48.06a1.11,1.11,0,0,1,1.15.74,1.1,1.1,0,0,1-.51,1.23c-.39.29-.77.62-1.16.92a.37.37,0,0,0-.15.48c.17.54.3,1.1.45,1.65A1,1,0,0,1,54.45,28a.93.93,0,0,1-1.15.05c-.45-.29-.92-.57-1.35-.89a.51.51,0,0,0-.71,0,13.13,13.13,0,0,1-1.4.9C49.16,28.5,48.37,28,48.38,27.08Zm3.21-5.43-.43,1.13a.76.76,0,0,1-.76.53c-.38,0-.75,0-1.23.08l.92.74a.79.79,0,0,1,.32,1c-.12.37-.2.75-.31,1.18.37-.25.7-.44,1-.66a.8.8,0,0,1,1,0c.3.21.6.4.95.62a3.87,3.87,0,0,0-.24-1.06.88.88,0,0,1,.33-1c.28-.21.55-.45.89-.73-.45,0-.79-.08-1.14-.07a.84.84,0,0,1-.89-.63A4.69,4.69,0,0,0,51.59,21.65Z" style="fill:#0a0a0b"/><path d="M19.27,19.38a1,1,0,0,1,.95.66c.2.48.39,1,.55,1.46.09.27.21.42.52.42.48,0,1,0,1.43.05a1.09,1.09,0,0,1,1.1.68,1,1,0,0,1-.43,1.25,13.81,13.81,0,0,1-1.16.92.46.46,0,0,0-.19.6c.13.47.26.95.4,1.42a1,1,0,0,1-.35,1.23A1,1,0,0,1,20.81,28c-.42-.29-.86-.54-1.27-.84a.4.4,0,0,0-.55,0c-.41.29-.85.56-1.27.84a1,1,0,0,1-1.28.05,1,1,0,0,1-.35-1.23c.13-.49.24-1,.41-1.46a.39.39,0,0,0-.15-.52c-.42-.32-.82-.65-1.23-1a1,1,0,0,1-.42-1.17,1,1,0,0,1,1-.72c.52,0,1-.06,1.57-.06a.43.43,0,0,0,.46-.36c.16-.49.36-1,.55-1.46A1,1,0,0,1,19.27,19.38Zm1.49,6.86c-.05-.61-.45-1.11-.29-1.67s.83-.7,1.18-1.18a9.51,9.51,0,0,0-1-.07.88.88,0,0,1-1-.69c-.11-.32-.23-.63-.39-1-.16.43-.3.77-.42,1.11a.82.82,0,0,1-.85.61c-.36,0-.71,0-1.07.07l-.11.08a1.73,1.73,0,0,1,.93,2.73,5,5,0,0,0,.88-.52.9.9,0,0,1,1.25,0A10.17,10.17,0,0,0,20.76,26.24Z" style="fill:#0a0a0b"/><path d="M37.68,19.87a1.36,1.36,0,0,1-.82-.32c-.48-.3-.93-.87-1.44-.85s-.93.55-1.4.85a1.75,1.75,0,0,1-.64.31,1,1,0,0,1-1.13-1.37A14.68,14.68,0,0,1,32.67,17a.46.46,0,0,0-.2-.6c-.39-.3-.77-.61-1.16-.92a1,1,0,0,1-.47-1.11,1,1,0,0,1,1-.79q.78-.05,1.57-.06a.43.43,0,0,0,.48-.34c.16-.5.35-1,.54-1.47a1,1,0,0,1,2,0A9,9,0,0,1,36.89,13c.11.48.38.58.81.57s1,0,1.43.06a1,1,0,0,1,.91.78,1,1,0,0,1-.4,1.05c-.41.35-.84.68-1.27,1a.41.41,0,0,0-.17.53c.16.48.29,1,.42,1.46A1,1,0,0,1,37.68,19.87Zm-2.25-6.6c-.14.35-.29.68-.4,1a.81.81,0,0,1-.83.64c-.37,0-.74.05-1.11.08a1.83,1.83,0,0,1,.83,2.84,7.28,7.28,0,0,0,1-.58.85.85,0,0,1,1.13,0c.28.21.59.38,1,.62l-.31-1.1A.88.88,0,0,1,37,15.72c.29-.21.55-.45.86-.7-.6-.13-1.21.07-1.67-.27S35.74,13.75,35.43,13.26Z" style="fill:#0a0a0b"/><path d="M40.93,54.91l-2.29,0c-.18,0-.3,0-.29-.24A7.8,7.8,0,0,1,40.51,49,4.24,4.24,0,0,1,42.41,48,11,11,0,0,0,47.47,45c.76-.74,1.62-1.38,2.43-2.08.21-.17.43-.34.66-.1s.09.48-.11.7l-3.68,4.07c-.5.56-.56,1-.19,1.32s.8.19,1.28-.37,1-1.1,1.44-1.65a1.25,1.25,0,0,1,.47-.31l2.93-1.35a2,2,0,0,0,.78-.61,9,9,0,0,1,.83-1,10.17,10.17,0,0,0,2.32-4.09c.19-.54.35-.6.84-.45-.26.61-.5,1.23-.78,1.84a7.64,7.64,0,0,1-.83,1.65c-.56.71-1.11,1.42-1.68,2.12a10.1,10.1,0,0,1-1.82,2,36.76,36.76,0,0,1-5.73,3.18,19.66,19.66,0,0,0-4.29,2.52A3.68,3.68,0,0,0,40.93,54.91Z" style="fill:#f9ccb6"/><path d="M40.93,54.91a3.68,3.68,0,0,1,1.43-2.49,19.66,19.66,0,0,1,4.29-2.52,36.76,36.76,0,0,0,5.73-3.18,10.1,10.1,0,0,0,1.82-2c.57-.7,1.12-1.41,1.68-2.12A7.64,7.64,0,0,0,56.7,41c.27-.61.52-1.22.78-1.84a.46.46,0,0,1,.21.65,15.88,15.88,0,0,1-1.89,4.18,15.67,15.67,0,0,0-1.19,1.83,9.36,9.36,0,0,1-4.45,3.93,14.28,14.28,0,0,0-3.7,2.39A4.43,4.43,0,0,0,45,54.58c0,.23-.12.35-.39.35C43.41,54.91,42.17,54.91,40.93,54.91Z" style="fill:#ebbca6"/><path d="M41.5,58.44l-3.8,0c-.22,0-.31,0-.31-.29,0-.51,0-1,0-1.52,0-.23.08-.3.3-.3l3.8,0Z" style="fill:#82c999"/><path d="M41.5,58.44V56.38l3.82,0c.21,0,.32,0,.32.29,0,.51,0,1,0,1.53,0,.24-.1.29-.31.29Z" style="fill:#3baa8b"/><path d="M28.42,54.91c-.73,0-1.46,0-2.19,0-.24,0-.34-.08-.38-.31a5.11,5.11,0,0,0-2.3-3.25,23.92,23.92,0,0,0-3.46-2,8.38,8.38,0,0,1-3.58-3.25,17.63,17.63,0,0,0-1.17-1.79,15.77,15.77,0,0,1-2.11-4.49l0-.09a.48.48,0,0,1,.3-.69.5.5,0,0,1,.69.33c.22.54.46,1.08.64,1.63a5.1,5.1,0,0,0,1.08,1.82c.53.59,1,1.22,1.52,1.83a1.75,1.75,0,0,0,.67.52,14.1,14.1,0,0,0,1.34.61A7.13,7.13,0,0,1,23,48.53a2.19,2.19,0,0,0,.36.38.67.67,0,0,0,.95,0,.68.68,0,0,0,.1-.95,6.15,6.15,0,0,0-.38-.49c.17-.19.34,0,.47,0a5.37,5.37,0,0,1,2.32,1.88A10.09,10.09,0,0,1,28.42,54.91Z" style="fill:#f9ccb6"/><path d="M28.42,54.91a10.09,10.09,0,0,0-1.61-5.51,5.37,5.37,0,0,0-2.32-1.88c-.13-.06-.3-.23-.47,0l-3.69-4a.39.39,0,0,1,0-.59c.22-.2.44-.09.64.08,1,.88,2.1,1.7,3.08,2.63a8.82,8.82,0,0,0,3.87,2.21A5.76,5.76,0,0,1,30.37,49a7.15,7.15,0,0,1,2.06,4.38,7.1,7.1,0,0,1,.11,1.23c0,.23-.08.29-.3.29Z" style="fill:#ebbca6"/><path d="M29.28,56.38l3.85,0c.26,0,.37.07.35.34,0,.47,0,1,0,1.43,0,.24,0,.34-.31.33-1.27,0-2.54,0-3.81,0A9.1,9.1,0,0,0,29.28,56.38Z" style="fill:#3baa8b"/><path d="M29.28,56.38a9.1,9.1,0,0,1,.09,2.07l-3.82,0c-.22,0-.31,0-.31-.29,0-.51,0-1,0-1.53,0-.24.1-.29.31-.29Z" style="fill:#82c999"/><path d="M35.42,23.1A10.64,10.64,0,1,1,24.79,33.76,10.65,10.65,0,0,1,35.42,23.1ZM44.19,33c.44-.18.71-.44.61-1A9.5,9.5,0,0,0,26.11,32c-.11.6,0,.79.59,1.06q0,.71,0,1.41c-.53.18-.7.43-.63.9a9.5,9.5,0,0,0,18.7.14c.12-.61,0-.84-.58-1A2.94,2.94,0,0,0,44.19,33Z" style="fill:#f18338"/><path d="M51.59,21.65a4.69,4.69,0,0,1,.43,1,.84.84,0,0,0,.89.63c.35,0,.69,0,1.14.07-.34.28-.61.52-.89.73a.88.88,0,0,0-.33,1,3.87,3.87,0,0,1,.24,1.06c-.34-.22-.65-.41-.95-.62a.8.8,0,0,0-1,0c-.31.22-.63.42-1,.66.11-.43.19-.81.31-1.18a.79.79,0,0,0-.32-1l-.92-.74c.48,0,.85-.07,1.23-.08a.76.76,0,0,0,.76-.53Z" style="fill:#dee4ee"/><path d="M20.76,26.24a10.17,10.17,0,0,1-.87-.56.9.9,0,0,0-1.25,0,5,5,0,0,1-.88.52,1.73,1.73,0,0,0-.93-2.73l.11-.08c.36,0,.71-.07,1.07-.07a.82.82,0,0,0,.85-.61c.12-.34.25-.68.42-1.11.15.41.28.72.39,1a.88.88,0,0,0,1,.69,9.51,9.51,0,0,1,1,.07c-.35.48-1,.62-1.18,1.18S20.7,25.63,20.76,26.24Z" style="fill:#dee4ee"/><path d="M35.43,13.26c.32.49.28,1.15.74,1.49s1.08.14,1.67.27c-.3.25-.57.49-.86.7a.88.88,0,0,0-.33,1.05l.31,1.1c-.38-.24-.68-.41-1-.62a.85.85,0,0,0-1.13,0,7.28,7.28,0,0,1-1,.58A1.83,1.83,0,0,0,33.08,15c.37,0,.74-.08,1.11-.08a.81.81,0,0,0,.83-.64C35.14,13.95,35.29,13.62,35.43,13.26Z" style="fill:#dee4ee"/><path d="M26.7,34.46V33c.57,0,.76-.42.86-.92a7.64,7.64,0,0,1,2.06-3.95,7.53,7.53,0,0,1,4.82-2.4A10.8,10.8,0,0,1,37,27.72,8.77,8.77,0,0,1,35.59,41a2.85,2.85,0,0,1-1.45.68,7.32,7.32,0,0,1-3.46-1.44,7.85,7.85,0,0,1-3.13-4.92C27.45,34.84,27.27,34.46,26.7,34.46Zm8.5.43c0,.37,0,.73,0,1.1s-.1.34-.36.27a3.32,3.32,0,0,1-1.19-.68c-.38-.3-.71-.2-.89.25a.7.7,0,0,0,.21.78,2.72,2.72,0,0,0,1.82.83c.23,0,.45,0,.42.35a.29.29,0,0,0,.33.32c.22,0,.41-.1.39-.33s.18-.37.42-.44a2.43,2.43,0,0,0,.55-4.44,1.37,1.37,0,0,1-1-1.73,1.39,1.39,0,0,0,0-.19c0-1.12,0-1.12,1.07-.66.32.14.58.15.77-.19a.57.57,0,0,0-.21-.86,2.61,2.61,0,0,0-1.18-.34c-.25,0-.47,0-.47-.37,0-.2-.22-.27-.39-.27a.29.29,0,0,0-.31.3c0,.32-.15.33-.39.38a2.12,2.12,0,0,0-1.88,2A1.83,1.83,0,0,0,34.14,33C35.18,33.35,35.34,34,35.2,34.89Z" style="fill:#fbde6d"/><path d="M34.14,41.67A2.85,2.85,0,0,0,35.59,41,8.77,8.77,0,0,0,37,27.72a10.8,10.8,0,0,0-2.57-1.94,5.74,5.74,0,0,1,2.59.07,7.89,7.89,0,0,1,6.32,6.38.89.89,0,0,0,.84.82,2.94,2.94,0,0,1,0,1.41c-.57,0-.76.37-.85.85a7.7,7.7,0,0,1-2.63,4.52A7.8,7.8,0,0,1,34.14,41.67Z" style="fill:#f2b424"/><path d="M34.14,41.67a7.8,7.8,0,0,0,6.56-1.84,7.7,7.7,0,0,0,2.63-4.52c.09-.47.28-.85.85-.85.58.21.71.44.59,1a9.5,9.5,0,0,1-18.7-.14c-.08-.47.1-.72.63-.9.57,0,.75.38.84.85a7.85,7.85,0,0,0,3.13,4.92A7.32,7.32,0,0,0,34.14,41.67Z" style="fill:#110a01"/><path d="M44.19,33a.89.89,0,0,1-.84-.82A7.89,7.89,0,0,0,37,25.85a5.74,5.74,0,0,0-2.59-.07,7.53,7.53,0,0,0-4.82,2.4,7.64,7.64,0,0,0-2.06,3.95c-.09.49-.28.88-.86.92-.59-.28-.7-.47-.59-1.06a9.5,9.5,0,0,1,18.69.09C44.9,32.61,44.62,32.87,44.19,33Z" style="fill:#0f0901"/><path d="M35.2,34.89c.13-.9,0-1.54-1.07-1.87a1.83,1.83,0,0,1-1.19-2.07,2.12,2.12,0,0,1,1.88-2c.24-.05.42-.06.39-.38a.29.29,0,0,1,.31-.3c.17,0,.39.07.39.27,0,.36.22.36.47.37a2.61,2.61,0,0,1,1.18.34.57.57,0,0,1,.21.86c-.18.34-.44.33-.77.19-1.07-.46-1.07-.45-1.07.66a1.39,1.39,0,0,1,0,.19,1.37,1.37,0,0,0,1,1.73,2.43,2.43,0,0,1-.55,4.44c-.24.06-.45.1-.42.44s-.17.33-.39.33a.29.29,0,0,1-.33-.32c0-.35-.19-.32-.42-.35A2.72,2.72,0,0,1,33,36.61a.7.7,0,0,1-.21-.78c.18-.45.51-.56.89-.25a3.32,3.32,0,0,0,1.19.68c.26.07.38,0,.36-.27S35.2,35.25,35.2,34.89Zm.67,1.36c.69-.17,1-.53,1-1.11a1.3,1.3,0,0,0-1-1.29Zm-.58-4.09c0-.63,0-1.23,0-1.84,0-.25-.07-.3-.29-.25a1,1,0,0,0-.84.74.93.93,0,0,0,.43,1A1.9,1.9,0,0,0,35.29,32.16Z" style="fill:#111004"/><path d="M35.88,36.25v-2.4a1.3,1.3,0,0,1,1,1.29C36.88,35.72,36.57,36.08,35.88,36.25Z" style="fill:#f6da6c"/><path d="M35.29,32.16a1.9,1.9,0,0,1-.7-.32.93.93,0,0,1-.43-1,1,1,0,0,1,.84-.74c.22-.06.3,0,.29.25C35.28,30.93,35.29,31.53,35.29,32.16Z" style="fill:#f6da6c"/></g></g></svg>