<svg xmlns="http://www.w3.org/2000/svg" viewBox="0 0 70.88 70.88"><title>feature-6</title><g id="Layer_2" data-name="Layer 2"><g id="Layer_1-2" data-name="Layer 1"><circle cx="35.44" cy="35.44" r="35.44" style="fill:#e1f3f5"/><path d="M24.35,18.84h1.77c.15.61.31.72.95.72,3,0,5.92,0,8.87,0,.33,0,.43.07.42.41a23.79,23.79,0,0,0,.2,4.29c0,.19,0,.2-.18.2h-11a.78.78,0,0,0-.8.4c-.24.49.13,1,.74,1H36.56c.14,0,.3-.05.37.15.19.58.38,1.16.58,1.77h-12a1.6,1.6,0,0,0-.54,0,.63.63,0,0,0-.46.69.59.59,0,0,0,.56.61,4.33,4.33,0,0,0,.54,0H37.81c.17,0,.39-.08.5.11.37.63.83,1.2,1.29,1.84H31.89c-.48,0-.74.24-.75.65a.7.7,0,0,0,.72.71h8.69a.8.8,0,0,1,.62.19,30.31,30.31,0,0,0,4.2,3.13c.76.49,1.5.87,2.41.22v.53c0,5.16,0,10.32,0,15.49,0,.4-.1.48-.49.48q-8.13,0-16.25,0c-1,0-1,0-1-1,0-.51-.14-.85-.66-1V48.72A.79.79,0,0,0,30,47.8c0-.6,0-1.21,0-1.81,0-.39.12-.43.45-.43H41a.64.64,0,0,0,.64-.63.67.67,0,0,0-.6-.72,2.94,2.94,0,0,0-.41,0H30.52c-.78,0-1.57,0-2.35,0-.28,0-.37-.06-.35-.35a5.58,5.58,0,0,0,0-1c0-.42.07-.55.52-.55,4.17,0,8.33,0,12.5,0,.53,0,.84-.25.85-.68s-.3-.68-.82-.69h-.36c-4.07,0-8.15,0-12.22,0-.41,0-.51-.13-.55-.49a3.56,3.56,0,0,0-.25-1c-.19-.43,0-.48.37-.47,2.05,0,4.11,0,6.16,0a3.78,3.78,0,0,0,.45,0,.6.6,0,0,0,.56-.6.62.62,0,0,0-.46-.69,1.76,1.76,0,0,0-.58-.06H26.9a.76.76,0,0,1-.65-.3,6.36,6.36,0,0,0-3-2,11.57,11.57,0,0,0-1.78-.29c.19-.15.11-.36.11-.55q0-7.47,0-14.94h1.85C24,19.56,24.2,19.44,24.35,18.84Zm8.73,16.85h7.74a.77.77,0,0,0,.77-.36c.28-.5-.09-1-.76-1H25.4c-.56,0-.87.25-.87.68s.29.68.87.68ZM38.87,39h2c.47,0,.76-.25.78-.64a.68.68,0,0,0-.75-.72q-2,0-4.06,0a.68.68,0,0,0-.75.72c0,.4.28.63.77.64Zm-11.7-7.93h-1.9c-.46,0-.71.23-.74.62a.66.66,0,0,0,.68.73q1.92,0,3.85,0a.67.67,0,0,0,.7-.73c0-.39-.28-.62-.73-.63Z" style="fill:#dff1f9"/><path d="M21.45,35.08a11.57,11.57,0,0,1,1.78.29,6.36,6.36,0,0,1,3,2,.76.76,0,0,0,.65.3H34a1.76,1.76,0,0,1,.58.06.62.62,0,0,1,.46.69.6.6,0,0,1-.56.6A3.78,3.78,0,0,1,34,39c-2.05,0-4.11,0-6.16,0-.39,0-.55,0-.37.47a3.56,3.56,0,0,1,.25,1c0,.36.14.5.55.49,4.07,0,8.15,0,12.22,0h.36c.52,0,.83.27.82.69s-.32.67-.85.68c-4.17,0-8.33,0-12.5,0-.45,0-.57.13-.52.55a5.58,5.58,0,0,1,0,1c0,.29.08.35.35.35.78,0,1.57,0,2.35,0H40.66a2.94,2.94,0,0,1,.41,0,.67.67,0,0,1,.6.72.64.64,0,0,1-.64.63H30.43c-.33,0-.48,0-.45.43,0,.6,0,1.21,0,1.81a.79.79,0,0,1-.66.92c-.58-.17-.71-.34-.71-.93s0-1.12,0-1.67c0-.27-.1-.38-.37-.37l-11,0c-.9,0-1.81,0-2.71,0-.29,0-.41.1-.41.39q0,4.73,0,9.45c0,.29.12.4.41.4l2.71,0,11,0c.31,0,.37-.15.37-.42,0-1.37,0-2.75,0-4.12,0-.64.12-.8.71-1,.52.12.67.45.66,1,0,1,0,1,1,1q8.13,0,16.25,0c.39,0,.49-.08.49-.48,0-5.16,0-10.32,0-15.49V36c-.91.65-1.65.28-2.41-.22a30.31,30.31,0,0,1-4.2-3.13.8.8,0,0,0-.62-.19H31.85a.7.7,0,0,1-.72-.71c0-.41.28-.65.75-.65h7.72c-.47-.64-.92-1.21-1.29-1.84-.11-.19-.33-.11-.5-.11H25.63a4.33,4.33,0,0,1-.54,0,.59.59,0,0,1-.56-.61.63.63,0,0,1,.46-.69,1.6,1.6,0,0,1,.54,0h12c-.2-.61-.4-1.19-.58-1.77-.07-.21-.23-.15-.37-.15H25.33c-.62,0-1-.48-.74-1a.78.78,0,0,1,.8-.4h11c.14,0,.22,0,.18-.2a23.79,23.79,0,0,1-.2-4.29c0-.35-.09-.42-.42-.41-3,0-5.92,0-8.87,0-.64,0-.79-.12-.95-.72.12-.49.44-.65.93-.64,2.93,0,5.86,0,8.79,0,.45,0,.58-.13.52-.55a4,4,0,0,1,0-.45,1.8,1.8,0,0,1,1.13-1.83q4.2-2.06,8.37-4.18a1.85,1.85,0,0,1,1.8,0q4.19,2.11,8.39,4.19a1.78,1.78,0,0,1,1.1,1.75c0,1.86,0,3.71-.05,5.57a13.63,13.63,0,0,1-4.39,9.55,23.09,23.09,0,0,1-3.18,2.53.77.77,0,0,0-.39.73q0,8.4,0,16.8a1.41,1.41,0,0,1-.33,1.13,1.35,1.35,0,0,1-1,.33H30.51c-.4,0-.55.09-.51.51a14.36,14.36,0,0,1,0,1.45,1.56,1.56,0,0,1-1.57,1.58h-14A1.53,1.53,0,0,1,12.86,56a3.4,3.4,0,0,1,0-.54q0-4.6,0-9.19c0-1.29.56-1.87,1.86-1.88.3,0,.33-.11.33-.37,0-1,0-2,0-2.94a6,6,0,0,1,1.7-3.93,1.1,1.1,0,0,0,.32-.83Q17,28,17,19.65c0-1,.4-1.45,1.44-1.45,1.65,0,3.29,0,4.94,0a.81.81,0,0,1,.93.64c-.15.6-.31.72-.94.72H21.57c-.9,0-1.81,0-2.71,0-.38,0-.46.1-.46.47q0,7.66,0,15.32c0,.08,0,.15,0,.23s0,.27.23.17A7.11,7.11,0,0,1,21.45,35.08Zm.12,4.15a2.23,2.23,0,0,0-2.45,2.08c0,.93,0,1.87,0,2.8,0,.2,0,.29.27.29.74,0,1.47,0,2.21,0s1.27,0,1.9,0c.22,0,.28-.06.28-.28,0-.92,0-1.84,0-2.76A2.24,2.24,0,0,0,21.57,39.22ZM19.21,37a4.8,4.8,0,0,0-2.71,3.45,15.86,15.86,0,0,0-.11,3.11c0,.84,0,.84.83.79.41.1.5-.07.49-.47a26,26,0,0,1,0-2.76,3.69,3.69,0,0,1,7.35.3c0,.89,0,1.78,0,2.67,0,.18,0,.32.24.27.37-.08.79.2,1.11-.16,0,0,0,0,0,0a27.46,27.46,0,0,0-.09-3.61A5,5,0,0,0,19.21,37ZM40.3,15.54c-.73.36-1.45.73-2.19,1.07a.59.59,0,0,0-.39.62c0,1.84,0,3.68.06,5.51a12.09,12.09,0,0,0,2.14,6.42,21.7,21.7,0,0,0,6.63,5.7.35.35,0,0,0,.42,0,23.64,23.64,0,0,0,2-1.33,18.49,18.49,0,0,0,3.54-3,11.86,11.86,0,0,0,3.21-7.62c.1-1.91,0-3.83.06-5.74a.5.5,0,0,0-.32-.53L47,12.43a.51.51,0,0,0-.51,0Z" style="fill:#090a09"/><path d="M29.35,50.47c-.59.18-.71.33-.71,1,0,1.37,0,2.75,0,4.12,0,.27-.06.42-.37.42l-11,0V45.76l11,0c.27,0,.38.1.37.37,0,.56,0,1.12,0,1.67s.13.75.71.93Z" style="fill:#e1a66e"/><path d="M21.45,35.08a7.11,7.11,0,0,0-2.82.67c-.18.1-.24,0-.23-.17s0-.15,0-.23q0-7.66,0-15.32c0-.37.08-.48.46-.47.9,0,1.81,0,2.71,0q0,7.47,0,14.94C21.56,34.71,21.64,34.92,21.45,35.08Z" style="fill:#c8e9f8"/><path d="M33.09,35.69H25.4c-.57,0-.87-.23-.87-.68s.31-.68.87-.68H40.83c.67,0,1,.5.76,1a.77.77,0,0,1-.77.36Z" style="fill:#030303"/><path d="M38.87,39h-2c-.48,0-.75-.24-.77-.64a.68.68,0,0,1,.75-.72q2,0,4.06,0a.68.68,0,0,1,.75.72c0,.39-.31.63-.78.64Z" style="fill:#0f1213"/><path d="M27.17,31.06H29c.45,0,.71.23.73.63a.67.67,0,0,1-.7.73q-1.92,0-3.85,0a.66.66,0,0,1-.68-.73c0-.39.28-.61.74-.62Z" style="fill:#090a09"/><path d="M40.3,15.54l6.2-3.12a.51.51,0,0,1,.51,0l8.43,4.21a.5.5,0,0,1,.32.53c0,1.91,0,3.83-.06,5.74a11.86,11.86,0,0,1-3.21,7.62,18.49,18.49,0,0,1-3.54,3,.64.64,0,0,1-.34-.1c-.61-.43-1.25-.83-1.85-1.27a17.49,17.49,0,0,1-3.53-3.29c-.13-.16-.32-.28-.28-.53l.43.24a6.88,6.88,0,0,0,9.73-3.52c.21-.56.13-.78-.37-1.08a5.8,5.8,0,0,0,.17-1.81.76.76,0,0,0,.54-1,6.9,6.9,0,0,0-13-1.47c-.19-.13-.12-.32-.12-.49C40.31,18,40.31,16.75,40.3,15.54Z" style="fill:#f9d129"/><path d="M42.94,28.34c0,.25.16.37.28.53a17.49,17.49,0,0,0,3.53,3.29c.6.44,1.23.85,1.85,1.27a.64.64,0,0,0,.34.1,23.64,23.64,0,0,1-2,1.33.35.35,0,0,1-.42,0,21.7,21.7,0,0,1-6.63-5.7,12.09,12.09,0,0,1-2.14-6.42c-.1-1.84,0-3.68-.06-5.51a.59.59,0,0,1,.39-.62c.74-.34,1.46-.71,2.19-1.07,0,1.21,0,2.43,0,3.64,0,.17-.07.37.12.49a7,7,0,0,0,2.5,8.66Z" style="fill:#e4b622"/><path d="M17.31,45.76V56L14.6,56c-.29,0-.41-.1-.41-.4q0-4.73,0-9.45c0-.29.12-.4.41-.39C15.5,45.76,16.41,45.75,17.31,45.76Z" style="fill:#cc9466"/><path d="M19.21,37a5,5,0,0,1,7.16,3.55,27.46,27.46,0,0,1,.09,3.61s0,0,0,0c-.33.36-.75.08-1.11.16-.21,0-.24-.09-.24-.27,0-.89,0-1.78,0-2.67a3.69,3.69,0,0,0-7.35-.3,26,26,0,0,0,0,2.76c0,.4-.09.57-.49.47q0-1.35,0-2.71a5.66,5.66,0,0,1,1.72-4.21C19.07,37.33,19.23,37.23,19.21,37Z" style="fill:#3875b9"/><path d="M21.57,44.37c-.74,0-1.47,0-2.21,0-.23,0-.27-.08-.27-.29,0-.93,0-1.87,0-2.8a2.23,2.23,0,0,1,2.45-2.08Q21.57,41.8,21.57,44.37Z" style="fill:#c8e9f8"/><path d="M21.57,44.37q0-2.57,0-5.15a2.24,2.24,0,0,1,2.17,2.13c0,.92,0,1.84,0,2.76,0,.22-.06.28-.28.28C22.84,44.37,22.2,44.38,21.57,44.37Z" style="fill:#dff1f9"/><path d="M19.21,37c0,.22-.14.32-.27.44a5.66,5.66,0,0,0-1.72,4.21q0,1.35,0,2.71c-.84,0-.85,0-.83-.79a15.86,15.86,0,0,1,.11-3.11A4.8,4.8,0,0,1,19.21,37Z" style="fill:#2f68b1"/><path d="M52.9,22.17A5.8,5.8,0,0,1,52.73,24c-.52-.09-.75.22-.93.65a5.5,5.5,0,0,1-5.15,3.44.2.2,0,0,0-.24,0,.45.45,0,0,1-.31,0c0-.13-.09-.18-.18-.24a6.87,6.87,0,0,1-1.48-1.37,6,6,0,0,1-1.32-3.47,6.19,6.19,0,0,1,2.5-5.36c.17-.14.42-.18.48-.44l.45-.07c.06.07.12.07.18,0a5.48,5.48,0,0,1,5.33,4.33C52.18,21.86,52.4,22.14,52.9,22.17ZM46.41,25a.51.51,0,0,0,.44-.17c1.07-1.06,2.15-2.12,3.19-3.2a.69.69,0,0,0-.39-1.13.78.78,0,0,0-.72.3c-.75.75-1.5,1.48-2.23,2.24-.23.24-.38.3-.63,0s-.76-.78-1.15-1.16a.72.72,0,0,0-1.08-.07.69.69,0,0,0,.1,1l1.85,1.86A.72.72,0,0,0,46.41,25Z" style="fill:#5bbf90"/><path d="M46.66,28.07a5.5,5.5,0,0,0,5.15-3.44c.18-.43.4-.74.93-.65.51.3.59.52.37,1.08a6.88,6.88,0,0,1-9.73,3.52l-.43-.24a6.88,6.88,0,0,1,2.44-12.53,6.92,6.92,0,0,1,8.06,5.33.76.76,0,0,1-.54,1c-.5,0-.72-.31-.82-.79a5.48,5.48,0,0,0-5.33-4.33h-.18l-.45.07a3,3,0,0,0-.45,0,5.5,5.5,0,0,0-3.83,7.94A5.16,5.16,0,0,0,46.11,28a.45.45,0,0,0,.31,0A.24.24,0,0,0,46.66,28.07Z" style="fill:#080b02"/><path d="M46.11,28a5.16,5.16,0,0,1-4.28-2.9,5.5,5.5,0,0,1,3.83-7.94,3,3,0,0,1,.45,0c-.06.26-.31.3-.48.44a6.19,6.19,0,0,0-2.5,5.36,6,6,0,0,0,1.32,3.47,6.87,6.87,0,0,0,1.48,1.37C46,27.82,46.12,27.87,46.11,28Z" style="fill:#499971"/><path d="M46.41,25a.72.72,0,0,1-.61-.27L44,22.87a.69.69,0,0,1-.1-1,.72.72,0,0,1,1.08.07c.39.38.79.75,1.15,1.16s.4.23.63,0c.73-.76,1.49-1.5,2.23-2.24a.78.78,0,0,1,.72-.3A.69.69,0,0,1,50,21.63c-1,1.09-2.12,2.14-3.19,3.2A.51.51,0,0,1,46.41,25Z" style="fill:#031204"/><path d="M46.66,28.07a.24.24,0,0,1-.24,0A.2.2,0,0,1,46.66,28.07Z" style="fill:#47a948"/><path d="M46.57,17.05h.18C46.69,17.13,46.63,17.13,46.57,17.05Z" style="fill:#47a948"/></g></g></svg>