<svg width="104" height="112" viewBox="0 0 104 112" fill="none" xmlns="http://www.w3.org/2000/svg">
<g clip-path="url(#clip0)">
<path d="M80.8488 21.1445C81.1774 21.4749 81.1774 21.8053 81.1774 22.1357C81.1774 27.0914 81.1774 31.7168 81.1774 36.6726C74.2757 36.6726 67.0453 36.6726 60.1436 36.6726C56.8571 36.6726 54.8852 38.3245 54.8852 41.6283C45.6829 41.6283 36.4806 41.6283 27.2783 41.6283C26.9496 41.6283 26.6209 41.6283 26.6209 41.6283C25.635 41.9587 24.9777 42.2891 24.9777 43.2802C24.9777 44.6018 25.635 45.2625 27.2783 45.2625C36.4806 45.2625 46.0115 45.2625 55.2138 45.2625C55.2138 49.2271 55.2138 52.8614 55.2138 56.826C46.0115 56.826 36.8092 56.826 27.6069 56.826C27.2782 56.826 26.9496 56.826 26.6209 56.826C25.635 56.826 25.3063 57.4867 25.3063 58.1475C25.3063 59.1386 25.9636 59.7994 27.2783 59.7994C36.4806 59.7994 46.0115 59.7994 55.2138 59.7994C55.2138 61.1209 55.2138 62.4425 55.2138 64.0944C55.2138 66.7375 55.2138 69.0501 55.2138 71.6932C46.0115 71.6932 36.4806 71.6932 27.2783 71.6932C26.9496 71.6932 26.2923 71.6932 25.9636 72.0236C25.3063 72.354 24.9777 73.0147 25.3063 74.0059C25.635 74.997 26.2923 75.3274 27.2783 75.3274C36.4806 75.3274 46.0115 75.3274 55.2138 75.3274C55.2138 79.292 55.2138 82.9262 55.2138 86.8908C45.6829 86.8908 36.4806 86.8908 26.9496 86.8908C25.635 86.8908 24.9777 87.5516 24.9777 88.5428C24.9777 89.5339 25.635 90.1947 26.9496 90.1947C36.4806 90.1947 45.6829 90.1947 55.2138 90.1947C55.2138 90.8555 55.2138 91.1858 55.2138 91.8466C55.2138 96.1416 55.2138 100.767 55.2138 105.062C55.2138 106.383 55.2138 107.375 55.2138 108.696C38.1238 108.696 21.0338 108.696 3.61519 108.696C2.30058 108.696 1.31461 108.366 0.657307 107.375C0.657307 106.714 0.657307 106.053 0.657307 105.392C0 70.7021 0 36.6726 0 2.97345C0 1.65192 0 0.660767 1.31461 0.330383C1.64327 0 2.30058 0 2.62923 0C21.3625 0 40.4244 0 59.1577 0C59.4863 0 59.815 0 60.1436 0C60.1436 4.62537 60.1436 8.92035 60.1436 13.5457C60.1436 14.5369 60.1436 15.528 60.1436 16.5192C60.1436 19.1622 62.1155 21.1445 64.7448 21.1445C70.0032 21.1445 75.5903 21.1445 80.8488 21.1445ZM42.3963 30.0649C43.3823 30.0649 44.3682 30.0649 45.3542 30.0649C49.6267 30.0649 53.8992 30.0649 58.1717 30.0649C59.4863 30.0649 60.1436 29.4041 60.1436 28.0826C60.1436 27.0914 59.4863 26.4307 57.843 26.4307C47.6548 26.4307 37.1379 26.4307 26.9496 26.4307C26.6209 26.4307 26.2923 26.4307 25.9636 26.4307C24.649 26.7611 23.9917 28.0826 24.649 29.0737C24.9777 29.7345 25.635 30.0649 26.6209 30.0649C31.8794 30.0649 37.1379 30.0649 42.3963 30.0649ZM15.1181 30.0649C16.104 30.0649 17.4186 30.0649 18.4046 30.0649C19.3906 30.0649 20.0479 29.4041 20.0479 28.413C20.0479 27.4218 19.3906 26.4307 18.4046 26.4307C16.4327 26.4307 14.1321 26.4307 11.8315 26.4307C10.8456 26.4307 10.1883 27.4218 10.1883 28.413C10.1883 29.4041 10.8456 30.0649 12.1602 30.0649C13.1461 30.0649 14.1321 30.0649 15.1181 30.0649ZM15.1181 44.9322C16.104 44.9322 17.4186 44.9322 18.4046 44.9322C19.3906 44.9322 20.0479 44.6018 20.0479 43.2802C20.0479 42.2891 19.7192 41.6283 18.7333 41.2979C16.4327 40.9675 14.1321 41.2979 11.8315 41.2979C10.8456 41.2979 10.1883 42.2891 10.1883 43.2802C10.1883 44.2714 10.8456 44.9322 11.8315 44.9322C12.8175 44.9322 13.8035 44.9322 15.1181 44.9322ZM15.1181 71.3628C14.1321 71.3628 13.1461 71.3628 12.1602 71.3628C11.1742 71.3628 10.1883 72.0236 10.1883 73.0147C10.1883 74.0059 10.8456 74.6667 12.1602 74.6667C14.4608 74.6667 16.4327 74.6667 18.7333 74.6667C19.7192 74.6667 20.3765 74.0059 20.3765 73.0147C20.3765 72.0236 19.7192 71.3628 18.7333 71.3628C17.4186 71.3628 16.104 71.3628 15.1181 71.3628ZM15.1181 86.2301C14.1321 86.2301 12.8175 86.2301 11.8315 86.2301C10.8456 86.2301 10.1883 86.8909 10.1883 87.882C10.1883 88.8732 10.8456 89.5339 11.8315 89.5339C14.1321 89.5339 16.4327 89.5339 18.4046 89.5339C19.3906 89.5339 20.0479 88.8732 20.0479 87.882C20.0479 86.8909 19.7192 86.2301 18.4046 86.2301C17.4186 86.2301 16.104 86.2301 15.1181 86.2301ZM15.1181 59.7994C16.104 59.7994 17.4186 59.7994 18.4046 59.7994C19.3906 59.7994 20.0479 59.1386 20.0479 58.1475C20.0479 57.1563 19.3906 56.4956 18.4046 56.4956C16.104 56.4956 14.1321 56.4956 11.8315 56.4956C10.8456 56.4956 10.1883 57.1563 10.1883 58.1475C10.1883 59.1386 10.8456 59.7994 11.8315 59.7994C12.8175 59.7994 13.8035 59.7994 15.1181 59.7994Z" fill="#F7E07F"/>
<path d="M54.5566 104.401C54.5566 100.106 54.5566 95.4808 54.5566 91.1858C54.5566 90.525 54.5566 90.1947 54.5566 89.5339C54.5566 88.5427 54.5566 87.2212 54.5566 86.2301C54.5566 82.2655 54.5566 78.6312 54.5566 74.6666C54.5566 73.6755 54.5566 72.354 54.5566 71.3628C54.5566 68.7197 54.5566 66.407 54.5566 63.764C70.9893 63.764 87.422 63.764 103.855 63.764C103.855 76.6489 103.855 89.5339 103.855 102.419C103.855 103.08 104.183 103.74 103.855 104.401C103.526 104.732 103.526 105.062 103.197 105.392C102.211 106.714 101.225 107.705 99.5822 107.705C86.1074 107.705 72.3039 107.705 58.8291 107.705C58.1718 107.705 57.8432 107.705 57.5145 107.375C55.8713 107.044 55.2139 105.723 54.5566 104.401ZM95.3097 70.702C95.3097 69.3805 94.6524 68.7197 93.3378 68.7197C92.3518 68.7197 91.3658 68.7197 90.0512 68.7197C88.7366 68.7197 88.0793 69.7109 88.0793 70.702C88.0793 71.6932 88.0793 73.0147 88.0793 74.0059C88.0793 75.3274 88.7366 75.9882 90.0512 75.9882C91.0372 75.9882 92.3518 75.9882 93.3378 75.9882C94.6524 75.9882 95.3097 75.3274 95.3097 74.0059C95.6383 73.0147 95.3097 71.6932 95.3097 70.702ZM82.8208 98.4542C82.8208 96.8023 82.1635 96.1416 80.5203 96.1416C79.5343 96.1416 78.5484 96.1416 77.5624 96.1416C76.2478 96.1416 75.5905 96.8023 75.5905 98.1239C75.5905 99.115 75.5905 100.106 75.5905 101.428C75.5905 102.749 76.2478 103.41 77.5624 103.41C78.5484 103.41 79.5343 103.41 80.5203 103.41C81.8349 103.41 82.8208 102.749 82.8208 101.097C83.1495 100.437 82.8208 99.4454 82.8208 98.4542ZM82.8208 71.0324C82.8208 69.7109 82.1635 68.7197 80.8489 68.7197C79.863 68.7197 78.5484 68.7197 77.5624 68.7197C76.2478 68.7197 75.5905 69.7109 75.5905 70.702C75.5905 71.6932 75.5905 72.6843 75.5905 74.0059C75.5905 75.3274 76.5764 75.9882 77.891 75.9882C78.877 75.9882 79.863 75.9882 80.8489 75.9882C82.1635 75.9882 83.1495 75.3274 83.1495 73.6755C83.1495 73.0147 82.8208 72.0236 82.8208 71.0324ZM70.332 84.5781C70.332 83.2566 69.6747 82.5958 68.3601 82.5958C67.3741 82.2655 66.0595 82.5958 65.0736 82.5958C63.7589 82.5958 63.1016 83.587 63.1016 84.9085C63.1016 85.8997 63.1016 86.8908 63.1016 87.882C63.1016 89.2035 64.0876 90.1947 65.4022 90.1947C66.3882 90.1947 67.3741 90.1947 68.3601 90.1947C69.6747 90.1947 70.332 89.2035 70.6607 87.882C70.332 86.5604 70.332 85.5693 70.332 84.5781ZM82.8208 84.9085C82.8208 83.587 82.1635 82.9262 80.8489 82.5958C79.5343 82.5958 78.5484 82.2655 77.2337 82.5958C75.9191 82.9262 75.5905 83.2566 75.2618 84.5781C75.2618 85.5693 75.2618 86.5604 75.2618 87.882C75.2618 89.2035 76.2478 89.8643 77.2337 89.8643C78.2197 89.8643 79.2057 89.8643 80.1916 89.8643C81.5062 89.8643 82.4922 89.2035 82.4922 87.5516C83.1495 86.5604 82.8208 85.5693 82.8208 84.9085ZM63.1016 98.4542C63.1016 99.4454 63.1016 100.437 63.1016 101.428C63.1016 102.749 64.0876 103.41 65.4022 103.41C66.3882 103.41 67.3741 103.41 68.3601 103.41C69.6747 103.41 70.332 102.749 70.332 101.428C70.332 100.437 70.332 99.4454 70.332 98.1239C70.0034 96.8023 69.3461 96.1416 68.0314 96.1416C67.0455 96.1416 66.0595 96.1416 65.0736 96.1416C63.7589 96.4719 63.1016 96.8023 63.1016 98.4542ZM70.332 70.702C70.0034 69.3805 69.3461 68.7197 68.0314 68.3894C67.0455 68.3894 66.0595 68.3894 65.0736 68.3894C63.7589 68.3894 62.773 69.3805 62.773 70.702C62.773 71.6932 62.773 72.6843 62.773 73.6755C62.773 74.997 63.7589 75.9882 65.0736 75.9882C66.0595 75.9882 67.0455 75.9882 68.0314 75.9882C69.3461 75.9882 70.332 75.3274 70.332 73.6755C70.332 72.6843 70.332 71.6932 70.332 70.702ZM88.0793 97.4631C87.7506 98.7846 88.0793 100.437 88.0793 101.758C88.0793 102.749 89.0653 103.41 90.0512 103.41C91.0372 103.41 92.0231 103.41 93.0091 103.41C93.9951 103.41 94.981 102.749 94.981 101.758C94.981 100.437 95.3097 98.7846 94.981 97.4631C94.981 93.1681 94.981 88.8731 94.981 84.5781C94.981 83.2566 93.9951 82.5958 93.0091 82.2655C92.0231 82.2655 91.0372 82.2655 90.0512 82.2655C88.7366 82.2655 88.0793 83.2566 88.0793 84.5781C88.0793 88.8731 88.0793 93.1681 88.0793 97.4631Z" fill="#E7EBF0"/>
<path d="M103.855 64.0944C87.422 64.0944 70.9893 64.0944 54.5566 64.0944C54.5566 62.7728 54.5566 61.4513 54.5566 59.7994C54.5566 58.8082 54.5566 57.4867 54.5566 56.4956C54.5566 52.531 54.5566 48.8967 54.5566 44.9321C54.5566 43.6106 54.5566 42.6194 54.5566 41.2979C54.8853 37.9941 56.8572 36.3422 59.8151 36.3422C66.7168 36.3422 73.9472 36.3422 80.8489 36.3422C86.436 36.3422 92.3518 36.3422 97.9389 36.3422C101.225 36.3422 103.526 38.3245 103.526 41.9587C103.526 49.2271 103.855 56.4956 103.855 64.0944ZM63.1016 52.2006C63.1016 53.1917 63.1016 54.5133 63.1016 55.5044C63.1016 57.4867 63.7589 58.1475 65.7309 58.1475C74.6045 58.1475 83.8068 58.1475 92.6805 58.1475C93.0091 58.1475 93.3378 58.1475 93.6664 58.1475C94.6524 58.1475 95.3097 57.4867 95.3097 56.4956C95.3097 55.174 95.6383 53.8525 95.6383 52.531C95.6383 50.5487 95.6383 48.5664 95.6383 46.9144C95.6383 44.9321 94.981 44.2714 93.0091 44.2714C83.8068 44.2714 74.9332 44.2714 65.7309 44.2714C64.0876 44.2714 63.1016 45.2625 63.1016 46.9144C63.1016 48.5664 63.1016 50.2183 63.1016 52.2006Z" fill="#828C96"/>
<path d="M0 106.714C0.657307 107.705 1.64327 108.035 2.95788 108.035C20.0479 108.035 37.1379 108.035 54.5565 108.035C54.8852 110.018 56.1998 111.67 58.5003 112C56.5284 112 54.5565 112 52.5846 112C36.1519 112 19.7192 112 3.28654 112C0.657307 112 0 111.339 0 109.027C0 108.366 0 107.375 0 106.714Z" fill="#ECCE62"/>
<path d="M58.1719 112C56.2 111.339 54.8853 110.018 54.228 108.035C54.228 106.714 54.228 105.723 54.228 104.401C54.8853 105.723 55.5426 107.044 56.8573 107.705C57.1859 108.035 57.8432 108.035 58.1719 108.035C71.6467 108.035 85.4501 108.035 98.9249 108.035C100.568 108.035 101.883 107.044 102.54 105.723C102.869 105.392 102.869 105.062 103.197 104.732C103.197 105.723 103.197 106.714 103.197 107.705C103.197 110.348 101.225 112.33 98.2676 112.33C87.422 112.33 76.9051 112.33 66.0596 112.33C63.759 112 61.1298 112 58.1719 112Z" fill="#C8D1DB"/>
<path d="M60.1431 13.5457C60.1431 8.92035 60.1431 4.62537 60.1431 0C63.4296 3.30383 66.7161 6.27729 69.674 9.58112C71.9746 11.8938 74.2752 14.2065 76.5757 16.5192C72.3032 16.5192 68.0308 16.5192 64.0869 16.5192C63.7583 16.5192 63.4296 16.5192 63.101 16.1888C61.4577 16.1888 60.8004 15.1976 60.1431 13.5457Z" fill="#ECB85F"/>
<path d="M60.1431 13.5457C60.8004 14.8672 61.4577 16.1887 63.101 16.5191C63.4296 16.5191 63.7583 16.8495 64.0869 16.8495C68.3594 16.8495 72.6319 16.8495 76.5757 16.8495C77.8904 18.171 79.5336 19.4926 80.8482 21.1445C75.5898 21.1445 70.0027 21.1445 64.7442 21.1445C62.115 21.1445 60.1431 19.1622 60.1431 16.5191C60.1431 15.528 60.1431 14.5368 60.1431 13.5457Z" fill="#EAA94A"/>
<path d="M42.3958 30.0649C37.1373 30.0649 31.8789 30.0649 26.6204 30.0649C25.9631 30.0649 25.3058 30.0649 24.6485 29.0737C23.9912 28.0826 24.6485 26.761 25.9631 26.4307C26.2918 26.4307 26.6204 26.4307 26.9491 26.4307C37.1373 26.4307 47.6542 26.4307 57.8425 26.4307C59.4858 26.4307 60.1431 26.761 60.1431 28.0826C60.1431 29.4041 59.4858 30.0649 58.1712 30.0649C53.8987 30.0649 49.6262 30.0649 45.3537 30.0649C44.3677 30.0649 43.3817 30.0649 42.3958 30.0649Z" fill="#ECB960"/>
<path d="M54.5564 41.2979C54.5564 42.6194 54.5564 43.6106 54.5564 44.9321C45.3541 44.9321 35.8232 44.9321 26.6209 44.9321C24.9776 44.9321 24.3203 44.2714 24.3203 42.9498C24.3203 41.9587 24.9776 41.6283 25.9636 41.2979C26.2922 41.2979 26.6209 41.2979 26.6209 41.2979C36.1518 41.2979 45.3541 41.2979 54.5564 41.2979Z" fill="#ECB960"/>
<path d="M54.5564 86.23C54.5564 87.2212 54.5564 88.5427 54.5564 89.5339C45.0255 89.5339 35.8232 89.5339 26.2922 89.5339C24.9776 89.5339 24.3203 88.8731 24.3203 87.882C24.3203 86.8908 24.9776 86.23 26.2922 86.23C35.8232 86.23 45.0255 86.23 54.5564 86.23Z" fill="#ECB85F"/>
<path d="M54.5564 56.4955C54.5564 57.4867 54.5564 58.8082 54.5564 59.7994C45.3541 59.7994 35.8231 59.7994 26.6208 59.7994C25.3062 59.7994 24.6489 59.1386 24.6489 58.1475C24.6489 57.1563 24.9776 56.8259 25.9635 56.8259C26.2922 56.8259 26.6208 56.8259 26.9495 56.8259C36.1518 56.4955 45.3541 56.4955 54.5564 56.4955Z" fill="#ECB85F"/>
<path d="M54.5569 71.3629C54.5569 72.354 54.5569 73.6755 54.5569 74.6667C45.3546 74.6667 35.8237 74.6667 26.6214 74.6667C25.6354 74.6667 24.9781 74.3363 24.6494 73.3452C24.3208 72.6844 24.6494 72.0236 25.3067 71.3629C25.6354 71.0325 25.9641 71.0325 26.6214 71.0325C35.8237 71.3629 45.026 71.3629 54.5569 71.3629Z" fill="#ECB85F"/>
<path d="M15.1178 30.0649C14.1319 30.0649 12.8173 30.0649 11.8313 30.0649C10.8453 30.0649 9.85938 29.4041 9.85938 28.413C10.188 27.4218 10.8453 26.4307 11.8313 26.4307C14.1319 26.4307 16.4324 26.4307 18.4044 26.4307C19.3903 26.4307 20.0476 27.0914 20.0476 28.413C20.0476 29.4041 19.3903 30.0649 18.4044 30.0649C17.4184 30.0649 16.1038 30.0649 15.1178 30.0649Z" fill="#ECB960"/>
<path d="M15.1183 44.9322C14.1323 44.9322 13.1464 44.9322 11.8317 44.9322C10.8458 44.9322 10.1885 44.2714 10.1885 43.2803C10.1885 42.2891 10.8458 41.298 11.8317 41.298C14.1323 41.298 16.4329 40.9676 18.7335 41.298C19.7194 41.298 20.0481 41.9587 20.0481 43.2803C20.0481 44.2714 19.3908 44.6018 18.4048 44.9322C17.4189 44.9322 16.1042 44.9322 15.1183 44.9322Z" fill="#ECB960"/>
<path d="M15.1178 71.3628C16.1038 71.3628 17.4184 71.3628 18.4044 71.3628C19.3903 71.3628 20.0476 72.0236 20.0476 73.0147C20.0476 74.0059 19.3903 74.6666 18.4044 74.6666C16.1038 74.6666 14.1319 74.6666 11.8313 74.6666C10.8453 74.6666 10.188 74.0059 9.85938 73.0147C9.85938 72.0236 10.5167 71.3628 11.8313 71.3628C13.1459 71.3628 14.1319 71.3628 15.1178 71.3628Z" fill="#ECB85F"/>
<path d="M15.1187 86.23C16.4333 86.23 17.4193 86.23 18.7339 86.23C19.7199 86.23 20.3772 86.8908 20.3772 87.882C20.3772 88.8731 19.7199 89.5339 18.7339 89.5339C16.4333 89.5339 14.1328 89.5339 12.1608 89.5339C11.1749 89.5339 10.5176 88.8731 10.5176 87.882C10.5176 86.8908 11.1749 86.23 12.1608 86.23C12.8182 86.23 14.1328 86.23 15.1187 86.23Z" fill="#ECB85F"/>
<path d="M15.1183 59.7994C14.1323 59.7994 13.1464 59.7994 11.8317 59.7994C10.8458 59.7994 10.1885 59.1386 10.1885 58.1475C10.1885 57.1563 10.8458 56.4955 11.8317 56.4955C14.1323 56.4955 16.1042 56.4955 18.4048 56.4955C19.7194 56.4955 20.0481 57.1563 20.0481 58.1475C20.0481 59.1386 19.3908 59.7994 18.4048 59.7994C17.0902 59.7994 16.1042 59.7994 15.1183 59.7994Z" fill="#ECB85F"/>
<path d="M88.0786 97.4631C88.0786 93.1682 88.0786 88.8732 88.0786 84.5782C88.0786 83.2567 89.0646 82.5959 90.0505 82.2655C91.0365 82.2655 92.0225 82.2655 93.0084 82.2655C94.323 82.2655 94.9803 83.2567 94.9803 84.5782C94.9803 88.8732 94.9803 93.1682 94.9803 97.4631C94.6517 98.7847 93.9944 99.4454 92.6798 99.4454C91.6938 99.4454 90.7078 99.4454 90.0505 99.4454C89.3932 99.4454 88.4073 98.7847 88.0786 97.4631Z" fill="#DD4B56"/>
<path d="M88.0786 97.4631C88.4073 98.7847 89.0646 99.4454 90.3792 99.4454C91.3652 99.4454 92.3511 99.4454 93.0084 99.4454C94.323 99.4454 94.9803 98.4543 95.309 97.4631C95.6376 98.7847 95.309 100.437 95.309 101.758C95.309 102.749 94.323 103.41 93.3371 103.41C92.3511 103.41 91.3652 103.41 90.3792 103.41C89.3932 103.41 88.4073 102.749 88.4073 101.758C88.0786 100.437 88.0786 98.7847 88.0786 97.4631Z" fill="#D8333E"/>
<path d="M70.332 70.7021C70.332 71.6933 70.332 72.6844 70.332 73.6756C70.332 74.9971 69.346 75.9883 68.0314 75.9883C67.0455 75.9883 66.0595 75.9883 65.0735 75.9883C63.7589 75.9883 62.7729 75.3275 62.7729 73.6756C62.7729 72.6844 62.7729 71.6933 62.7729 70.7021C63.4303 70.7021 63.7589 71.6933 64.4162 71.6933C66.7168 72.0237 68.6887 72.6845 70.332 70.7021Z" fill="#606C77"/>
<path d="M70.3324 98.4542C70.3324 99.4454 70.3324 100.437 70.3324 101.758C70.3324 103.08 69.6751 103.74 68.3605 103.74C67.3745 103.74 66.3886 103.74 65.4026 103.74C64.088 103.74 63.1021 103.08 63.1021 101.758C63.1021 100.767 63.1021 99.7758 63.1021 98.7846C64.4167 99.7758 65.7313 99.7758 67.3745 99.7758C68.6892 99.7758 69.6751 99.4454 70.3324 98.4542Z" fill="#606C77"/>
<path d="M82.8207 84.9086C82.8207 85.8997 82.8207 86.8909 82.8207 87.882C82.8207 89.2036 81.8348 90.1947 80.5201 90.1947C79.5342 90.1947 78.5482 90.1947 77.5623 90.1947C76.2476 90.1947 75.5903 89.5339 75.5903 88.2124C75.5903 87.2213 75.5903 86.2301 75.5903 84.9086C76.2476 85.8997 77.5623 86.2301 78.5482 86.2301C80.1915 85.8997 81.8348 85.8997 82.8207 84.9086Z" fill="#606C77"/>
<path d="M70.332 84.5781C70.332 85.5693 70.332 86.5604 70.332 87.5516C70.332 88.8731 69.6747 89.8643 68.0314 89.8643C67.0455 89.8643 66.0595 89.8643 65.0735 89.8643C63.7589 89.8643 62.7729 89.2035 62.7729 87.5516C62.7729 86.5604 62.7729 85.5693 62.7729 84.5781C62.7729 84.5781 63.1016 84.5781 63.1016 84.9085C65.4022 86.5604 68.6887 86.23 70.332 84.5781Z" fill="#606C77"/>
<path d="M82.8203 71.0325C82.8203 72.0236 82.8203 73.0148 82.8203 74.0059C82.8203 75.3275 81.8343 76.3186 80.5197 76.3186C79.5337 76.3186 78.5478 76.3186 77.5618 76.3186C76.2472 76.3186 75.5899 75.6578 75.2612 74.3363C75.2612 73.3452 75.2612 72.354 75.2612 71.0325C75.9185 72.0236 77.2331 72.354 78.2191 72.354C80.191 72.0236 81.8343 72.0236 82.8203 71.0325Z" fill="#606C77"/>
<path d="M82.8207 98.4542C82.8207 99.4454 82.8207 100.437 82.8207 101.428C82.8207 102.749 81.8348 103.74 80.5201 103.74C79.5342 103.74 78.5482 103.74 77.5623 103.74C76.2476 103.74 75.5903 103.08 75.5903 101.758C75.5903 100.767 75.5903 99.7758 75.5903 98.4542C76.2476 99.4454 77.2336 99.7758 78.2196 99.7758C79.8628 99.4454 81.5061 99.7758 82.8207 98.4542Z" fill="#606C77"/>
<path d="M95.309 70.7021C95.309 71.6933 95.309 73.0148 95.309 74.006C95.309 75.3275 94.6517 75.9883 93.3371 75.9883C92.3511 75.9883 91.0365 75.9883 90.0505 75.9883C88.7359 75.9883 88.0786 75.3275 88.0786 74.006C88.0786 73.0148 88.0786 71.6933 88.0786 70.7021C88.7359 71.3629 89.3932 72.0237 90.7078 72.0237C91.3652 72.0237 92.0225 72.0237 92.6798 72.0237C93.9944 72.0237 94.6517 71.6933 95.309 70.7021Z" fill="#606C77"/>
<path d="M95.31 70.702C94.6527 71.6932 93.6668 72.0236 92.3521 72.0236C91.6948 72.0236 91.0375 72.0236 90.3802 72.0236C89.3942 72.0236 88.4083 71.3628 87.751 70.702C87.751 69.3805 88.4083 68.7197 89.7229 68.7197C90.7089 68.7197 91.6948 68.7197 93.0094 68.7197C94.6527 68.7197 95.31 69.3805 95.31 70.702Z" fill="#848E98"/>
<path d="M82.8207 71.0324C81.5061 72.0236 80.1915 72.0236 78.5482 72.0236C77.2336 72.0236 76.2476 71.6932 75.5903 70.702C75.5903 69.3805 76.2476 68.7197 77.5623 68.7197C78.5482 68.7197 79.8628 68.7197 80.8488 68.7197C82.1634 68.7197 82.8207 69.3805 82.8207 71.0324Z" fill="#828C96"/>
<path d="M70.3322 70.702C68.689 72.6843 66.7171 72.0235 64.7451 72.0235C64.0878 72.0235 63.7592 71.0324 63.1019 71.0324C62.7732 69.7109 64.0878 68.7197 65.4024 68.7197C66.3884 68.7197 67.3744 68.7197 68.3603 68.7197C69.6749 68.7197 70.3322 69.3805 70.3322 70.702Z" fill="#828C96"/>
<path d="M82.8212 84.9085C81.8352 85.8996 80.1919 85.8996 78.8773 85.8996C77.5627 85.8996 76.5767 85.5693 75.9194 84.5781C75.9194 83.2566 76.5767 82.5958 77.8914 82.5958C79.206 82.2654 80.1919 82.2654 81.5065 82.5958C82.1639 82.5958 82.8212 83.2566 82.8212 84.9085Z" fill="#818B96"/>
<path d="M70.3324 84.5782C68.6892 86.2301 65.4026 86.5605 63.4307 84.9086C63.4307 84.9086 63.1021 84.9086 63.1021 84.5782C63.1021 83.2567 63.7594 82.2655 65.074 82.2655C66.0599 82.2655 67.3745 82.2655 68.3605 82.2655C69.6751 82.5959 70.3324 83.2567 70.3324 84.5782Z" fill="#818B96"/>
<path d="M70.3324 98.4543C69.6751 99.4454 68.6892 99.7758 67.3745 99.7758C65.7313 99.7758 64.4167 99.7758 63.1021 98.7847C63.1021 97.1327 63.7594 96.472 65.4026 96.472C66.3886 96.472 67.3745 96.472 68.3605 96.472C69.6751 96.472 70.0038 96.8024 70.3324 98.4543Z" fill="#818B96"/>
<path d="M82.8207 98.4542C81.5061 99.7757 79.8628 99.4454 78.2196 99.4454C77.2336 99.4454 76.2476 99.115 75.5903 98.1238C75.5903 96.8023 76.2476 96.1415 77.5623 96.1415C78.5482 96.1415 79.5342 96.1415 80.5201 96.1415C82.1634 96.4719 82.8207 97.1327 82.8207 98.4542Z" fill="#818B96"/>
<path d="M63.1021 52.2006C63.1021 50.5487 63.1021 48.5664 63.1021 46.9145C63.1021 45.2626 64.088 44.2714 65.7313 44.2714C74.9336 44.2714 83.8072 44.2714 93.0095 44.2714C94.9814 44.2714 95.6388 44.9322 95.6388 46.9145C95.6388 48.8968 95.6388 50.8791 95.6388 52.531C94.9815 53.8525 93.6668 54.1829 92.3522 54.1829C83.8072 54.1829 74.9336 54.1829 66.3886 54.1829C64.088 54.1829 63.7594 53.8525 63.1021 52.2006Z" fill="#B6DA9E"/>
<path d="M63.1021 52.2006C63.7594 54.1829 64.088 54.5132 66.3886 54.5132C74.9336 54.5132 83.8072 54.5132 92.3522 54.5132C93.9955 54.5132 94.9815 54.1829 95.6388 52.8613C95.9674 54.1829 95.6388 55.5044 95.3101 56.8259C95.3101 57.8171 94.6528 58.4778 93.6668 58.4778C93.3382 58.4778 93.0095 58.4778 92.6809 58.4778C83.8072 58.4778 74.6049 58.4778 65.7313 58.4778C63.7594 58.4778 63.1021 57.8171 63.1021 55.8348C63.1021 54.5132 63.1021 53.1917 63.1021 52.2006Z" fill="#98D0A3"/>
</g>
<defs>
<clipPath id="clip0">
<rect width="103.855" height="112" fill="white"/>
</clipPath>
</defs>
</svg>
