<svg width="112" height="112" viewBox="0 0 112 112" fill="none" xmlns="http://www.w3.org/2000/svg">
<g clip-path="url(#clip0)">
<path d="M84.8383 80.479C84.8383 89.5329 84.8383 98.5868 84.8383 107.641C84.8383 110.659 83.497 112.335 80.1437 112.335C54.994 112.335 29.509 112.335 4.35928 112.335C1.34132 112 0 110.323 0 107.305C0 75.4491 0 43.9282 0 12.0719C0 9.0539 1.34132 7.37726 4.69461 7.37726C10.3952 7.37726 15.7605 7.37726 21.4611 7.37726C21.4611 10.0599 21.4611 12.4072 21.4611 15.0898C17.4371 15.0898 13.4132 15.0898 9.38922 15.0898C8.0479 15.4252 7.71258 15.7605 7.71258 16.7665C7.71258 45.2695 7.71258 74.1078 7.71258 102.611C7.71258 103.617 8.0479 103.952 9.05389 103.952C31.1856 103.952 53.6527 103.952 75.7844 103.952C77.1258 103.952 77.1258 103.617 77.1258 102.611C77.1258 93.5569 77.1258 84.503 77.1258 75.4491C79.4731 77.7964 82.1557 79.1377 84.8383 80.479Z" fill="#2F68B2"/>
<path d="M84.8383 80.479C82.1556 79.1377 79.473 77.7963 77.1257 75.7844C73.7724 73.4371 71.4251 70.4191 69.0778 67.4011C68.4071 66.0598 67.4011 64.7185 66.7305 63.7125C66.0598 62.3712 65.7245 61.0299 65.0538 60.0239C64.7185 58.6826 64.0478 57.3413 63.7125 55.9999C63.3772 54.6586 63.3772 53.3173 62.7065 51.976C62.3712 50.6347 62.3712 49.2934 62.0359 48.2874C62.0359 46.9461 62.0359 45.6047 61.7005 44.2634C61.3652 42.5868 62.0359 41.9161 63.7125 41.2455C64.0478 40.9101 64.3832 40.9101 64.7185 40.5748C65.3892 40.2395 66.0598 39.9041 66.7305 39.5688C70.4191 37.2215 74.1077 35.2095 77.461 32.8622C78.1317 32.8622 78.467 32.5269 78.8023 32.1916C80.8143 30.8503 83.1616 29.8443 85.1736 28.1676C86.8502 26.8263 87.8562 27.8323 89.1975 28.503C96.2394 32.8622 103.281 37.2215 110.659 41.5808C111.665 42.2514 112 42.9221 112 44.2634C111.665 53.6526 108.982 62.3712 103.281 69.7484C99.2574 74.7784 93.8921 78.8023 87.8562 81.1496C86.5149 81.1496 85.8442 80.479 84.8383 80.479ZM103.952 47.2814C103.952 46.6107 103.281 46.2754 102.946 45.9401C97.9161 42.9221 92.8862 39.9041 87.8562 36.8862C87.1856 36.2155 86.5149 36.5509 85.5089 36.8862C80.479 39.9041 75.449 43.2574 70.0838 46.2754C69.4131 46.6107 69.4131 46.9461 69.4131 47.6167C70.0838 51.3053 70.7544 54.994 72.4311 58.6826C75.449 64.7185 79.8083 69.0778 85.5089 72.4311C86.1796 72.7664 86.8502 72.7664 87.5209 72.4311C92.8862 69.4131 97.2454 65.0538 100.263 59.6886C102.275 55.6646 103.617 51.6407 103.952 47.2814Z" fill="#FCD30E"/>
<path d="M21.126 15.4252C21.126 12.7425 21.126 10.3952 21.126 7.71258C21.4613 5.36527 22.8026 4.02395 25.1499 4.02395C27.1619 4.02395 29.5092 4.02395 31.5212 4.02395C32.1918 4.02395 32.5272 4.02395 32.5272 3.01796C33.5332 1.00599 34.8745 0 36.8865 0C40.5751 0 44.2637 0 47.9523 0C49.9643 0 51.3056 1.00599 51.9763 3.01796C52.3116 3.68862 52.3116 4.02395 52.9823 4.02395C54.9942 4.02395 57.3415 4.02395 59.3535 4.02395C61.7008 4.02395 63.3775 5.36527 63.3775 7.71258C63.3775 10.3952 63.3775 12.7425 63.3775 15.4252C63.3775 16.0958 63.3775 17.1018 63.3775 17.7725C63.3775 18.7784 63.0421 19.1138 62.0362 19.1138C49.629 19.1138 37.2218 19.1138 24.8146 19.1138C23.8086 19.1138 22.8026 19.1138 22.132 19.1138C21.4613 19.1138 21.126 18.7784 21.126 18.1078C21.126 17.4371 21.126 16.4311 21.126 15.4252Z" fill="#5BBF90"/>
<path d="M63.7126 15.4251C63.7126 12.7425 63.7126 10.3952 63.7126 7.71252C69.4132 7.71252 75.1138 7.71252 80.4791 7.71252C83.4971 7.71252 84.8384 9.38917 84.8384 12.0718C84.8384 17.4371 84.8384 22.8023 84.8384 27.8323C82.8264 29.5089 80.4791 30.5149 78.4671 31.8562C78.1318 32.1916 77.7965 32.5269 77.1258 32.5269C77.1258 27.1616 77.1258 21.7964 77.1258 16.4311C77.1258 15.4251 76.7905 15.4251 76.1198 15.4251C72.0959 15.4251 67.7366 15.4251 63.7126 15.4251Z" fill="#4894D0"/>
<path d="M63.7125 15.4251C67.7365 15.4251 72.0958 15.4251 76.1197 15.4251C77.1257 15.4251 77.1257 15.7604 77.1257 16.4311C77.1257 21.7964 77.1257 27.1616 77.1257 32.5269C73.7724 34.8742 70.0838 36.8862 66.3952 39.2335C65.7245 39.5688 65.0538 39.9041 64.3832 40.2395C54.6586 40.2395 44.5988 40.2395 34.8742 40.2395C34.2035 40.2395 33.1976 40.2395 32.5269 40.2395C31.5209 40.2395 30.8503 41.2455 30.8503 42.2515C30.8503 43.2574 31.5209 43.9281 32.5269 44.2634C32.8622 44.2634 33.1976 44.2634 33.5329 44.2634C42.9221 44.2634 52.3113 44.2634 61.7005 44.2634C61.7005 45.6047 61.7006 46.9461 62.0359 48.2874C52.3113 48.2874 42.9221 48.2874 33.1976 48.2874C31.8562 48.2874 30.8503 48.958 30.8503 50.2994C30.8503 51.3053 31.5209 52.3113 32.8622 52.3113C42.5868 52.3113 52.6467 52.3113 62.3712 52.3113C62.7065 53.6526 63.0419 54.994 63.3772 56.3353C54.3233 56.3353 45.6047 56.3353 36.5509 56.3353C35.2095 56.3353 33.8682 56.3353 32.5269 56.3353C31.5209 56.3353 30.5149 57.3413 30.5149 58.3473C30.5149 59.3532 31.1856 60.0239 32.1916 60.3592C32.5269 60.3592 32.8622 60.3592 33.1976 60.3592C43.5928 60.3592 53.988 60.3592 64.3832 60.3592C65.0538 61.7005 65.3892 63.0419 66.0598 64.0479C54.994 64.0479 43.5928 64.0479 32.5269 64.0479C31.1856 64.0479 30.1796 64.7185 30.1796 66.0598C30.1796 67.4011 30.8503 68.0718 32.1916 68.0718C44.2634 68.0718 56.3353 68.0718 68.0718 68.0718C70.4191 71.0898 73.1018 74.1077 76.1197 76.455C76.1197 85.5089 76.1197 94.5628 76.1197 103.617C76.1197 104.623 75.7844 104.958 74.7784 104.958C52.6467 104.958 30.1796 104.958 8.04786 104.958C6.70654 104.958 6.70654 104.623 6.70654 103.617C6.70654 75.1137 6.70654 46.2754 6.70654 17.7724C6.70654 16.4311 7.04187 16.4311 8.04786 16.4311C12.0718 16.4311 16.0958 16.4311 20.1197 16.4311C20.1197 17.4371 20.1197 18.4431 20.1197 19.4491C20.1197 20.1197 20.455 20.455 21.1257 20.455C22.1317 20.455 23.1377 20.455 23.8083 20.455C36.2155 20.455 48.6227 20.455 61.0299 20.455C62.3712 20.455 62.7065 20.1197 62.3712 19.1137C63.7125 17.1018 63.7125 16.0958 63.7125 15.4251ZM42.5868 36.5509C51.3053 36.5509 60.0239 36.5509 68.7425 36.5509C69.0778 36.5509 69.4131 36.5509 69.7485 36.5509C70.7544 36.2155 71.4251 35.8802 71.4251 34.8742C71.4251 33.8682 70.7544 33.1976 69.7485 32.8622C69.4131 32.8622 69.0778 32.8622 68.7425 32.8622C51.3053 32.8622 33.5329 32.8622 16.0958 32.8622C15.7604 32.8622 15.4251 32.8622 15.0898 32.8622C14.0838 33.1976 13.4131 33.5329 13.4131 34.5389C13.4131 35.5449 14.0838 36.2155 15.0898 36.5509C15.4251 36.5509 15.7604 36.5509 16.0958 36.5509C24.8143 36.5509 33.5329 36.5509 42.5868 36.5509ZM42.5868 25.1497C33.8682 25.1497 25.1497 25.1497 16.4311 25.1497C16.0958 25.1497 15.7604 25.1497 15.4251 25.1497C14.0838 25.485 13.4131 25.8203 13.4131 26.8263C13.4131 27.8323 14.0838 28.503 15.0898 28.8383C15.4251 28.8383 15.7604 28.8383 16.0958 28.8383C33.5329 28.8383 51.3053 28.8383 68.7425 28.8383C69.0778 28.8383 69.4131 28.8383 69.7485 28.8383C70.7544 28.503 71.4251 28.1676 71.4251 27.1616C71.4251 26.1556 70.7544 25.485 69.7485 25.1497C69.4131 25.1497 69.0778 25.1497 68.7425 25.1497C60.0239 25.1497 51.3053 25.1497 42.5868 25.1497ZM51.3053 82.8263C53.6526 82.8263 56 82.8263 58.3473 82.8263C62.0359 82.8263 65.7245 82.8263 69.4131 82.8263C71.0898 82.8263 72.0958 81.485 71.4251 80.1437C71.0898 79.1377 70.0838 79.1377 69.4131 79.1377C60.0239 79.1377 50.97 79.1377 41.5808 79.1377C38.8982 79.1377 36.2155 79.1377 33.5329 79.1377C32.5269 79.1377 31.5209 79.473 31.5209 80.8143C31.1856 82.1556 32.1916 83.1616 33.8682 83.1616C39.2335 83.1616 45.2694 82.8263 51.3053 82.8263ZM51.3053 71.4251C45.2694 71.4251 39.5688 71.4251 33.5329 71.4251C31.8562 71.4251 31.1856 72.0958 31.1856 73.4371C31.1856 74.7784 31.8562 75.449 33.5329 75.449C45.2694 75.449 57.3413 75.449 69.0778 75.449C70.7544 75.449 71.4251 74.7784 71.4251 73.4371C71.4251 72.0958 70.7544 71.4251 69.0778 71.4251C63.0419 71.4251 57.0059 71.4251 51.3053 71.4251ZM52.982 94.5628C57.0059 94.5628 61.0299 94.5628 65.0538 94.5628C66.7305 94.5628 67.4012 93.8922 67.4012 92.5508C67.4012 91.2095 66.7305 90.5389 65.0538 90.5389C57.0059 90.5389 48.958 90.5389 40.9101 90.5389C39.2335 90.5389 38.5628 91.2095 38.5628 92.5508C38.5628 93.8922 39.2335 94.5628 40.9101 94.5628C44.9341 94.5628 48.958 94.5628 52.982 94.5628ZM25.1497 77.1257C25.1497 75.7844 25.8203 74.1077 24.8143 73.4371C24.1437 72.7664 22.467 73.1017 21.1257 73.1017C19.7844 73.1017 18.1077 72.4311 17.4371 73.4371C16.7664 74.1077 17.1018 75.7844 17.1018 77.1257C17.1018 78.467 16.4311 80.1437 17.4371 80.8143C18.1077 81.485 19.7844 81.1496 21.1257 81.1496C22.467 81.1496 24.1437 81.8203 24.8143 80.8143C25.485 80.1437 25.1497 78.467 25.1497 77.1257ZM25.1497 61.7005C25.1497 60.3592 25.485 58.6826 25.1497 58.0119C24.479 57.3413 22.8024 57.6766 21.461 57.6766C20.1197 57.6766 18.4431 57.3413 17.7724 58.0119C16.7664 58.6826 17.4371 60.3592 17.4371 61.7005C17.4371 63.0419 17.1018 64.7185 17.7724 65.3892C18.4431 66.0598 20.1197 65.7245 21.461 65.7245C22.8024 65.7245 24.479 66.0598 25.1497 65.3892C25.485 64.7185 24.8143 63.0419 25.1497 61.7005ZM21.461 42.5868C20.455 42.5868 19.4491 42.5868 18.1077 42.5868C17.4371 42.5868 17.4371 42.9221 17.4371 43.2574C17.4371 45.2694 17.4371 47.2814 17.4371 49.6287C17.4371 50.2994 17.7724 50.2994 18.1077 50.2994C20.1197 50.2994 22.1317 50.2994 24.479 50.2994C25.1497 50.2994 25.1497 49.964 25.1497 49.6287C25.1497 48.6227 25.1497 47.6167 25.1497 46.2754C25.1497 44.9341 25.8203 43.2574 24.8143 42.5868C24.1437 41.9161 22.467 42.5868 21.461 42.5868Z" fill="#92BBC6"/>
<path d="M103.952 47.2815C103.617 51.6407 102.275 55.6647 100.263 59.3533C97.2454 65.0539 93.2215 69.0779 87.5209 72.0958C86.8502 72.4312 86.1796 72.4312 85.5089 72.0958C79.8083 68.7425 75.449 64.3832 72.431 58.3473C70.7544 54.994 69.7484 51.3054 69.4131 47.2815C69.4131 46.6108 69.4131 46.2755 70.0837 45.9401C75.1137 42.9222 80.1436 39.5689 85.5089 36.5509C86.1796 35.8802 86.8502 35.8802 87.8562 36.5509C92.8861 39.5689 97.9161 42.5868 102.946 45.6048C103.281 46.2755 104.287 46.2755 103.952 47.2815ZM96.5748 50.2994C96.5748 49.6288 96.2394 48.9581 95.2334 48.6228C94.2275 48.2874 93.5568 48.6228 92.8861 49.2934C90.5388 51.3054 88.5269 53.6527 86.1796 56C84.5029 57.6767 84.5029 57.6767 83.1616 56C82.8263 55.6647 82.4909 55.3294 82.4909 55.3294C81.4849 54.3234 80.479 54.3234 79.473 55.3294C78.8023 56 78.8023 57.3413 79.8083 58.3473C80.8143 59.6886 82.1556 60.6946 83.1616 61.7006C84.1676 62.7066 85.1736 62.7066 86.1796 61.7006C89.1975 58.6826 92.2155 55.6647 95.2334 52.6467C96.2394 51.3054 96.5748 50.9701 96.5748 50.2994Z" fill="#E9EDF1"/>
<path d="M69.078 67.4013C57.0061 67.4013 44.9343 67.4013 33.1978 67.4013C31.8564 67.4013 31.1858 66.7306 31.1858 65.3893C31.1858 64.048 31.8564 63.3773 33.5331 63.3773C44.599 63.3773 56.0002 63.3773 67.066 63.3773C67.4014 65.054 68.072 66.3953 69.078 67.4013Z" fill="#DBDDDF"/>
<path d="M64.7184 59.6886C54.3232 59.6886 43.9279 59.6886 33.5327 59.6886C33.1974 59.6886 32.8621 59.6886 32.5267 59.6886C31.5208 59.6886 30.8501 58.6826 30.8501 57.6766C30.8501 56.6706 31.5208 55.6646 32.8621 55.6646C34.2034 55.6646 35.5447 55.6646 36.886 55.6646C45.9399 55.6646 54.6585 55.6646 63.7124 55.6646C64.0477 57.3413 64.383 58.6826 64.7184 59.6886Z" fill="#DBDDDF"/>
<path d="M61.7004 44.2634C52.3112 44.2634 42.922 44.2634 33.5327 44.2634C33.1974 44.2634 32.8621 44.2634 32.5267 44.2634C31.5208 43.9281 30.8501 43.5928 30.8501 42.2515C30.8501 41.2455 31.5208 40.2395 32.5267 40.2395C33.1974 40.2395 34.2034 40.2395 34.874 40.2395C44.5986 40.2395 54.6585 40.2395 64.383 40.2395C64.0477 40.5748 63.7124 40.9102 63.377 40.9102C62.3711 41.9161 61.3651 42.9221 61.7004 44.2634Z" fill="#DBDDDF"/>
<path d="M62.3711 51.976C52.6465 51.976 42.5866 51.976 32.8621 51.976C31.5208 51.976 30.8501 51.3054 30.8501 49.9641C30.8501 48.6227 31.5208 47.9521 33.1974 47.9521C42.922 47.9521 52.3112 47.9521 62.0357 47.9521C62.0357 49.6287 62.3711 50.97 62.3711 51.976Z" fill="#DBDDDF"/>
<path d="M42.5867 36.5509C33.8681 36.5509 25.1496 36.5509 16.431 36.5509C16.0957 36.5509 15.7603 36.5509 15.425 36.5509C14.419 36.5509 13.7484 35.5449 13.7484 34.5389C13.413 33.5329 14.0837 33.1976 15.0897 32.8622C15.425 32.8622 15.7603 32.8622 16.0957 32.8622C33.5328 32.8622 51.3053 32.8622 68.7424 32.8622C69.0777 32.8622 69.413 32.8622 69.7484 32.8622C70.7544 32.8622 71.425 33.8682 71.425 34.8742C71.425 35.8802 70.7544 36.5509 69.7484 36.5509C69.413 36.5509 69.0777 36.5509 68.7424 36.5509C60.0238 36.5509 51.3053 36.5509 42.5867 36.5509Z" fill="#DBDDDF"/>
<path d="M42.5867 25.1497C51.3053 25.1497 60.0239 25.1497 68.7424 25.1497C69.0778 25.1497 69.4131 25.1497 69.7484 25.1497C70.7544 25.1497 71.4251 26.1557 71.4251 27.1617C71.4251 28.1677 70.7544 28.8383 69.7484 28.8383C69.4131 28.8383 69.0778 28.8383 68.7424 28.8383C51.3053 28.8383 33.5328 28.8383 16.0957 28.8383C15.7604 28.8383 15.4251 28.8383 15.0897 28.8383C14.0837 28.8383 13.4131 27.8324 13.4131 26.8264C13.4131 25.8204 14.0837 25.1497 15.0897 25.1497C15.4251 25.1497 15.7604 25.1497 16.0957 25.1497C24.8143 25.1497 33.8682 25.1497 42.5867 25.1497Z" fill="#DBDDDF"/>
<path d="M51.3052 82.8263C45.2693 82.8263 39.2333 82.8263 33.1974 82.8263C31.5208 82.8263 30.8501 81.8204 30.8501 80.4791C31.1854 79.4731 31.8561 78.8024 32.8621 78.8024C35.5447 78.8024 38.2273 78.8024 40.91 78.8024C50.2992 78.8024 59.3531 78.8024 68.7423 78.8024C69.7483 78.8024 70.419 78.8024 70.7543 79.8084C71.4249 81.1497 70.419 82.491 68.7423 82.491C65.0537 82.491 61.3651 82.491 57.6764 82.491C55.9998 82.8263 53.6525 82.8263 51.3052 82.8263Z" fill="#DBDDDF"/>
<path d="M51.3056 71.4251C57.3415 71.4251 63.0421 71.4251 69.078 71.4251C70.7547 71.4251 71.4253 72.0958 71.4253 73.4371C71.4253 74.7784 70.4193 75.4491 69.078 75.4491C57.3415 75.4491 45.2696 75.4491 33.5331 75.4491C31.8564 75.4491 31.1858 74.7784 31.1858 73.4371C31.1858 72.0958 32.1918 71.4251 33.5331 71.4251C39.2337 71.4251 45.2696 71.4251 51.3056 71.4251Z" fill="#DBDDDF"/>
<path d="M52.9822 94.5629C48.9582 94.5629 44.9342 94.5629 40.9103 94.5629C39.2336 94.5629 38.563 93.8922 38.563 92.5509C38.563 91.2096 39.2336 90.5389 40.9103 90.5389C48.9582 90.5389 57.0061 90.5389 65.054 90.5389C66.7307 90.5389 67.4013 91.2096 67.4013 92.5509C67.4013 93.8922 66.7307 94.5629 65.054 94.5629C61.0301 94.5629 57.0061 94.5629 52.9822 94.5629Z" fill="#DBDDDF"/>
<path d="M25.1498 77.1258C25.1498 78.4671 25.4852 80.1438 25.1498 80.8144C24.4792 81.4851 22.8025 81.1497 21.4612 81.1497C20.1199 81.1497 18.4432 81.4851 17.7726 80.8144C16.7666 80.1438 17.4373 78.4671 17.4373 77.1258C17.4373 75.7845 17.1019 74.1078 17.7726 73.4372C18.4432 72.7665 20.1199 73.1018 21.4612 73.1018C22.8025 73.1018 24.4792 72.7665 25.1498 73.4372C25.4852 74.1078 24.8145 75.7845 25.1498 77.1258Z" fill="#F1572D"/>
<path d="M25.1497 61.7006C25.1497 63.042 25.8204 64.7186 24.8144 65.3893C24.1437 66.0599 22.4671 65.7246 21.1258 65.7246C19.7844 65.7246 18.1078 66.3952 17.4371 65.3893C16.7665 64.7186 17.1018 63.042 17.1018 61.7006C17.1018 60.3593 16.4311 58.6827 17.4371 58.012C18.1078 57.3414 19.7844 57.6767 21.1258 57.6767C22.4671 57.6767 24.1437 57.006 24.8144 58.012C25.485 59.018 25.1497 60.3593 25.1497 61.7006Z" fill="#F1572D"/>
<path d="M21.461 42.5869C22.8023 42.5869 24.1436 42.2516 24.8143 42.5869C25.4849 43.2576 25.1496 44.9342 25.1496 46.2755C25.1496 47.2815 25.1496 48.2875 25.1496 49.6288C25.1496 50.2995 24.8143 50.2995 24.4789 50.2995C22.467 50.2995 20.455 50.2995 18.1077 50.2995C17.437 50.2995 17.437 49.9641 17.437 49.6288C17.437 47.6168 17.437 45.6049 17.437 43.2576C17.437 42.5869 17.7723 42.5869 18.1077 42.5869C19.1137 42.5869 20.1196 42.5869 21.461 42.5869Z" fill="#F1572D"/>
<path d="M96.5746 50.2994C96.5746 50.97 96.2392 51.6407 95.9039 51.976C92.886 54.994 89.868 58.0119 86.85 61.0299C85.844 62.0359 84.838 62.0359 83.8321 61.0299C82.4907 60.0239 81.4848 58.6826 80.4788 57.6766C79.4728 56.6706 79.4728 55.6646 80.1434 54.6586C80.8141 53.988 82.1554 53.988 83.1614 54.6586C83.4967 54.994 83.8321 55.3293 83.8321 55.3293C85.5087 57.0059 85.5087 57.0059 86.85 55.3293C89.1973 52.982 91.2093 50.97 93.5566 48.6227C94.2273 47.952 94.8979 47.6167 95.9039 47.952C95.9039 48.6227 96.5746 49.2934 96.5746 50.2994Z" fill="#F1572D"/>
</g>
<defs>
<clipPath id="clip0">
<rect width="112" height="112" fill="white"/>
</clipPath>
</defs>
</svg>
