<svg width="113" height="112" viewBox="0 0 113 112" fill="none" xmlns="http://www.w3.org/2000/svg">
<g clip-path="url(#clip0)">
<path d="M58.3396 104.556C58.0043 104.556 58.0043 104.556 57.669 104.556C57.669 104.217 57.3337 104.217 56.9984 104.217C55.9926 104.217 54.9867 103.879 53.6456 103.879C50.9633 103.541 48.281 103.541 45.934 102.864C39.2283 101.172 33.8637 97.7885 29.1697 92.713C25.4816 88.6525 23.1346 84.2537 21.7935 79.1782C21.4582 77.4864 21.1229 75.7945 20.7876 73.7643C25.1463 71.0574 29.8403 69.3655 34.5343 68.012C38.5577 66.9969 42.5811 66.6586 46.6046 66.6586C55.322 66.6586 64.0394 66.6586 72.7568 66.6586C77.4508 66.6586 80.1331 68.6888 80.8037 73.4259C81.139 74.4411 81.139 74.1027 81.8095 74.1027C85.4977 72.4108 89.5211 70.719 93.2092 69.3655C93.8798 69.0272 94.2151 68.6888 94.5504 68.012C95.5562 65.6435 96.8974 63.6133 97.9032 61.2447C98.5738 59.8912 99.2444 58.8761 99.5797 57.5226C99.9149 56.8459 99.5797 56.1691 99.9149 55.4924C100.586 55.4924 100.921 55.4924 101.591 54.8157C103.268 53.4622 105.615 53.1238 107.626 54.1389C109.638 55.154 110.309 57.5226 109.973 59.5528C109.303 64.6284 108.297 69.7039 106.285 74.4411C104.609 78.5015 102.262 82.5619 99.2444 86.284C94.8857 92.0362 89.5211 96.0966 83.1507 99.4803C78.1214 101.849 73.0921 103.541 67.7276 104.217C65.0453 104.556 62.363 104.556 59.3454 104.556C59.0101 104.217 58.6748 104.217 58.3396 104.556ZM59.0101 85.6072C63.7041 85.6072 68.3981 85.6072 73.0921 85.6072C77.4508 85.6072 81.139 82.9003 82.1448 78.8398C82.4801 77.4864 83.1507 76.1329 81.4742 75.1178C80.8037 74.7794 80.4684 74.441 80.4684 75.4562C79.7978 77.4864 78.4567 79.1782 76.7803 80.5317C75.4391 81.5468 73.7627 82.2235 72.0863 82.2235C63.3688 82.2235 54.3161 82.2235 45.5987 82.2235C42.9164 82.2235 42.9164 82.2235 42.9164 84.9305C42.9164 85.9456 43.2517 85.9456 43.9223 85.9456C49.2869 85.6072 54.3161 85.6072 59.0101 85.6072Z" fill="#FEE5D0"/>
<path d="M17.0996 104.556C17.0996 106.248 17.0996 108.278 17.0996 109.97C17.0996 111.662 16.4291 112.338 14.7526 112.338C11.0645 112.338 7.71165 112.338 4.02351 112.338C2.34708 112.338 1.67651 111.662 1.67651 109.97C1.67651 96.4351 1.67651 82.562 1.67651 69.0272C1.67651 67.3354 2.34708 66.6586 4.02351 66.6586C7.71165 66.6586 11.0645 66.6586 14.7526 66.6586C16.4291 66.6586 17.0996 67.3354 17.0996 69.0272C17.0996 71.3958 17.0996 73.7644 17.0996 76.1329C17.0996 85.2689 17.0996 95.0816 17.0996 104.556ZM7.37636 76.8097C7.37636 77.1481 7.37636 77.4864 7.37636 77.4864C7.37636 78.8399 8.04693 79.5166 9.38808 79.5166C10.3939 79.5166 11.0645 78.8399 11.0645 77.4864C11.0645 76.8097 11.0645 76.1329 11.0645 75.4562C11.0645 74.4411 10.0586 73.7644 9.05279 73.7644C8.04693 73.7644 7.37636 74.4411 7.04108 75.4562C7.37636 76.1329 7.37636 76.4713 7.37636 76.8097Z" fill="#2F68B2"/>
<path d="M62.0277 26.7311C62.0277 19.6254 62.0277 12.5196 62.0277 5.4139C62.0277 4.39879 62.363 4.06042 63.3688 4.06042C68.7334 4.06042 74.0979 4.06042 79.7978 4.06042C80.8036 4.06042 81.1389 4.39879 81.1389 5.4139C81.1389 12.858 81.1389 19.9638 81.1389 27.4079C80.4683 27.0695 80.1331 27.4079 79.7978 27.7462C78.1213 29.0997 76.7802 30.7915 75.1038 32.145C73.4274 32.145 73.4274 32.145 73.0921 33.8369C73.0921 34.1752 73.0921 34.1752 73.0921 34.5136C72.0862 34.852 71.7509 35.5287 71.0804 36.2054C69.4039 37.8973 67.3922 39.5891 65.7158 41.6193C66.7217 41.6193 67.3922 41.6193 68.0628 41.6193C69.0687 41.6193 69.4039 41.9577 69.4039 42.9728C69.4039 47.71 69.4039 52.4471 69.4039 56.8459C66.7217 56.8459 64.3747 56.8459 61.6924 56.8459C62.0277 47.0332 62.0277 36.8822 62.0277 26.7311ZM69.7392 34.1752C69.7392 33.8369 69.7392 33.4985 69.7392 33.1601C69.7392 32.4834 69.7392 32.145 68.7334 32.145C68.0628 32.145 67.7275 32.145 67.7275 33.1601C67.7275 33.8369 67.7275 34.5136 67.7275 35.1903C67.7275 35.8671 67.7275 36.2054 68.7334 36.2054C69.4039 36.2054 69.7392 35.8671 69.7392 35.1903C69.7392 34.852 69.7392 34.5136 69.7392 34.1752ZM73.4274 26.3928C73.4274 26.7311 73.4274 27.0695 73.4274 27.4079C73.4274 28.0846 73.4274 28.423 74.4332 28.423C75.1038 28.423 75.4391 28.423 75.4391 27.4079C75.4391 26.7311 75.4391 26.0544 75.4391 25.3776C75.4391 24.7009 75.4391 24.3625 74.4332 24.3625C73.7626 24.3625 73.4274 24.7009 73.4274 25.3776C73.4274 26.0544 73.4274 26.3928 73.4274 26.3928ZM69.7392 26.7311C69.7392 26.3928 69.7392 26.3928 69.7392 26.0544C69.7392 25.3776 70.0745 24.7009 68.7334 24.7009C67.3922 24.7009 67.7275 25.3776 67.7275 26.0544C67.7275 26.3928 67.7275 27.0695 67.7275 27.4079C67.7275 28.0846 67.7275 28.423 68.7334 28.423C69.7392 28.423 69.7392 28.0846 69.7392 27.4079C69.7392 27.0695 69.7392 26.7311 69.7392 26.7311ZM73.4274 18.9486C73.4274 19.287 73.4274 19.6254 73.4274 19.9637C73.4274 20.6405 73.4274 20.6405 74.0979 20.6405C75.1038 20.6405 75.4391 20.3021 75.1038 19.6254C75.1038 18.9486 75.1038 18.6103 75.1038 17.9335C75.1038 17.2568 75.1038 16.9184 74.0979 16.9184C73.4274 16.9184 73.0921 17.2568 73.0921 17.9335C73.4274 18.2719 73.4274 18.6103 73.4274 18.9486ZM69.7392 18.9486C69.7392 18.6103 69.7392 18.6103 69.7392 18.2719C69.7392 17.5952 70.0745 16.9184 68.7334 16.9184C67.7275 16.9184 67.7275 17.5952 67.7275 18.2719C67.7275 18.9486 67.7275 19.287 67.7275 19.9637C67.7275 20.6405 67.7275 20.9789 68.7334 20.9789C69.4039 20.9789 69.7392 20.6405 69.7392 19.9637C69.7392 19.6254 69.7392 19.287 69.7392 18.9486ZM75.4391 11.5045C75.4391 11.1662 75.4391 11.1662 75.4391 10.8278C75.4391 10.1511 75.7744 9.47432 74.4332 9.47432C73.0921 9.47432 73.4274 10.1511 73.4274 10.8278C73.4274 11.1662 73.4274 11.8429 73.4274 12.1813C73.4274 12.858 73.4274 13.1964 74.4332 13.1964C75.4391 13.1964 75.4391 12.858 75.4391 12.1813C75.4391 11.8429 75.4391 11.8429 75.4391 11.5045ZM69.7392 11.5045C69.7392 11.1662 69.7392 11.1662 69.7392 10.8278C69.7392 10.1511 70.0745 9.47432 68.7334 9.47432C67.7275 9.47432 67.7275 10.1511 67.7275 10.8278C67.7275 11.5045 67.7275 11.8429 67.7275 12.5196C67.7275 13.1964 67.7275 13.5347 68.7334 13.5347C69.4039 13.5347 69.7392 13.1964 69.7392 12.5196C69.7392 12.1813 69.7392 11.8429 69.7392 11.5045Z" fill="#CCE6F7"/>
<path d="M47.2752 6.09062C48.2811 5.41388 49.2869 5.07551 50.2928 4.39877C50.9633 4.0604 51.6339 4.0604 51.9692 4.73714C52.3045 5.41388 52.6398 5.75225 52.3045 6.42898C50.6281 10.151 49.2869 14.2115 47.6105 17.9335C47.2752 18.6103 47.2752 18.9486 47.9458 19.6254C49.9575 21.6556 51.2986 24.0242 52.3045 26.3927C50.2928 26.3927 48.2811 26.3927 45.9341 26.3927C45.2635 26.3927 44.9282 26.7311 44.9282 27.4078C44.9282 29.7764 44.9282 32.145 44.9282 34.1752C44.5929 33.8368 44.5929 33.1601 44.2576 32.8217C42.9165 29.7764 40.9048 27.0695 38.5578 25.0393C34.5344 21.6556 30.1757 19.9637 25.1464 18.9486C24.4758 18.9486 24.4758 18.9486 24.1405 19.287C22.1288 22.6707 20.4524 26.3927 19.4465 30.4532C18.1054 34.5136 18.4407 38.9124 18.4407 42.9728C18.4407 48.7251 22.7994 53.1239 28.1639 53.1239C33.5285 53.1239 39.2284 53.1239 44.5929 53.1239C44.5929 54.4773 44.5929 55.4924 44.5929 56.8459C37.8872 56.8459 31.5168 56.8459 24.8111 56.8459C22.1288 56.8459 20.1171 56.5075 18.1054 54.8157C16.429 53.1239 15.0878 51.432 14.7525 48.7251C14.4172 47.3716 14.7525 45.6797 14.7525 43.9879C14.4172 36.2054 17.0995 29.0997 20.7877 22.3323C21.4582 20.9788 22.4641 19.6254 23.4699 18.9486C24.4758 18.2719 23.1347 17.9335 23.4699 17.2568C23.8052 17.2568 23.8052 17.2568 24.1405 17.2568C30.5109 15.9033 36.5461 13.8731 41.9106 10.151C43.9224 9.13593 45.9341 8.12083 47.2752 6.09062C46.9399 6.09062 46.9399 6.09062 47.2752 6.09062Z" fill="#E3AA26"/>
<path d="M17.0994 104.556C17.0994 95.0816 17.0994 85.2689 17.0994 75.7946C18.4405 75.1178 19.4464 74.4411 20.7875 73.7643C21.1228 75.4562 21.4581 77.148 21.7934 79.1782C23.1345 84.2538 25.4815 88.9909 29.1696 92.713C33.8636 97.7885 39.2282 101.172 45.9339 102.864C48.6162 103.541 51.2985 103.541 53.6455 103.879C54.6513 103.879 55.6572 104.218 56.9983 104.218C57.3336 104.218 57.6689 104.218 57.6689 104.556C44.2575 104.556 30.5108 104.556 17.0994 104.556Z" fill="#F5DCC7"/>
<path d="M18.776 55.1541C20.7877 56.5075 23.1347 57.1843 25.4817 57.1843C32.1874 57.1843 38.5578 57.1843 45.2635 57.1843C48.9517 57.1843 52.9751 57.1843 56.6632 57.1843C58.675 57.1843 60.3514 57.1843 62.3631 57.1843C65.0454 57.1843 67.3924 57.1843 70.0747 57.1843C72.4217 57.1843 75.1039 57.1843 77.4509 57.1843C80.1332 57.1843 82.4802 57.1843 85.1625 57.1843C87.5095 57.1843 90.1918 57.1843 92.5388 57.1843C94.8858 57.1843 97.5681 57.1843 99.915 57.1843C99.5798 58.5377 98.9092 59.5528 98.2386 60.9063C71.4158 60.9063 44.593 60.9063 17.7702 60.9063C14.7526 60.9063 12.7409 59.2145 12.0703 56.5075C11.735 55.1541 11.735 55.1541 13.0762 55.1541C14.4173 55.1541 16.429 55.1541 18.776 55.1541Z" fill="#E8E5E0"/>
<path d="M56.6634 56.8459C52.9752 56.8459 48.9518 56.8459 45.2637 56.8459C45.2637 55.4924 45.2637 54.4773 45.2637 53.1238C45.2637 46.6948 45.2637 40.6042 45.2637 34.1752C45.2637 31.8066 45.2637 29.438 45.2637 27.4078C45.2637 26.7311 45.599 26.3927 46.2695 26.3927C48.2812 26.3927 50.293 26.3927 52.6399 26.3927C53.9811 26.3927 55.3222 26.3927 56.6634 26.3927C56.6634 28.4229 56.6634 30.1148 56.6634 32.145C56.6634 33.4984 56.6634 34.5135 56.6634 35.867C56.6634 37.2205 56.6634 38.574 56.6634 39.5891C56.6634 40.9425 56.6634 41.9577 56.6634 43.3111C56.6634 44.6646 56.6634 46.0181 56.6634 47.0332C56.6634 48.3867 56.6634 49.4018 56.6634 50.7552C56.6634 53.1238 56.6634 55.154 56.6634 56.8459ZM52.6399 49.4018C52.6399 49.0634 52.6399 49.0634 52.6399 48.725C52.6399 48.0483 52.9752 47.3716 51.6341 47.3716C50.6282 47.3716 50.6282 48.0483 50.6282 48.725C50.6282 49.4018 50.6282 49.7401 50.6282 50.4169C50.6282 51.0936 50.6282 51.432 51.6341 51.432C52.3047 51.432 52.6399 51.0936 52.6399 50.4169C52.6399 50.0785 52.6399 49.7401 52.6399 49.4018ZM50.9635 41.9577C50.9635 42.296 50.9635 42.6344 50.9635 42.9728C50.9635 43.6495 50.9635 43.9879 51.9694 43.9879C52.6399 43.9879 52.9752 43.9879 52.9752 42.9728C52.9752 42.296 52.9752 41.6193 52.9752 40.9426C52.9752 40.2658 52.9752 39.9274 51.9694 39.9274C51.2988 39.9274 50.9635 40.2658 50.9635 40.9426C50.9635 41.2809 50.9635 41.6193 50.9635 41.9577ZM52.6399 34.1752C52.6399 33.8368 52.6399 33.4984 52.6399 33.1601C52.6399 32.4833 52.3047 32.145 51.6341 32.145C50.9635 32.145 50.6282 32.145 50.6282 32.8217C50.6282 33.4984 50.6282 34.1752 50.6282 34.8519C50.6282 35.5287 50.9635 35.867 51.6341 35.867C52.3047 35.867 52.6399 35.5287 52.6399 34.8519C52.6399 34.8519 52.6399 34.5135 52.6399 34.1752Z" fill="#CCE6F8"/>
<path d="M99.5797 57.1843C97.2327 57.1843 94.5504 57.1843 92.2034 57.1843C92.2034 54.4774 92.2034 51.7705 92.2034 49.0635C92.2034 48.0484 91.8681 47.71 90.8623 47.71C89.1858 47.71 87.5094 47.71 85.833 47.71C84.8271 47.71 84.4918 48.0484 84.4918 49.0635C84.4918 51.7705 84.4918 54.4774 84.4918 57.1843C81.8096 57.1843 79.4626 57.1843 76.7803 57.1843C76.7803 52.1088 76.7803 47.0333 76.7803 41.9578C84.1566 41.9578 91.8681 41.9578 99.2444 41.9578C99.2444 46.3566 99.2444 50.7553 99.2444 55.1541C99.5797 55.8309 99.915 56.5076 99.5797 57.1843Z" fill="#CCE6F8"/>
<path d="M46.94 6.09073C45.5989 7.78257 43.9224 9.13604 42.246 10.4895C36.8814 14.2116 30.8463 16.2418 24.4759 17.5953C24.1406 17.5953 24.1406 17.5953 23.8053 17.5953C21.7936 14.2116 20.1172 10.4895 18.1055 7.10583C17.7702 6.42909 17.7702 6.09073 18.1055 5.41399C18.4408 4.73725 19.1113 4.73725 19.7819 5.07562C21.4583 5.41399 22.7995 5.75236 24.4759 6.4291C25.4817 6.76746 26.4876 6.76746 27.4935 5.75236C28.164 4.73725 29.1699 3.72215 30.1757 2.70704C31.1816 1.69193 31.8522 1.69193 32.858 3.04541C33.5286 3.72215 33.8639 4.73725 34.5344 5.41399C35.205 6.4291 36.2109 6.4291 37.2167 5.75236C38.2226 4.73725 39.2284 3.72215 39.899 3.04541C40.9049 2.0303 41.5754 2.36867 42.246 3.04541C42.9166 3.38378 43.5872 4.39888 44.2577 5.07562C45.2636 6.76746 45.5989 6.76746 46.94 6.09073Z" fill="#FEBF14"/>
<path d="M99.9148 41.9578C92.5385 41.9578 84.827 41.9578 77.4507 41.9578C76.1095 41.9578 75.1037 41.9578 73.7625 41.9578C73.7625 41.9578 73.7625 41.6194 73.4272 41.6194C75.7742 39.2508 78.4565 36.5439 80.8035 34.1753C83.1505 31.8067 85.4975 29.7765 87.5092 27.4079C87.8445 27.0696 88.1798 26.7312 88.8504 27.4079C93.5444 32.1451 98.5736 37.2206 103.603 42.2961C102.262 41.9578 100.921 41.9578 99.9148 41.9578Z" fill="#E3AA28"/>
<path d="M81.139 34.1753C78.792 36.5439 76.1097 39.2508 73.7627 41.6194C73.7627 41.6194 73.7627 41.9578 74.098 41.9578C75.4391 41.9578 76.445 41.9578 77.7861 41.9578C77.7861 47.0333 77.7861 52.1088 77.7861 57.1844C75.4391 57.1844 72.7568 57.1844 70.4098 57.1844C70.4098 52.4472 70.4098 47.7101 70.4098 43.3113C70.4098 42.2962 70.0745 41.9578 69.0687 41.9578C68.3981 41.9578 67.7275 41.9578 66.7217 41.9578C68.7334 39.9276 70.4098 38.2357 72.0862 36.5439C72.7568 35.8672 73.0921 35.1904 74.098 34.852V35.1904C74.098 36.2055 74.4332 36.2055 75.1038 36.2055C76.1097 36.2055 75.7744 35.5288 75.7744 35.1904C75.7744 34.1753 75.7744 33.4986 75.7744 32.4835C77.4508 31.13 78.792 29.4382 80.4684 28.0847C80.1331 27.4079 80.4684 27.0696 81.139 26.7312C81.139 29.0998 81.139 31.8067 81.139 34.1753Z" fill="#A9C6E8"/>
<path d="M56.6631 47.7099C56.6631 46.3565 56.6631 45.003 56.6631 43.9879C58.6748 43.9879 58.6748 43.9879 58.6748 42.296C58.6748 41.9577 58.6748 41.9577 58.6748 41.6193C59.0101 40.6042 58.3395 40.2658 57.3337 40.2658C56.9984 40.2658 56.9984 40.2658 56.6631 40.2658C56.6631 38.9124 56.6631 37.5589 56.6631 36.5438C58.6748 36.5438 58.6748 36.5438 58.6748 34.8519C58.6748 34.5136 58.6748 34.5136 58.6748 34.1752C59.0101 33.1601 58.3395 32.8217 57.3337 32.8217C56.9984 32.8217 56.9984 32.8217 56.6631 32.8217C56.6631 30.7915 56.6631 29.0997 56.6631 27.0695C58.6748 27.0695 60.3512 27.0695 62.3629 27.0695C62.3629 37.2205 62.3629 47.3716 62.3629 57.5226C60.3512 57.5226 58.6748 57.5226 56.6631 57.5226C56.6631 55.4924 56.6631 53.8006 56.6631 51.7704C58.6748 51.7704 58.6748 51.7704 58.6748 50.0785C58.6748 49.7402 58.6748 49.7402 58.6748 49.4018C59.0101 48.3867 58.3395 48.0483 57.3337 48.0483C56.9984 47.7099 56.6631 47.3716 56.6631 47.7099Z" fill="#A9C6E8"/>
<path d="M7.37588 20.9789C7.37588 21.6556 7.37588 21.994 7.37588 22.6707C7.37588 24.7009 7.37588 24.7009 5.36417 24.7009C3.68774 24.7009 3.68774 24.7009 3.68774 23.0091C3.68774 22.3324 3.68774 21.6556 3.68774 20.9789C5.02889 20.9789 6.37003 20.9789 7.37588 20.9789Z" fill="#FEBE12"/>
<path d="M99.9148 20.9789C99.9148 23.0091 99.9148 23.0091 97.5678 23.0091C95.8914 23.0091 95.8914 23.0091 95.8914 20.6405C95.8914 19.2871 95.8914 19.2871 98.2384 19.2871C99.9148 18.9487 99.9148 18.9487 99.9148 20.9789Z" fill="#FEBE12"/>
<path d="M3.68797 34.1753C3.68797 35.8671 3.68797 35.8671 1.67626 35.8671C-0.335449 35.8671 -0.335449 35.8671 -0.335449 33.8369C-0.335449 31.8067 -0.335449 31.8067 1.34098 31.8067C3.68797 32.1451 3.68797 32.1451 3.68797 34.1753Z" fill="#FEBE12"/>
<path d="M7.37622 17.2567C8.04679 17.2567 8.38208 17.2567 9.05265 17.2567C11.0644 17.2567 11.0644 17.2567 11.0644 19.2869C11.0644 20.9788 11.0644 20.9788 9.38793 20.9788C8.71736 20.9788 8.04679 20.9788 7.37622 20.9788C7.37622 19.6253 7.37622 18.2718 7.37622 17.2567Z" fill="#FEBE12"/>
<path d="M3.68814 20.9789C3.01757 20.9789 2.68228 20.9789 2.01171 20.9789C0 20.9789 0 20.9789 0 18.6103C0 16.9185 0 16.9185 1.67643 16.9185C2.347 16.9185 3.01757 16.9185 3.68814 16.9185C3.68814 18.2719 3.68814 19.6254 3.68814 20.9789Z" fill="#FEBE12"/>
<path d="M112.991 15.2266C112.991 16.9185 112.991 16.9185 111.314 16.9185C109.303 16.9185 109.303 16.9185 109.303 14.8883C109.303 14.5499 109.303 14.5499 109.303 14.2115C109.303 13.5348 109.638 13.1964 110.309 13.1964C110.644 13.1964 110.979 13.1964 110.979 13.1964C112.991 13.1964 112.991 13.1964 112.991 15.2266Z" fill="#FEBE12"/>
<path d="M3.68774 17.2568C3.68774 16.58 3.68774 16.2417 3.68774 15.5649C3.68774 13.5347 3.68774 13.5347 5.69946 13.5347C7.37588 13.5347 7.37588 13.5347 7.37588 15.2266C7.37588 15.9033 7.37588 16.58 7.37588 17.2568C6.37003 17.2568 5.02889 17.2568 3.68774 17.2568Z" fill="#FEBE12"/>
<path d="M103.603 7.44415C103.603 8.12089 103.603 8.45926 103.603 9.136C103.603 11.1662 103.603 11.1662 101.591 11.1662C99.9146 11.1662 99.9146 11.1662 99.9146 9.47436C99.9146 8.79763 99.9146 8.12089 99.9146 7.44415C100.92 7.44415 102.262 7.44415 103.603 7.44415Z" fill="#FEBE12"/>
<path d="M103.603 3.72198C104.274 3.72198 104.609 3.72198 105.279 3.72198C107.291 3.72198 107.291 3.72198 107.291 5.7522C107.291 7.44404 107.291 7.44404 105.615 7.44404C104.944 7.44404 104.274 7.44404 103.603 7.44404C103.603 6.42893 103.603 5.07546 103.603 3.72198Z" fill="#FEBE12"/>
<path d="M99.9149 7.44404C99.2444 7.44404 98.9091 7.44404 98.2385 7.44404C96.2268 7.44404 96.2268 7.44404 96.2268 5.41383C96.2268 3.72198 96.2268 3.72198 97.9032 3.72198C98.5738 3.72198 99.2444 3.72198 99.9149 3.72198C99.9149 5.07546 99.9149 6.42893 99.9149 7.44404Z" fill="#FEBE12"/>
<path d="M99.9146 3.72205C99.9146 3.04532 99.9146 2.70695 99.9146 2.03021C99.9146 0 99.9146 0 101.926 0C103.603 0 103.603 0 103.603 1.69184C103.603 2.36858 103.603 3.04532 103.603 3.72205C102.262 3.72205 100.92 3.72205 99.9146 3.72205Z" fill="#FEBE12"/>
<path d="M11.3993 2.03021C11.3993 3.72205 11.3993 3.72205 9.05226 3.72205C7.71112 3.72205 7.71112 3.72205 7.71112 1.35347C7.37583 0 7.37583 0 10.0581 0C11.3993 0 11.3993 0 11.3993 2.03021Z" fill="#FEBE12"/>
<path d="M58.3394 104.556C58.6746 104.218 59.0099 104.218 59.3452 104.556C59.0099 104.556 58.6746 104.556 58.3394 104.556Z" fill="#F5DCC7"/>
<path d="M59.0101 85.6072C53.9808 85.6072 49.2868 85.6072 44.2576 85.6072C43.2517 85.6072 43.2517 85.2689 43.2517 84.5921C43.2517 81.8852 43.2517 81.8852 45.934 81.8852C54.6514 81.8852 63.7041 81.8852 72.4215 81.8852C74.098 81.8852 75.7744 81.2085 77.1155 80.1933C78.792 78.8399 80.1331 77.4864 80.8037 75.1178C81.1389 74.4411 81.1389 74.4411 81.8095 74.7794C83.1507 75.7946 82.8154 77.148 82.4801 78.5015C81.4742 82.5619 77.4508 85.2689 73.4274 85.2689C68.7334 85.6072 64.0394 85.6072 59.0101 85.6072Z" fill="#F5DCC7"/>
<path d="M7.37622 76.8097C7.37622 76.4714 7.37622 76.133 7.37622 75.7946C7.37622 74.7795 8.38208 74.1028 9.38793 74.1028C10.3938 74.1028 11.0644 74.7795 11.3996 75.7946C11.3996 76.4714 11.3996 77.1481 11.3996 77.8248C11.3996 79.1783 10.7291 79.8551 9.72322 79.8551C8.71736 79.8551 7.71151 79.1783 7.71151 77.8248C7.37622 77.4865 7.37622 77.1481 7.37622 76.8097Z" fill="#F6F8FC"/>
<path d="M75.4393 32.4834C75.4393 33.4985 75.4393 34.1752 75.4393 35.1903C75.4393 35.867 75.4393 36.2054 74.7688 36.2054C73.7629 36.2054 73.4276 35.867 73.7629 35.1903V34.8519C73.7629 34.5136 73.7629 34.5136 73.7629 34.1752C73.4276 32.145 73.4276 32.145 75.4393 32.4834Z" fill="#2F68B2"/>
<path d="M69.7392 34.1753C69.7392 34.5137 69.7392 34.852 69.7392 34.852C69.7392 35.5288 69.7392 35.8671 68.7334 35.8671C68.0628 35.8671 67.7275 35.5288 67.7275 34.852C67.7275 34.1753 67.7275 33.4985 67.7275 32.8218C67.7275 32.1451 68.0628 31.8067 68.7334 31.8067C69.404 31.8067 69.7392 32.1451 69.7392 32.8218C69.7392 33.4985 69.7392 33.8369 69.7392 34.1753Z" fill="#2F68B2"/>
<path d="M73.4272 26.3927C73.4272 26.0543 73.4272 25.716 73.4272 25.716C73.4272 25.0392 73.4272 24.7009 74.4331 24.7009C75.1037 24.7009 75.439 25.0392 75.439 25.716C75.439 26.3927 75.439 27.0694 75.439 27.7462C75.439 28.4229 75.1037 28.7613 74.4331 28.7613C73.7625 28.7613 73.4272 28.4229 73.4272 27.7462C73.4272 27.0694 73.4272 26.7311 73.4272 26.3927Z" fill="#2F68B2"/>
<path d="M69.7389 26.7311C69.7389 27.0694 69.7389 27.4078 69.7389 27.4078C69.7389 28.0846 69.7389 28.4229 68.7331 28.4229C67.7272 28.4229 67.7272 28.0846 67.7272 27.4078C67.7272 27.0694 67.7272 26.3927 67.7272 26.0543C67.7272 25.3776 67.3919 24.7009 68.7331 24.7009C70.0742 24.7009 69.7389 25.3776 69.7389 26.0543C69.7389 26.0543 69.7389 26.3927 69.7389 26.7311Z" fill="#2F68B2"/>
<path d="M73.4272 18.9487C73.4272 18.6103 73.4272 18.2719 73.4272 18.2719C73.4272 17.2568 73.7625 16.9185 74.4331 16.9185C75.1037 16.9185 75.439 17.2568 75.439 17.9336C75.439 18.6103 75.439 18.9487 75.439 19.6254C75.439 20.6405 75.1037 20.9789 74.4331 20.6405C73.7625 20.6405 73.7625 20.3021 73.7625 19.9638C73.4272 19.6254 73.4272 19.287 73.4272 18.9487Z" fill="#2F68B2"/>
<path d="M69.7389 18.9487C69.7389 19.2871 69.7389 19.6255 69.7389 19.6255C69.7389 20.3022 69.4036 20.6406 68.7331 20.6406C68.0625 20.6406 67.7272 20.3022 67.7272 19.6255C67.7272 18.9487 67.7272 18.6104 67.7272 17.9336C67.7272 17.2569 67.3919 16.5801 68.7331 16.5801C70.0742 16.5801 69.7389 17.2569 69.7389 17.9336C69.7389 18.6104 69.7389 18.9487 69.7389 18.9487Z" fill="#2F68B2"/>
<path d="M75.4389 11.5045C75.4389 11.8429 75.4389 12.1813 75.4389 12.1813C75.4389 12.858 75.4389 13.1964 74.433 13.1964C73.4271 13.1964 73.4271 12.858 73.4271 12.1813C73.4271 11.8429 73.4271 11.1661 73.4271 10.8278C73.4271 10.151 73.0919 9.4743 74.433 9.4743C75.7741 9.4743 75.4389 10.151 75.4389 10.8278C75.4389 11.1661 75.4389 11.1661 75.4389 11.5045Z" fill="#2F68B2"/>
<path d="M69.7389 11.5046C69.7389 11.8429 69.7389 12.1813 69.7389 12.1813C69.7389 12.858 69.4036 13.1964 68.7331 13.1964C68.0625 13.1964 67.7272 12.858 67.7272 12.1813C67.7272 11.5046 67.7272 11.1662 67.7272 10.4895C67.7272 9.81272 67.3919 9.13599 68.7331 9.13599C70.0742 9.13599 69.7389 9.81272 69.7389 10.4895C69.7389 11.1662 69.7389 11.1662 69.7389 11.5046Z" fill="#2F68B2"/>
<path d="M45.2636 34.5136C45.2636 40.9426 45.2636 47.0332 45.2636 53.4622C39.8991 53.4622 34.1992 53.4622 28.8347 53.4622C23.1348 53.4622 18.7761 49.0634 19.1114 43.3112C19.1114 39.2508 19.1114 34.852 20.1172 30.7915C21.4584 27.0695 22.7995 23.3474 24.8112 19.6254C25.1465 19.287 25.1465 18.9486 25.8171 19.287C30.8464 20.3021 35.2051 21.994 39.2285 25.3776C41.9108 27.4079 43.5872 30.1148 44.9283 33.1601C44.9283 33.4985 44.9283 33.8369 45.2636 34.5136ZM35.8756 34.1752C36.8815 34.1752 37.8874 34.1752 38.8932 34.1752C39.2285 34.1752 39.5638 34.1752 39.5638 33.8369C40.2344 32.4834 39.2285 30.4532 37.5521 30.4532C37.2168 30.4532 36.8815 30.4532 36.5462 30.4532C36.2109 30.4532 35.8756 30.4532 35.8756 29.7764C36.2109 28.423 35.2051 28.423 34.1992 28.423C33.5286 28.423 33.1934 28.423 32.5228 28.423C32.1875 28.423 31.8522 28.423 31.8522 29.0997C32.1875 30.4532 31.5169 30.4532 30.5111 30.4532C28.8347 30.4532 28.1641 31.1299 28.1641 32.8217C28.1641 34.5136 28.1641 36.2054 28.1641 37.8973C28.1641 39.2508 28.8347 40.2659 30.5111 40.2659C31.8522 40.2659 33.5286 40.2659 34.8698 40.2659C35.5404 40.2659 35.8756 40.6042 35.5404 41.281C35.5404 41.9577 35.5404 42.2961 34.8698 42.2961C32.8581 42.2961 30.8464 42.2961 28.8347 42.2961C28.4994 42.2961 28.1641 42.2961 28.1641 42.6344C27.4935 43.9879 28.4994 46.0181 30.1758 46.3565C30.5111 46.3565 30.8464 46.3565 31.1817 46.3565C31.5169 46.3565 31.8522 46.3565 31.8522 47.0332C31.8522 47.3716 32.5228 47.71 33.5286 47.3716C34.1992 47.3716 34.8698 47.3716 35.2051 47.3716C35.5404 47.3716 35.8756 47.3716 35.8756 46.6949C35.5404 45.3414 36.2109 45.3414 37.2168 45.3414C38.8932 45.3414 39.5638 44.6646 39.5638 42.9728C39.5638 41.281 39.5638 39.9275 39.5638 38.2356C39.5638 36.5438 38.8932 35.8671 37.2168 35.8671C35.8756 35.8671 34.1992 35.8671 32.8581 35.8671C31.8522 35.8671 32.1875 35.1903 32.1875 34.852C32.1875 34.5136 32.1875 33.8369 32.8581 33.8369C33.8639 34.1752 34.8698 34.1752 35.8756 34.1752Z" fill="#FEBE12"/>
<path d="M84.8269 56.8459C84.8269 54.139 84.8269 51.432 84.8269 48.7251C84.8269 47.7099 85.1622 47.3716 86.1681 47.3716C87.8445 47.3716 89.5209 47.3716 91.1973 47.3716C92.2032 47.3716 92.5385 47.7099 92.5385 48.7251C92.5385 51.432 92.5385 54.139 92.5385 56.8459C89.8562 56.8459 87.1739 56.8459 84.8269 56.8459Z" fill="#A9C6E8"/>
<path d="M56.6631 47.7099C56.9984 47.7099 56.9984 47.7099 57.3337 47.7099C58.3395 47.7099 58.6748 47.7099 58.6748 49.0634C58.6748 49.4017 58.6748 49.4017 58.6748 49.7401C58.6748 51.7703 58.6748 51.7703 56.6631 51.432C56.6631 50.0785 56.6631 48.725 56.6631 47.7099Z" fill="#2F68B2"/>
<path d="M52.6398 49.4018C52.6398 49.7402 52.6398 50.0786 52.6398 50.0786C52.6398 50.7553 52.3045 51.0937 51.6339 51.0937C50.9634 51.0937 50.6281 50.7553 50.6281 50.0786C50.6281 49.4018 50.6281 49.0635 50.6281 48.3867C50.6281 47.71 50.2928 47.0333 51.6339 47.0333C52.9751 47.0333 52.6398 47.71 52.6398 48.3867C52.6398 49.0635 52.6398 49.4018 52.6398 49.4018Z" fill="#2F68B2"/>
<path d="M56.6631 39.9275C56.9984 39.9275 56.9984 39.9275 57.3337 39.9275C58.3395 39.9275 58.6748 39.9275 58.6748 41.281C58.6748 41.6193 58.6748 41.6193 58.6748 41.9577C58.6748 43.9879 58.6748 43.9879 56.6631 43.6495C56.6631 42.2961 56.6631 41.281 56.6631 39.9275Z" fill="#2F68B2"/>
<path d="M50.9634 41.9577C50.9634 41.6193 50.9634 41.281 50.9634 40.9426C50.9634 40.2659 50.9634 39.9275 51.9692 39.9275C52.6398 39.9275 52.9751 40.2659 52.9751 40.9426C52.9751 41.6193 52.9751 42.2961 52.9751 42.9728C52.9751 43.6495 52.6398 43.9879 51.9692 43.9879C51.2987 43.9879 50.9634 43.6495 50.9634 42.9728C50.9634 42.6344 50.9634 42.2961 50.9634 41.9577Z" fill="#2F68B2"/>
<path d="M56.6631 32.4833C56.9984 32.4833 56.9984 32.4833 57.3337 32.4833C58.3395 32.4833 58.6748 32.4833 58.6748 33.8368C58.6748 34.1752 58.6748 34.1752 58.6748 34.5135C58.6748 36.5438 58.6748 36.5438 56.6631 36.2054C56.6631 34.8519 56.6631 33.4984 56.6631 32.4833Z" fill="#2F68B2"/>
<path d="M52.6394 34.1752C52.6394 34.5136 52.6394 34.852 52.6394 34.852C52.6394 35.5287 52.6394 35.8671 51.6335 35.8671C50.963 35.8671 50.6277 35.5287 50.6277 34.852C50.6277 34.1752 50.6277 33.4985 50.6277 32.8218C50.6277 32.145 50.963 32.145 51.6335 32.145C52.3041 32.145 52.6394 32.4834 52.6394 33.1601C52.6394 33.4985 52.6394 33.8369 52.6394 34.1752Z" fill="#2F68B2"/>
<path d="M3.68774 17.2567C5.02889 17.2567 6.37003 17.2567 7.37588 17.2567C7.37588 18.6102 7.37588 19.9637 7.37588 20.9788C6.03474 20.9788 4.6936 20.9788 3.68774 20.9788C3.68774 19.6253 3.68774 18.2718 3.68774 17.2567Z" fill="#F7FAFC"/>
<path d="M99.9146 3.72198C101.256 3.72198 102.597 3.72198 103.603 3.72198C103.603 5.07546 103.603 6.42893 103.603 7.44404C102.262 7.44404 100.92 7.44404 99.9146 7.44404C99.9146 6.42893 99.9146 5.07546 99.9146 3.72198Z" fill="#F7FAFC"/>
<path d="M35.8751 34.1753C34.8692 34.1753 33.8634 34.1753 32.8575 34.1753C32.187 34.1753 32.187 34.5137 32.187 35.1904C32.187 35.5288 31.8517 36.2055 32.8575 36.2055C34.1987 36.2055 35.8751 36.2055 37.2162 36.2055C38.8927 36.2055 39.5632 36.8823 39.5632 38.5741C39.5632 40.2659 39.5632 41.6194 39.5632 43.3113C39.5632 45.0031 38.8927 45.6798 37.2162 45.6798C36.2104 45.6798 35.5398 45.6798 35.8751 47.0333C35.8751 47.3717 35.5398 47.71 35.2045 47.71C34.534 47.71 33.8634 47.71 33.5281 47.71C32.5222 47.71 31.8517 47.71 32.187 46.3566C32.187 45.6798 31.8517 45.6798 31.5164 45.6798C31.1811 45.6798 30.8458 45.6798 30.5105 45.6798C28.8341 45.6798 27.493 43.6496 28.4988 41.9578C28.8341 41.6194 29.1694 41.6194 29.1694 41.6194C31.1811 41.6194 33.1928 41.6194 35.2045 41.6194C36.2104 41.6194 35.8751 41.281 35.8751 40.6043C35.8751 39.9276 35.8751 39.5892 35.2045 39.5892C33.8634 39.5892 32.187 39.5892 30.8458 39.5892C29.1694 39.5892 28.4988 38.9125 28.4988 37.2206C28.4988 35.5288 28.4988 33.8369 28.4988 32.1451C28.1635 31.13 28.8341 30.4532 30.5105 30.4532C31.5164 30.4532 32.187 30.4532 31.8517 29.0998C31.8517 28.7614 32.187 28.423 32.5222 28.423C33.1928 28.423 33.5281 28.423 34.1987 28.423C35.2045 28.423 36.2104 28.423 35.8751 29.7765C35.8751 30.4532 35.8751 30.4532 36.2104 30.4532C36.5457 30.4532 36.881 30.4532 37.2162 30.4532C38.8927 30.4532 40.2338 32.4835 39.2279 34.1753C38.8927 34.5137 38.8927 34.5137 38.5574 34.5137C37.8868 34.1753 36.8809 34.1753 35.8751 34.1753Z" fill="#FFFEFD"/>
</g>
<defs>
<clipPath id="clip0">
<rect width="112.991" height="112" fill="white"/>
</clipPath>
</defs>
</svg>
