<svg width="112" height="112" viewBox="0 0 112 112" fill="none" xmlns="http://www.w3.org/2000/svg">
<path d="M55.921 111.842C86.8053 111.842 111.842 86.8053 111.842 55.921C111.842 25.0367 86.8053 0 55.921 0C25.0367 0 0 25.0367 0 55.921C0 86.8053 25.0367 111.842 55.921 111.842Z" fill="#E1F3F5"/>
<path d="M39.4922 32.3837C38.8603 31.7518 38.0705 30.962 37.4386 30.3301C37.1227 30.0141 36.9647 30.1721 36.8067 30.3301C35.8589 31.2779 35.0691 32.0677 34.1213 33.0156C33.9633 33.1735 33.9633 33.3315 33.6474 33.1735C29.8561 30.0141 30.8039 24.9591 34.2792 23.0635C36.8068 21.4838 39.9661 22.1157 42.1777 24.6432C42.4936 24.9591 42.1777 24.9591 42.0197 25.1171C41.0719 26.0649 40.2821 27.0127 39.3343 27.8026C39.0183 28.1185 39.0183 28.2765 39.3343 28.5924C39.9661 29.2243 40.598 29.6982 41.0719 30.3301C41.2299 30.4881 41.3878 30.646 41.7038 30.3301C43.4414 28.7504 45.495 27.6446 47.7066 26.8548C48.0225 26.6968 48.0225 26.5388 48.0225 26.2229C48.0225 24.9591 48.0225 23.5374 48.0225 22.2737C48.0225 20.2201 49.6022 18.6404 51.6558 18.6404C53.2355 18.6404 54.8152 18.6404 56.2369 18.6404C58.2905 18.6404 59.8702 20.2201 59.8702 22.2737C59.8702 23.6954 59.8702 24.9591 59.8702 26.3809C59.8702 26.6968 59.8702 26.8548 60.3441 27.0127C62.5557 27.8026 64.4513 28.9084 66.189 30.3301C66.5049 30.646 66.6629 30.646 66.9788 30.3301C67.4527 29.6982 68.0846 29.2243 68.5585 28.7504C68.8744 28.4345 68.8744 28.2765 68.5585 27.9605C67.6107 27.0127 66.5049 26.0649 65.5571 24.9591C68.5585 21.3259 72.6657 21.7998 74.8773 24.0113C77.2468 26.3809 77.5627 30.4881 73.9294 33.3315C72.9816 32.3837 71.8759 31.2779 70.928 30.3301C70.6121 30.0141 70.4541 30.0141 70.1382 30.3301C69.6643 30.962 69.0324 31.4359 68.4005 32.0677C68.0846 32.3837 68.0846 32.3837 68.4005 32.6996C69.0324 33.4895 69.6643 34.1213 70.1382 35.0692C70.2962 35.3851 70.6121 35.5431 70.928 35.5431C72.3498 35.5431 73.7715 35.3851 75.1932 35.701C77.5627 36.1749 79.1424 37.5967 79.7743 39.8082C79.9323 40.2821 80.2482 40.4401 80.7221 40.4401C83.8815 40.4401 87.1988 40.4401 90.5162 40.4401C89.5684 42.1778 88.7785 43.9154 87.8307 45.6531C87.5148 46.127 87.5148 46.6009 87.8307 47.0748C88.7785 48.8125 89.5684 50.5501 90.5162 52.2878C87.9887 52.2878 85.6191 52.2878 83.2496 52.2878C82.4598 52.2878 81.6699 52.2878 80.7221 52.2878C80.2482 52.2878 80.0902 52.4457 80.0902 52.9196C80.0902 55.6051 80.0902 58.1326 80.0902 60.8181C80.0902 68.0847 80.0902 75.5092 80.0902 82.7758C80.0902 83.4077 79.9323 83.5656 79.3004 83.5656C76.9309 83.5656 75.3512 85.1453 75.3512 87.1989C75.3512 88.9366 76.6149 90.3583 78.5105 90.6742C78.8265 90.6742 78.9845 90.8322 78.9845 91.1481C78.9845 93.0438 78.9845 93.0438 77.0888 93.0438C62.5557 93.0438 48.1805 93.0438 33.6474 93.0438C29.8561 93.0438 27.3286 90.5163 27.3286 86.725C27.3286 71.718 27.3286 56.7109 27.3286 41.7038C27.3286 37.9126 29.8561 35.3851 33.6474 35.3851C34.7532 35.3851 35.8589 35.5431 36.8067 35.3851C37.9125 35.0692 38.0705 33.8054 38.8603 33.0156C39.1763 32.8576 39.3343 32.6996 39.4922 32.3837ZM53.8674 76.457C59.7122 76.457 65.5571 76.457 71.5599 76.457C72.8237 76.457 73.1396 75.9831 73.1396 74.8773C73.1396 68.7165 73.1396 62.5558 73.1396 56.395C73.1396 55.6051 72.9816 55.1312 72.1918 54.8153C71.244 54.4993 70.4541 54.8153 70.1382 55.4471C65.5571 62.0818 59.2383 65.2412 51.1819 64.1354C45.3371 63.3456 40.756 60.1862 37.5966 55.2892C37.4386 55.1312 37.4386 54.8153 37.1227 54.8153C35.8589 54.3414 34.5952 55.1312 34.5952 56.5529C34.5952 62.7137 34.5952 68.7165 34.5952 74.8773C34.5952 76.1411 34.9111 76.615 36.3328 76.615C42.1777 76.457 48.0225 76.457 53.8674 76.457ZM29.8561 82.4598C31.2778 81.3541 32.8575 81.1961 34.4372 81.1961C48.6544 81.1961 62.8716 81.1961 77.0888 81.1961C77.7207 81.1961 77.8787 81.0381 77.8787 80.4062C77.8787 67.6108 77.8787 54.8153 77.8787 42.0198C77.8787 41.8618 77.8787 41.7038 77.8787 41.5459C77.8787 39.8082 76.7729 38.3865 75.0352 38.0706C74.2454 37.9126 73.2976 38.0706 72.3498 37.9126C71.7179 37.9126 71.5599 37.9126 71.8759 38.5445C72.9816 41.3879 73.2976 44.2314 72.9816 47.3907C72.8237 49.1284 72.3498 50.7081 71.7179 52.2878C71.8759 52.2878 72.0338 52.2878 72.1918 52.2878C74.0874 52.4457 75.5091 54.0254 75.5091 55.9211C75.5091 62.3978 75.5091 68.7165 75.5091 75.1933C75.5091 77.2469 73.9294 78.8266 71.8759 78.8266C59.8702 78.8266 47.8646 78.8266 35.701 78.8266C33.8053 78.8266 32.2257 77.2469 32.2257 75.3512C32.2257 68.8745 32.2257 62.3978 32.2257 55.9211C32.2257 54.3414 33.3314 52.9196 34.7532 52.6037C35.0691 52.4457 35.543 52.4457 36.0169 52.2878C34.1213 47.5487 34.1213 42.8096 36.0169 37.9126C35.2271 37.9126 34.5952 37.9126 33.9633 37.9126C31.2778 37.9126 29.8561 39.3343 29.8561 42.0198C29.8561 55.1312 29.8561 68.2426 29.8561 81.512C29.8561 81.828 29.8561 81.9859 29.8561 82.4598ZM74.4034 83.5656C74.0874 83.5656 73.9294 83.5656 73.7715 83.5656C60.3441 83.5656 47.0747 83.5656 33.6474 83.5656C31.5938 83.5656 29.8561 85.1453 29.8561 87.1989C29.8561 89.2525 31.4358 90.8322 33.6474 90.8322C47.0747 90.8322 60.3441 90.8322 73.7715 90.8322C73.9294 90.8322 74.2454 90.9902 74.2454 90.6742C72.8237 88.3047 72.8237 86.0931 74.4034 83.5656ZM54.0254 28.2765C44.7052 28.2765 37.1227 35.859 37.1227 45.1792C37.1227 54.3414 44.7052 61.9239 53.8674 61.9239C63.1876 61.9239 70.7701 54.3414 70.7701 45.1792C70.7701 35.859 63.1876 28.2765 54.0254 28.2765ZM86.8829 42.8096C84.8293 42.8096 82.9337 42.8096 80.8801 42.8096C80.5641 42.8096 80.4062 42.8096 80.4062 43.2835C80.4062 45.3371 80.4062 47.5487 80.4062 49.6023C80.4062 49.9182 80.4062 50.0762 80.7221 50.0762C82.7757 50.0762 84.6713 50.0762 86.7249 50.0762C86.251 48.9704 85.7771 48.0226 85.1452 47.0748C84.9873 46.6009 84.8293 46.2849 85.1452 45.969C85.9351 44.8632 86.251 43.9154 86.8829 42.8096ZM54.0254 21.1679C53.2355 21.1679 52.4457 21.1679 51.6558 21.1679C50.866 21.1679 50.3921 21.6418 50.3921 22.4316C50.3921 23.5374 50.3921 24.6432 50.3921 25.749C50.3921 26.2229 50.55 26.3809 50.866 26.2229C52.9196 25.907 54.9732 25.907 57.0268 26.2229C57.3427 26.2229 57.5007 26.2229 57.5007 25.749C57.5007 24.6432 57.5007 23.5374 57.5007 22.4316C57.5007 21.4838 57.0268 21.0099 56.079 21.0099C55.4471 21.1679 54.6572 21.1679 54.0254 21.1679ZM38.5444 25.1171C37.1227 24.4852 35.543 24.8012 34.4372 25.907C33.4894 27.0127 33.1735 28.4345 33.8053 29.6982C35.385 28.2765 36.9647 26.6968 38.5444 25.1171ZM74.0874 29.6982C74.7193 28.2765 74.4034 26.6968 73.1396 25.591C72.0338 24.6432 70.4541 24.3273 69.3484 25.1171C70.928 26.6968 72.5077 28.1185 74.0874 29.6982Z" fill="#050504"/>
<path d="M53.8674 76.457C48.0226 76.457 42.1777 76.457 36.3329 76.457C35.0691 76.457 34.5952 76.1411 34.5952 74.7194C34.5952 68.5586 34.5952 62.5558 34.5952 56.395C34.5952 54.9732 35.701 54.1834 37.1227 54.6573C37.2807 54.8153 37.4387 54.9732 37.5966 55.1312C40.756 60.1862 45.3371 63.1876 51.182 63.9775C59.2384 64.9253 65.5571 61.9239 70.1382 55.2892C70.6121 54.6573 71.402 54.3414 72.1918 54.6573C72.9817 54.8153 73.1396 55.4472 73.1396 56.237C73.1396 62.3978 73.1396 68.5586 73.1396 74.7194C73.1396 75.9831 72.6657 76.299 71.56 76.299C65.7151 76.457 59.8702 76.457 53.8674 76.457ZM49.1284 71.56C50.3921 71.56 50.3921 71.56 50.3921 70.2962C50.3921 69.0325 50.3921 69.0325 49.1284 69.0325C47.8646 69.0325 47.8646 69.0325 47.8646 70.2962C48.0226 71.56 48.0226 71.56 49.1284 71.56ZM55.1312 70.4542C55.1312 69.1904 55.1312 69.1904 53.8674 69.1904C52.7616 69.1904 52.7616 69.1904 52.7616 70.2962C52.7616 71.56 52.7616 71.56 54.0254 71.56C55.1312 71.56 55.1312 71.56 55.1312 70.4542ZM58.7645 71.56C60.0282 71.56 60.0282 71.56 60.0282 70.2962C60.0282 69.1904 60.0282 69.1904 58.9224 69.1904C57.6587 69.1904 57.6587 69.1904 57.6587 70.4542C57.5007 71.56 57.5007 71.56 58.7645 71.56Z" fill="#F7FAFC"/>
<path d="M29.8562 82.4598C29.8562 81.9859 29.8562 81.8279 29.8562 81.512C29.8562 68.4006 29.8562 55.2892 29.8562 42.0198C29.8562 39.3343 31.2779 37.9126 33.9634 37.9126C34.5953 37.9126 35.2271 37.9126 36.017 37.9126C34.1214 42.6516 34.1214 47.5487 36.017 52.2877C35.5431 52.4457 35.2271 52.4457 34.7532 52.6037C33.3315 53.0776 32.2257 54.4993 32.2257 55.921C32.2257 62.3978 32.2257 68.8745 32.2257 75.3512C32.2257 77.2468 33.8054 78.8265 35.7011 78.8265C47.7067 78.8265 59.7123 78.8265 71.8759 78.8265C73.9295 78.8265 75.5092 77.2468 75.5092 75.1932C75.5092 68.7165 75.5092 62.3978 75.5092 55.921C75.5092 54.0254 74.0875 52.4457 72.1919 52.2877C72.0339 52.2877 71.8759 52.2877 71.718 52.2877C72.3498 50.708 72.8237 48.9704 72.9817 47.3907C73.2977 44.3893 72.9817 41.3879 71.8759 38.5444C71.718 37.9126 71.718 37.7546 72.3498 37.9126C73.2976 37.9126 74.0875 37.7546 75.0353 38.0705C76.773 38.5444 77.8787 39.8082 77.8787 41.5459C77.8787 41.7038 77.8787 41.8618 77.8787 42.0198C77.8787 54.8152 77.8787 67.6107 77.8787 80.4062C77.8787 81.0381 77.7208 81.1961 77.0889 81.1961C62.8717 81.1961 48.6545 81.1961 34.4373 81.1961C32.8576 81.1961 31.4359 81.354 29.8562 82.4598Z" fill="#567A85"/>
<path d="M74.4034 83.5657C72.8238 85.9352 72.8238 88.3047 74.4034 90.6742C74.2455 90.8322 74.0875 90.8322 73.9295 90.8322C60.5022 90.8322 47.2328 90.8322 33.8054 90.8322C31.5938 90.8322 30.0142 89.2525 30.0142 87.1989C30.0142 85.1454 31.5938 83.5657 33.8054 83.5657C47.2328 83.5657 60.5022 83.5657 73.9295 83.5657C73.9295 83.5657 74.0875 83.5657 74.4034 83.5657Z" fill="#FEBE12"/>
<path d="M54.0252 28.2765C63.3454 28.2765 70.9279 35.859 70.77 45.1792C70.77 54.4993 63.1874 61.9239 53.8673 61.9239C44.7051 61.9239 37.1226 54.3414 37.1226 45.1792C37.1226 35.859 44.7051 28.2765 54.0252 28.2765ZM68.4004 45.1792C68.4004 37.2807 61.9237 30.804 54.0252 30.804C45.9688 30.804 39.6501 37.2807 39.6501 45.1792C39.6501 53.0776 46.1268 59.5543 54.0252 59.5543C61.9237 59.5543 68.4004 53.0776 68.4004 45.1792Z" fill="#FEBE12"/>
<path d="M86.883 42.8096C86.4091 43.9154 85.9352 44.8632 85.3033 45.811C84.9873 46.2849 85.1453 46.6008 85.3033 46.9168C85.7772 47.8646 86.2511 48.8124 86.883 49.9182C84.8294 49.9182 82.7758 49.9182 80.8801 49.9182C80.5642 49.9182 80.5642 49.7602 80.5642 49.4443C80.5642 47.3907 80.5642 45.1791 80.5642 43.1255C80.5642 42.8096 80.7222 42.6516 81.0381 42.6516C82.7758 42.8096 84.8294 42.8096 86.883 42.8096Z" fill="#5BBF90"/>
<path d="M54.0254 21.1678C54.8152 21.1678 55.4471 21.1678 56.2369 21.1678C57.1847 21.1678 57.6587 21.6418 57.6587 22.5896C57.6587 23.6954 57.6587 24.8011 57.6587 25.9069C57.6587 26.3808 57.5007 26.3808 57.1847 26.3808C55.1312 26.0649 53.0776 26.0649 51.024 26.3808C50.55 26.5388 50.55 26.3808 50.55 25.9069C50.55 24.8011 50.55 23.6954 50.55 22.5896C50.55 21.7997 51.024 21.3258 51.8138 21.3258C52.4457 21.1678 53.2355 21.1678 54.0254 21.1678Z" fill="#F5F8F9"/>
<path d="M38.5444 25.1171C36.9647 26.6968 35.3851 28.2765 33.8054 29.8562C33.1735 28.5924 33.3315 27.1707 34.4372 26.0649C35.543 24.8011 37.1227 24.4852 38.5444 25.1171Z" fill="#FEBE12"/>
<path d="M74.0875 29.6983C72.5078 28.1186 70.9281 26.5389 69.5063 25.1172C70.6121 24.4853 72.1918 24.6433 73.2976 25.5911C74.4034 26.6969 74.7193 28.4345 74.0875 29.6983Z" fill="#FEBE12"/>
<path d="M49.1283 71.56C47.8645 71.56 47.8645 71.56 47.8645 70.2962C47.8645 69.0325 47.8645 69.0325 49.1283 69.0325C50.392 69.0325 50.392 69.0325 50.392 70.2962C50.392 71.56 50.392 71.56 49.1283 71.56Z" fill="#010101"/>
<path d="M55.1313 70.4542C55.1313 71.5599 55.1313 71.5599 54.0255 71.5599C52.7617 71.5599 52.7617 71.5599 52.7617 70.2962C52.7617 69.1904 52.7617 69.1904 53.8675 69.1904C55.1313 69.1904 55.1313 69.1904 55.1313 70.4542Z" fill="#010101"/>
<path d="M58.7645 71.5599C57.6587 71.5599 57.6587 71.5599 57.6587 70.4542C57.6587 69.1904 57.6587 69.1904 58.9224 69.1904C60.0282 69.1904 60.0282 69.1904 60.0282 70.2962C60.0282 71.5599 60.0282 71.5599 58.7645 71.5599Z" fill="#010101"/>
<path d="M68.4005 45.1791C68.4005 53.2355 61.9238 59.5543 54.0253 59.5543C46.1269 59.5543 39.6501 53.0776 39.6501 45.1791C39.6501 37.1227 46.1269 30.804 54.0253 30.804C61.9238 30.804 68.4005 37.2807 68.4005 45.1791ZM52.7616 33.1735C50.708 33.3315 48.9703 33.9633 47.3906 35.0691C46.2848 35.701 46.2848 35.701 47.2327 36.6488C48.0225 37.4387 48.0225 37.4387 47.2327 38.2285C46.2848 39.1763 46.2848 39.1763 45.337 38.2285C45.1791 38.0705 45.0211 38.0705 45.0211 37.9126C44.7052 37.5966 44.5472 37.5966 44.3892 37.9126C43.2834 39.4922 42.4936 41.2299 42.1776 43.1255C42.0197 43.7574 42.1776 44.0733 42.8095 43.9154C43.1255 43.9154 43.4414 43.9154 43.7573 43.9154C44.2312 43.9154 44.3892 43.9154 44.3892 44.5473C44.3892 45.1791 44.5472 45.969 44.2312 46.2849C43.9153 46.6008 43.1255 46.4429 42.6516 46.4429C42.1776 46.4429 42.0197 46.6008 42.1776 47.0748C42.4936 48.9704 43.1255 50.708 44.2312 52.2877C44.5472 52.7616 44.8631 52.9196 45.1791 52.4457C45.495 52.1298 45.8109 51.8138 46.1269 51.4979C46.2848 51.3399 46.4428 51.1819 46.6008 51.4979C47.0747 51.9718 47.7066 52.4457 48.0225 53.0776C48.1805 53.3935 47.3906 53.8674 46.9167 54.1834L46.7587 54.3413C46.4428 54.4993 46.4428 54.6573 46.7587 54.9732C48.3384 56.237 50.2341 57.0268 52.2877 57.3427C52.7616 57.3427 52.9195 57.3427 52.9195 56.8688C52.9195 56.237 52.6036 55.4471 53.0775 55.1312C53.3934 54.8152 54.1833 55.1312 54.8152 54.9732C55.1311 54.9732 55.2891 54.9732 55.2891 55.4471C55.2891 56.079 55.2891 56.7109 55.2891 57.3427C57.5006 57.1848 59.5542 56.237 61.2919 54.9732C61.6078 54.6573 61.6078 54.6573 61.2919 54.3413C60.9759 54.0254 60.66 53.7094 60.3441 53.3935C60.1861 53.2355 60.0281 53.0776 60.1861 52.9196C60.66 52.4457 61.1339 51.8138 61.7658 51.4979C62.0817 51.3399 62.5556 52.1298 62.8716 52.6037L63.0295 52.7616C63.1875 53.0776 63.3455 53.0776 63.6614 52.7616C64.9252 51.182 65.715 49.2863 66.031 47.2327C66.031 46.7588 66.031 46.6008 65.557 46.7588C64.9252 46.7588 64.1353 47.0748 63.8194 46.6008C63.5035 46.2849 63.8194 45.4951 63.6614 44.8632C63.6614 44.5473 63.8194 44.3893 64.1353 44.3893C64.7672 44.3893 65.3991 44.3893 66.031 44.3893C65.873 42.1777 65.0831 40.2821 63.8194 38.5444C63.5035 38.0705 63.3455 38.2285 63.0295 38.5444C62.7136 39.0183 62.2397 39.6502 61.7658 39.6502C61.2919 39.6502 60.9759 38.8604 60.502 38.5444C60.1861 38.2285 60.0281 37.9126 60.502 37.5966C60.818 37.2807 61.1339 36.9647 61.4499 36.6488C61.7658 36.4908 61.7658 36.3329 61.4499 36.0169C59.8702 34.7532 57.9745 33.9633 55.9209 33.6474C55.447 33.6474 55.2891 33.6474 55.2891 34.1213C55.2891 34.7532 55.605 35.543 55.1311 35.859C54.8152 36.1749 54.0253 35.859 53.3934 36.0169C53.0775 36.0169 52.9195 36.0169 52.9195 35.543C52.7616 34.4372 52.7616 33.8054 52.7616 33.1735Z" fill="#070907"/>
<path d="M52.7615 33.1735C52.7615 33.8053 52.7615 34.4372 52.7615 35.0691C52.7615 35.543 52.9195 35.543 53.2354 35.543C53.8673 35.543 54.6571 35.701 54.9731 35.385C55.447 35.0691 55.1311 34.2792 55.1311 33.6474C55.1311 33.1735 55.289 33.1735 55.7629 33.1735C57.8165 33.4894 59.7121 34.2792 61.2918 35.543C61.6078 35.701 61.6078 35.8589 61.2918 36.1749C60.9759 36.4908 60.66 36.8068 60.344 37.1227C59.8701 37.4386 60.0281 37.7546 60.344 38.0705C60.8179 38.3864 61.1339 39.1763 61.6078 39.1763C62.0817 39.1763 62.3976 38.5444 62.8715 38.0705C63.1875 37.7546 63.3454 37.5966 63.6614 38.0705C64.9251 39.8082 65.715 41.7038 65.8729 43.9154C65.2411 43.9154 64.6092 43.9154 63.9773 43.9154C63.5034 43.9154 63.5034 44.0733 63.5034 44.3893C63.5034 45.0211 63.3454 45.811 63.6614 46.1269C63.9773 46.6008 64.7672 46.2849 65.399 46.2849C65.8729 46.2849 65.8729 46.4429 65.8729 46.7588C65.557 48.8124 64.7672 50.708 63.5034 52.2877C63.3454 52.6037 63.1875 52.6037 62.8715 52.2877L62.7136 52.1297C62.2397 51.8138 61.9237 51.024 61.6078 51.024C60.9759 51.1819 60.502 51.9718 60.0281 52.4457C59.7121 52.6037 60.0281 52.7616 60.1861 52.9196C60.502 53.2355 60.8179 53.5515 61.1339 53.8674C61.4498 54.0254 61.4498 54.1833 61.1339 54.4993C59.3962 55.763 57.3426 56.7109 55.1311 56.8688C55.1311 56.2369 55.1311 55.6051 55.1311 54.9732C55.1311 54.4993 54.9731 54.4993 54.6571 54.4993C54.0253 54.4993 53.2354 54.3413 52.9195 54.6573C52.4456 54.9732 52.7615 55.763 52.7615 56.3949C52.7615 56.8688 52.6035 56.8688 52.1296 56.8688C50.076 56.5529 48.1804 55.763 46.6007 54.4993C46.2848 54.3413 46.2848 54.1833 46.6007 53.8674L46.7587 53.7094C47.0746 53.2355 47.8645 52.9196 47.8645 52.6037C47.7065 51.9718 46.9167 51.4979 46.4428 51.024C46.2848 50.866 46.1268 51.024 45.9688 51.024C45.6529 51.3399 45.337 51.6558 45.021 51.9718C44.5471 52.4457 44.3892 52.2877 44.0732 51.8138C42.9674 50.2341 42.1776 48.4965 42.0196 46.6008C42.0196 46.1269 42.0196 45.969 42.4935 45.969C43.1254 45.969 43.9152 46.2849 44.0732 45.811C44.3892 45.495 44.0732 44.7052 44.2312 44.0733C44.2312 43.5994 44.0732 43.4415 43.5993 43.4415C43.2834 43.4415 42.9674 43.4415 42.6515 43.4415C42.0196 43.5994 41.8617 43.2835 42.0196 42.6516C42.3356 40.756 43.1254 39.0183 44.2312 37.4386C44.5471 37.1227 44.7051 37.1227 44.8631 37.4386C45.021 37.5966 45.179 37.7546 45.179 37.7546C46.1268 38.7024 46.1268 38.7024 47.0746 37.7546C47.8645 36.9647 47.8645 36.9647 47.0746 36.1749C46.1268 35.2271 46.1268 35.2271 47.2326 34.5952C48.9703 34.1213 50.7079 33.4894 52.7615 33.1735ZM55.1311 41.8618C55.1311 41.2299 55.1311 40.44 55.1311 39.8082C55.1311 37.9125 55.131 37.9125 53.2354 38.0705C52.9195 38.0705 52.7615 38.2285 52.7615 38.5444C52.7615 39.6502 52.7615 40.598 52.7615 41.7038C52.9195 43.9154 52.4456 45.969 51.3398 48.0226C51.0239 48.4965 50.5499 49.2863 50.7079 49.6022C50.8659 50.0762 51.8137 50.2341 52.2876 50.5501C52.6035 50.708 52.7615 50.708 52.9195 50.3921C53.0775 49.9182 53.3934 49.4443 53.5514 48.9704C54.8151 46.6008 55.605 44.3893 55.1311 41.8618Z" fill="#5BBF90"/>
<path d="M55.131 41.8618C55.6049 44.3893 54.8151 46.6009 53.5513 48.6545C53.2354 49.1284 53.0774 49.6023 52.9195 50.0762C52.7615 50.3921 52.6035 50.5501 52.2876 50.2342C51.8137 49.9182 50.8659 49.7603 50.7079 49.2863C50.5499 48.9704 51.0238 48.1806 51.3398 47.7067C52.6035 45.811 53.0774 43.7574 52.7615 41.3879C52.6035 40.2821 52.7615 39.3343 52.7615 38.2285C52.7615 37.9126 52.7615 37.7546 53.2354 37.7546C55.131 37.5966 55.131 37.5967 55.131 39.4923C55.131 40.4401 55.131 41.2299 55.131 41.8618Z" fill="#010506"/>
</svg>
