<svg width="112" height="112" viewBox="0 0 112 112" fill="none" xmlns="http://www.w3.org/2000/svg">
<path d="M55.921 111.842C86.8053 111.842 111.842 86.8053 111.842 55.921C111.842 25.0367 86.8053 0 55.921 0C25.0367 0 0 25.0367 0 55.921C0 86.8053 25.0367 111.842 55.921 111.842Z" fill="#E1F3F5"/>
<path d="M29.8561 73.4556C28.9082 73.6136 28.7503 73.6136 28.5923 72.5078C26.8547 60.5021 30.33 50.3921 40.282 42.8096C40.44 42.6516 40.44 42.6516 40.5979 42.4937C38.8603 40.756 39.1762 38.7024 40.124 37.4387C40.7559 36.6488 41.3878 36.1749 42.3356 36.0169C42.8095 36.0169 42.8095 35.859 42.6515 35.3851C41.2298 30.804 39.8081 26.2229 38.2284 21.4838C38.2284 21.3258 38.2284 21.3258 38.0704 21.1679C40.282 21.6418 42.3356 22.1157 44.3892 22.5896C47.0747 23.2215 49.6022 23.8533 52.2876 24.3272C52.6036 24.3272 52.9195 24.3272 53.0775 24.1693C56.2369 23.0635 59.3963 22.1157 62.5556 21.0099C63.0295 20.8519 63.5034 20.8519 63.9774 20.8519C66.8208 20.8519 69.6642 20.8519 72.5077 20.8519C72.6656 20.8519 72.9816 20.8519 73.2975 20.8519C72.6656 22.9055 72.0338 24.9591 71.4019 27.1707C71.4019 27.4866 71.2439 27.4866 71.086 27.3287C70.928 27.3287 70.612 27.1707 70.4541 27.1707C69.5063 26.8548 69.5063 26.8547 69.8222 25.749C70.1381 24.8012 70.4541 23.8533 70.6121 22.9055C68.5585 22.9055 66.3469 22.9055 64.2933 22.9055C63.9774 22.9055 63.5034 22.9055 63.1875 23.0635C60.0281 24.1693 56.8688 25.2751 53.5514 26.2229C53.2355 26.3808 52.9195 26.5388 52.6036 26.3808C50.0761 25.749 47.3906 25.2751 44.8631 24.6432C43.7573 24.3272 42.4936 24.1693 41.2298 23.8533C42.1776 27.0127 43.1255 29.8562 44.0733 32.8576C44.3892 33.6474 44.5472 34.4373 44.8631 35.3851C45.0211 35.701 45.179 35.859 45.495 35.859C47.5486 35.859 49.4442 35.859 51.4978 35.859C51.6558 35.859 51.8137 35.859 51.9717 35.701C51.4978 34.7532 51.1819 33.8054 50.708 32.8576C50.392 32.2257 50.55 31.9098 51.1819 31.7518C51.3398 31.7518 51.6558 31.5938 51.8137 31.4358C52.1297 31.2779 52.2877 31.2779 52.4456 31.5938C52.6036 31.9098 52.7616 32.3837 52.9195 32.6996C53.2355 33.6474 53.7094 34.4373 54.0253 35.3851C54.1833 35.543 54.3412 35.701 54.4992 35.701C55.447 35.701 56.3948 35.701 57.3427 35.701C57.6586 35.701 57.8166 35.701 57.8166 35.3851C58.1325 34.4373 58.6064 33.6474 58.9223 32.6996C59.2383 31.9098 59.5542 31.2779 59.8702 30.488C59.8702 30.3301 60.0281 30.0141 60.3441 30.1721C60.818 30.3301 61.4499 30.488 61.9238 30.9619C62.0817 31.2779 61.6078 31.7518 61.4499 32.2257C61.4499 32.3837 61.2919 32.5416 61.2919 32.5416C60.818 33.4894 60.3441 34.5952 59.8702 35.543C60.0281 35.543 60.1861 35.543 60.3441 35.543C62.3977 35.543 64.2933 35.543 66.3469 35.543C66.5049 35.543 66.6628 35.543 66.6628 35.2271C66.9788 34.2793 67.1367 33.4894 67.4527 32.5416C67.7686 31.4358 68.0845 30.488 68.4005 29.3823C68.7164 28.4344 68.7164 28.4344 69.6642 28.5924C70.612 28.9083 70.612 28.9083 70.2961 29.8562C69.8222 31.5938 69.3483 33.3315 68.7164 34.9112C68.5585 35.2271 68.5585 35.3851 68.8744 35.3851C72.1917 36.3329 72.9816 39.1763 70.77 41.8618C72.3497 42.9676 73.7714 44.0734 75.0352 45.4951C79.1424 49.7602 81.6699 54.8153 82.6177 60.6601C83.2496 64.4514 83.4075 68.2426 82.6177 72.0339C82.4597 72.9817 82.4597 72.9817 81.3539 72.8237C81.038 72.5078 80.5641 72.8237 80.4061 72.3498C80.4061 72.1918 80.5641 72.0339 80.5641 72.0339C81.196 69.0325 81.196 66.031 80.88 63.0296C80.4061 58.9224 79.1424 55.1312 76.9308 51.6559C76.6149 51.182 76.4569 51.024 75.983 51.024C74.7192 51.024 73.4555 51.024 72.1917 51.024C70.928 51.024 70.928 51.024 70.928 49.7602C70.928 49.1284 71.086 48.9704 71.7178 48.9704C72.8236 48.9704 73.9294 48.9704 75.1931 48.9704C74.7192 48.3385 74.2453 47.8646 73.7714 47.3907C73.4555 47.0748 73.1395 46.9168 72.8236 46.9168C71.8758 46.9168 70.77 46.9168 69.6642 46.9168C68.0845 46.9168 68.0845 46.9168 68.2425 45.3371C68.2425 45.0212 68.4005 44.8632 68.7164 44.8632C69.5063 44.8632 70.1381 44.8632 70.928 44.8632C70.2961 44.2313 69.6642 43.9154 69.0324 43.4415C68.5585 42.9676 67.9266 42.9676 67.2947 42.9676C61.6078 42.9676 55.9209 42.9676 50.2341 42.9676C49.9181 42.9676 49.7601 42.9676 49.4442 42.9676C49.4442 42.6516 49.4442 42.3357 49.4442 42.0198C49.4442 40.756 49.2862 41.072 50.392 41.072C56.2369 41.072 62.0817 41.072 67.9266 41.072C69.1903 41.072 70.1381 39.9662 69.6642 38.8604C69.3483 38.0705 68.5585 37.7546 67.7686 37.7546C59.5542 37.7546 51.1819 37.7546 42.9675 37.7546C42.8095 37.7546 42.6515 37.7546 42.4936 37.7546C41.5458 37.9126 40.7559 38.5445 40.9139 39.4923C40.9139 40.4401 41.7037 41.072 42.6515 41.072C43.9153 41.072 45.0211 41.072 46.2848 41.072C47.3906 41.072 47.3906 41.072 47.3906 42.1777C47.3906 43.1256 47.3906 43.1255 46.2848 43.1255C45.337 43.1255 44.2312 43.1255 43.2834 43.1255C42.8095 43.1255 42.3356 43.2835 41.8617 43.5995C34.5951 48.3385 30.8039 55.2892 29.8561 63.8195C29.8561 64.1354 29.8561 64.2934 30.172 64.2934C30.8039 64.2934 31.4357 64.2934 32.0676 64.2934C32.5415 64.2934 32.5415 64.4514 32.5415 64.7673C32.5415 66.347 32.5415 66.347 31.1198 66.347C29.5401 66.347 29.5401 66.347 29.6981 67.9267C29.6981 68.2426 29.8561 68.4006 30.172 68.4006C31.1198 68.4006 32.0676 68.4006 33.0154 68.4006C34.5951 68.4006 34.4372 68.4006 34.4372 69.9803C34.4372 70.4542 34.2792 70.4542 33.9633 70.4542C32.6995 70.4542 31.5937 70.4542 30.33 70.4542C30.014 70.4542 29.8561 70.4542 30.014 70.9281C30.172 71.56 30.33 72.3498 30.4879 72.9817C30.6459 73.4556 30.172 73.1397 29.8561 73.4556Z" fill="#0A0C08"/>
<path d="M29.3823 88.6206C29.2244 89.7263 29.2244 89.7263 28.2766 89.7263C26.223 89.7263 24.1694 89.7263 22.1158 89.7263C21.6419 89.7263 21.4839 89.7264 21.4839 89.0945C21.4839 87.5148 21.4839 85.7771 21.4839 84.1974C21.4839 83.7235 21.6419 83.7235 22.1158 83.7235C23.3795 83.7235 23.3795 83.7235 23.3795 82.4598C23.3795 80.8801 23.3795 79.3004 23.3795 77.7207C23.3795 77.2468 23.5375 77.0888 24.0114 76.9309C26.223 76.6149 28.4345 76.299 30.8041 75.983C33.4895 75.6671 36.017 75.3512 38.7025 75.0352C41.7039 74.7193 44.8633 74.2454 47.8647 73.9295C51.1821 73.4555 53.7096 74.5613 55.7632 77.2468C55.9211 77.4048 55.9211 77.5627 56.0791 77.5627C57.8168 75.0352 59.8703 73.9295 62.5558 73.7715C63.6616 73.7715 64.6094 73.9295 65.5572 74.0874C66.663 74.2454 66.663 74.2454 66.663 75.3512C66.663 75.5091 66.663 75.5091 66.663 75.6671C66.663 76.141 66.505 76.457 65.8732 76.299C64.7674 75.983 63.6616 75.8251 62.7138 75.8251C59.7124 75.6671 57.1849 77.8787 56.8689 80.7221C56.711 81.512 56.8689 82.3018 56.711 83.0917C56.711 83.5656 56.8689 83.7235 57.1849 83.7235C59.3964 83.7235 61.766 83.7235 63.9775 83.7235C65.0833 83.7235 65.0833 83.7235 65.0833 84.8293C65.0833 85.7771 65.0833 85.7771 64.1355 85.7771C51.0241 85.7771 37.9127 85.7771 24.8012 85.7771C23.2215 85.7771 23.2215 85.7771 23.2215 87.3568C23.2215 87.8307 23.3795 87.8307 23.6955 87.8307C25.1172 87.8307 26.5389 87.8307 27.9606 87.8307C29.2244 87.6728 29.2244 87.6728 29.3823 88.6206ZM25.2751 80.7221C25.2751 81.512 25.2751 82.3018 25.2751 82.9337C25.2751 83.5656 25.4331 83.5656 25.907 83.5656C35.2272 83.5656 44.7053 83.5656 54.0255 83.5656C54.1835 83.5656 54.1835 83.5656 54.3414 83.5656C54.6574 83.5656 54.8153 83.4076 54.8153 83.0917C54.8153 82.3018 54.8153 81.354 54.6574 80.5641C54.3414 77.7207 51.656 75.5091 48.6546 75.6671C46.127 75.8251 43.5995 76.299 41.072 76.6149C36.017 77.2468 30.962 77.8787 25.907 78.5106C25.2751 78.5106 25.1172 78.8265 25.1172 79.3004C25.2751 79.9323 25.2751 80.2482 25.2751 80.7221Z" fill="#0A0C08"/>
<path d="M80.8801 76.1411C83.0916 76.457 85.4612 76.773 87.6727 76.931C88.1466 76.931 88.3046 77.0889 88.3046 77.5628C88.3046 79.4585 88.3046 81.1961 88.3046 83.0917C88.3046 83.5656 88.4626 83.7236 88.7785 83.5656C90.0423 83.5656 90.0423 83.5656 90.0423 84.8294C90.0423 86.2511 90.0423 87.6728 90.0423 89.2525C90.0423 89.5685 89.8843 89.7264 89.5684 89.7264C89.4104 89.7264 89.4104 89.7264 89.2524 89.7264C70.1382 89.7264 51.1819 89.7264 32.0676 89.7264C31.7517 89.7264 31.4358 89.8844 31.2778 89.5685C31.2778 89.2525 31.2778 88.7786 31.2778 88.4627C31.1198 87.8308 31.4358 87.6728 32.0676 87.6728C50.2341 87.6728 68.5585 87.6728 86.7249 87.6728C88.1466 87.6728 87.9887 87.6728 88.1466 86.4091C88.1466 85.7772 87.9887 85.7772 87.5148 85.7772C81.196 85.7772 74.7193 85.7772 68.4005 85.7772C67.4527 85.7772 67.4527 85.7772 67.4527 84.8294C67.4527 84.6714 67.4527 84.6714 67.4527 84.5135C67.2947 83.8816 67.6107 83.7236 68.2425 83.7236C70.1382 83.7236 72.0338 83.7236 73.9294 83.7236C77.8786 83.7236 81.9858 83.7236 85.9351 83.7236C86.409 83.7236 86.5669 83.5656 86.5669 83.0917C86.5669 82.3019 86.5669 81.512 86.5669 80.7222C86.5669 80.2483 86.5669 79.9324 86.5669 79.4585C86.5669 78.9845 86.409 78.8266 85.9351 78.8266C83.4076 78.5106 80.7221 78.1947 78.1946 77.8788C75.1932 77.5628 72.1918 77.0889 69.1904 76.773C68.7164 76.773 68.5585 76.457 68.5585 75.9831C68.7165 75.8252 68.7165 75.6672 68.7165 75.3513C68.7165 74.5614 68.7165 74.5614 69.5063 74.7194C70.2961 74.8774 71.086 74.8774 72.0338 75.0353C74.8772 75.3513 77.8787 75.6672 80.8801 76.1411Z" fill="#0A0C08"/>
<path d="M52.9197 33.0155C52.7617 32.6996 52.6037 32.2257 52.4458 31.9097C52.2878 31.5938 52.1298 31.5938 51.8139 31.7518C51.6559 31.9097 51.34 31.9097 51.182 32.0677C50.5502 32.2257 50.2342 32.5416 50.7081 33.1735C48.4965 33.1735 46.285 33.1735 44.0734 33.1735C43.1256 30.1721 42.1778 27.1707 41.23 24.1693C42.4937 24.4852 43.7575 24.6432 44.8633 24.9591C47.3908 25.591 50.0762 26.0649 52.6037 26.6968C52.9197 26.8547 53.2356 26.6968 53.5516 26.5388C56.7109 25.433 59.8703 24.3272 63.1877 23.3794C63.5036 23.2214 63.9775 23.2214 64.2934 23.2214C66.347 23.2214 68.4006 23.2214 70.6122 23.2214C70.2963 24.1692 69.9803 25.1171 69.8224 26.0649C69.5064 27.0127 69.5064 27.0127 70.4542 27.4866C70.2963 28.1185 70.1383 28.7504 69.9803 29.3822C69.0325 29.0663 69.0325 29.0663 68.7166 30.1721C68.4006 31.2779 68.0847 32.2257 67.7688 33.3315C65.8731 33.3315 64.1355 33.3315 62.2399 33.3315C62.0819 33.3315 61.7659 33.4894 61.608 33.1735C61.608 33.0155 61.7659 32.8575 61.7659 32.8575C61.9239 32.3836 62.3978 31.9097 62.2399 31.5938C61.9239 31.2779 61.292 31.1199 60.6602 30.8039C60.3442 30.646 60.3442 30.9619 60.1863 31.1199C59.8703 31.9097 59.5544 32.5416 59.2384 33.3315C56.8689 33.0155 54.9733 33.0155 52.9197 33.0155Z" fill="#5BBF90"/>
<path d="M80.8799 76.141C77.8785 75.8251 74.7191 75.3512 71.7177 75.0352C70.9279 74.8773 70.138 74.8773 69.1902 74.7193C68.4004 74.5613 68.4004 74.5613 68.4004 75.3512C68.4004 75.5092 68.4004 75.8251 68.2424 75.9831C68.2424 75.8251 68.0844 75.5092 67.9265 75.5092C67.4526 75.5092 66.9787 75.3512 66.3468 75.3512C66.3468 74.2454 66.3468 74.2454 65.241 74.0874C64.2932 73.9295 63.1874 73.7715 62.2396 73.7715C59.5541 73.9295 57.5005 75.0352 55.7629 77.5628C55.6049 77.5628 55.4469 77.4048 55.4469 77.2468C53.5513 74.5613 50.8658 73.4556 47.5485 73.9295C44.5471 74.2454 41.3877 74.7193 38.3863 75.0352C35.7008 75.3512 33.1733 75.6671 30.4878 75.9831C30.3299 75.0352 29.856 74.2454 29.856 73.4556C30.1719 73.1396 30.6458 73.4556 30.8038 72.9817C31.5936 72.8237 32.3835 72.6657 33.1733 72.6657C35.0689 72.3498 36.9646 72.1918 38.8602 71.8759C40.4399 71.7179 42.0196 71.402 43.5993 71.244C45.1789 71.086 46.7586 70.7701 48.3383 70.6121C50.7079 70.4541 53.0774 71.086 54.973 72.5077C55.4469 72.8237 55.7629 72.8237 56.0788 72.5077C57.6585 71.244 59.5541 70.7701 61.4498 70.6121C63.1874 70.4541 64.9251 70.9281 66.6627 71.086C68.2424 71.244 69.8221 71.402 71.4018 71.7179C72.9815 71.8759 74.5612 72.1918 76.1409 72.3498C77.5626 72.5077 79.1423 72.8237 80.564 72.8237C80.722 73.4556 81.1959 73.1396 81.5118 73.2976C81.3538 74.2454 81.1959 75.1932 80.8799 76.141Z" fill="#567A85"/>
<path d="M67.2948 84.6714C67.2948 85.6192 67.2948 85.6192 68.2426 85.6192C74.5613 85.6192 81.0381 85.6192 87.3568 85.6192C87.9887 85.6192 87.9887 85.7772 87.9887 86.2511C87.9887 87.5148 87.9887 87.5148 86.567 87.5148C68.4005 87.5148 50.0762 87.5148 31.9097 87.5148C31.2778 87.5148 31.1199 87.6728 31.1199 88.3047C31.1199 88.6206 31.1199 89.0945 31.1199 89.4105C31.1199 89.2525 31.1199 89.0945 31.1199 88.9366C31.1199 88.6206 30.9619 88.4627 30.646 88.4627C30.1721 88.4627 29.6982 88.4627 29.2242 88.4627C29.2242 87.5148 29.2242 87.5148 28.1185 87.5148C26.6967 87.5148 25.275 87.5148 23.8533 87.5148C23.5374 87.5148 23.3794 87.5148 23.3794 87.0409C23.3794 85.4612 23.3794 85.4612 24.9591 85.4612C38.0705 85.4612 51.1819 85.4612 64.2934 85.4612C65.2412 85.4612 65.2412 85.4612 65.2412 84.5134C66.031 84.6714 66.6629 84.6714 67.2948 84.6714Z" fill="#FEBE12"/>
<path d="M80.7221 72.8237C79.3004 72.8237 77.7207 72.5078 76.2989 72.3498C74.7193 72.1918 73.1396 71.8759 71.5599 71.7179C69.9802 71.56 68.4005 71.244 66.8208 71.0861C65.0832 70.9281 63.3455 70.4542 61.6078 70.6121C59.7122 70.7701 57.8166 71.402 56.2369 72.5078C55.763 72.8237 55.447 72.8237 55.1311 72.5078C53.0775 71.0861 50.8659 70.4542 48.4964 70.6121C46.9167 70.7701 45.337 70.9281 43.7573 71.244C42.1777 71.402 40.598 71.7179 39.0183 71.8759C37.1226 72.1918 35.227 72.3498 33.3314 72.6657C32.5415 72.8237 31.7517 72.8237 30.9619 72.9817C30.8039 72.3498 30.6459 71.56 30.4879 70.9281C30.4879 70.6121 30.4879 70.4542 30.8039 70.4542C32.0676 70.4542 33.1734 70.4542 34.4372 70.4542C34.9111 70.4542 34.9111 70.2962 34.9111 69.9803C34.9111 68.4006 34.9111 68.4006 33.4894 68.4006C32.5415 68.4006 31.5937 68.4006 30.6459 68.4006C30.33 68.4006 30.172 68.2426 30.172 67.9267C30.014 66.347 30.014 66.347 31.5937 66.347C33.1734 66.347 33.0155 66.347 33.0155 64.7673C33.0155 64.2934 32.8575 64.2934 32.5415 64.2934C31.9097 64.2934 31.2778 64.2934 30.6459 64.2934C30.33 64.2934 30.172 64.1354 30.33 63.8195C31.2778 55.2892 35.069 48.3385 42.3356 43.5995C42.8095 43.2835 43.1255 43.1255 43.7573 43.1255C44.7052 43.1255 45.8109 43.1255 46.7588 43.1255C47.7066 43.1255 47.7066 43.1255 47.8645 42.1777C48.1805 42.1777 48.3384 42.1777 48.6544 42.1777C49.7602 42.1777 49.7602 42.1777 49.9181 43.1255C50.2341 43.1255 50.392 43.1255 50.708 43.1255C56.3949 43.1255 62.0817 43.1255 67.7686 43.1255C68.4005 43.1255 69.0324 43.2835 69.5063 43.5995C70.1382 44.0734 70.77 44.5473 71.4019 45.0212C70.6121 45.0212 69.9802 45.0212 69.1903 45.0212C68.8744 45.0212 68.7164 45.1791 68.7164 45.4951C68.7164 47.0748 68.7164 47.0748 70.1382 47.0748C71.2439 47.0748 72.1918 47.0748 73.2975 47.0748C73.7714 47.0748 74.0874 47.2327 74.2454 47.5487C74.7193 48.0226 75.0352 48.4965 75.6671 49.1284C74.4033 49.1284 73.2975 49.1284 72.1918 49.1284C71.5599 49.1284 71.4019 49.2863 71.4019 49.9182C71.4019 51.182 71.4019 51.182 72.6657 51.182C73.9294 51.182 75.1932 51.182 76.4569 51.182C76.9308 51.182 77.2468 51.3399 77.4047 51.8138C79.4583 55.2892 80.7221 59.0804 81.354 63.1876C81.6699 66.189 81.6699 69.1904 81.038 72.1918C80.8801 72.6657 80.7221 72.8237 80.7221 72.8237ZM56.5528 60.0282C57.0267 60.0282 57.6586 60.0282 58.1325 60.0282C59.0803 60.0282 59.0803 60.0282 59.0803 59.2384C59.0803 58.1326 59.0803 58.1326 57.8166 58.1326C56.7108 58.1326 56.7108 58.1326 56.7108 57.0268C56.7108 56.3949 56.5528 56.079 55.921 56.237C54.6572 56.237 54.6572 56.237 54.6572 57.5007C54.6572 57.9746 54.6572 58.1326 54.0253 58.2906C52.4456 58.4485 51.3399 59.7123 51.3399 61.292C51.3399 62.8717 52.4456 64.1354 53.8674 64.4514C54.8152 64.6093 55.763 64.4514 56.5528 64.6093C56.8688 64.6093 57.1847 64.6093 57.5006 64.7673C57.9746 65.0832 58.1325 65.5571 57.9746 66.031C57.8166 66.6629 57.3427 66.8209 56.7108 66.8209C55.605 66.8209 54.4992 66.8209 53.3934 66.8209C52.2877 66.8209 52.2877 66.8209 52.2877 67.9267C52.2877 68.8745 52.2877 68.8745 53.2355 68.8745C53.5514 68.8745 53.8674 68.8745 54.1833 68.8745C54.6572 68.8745 54.6572 69.0325 54.6572 69.3484C54.6572 70.7701 54.6572 70.7701 56.0789 70.7701C56.5528 70.7701 56.7108 70.6121 56.7108 70.1382C56.7108 69.8223 56.5528 69.3484 56.7108 69.0325C56.8688 68.7165 57.3427 68.8745 57.6586 68.7165H57.8166C59.2383 68.2426 60.0281 66.8209 59.8702 65.3992C59.7122 63.8195 58.4485 62.7137 57.0267 62.5557C56.2369 62.5557 55.2891 62.5557 54.3413 62.5557C53.5514 62.5557 53.2355 62.0818 53.2355 61.4499C53.2355 60.8181 53.7094 60.3442 54.3413 60.3442C55.2891 60.0282 55.921 60.0282 56.5528 60.0282ZM44.5472 52.1298C45.1791 52.1298 45.8109 52.1298 46.4428 52.1298C46.9167 52.1298 47.0747 51.9718 47.0747 51.4979C47.0747 50.0762 47.0747 50.0762 45.653 50.0762C44.7052 50.0762 44.7052 50.0762 44.7052 49.1284C44.7052 48.1806 44.7052 48.1806 43.7573 48.1806C42.6516 48.1806 42.6516 48.1806 42.6516 49.2863C42.6516 49.7602 42.6516 50.0762 42.0197 50.2341C40.44 50.3921 39.3342 51.8138 39.3342 53.3935C39.3342 54.9732 40.44 56.237 42.1777 56.5529C42.9675 56.7109 43.9153 56.5529 44.8631 56.5529C45.1791 56.5529 45.495 56.5529 45.653 56.7109C46.1269 57.0268 46.2848 57.5007 46.1269 57.9746C45.9689 58.4485 45.653 58.7645 45.0211 58.7645C43.7573 58.7645 42.3356 58.7645 41.0719 58.7645C40.598 58.7645 40.44 58.9224 40.44 59.3963C40.44 60.8181 40.44 60.8181 41.8617 60.8181H42.0197C42.4936 60.6601 42.8095 60.976 42.6516 61.4499C42.6516 61.6079 42.6516 61.6079 42.6516 61.7659C42.6516 62.7137 42.6516 62.7137 43.5994 62.7137C44.7052 62.7137 44.7052 62.7137 44.7052 61.6079C44.7052 60.976 44.8631 60.8181 45.495 60.8181C47.0747 60.6601 48.1805 59.2384 48.1805 57.6587C48.1805 56.079 47.0747 54.8152 45.495 54.6573C44.5472 54.4993 43.5994 54.6573 42.8095 54.6573C42.0197 54.6573 41.5458 54.1834 41.5458 53.5515C41.5458 52.9196 42.0197 52.4457 42.8095 52.4457C43.2834 51.9718 43.9153 52.1298 44.5472 52.1298ZM69.1903 56.5529C69.8222 56.5529 70.4541 56.5529 71.086 56.5529C71.5599 56.5529 71.7179 56.3949 71.7179 55.921C71.7179 54.4993 71.7179 54.4993 70.2961 54.4993H70.1382C69.6643 54.6573 69.3483 54.3413 69.5063 53.8674C69.5063 53.7095 69.5063 53.5515 69.5063 53.3935C69.5063 52.4457 69.5063 52.4457 68.5585 52.4457C67.4527 52.4457 67.4527 52.4457 67.4527 53.5515C67.4527 54.1834 67.2947 54.3413 66.6628 54.3413C65.0832 54.4993 63.9774 55.7631 63.9774 57.3428C63.9774 58.9224 65.0832 60.1862 66.5049 60.5021C67.4527 60.6601 68.4005 60.5021 69.5063 60.6601C69.9802 60.6601 70.4541 60.8181 70.6121 61.292C70.928 62.0818 70.4541 62.8717 69.5063 62.8717C68.2425 62.8717 66.8208 62.8717 65.5571 62.8717C65.2411 62.8717 65.0832 62.8717 65.0832 63.3456C65.0832 63.6615 65.0832 64.1354 65.0832 64.4514C65.0832 64.7673 65.2411 64.9253 65.5571 64.9253C66.031 64.9253 66.5049 64.9253 66.9788 64.9253C67.2947 64.9253 67.4527 65.0832 67.4527 65.3992C67.4527 65.8731 67.2947 66.505 67.6107 66.8209C67.9266 67.1368 68.5585 66.8209 69.0324 66.9789C69.5063 66.9789 69.6643 66.8209 69.5063 66.505C69.5063 66.347 69.5063 66.189 69.5063 66.031C69.3483 65.3992 69.6643 65.0832 70.2961 65.0832C71.7179 64.9253 72.8236 63.5035 72.8236 61.9239C72.8236 60.3442 71.5599 59.0804 69.9802 58.9224C69.0324 58.9224 68.0846 58.9224 67.2947 58.9224C66.5049 58.9224 66.1889 58.4485 66.1889 57.8167C66.1889 57.1848 66.6628 56.7109 67.2947 56.7109C67.9266 56.5529 68.5585 56.5529 69.1903 56.5529ZM65.3991 47.3907C66.5049 47.3907 66.5049 47.5487 66.5049 46.4429C66.5049 45.1791 66.6628 45.3371 65.5571 45.3371C64.2933 45.3371 64.4513 45.1791 64.4513 46.2849C64.4513 47.5487 64.2933 47.3907 65.3991 47.3907ZM38.0705 68.5586C36.9647 68.5586 36.9647 68.4006 36.9647 69.5064C36.9647 70.7701 36.8067 70.6121 37.9125 70.6121C39.1762 70.6121 39.0183 70.7701 39.0183 69.6643C39.0183 68.5585 39.1762 68.5586 38.0705 68.5586Z" fill="#5BBF90"/>
<path d="M49.7603 43.4415C49.6023 42.4937 49.6023 42.4937 48.4966 42.4937C48.1806 42.4937 48.0226 42.4937 47.7067 42.4937C47.7067 41.3879 47.7067 41.3879 46.6009 41.3879C45.3372 41.3879 44.2314 41.3879 42.9676 41.3879C42.0198 41.3879 41.23 40.756 41.23 39.8082C41.23 38.8604 41.8619 38.2285 42.8097 38.0706C42.9676 38.0706 43.1256 38.0706 43.2836 38.0706C51.498 38.0706 59.8703 38.0706 68.0847 38.0706C68.8745 38.0706 69.6644 38.3865 69.9803 39.1763C70.4542 40.2821 69.6644 41.3879 68.2427 41.3879C62.3978 41.3879 56.553 41.3879 50.7081 41.3879C49.6023 41.3879 49.7603 41.2299 49.7603 42.3357C49.7603 42.6517 49.7603 43.1256 49.7603 43.4415Z" fill="#FEBE12"/>
<path d="M44.0732 33.0155C46.2848 33.0155 48.4964 33.0155 50.7079 33.0155C51.1818 33.9633 51.4978 34.9111 51.9717 35.8589C51.8137 36.0169 51.6558 36.0169 51.4978 36.0169C49.4442 36.0169 47.5486 36.0169 45.495 36.0169C45.0211 36.0169 44.8631 35.8589 44.8631 35.543C44.5471 34.7532 44.2312 33.9633 44.0732 33.0155Z" fill="#567A85"/>
<path d="M61.2918 32.8575C61.4498 33.0155 61.7657 33.0155 61.9237 33.0155C63.8193 33.0155 65.557 33.0155 67.4526 33.0155C67.1367 33.9633 66.9787 34.7532 66.6628 35.701C66.6628 35.859 66.5048 36.0169 66.3468 36.0169C64.2932 36.0169 62.3976 36.0169 60.344 36.0169C60.1861 36.0169 60.1861 36.0169 59.8701 36.0169C60.344 34.9111 60.8179 33.9633 61.2918 32.8575Z" fill="#567A85"/>
<path d="M52.9197 33.0155C54.9733 33.0155 56.8689 33.0155 58.9225 33.0155C58.6066 33.9633 58.1327 34.7532 57.8167 35.701C57.6587 36.0169 57.5008 36.0169 57.3428 36.0169C56.395 36.0169 55.4472 36.0169 54.4994 36.0169C54.3414 36.0169 54.1834 36.0169 54.0255 35.701C53.7095 34.9111 53.2356 33.9633 52.9197 33.0155Z" fill="#567A85"/>
<path d="M66.505 75.3512C66.9789 75.3512 67.4528 75.5092 68.0847 75.5092C68.4006 75.5092 68.4006 75.6671 68.4006 75.9831C68.2427 76.457 68.4006 76.6149 69.0325 76.7729C72.0339 77.0889 75.0353 77.5628 78.0367 77.8787C80.5642 78.1946 83.2497 78.5106 85.7772 78.8265C86.2511 78.8265 86.4091 78.9845 86.4091 79.4584C86.4091 79.9323 86.4091 80.2482 86.4091 80.7221C76.615 80.7221 66.8209 80.7221 57.0269 80.7221C57.3428 77.8787 59.8703 75.6671 62.8717 75.8251C63.8195 75.8251 64.7673 75.9831 65.7151 76.141C66.347 76.299 66.505 76.141 66.505 75.5092C66.505 75.5092 66.505 75.3512 66.505 75.3512Z" fill="#F7FAFC"/>
<path d="M25.2751 80.7221C25.2751 80.4062 25.2751 79.9323 25.2751 79.6163C25.1172 78.9845 25.4331 78.8265 26.065 78.8265C31.12 78.1946 36.175 77.5628 41.23 76.9309C43.7575 76.6149 46.285 76.141 48.8125 75.9831C51.8139 75.6671 54.3414 77.8787 54.8153 80.8801C44.8633 80.7221 35.0692 80.7221 25.2751 80.7221Z" fill="#F7FAFC"/>
<path d="M56.8688 80.7222C66.6629 80.7222 76.4569 80.7222 86.251 80.7222C86.251 81.512 86.251 82.3019 86.251 83.0917C86.251 83.5656 86.0931 83.7236 85.6191 83.7236C81.6699 83.7236 77.5627 83.7236 73.6135 83.7236C71.7179 83.7236 69.8222 83.7236 67.9266 83.7236C67.2947 83.7236 66.9788 83.8815 67.1368 84.5134C67.1368 84.6714 67.1368 84.6714 67.1368 84.8294C66.5049 84.8294 65.873 84.8294 65.2411 84.8294C65.2411 83.7236 65.2411 83.7236 64.1354 83.7236C61.9238 83.7236 59.5543 83.7236 57.3427 83.7236C56.8688 83.7236 56.7108 83.5656 56.8688 83.0917C56.8688 82.3019 56.7108 81.512 56.8688 80.7222Z" fill="#E4E8ED"/>
<path d="M25.275 80.7222C35.0691 80.7222 44.8631 80.7222 54.6572 80.7222C54.8152 81.512 54.6572 82.4598 54.8152 83.2497C54.8152 83.5656 54.6572 83.7236 54.3413 83.7236C54.1833 83.7236 54.1833 83.7236 54.0253 83.7236C44.7052 83.7236 35.227 83.7236 25.9069 83.7236C25.275 83.7236 25.117 83.5656 25.275 83.0917C25.275 82.1439 25.275 81.512 25.275 80.7222Z" fill="#E4E8ED"/>
<path d="M56.553 60.0282C55.9211 60.0282 55.2893 60.0282 54.4994 60.0282C53.7096 60.0282 53.3936 60.5021 53.3936 61.134C53.3936 61.7659 53.8675 62.2398 54.4994 62.2398C55.4472 62.2398 56.2371 62.2398 57.1849 62.2398C58.7646 62.3977 59.8704 63.5035 60.0283 65.0832C60.1863 66.5049 59.3965 67.9267 57.9747 68.4006H57.8168C57.5008 68.5585 57.0269 68.4006 56.869 68.7165C56.711 69.0324 56.869 69.5063 56.869 69.8223C56.869 70.2962 56.711 70.4542 56.2371 70.4542C54.8154 70.4542 54.8154 70.4542 54.8154 69.0324C54.8154 68.5585 54.6574 68.5585 54.3415 68.5585C54.0255 68.5585 53.7096 68.5585 53.3936 68.5585C52.4458 68.5585 52.4458 68.5585 52.4458 67.6107C52.4458 66.5049 52.4458 66.5049 53.5516 66.5049C54.6574 66.5049 55.7632 66.5049 56.869 66.5049C57.3429 66.5049 57.8168 66.347 58.1327 65.7151C58.2907 65.2412 58.1327 64.7673 57.6588 64.4513C57.3429 64.2934 57.0269 64.2934 56.711 64.2934C55.7632 64.2934 54.8154 64.4513 54.0255 64.1354C52.6038 63.8195 51.34 62.5557 51.498 60.976C51.498 59.3963 52.7618 58.1326 54.1835 57.9746C54.6574 57.9746 54.8154 57.6587 54.8154 57.1848C54.8154 55.921 54.8154 55.921 56.0791 55.921C56.869 55.921 56.869 56.079 56.869 56.7109C56.869 57.8166 56.869 57.8166 57.9747 57.8166C59.2385 57.8166 59.2385 57.8166 59.2385 58.9224C59.2385 59.7123 59.2385 59.7123 58.2907 59.7123C57.6588 60.0282 57.1849 60.0282 56.553 60.0282Z" fill="#0A0C08"/>
<path d="M44.5472 52.1298C43.9153 52.1298 43.2835 52.1298 42.4936 52.1298C41.7038 52.1298 41.2299 52.6037 41.2299 53.2356C41.2299 53.8674 41.7038 54.3414 42.4936 54.3414C43.4414 54.3414 44.3893 54.3414 45.1791 54.3414C46.7588 54.4993 47.8646 55.7631 47.8646 57.3428C47.8646 58.9225 46.7588 60.1862 45.1791 60.5021C44.5472 60.5021 44.3893 60.8181 44.3893 61.292C44.3893 62.3978 44.3893 62.3978 43.2835 62.3978C42.3357 62.3978 42.3357 62.3978 42.3357 61.45C42.3357 61.292 42.3357 61.292 42.3357 61.134C42.4936 60.6601 42.1777 60.3442 41.7038 60.5021H41.5458C39.9661 60.5021 40.1241 60.5021 40.1241 59.0804C40.1241 58.6065 40.2821 58.4485 40.756 58.4485C42.0197 58.4485 43.4414 58.4485 44.7052 58.4485C45.1791 58.4485 45.653 58.1326 45.811 57.6587C45.9689 57.1848 45.811 56.7109 45.3371 56.395C45.0211 56.237 44.8632 56.237 44.5472 56.237C43.5994 56.237 42.8096 56.237 41.8618 56.237C40.2821 56.079 39.1763 54.6573 39.0183 53.0776C39.0183 51.4979 40.1241 50.2342 41.7038 49.9182C42.3357 49.7603 42.3357 49.6023 42.3357 48.9704C42.3357 47.8646 42.3357 47.8646 43.4414 47.8646C44.3893 47.8646 44.3893 47.8646 44.3893 48.8124C44.3893 49.7603 44.3893 49.7603 45.3371 49.7603C46.7588 49.7603 46.7588 49.7603 46.7588 51.182C46.7588 51.6559 46.6008 51.8138 46.1269 51.8138C45.811 51.9718 45.1791 51.9718 44.5472 52.1298Z" fill="#0A0C08"/>
<path d="M69.1903 56.5529C68.5584 56.5529 67.9265 56.5529 67.1367 56.5529C66.3468 56.5529 66.0309 57.0268 66.0309 57.6587C66.0309 58.2905 66.5048 58.7645 67.1367 58.7645C68.0845 58.7645 69.0323 58.7645 69.8222 58.7645C71.4018 58.9224 72.6656 60.1862 72.6656 61.7659C72.6656 63.1876 71.5598 64.6093 70.1381 64.9252C69.5062 65.0832 69.1903 65.2412 69.3482 65.8731C69.3482 66.031 69.3482 66.189 69.3482 66.347C69.3482 66.8209 69.1903 66.9788 68.8743 66.8209C68.4004 66.8209 67.7686 66.9788 67.4526 66.6629C67.1367 66.347 67.2946 65.7151 67.2946 65.2412C67.2946 64.9252 67.1367 64.7673 66.8207 64.7673C66.3468 64.7673 65.8729 64.7673 65.399 64.7673C65.0831 64.7673 64.9251 64.7673 64.9251 64.2934C64.9251 63.9774 64.9251 63.5035 64.9251 63.1876C64.9251 62.7137 65.0831 62.7137 65.399 62.7137C66.6628 62.7137 68.0845 62.7137 69.3482 62.7137C70.2961 62.7137 70.9279 61.9238 70.454 61.134C70.2961 60.6601 69.8222 60.5021 69.3482 60.5021C68.4004 60.5021 67.4526 60.6601 66.3468 60.3441C64.9251 60.0282 63.8193 58.7645 63.8193 57.1848C63.8193 55.6051 64.9251 54.3413 66.5048 54.1833C67.1367 54.1833 67.2946 53.8674 67.2946 53.3935C67.2946 52.2877 67.2946 52.2877 68.4004 52.2877C69.3482 52.2877 69.3482 52.2877 69.3482 53.2355C69.3482 53.3935 69.3482 53.5515 69.3482 53.7094C69.3482 54.1833 69.5062 54.4993 69.9801 54.3413H70.1381C71.7178 54.3413 71.5598 54.3413 71.5598 55.763C71.5598 56.2369 71.4018 56.3949 70.9279 56.3949C70.612 56.3949 69.8221 56.5529 69.1903 56.5529Z" fill="#0A0C08"/>
<path d="M65.3992 47.3907C64.2934 47.3907 64.4514 47.5487 64.4514 46.285C64.4514 45.1792 64.2934 45.3371 65.5572 45.3371C66.505 45.3371 66.347 45.1792 66.505 46.4429C66.505 47.5487 66.505 47.3907 65.3992 47.3907Z" fill="#F7FAFC"/>
<path d="M38.0704 68.5585C39.1762 68.5585 39.0182 68.4005 39.0182 69.6642C39.0182 70.77 39.1762 70.6121 37.9124 70.6121C36.9646 70.6121 37.1226 70.77 36.9646 69.5063C36.9646 68.4005 36.9646 68.5585 38.0704 68.5585Z" fill="#F7FAFC"/>
</svg>
