<svg width="112" height="112" viewBox="0 0 112 112" fill="none" xmlns="http://www.w3.org/2000/svg">
<path d="M55.921 111.842C86.8053 111.842 111.842 86.8053 111.842 55.921C111.842 25.0367 86.8053 0 55.921 0C25.0367 0 0 25.0367 0 55.921C0 86.8053 25.0367 111.842 55.921 111.842Z" fill="#E1F3F5"/>
<path d="M51.8138 60.976C50.3921 60.976 48.9704 60.976 47.7066 60.5021C42.9675 58.6065 41.3879 52.7616 44.7052 48.9704C46.6008 46.6008 47.7066 43.9154 47.5486 40.9139C47.5486 39.1763 47.5486 37.4386 47.5486 35.8589C47.7066 32.2257 48.9704 28.9083 51.4979 26.2228C53.8674 23.6953 56.7108 22.1156 60.1862 21.4838C64.2934 20.8519 68.2426 21.6417 71.7179 24.1692C71.8759 24.1692 71.8759 24.3272 71.8759 24.4852C70.1382 27.4866 67.9266 30.0141 65.2412 32.2257C64.9252 32.3836 64.7673 32.6996 64.4513 32.8575C60.976 35.543 56.8688 37.1227 52.6036 37.7546C51.9718 37.9125 51.8138 38.0705 51.8138 38.7024C51.8138 41.3879 51.8138 44.2313 51.8138 46.9168C51.8138 49.4443 52.7616 51.4979 54.4993 53.2355C55.2891 54.0254 56.2369 54.4993 57.1848 55.1312C57.1848 55.921 56.8688 56.7108 56.7108 57.5007C55.763 59.5543 54.0254 60.5021 51.9718 61.134C51.9718 60.976 51.9718 60.976 51.8138 60.976Z" fill="#C69292"/>
<path d="M51.8138 61.7659H51.3399C50.0761 61.7659 48.6544 61.7659 47.3906 61.292C44.8631 60.3442 42.9675 58.2906 42.3356 55.7631C41.7038 53.2356 42.3356 50.5501 43.9153 48.4965C45.811 46.2849 46.6008 43.7574 46.6008 40.914V40.1241C46.6008 38.7024 46.6008 37.2807 46.6008 35.701C46.7588 31.9097 48.1805 28.4344 50.708 25.591C53.2355 22.9055 56.2369 21.1679 59.8702 20.6939C64.2933 19.9041 68.4005 20.8519 72.0338 23.5374C72.1918 23.6954 72.3497 23.6954 72.3497 23.8533L72.6657 24.3272V24.6432C70.928 27.6446 68.7165 30.3301 65.873 32.5416L65.0832 33.1735C61.4499 35.859 57.3427 37.5966 52.9196 38.2285H52.7616V38.3865C52.7616 41.0719 52.7616 43.9154 52.7616 46.6009C52.7616 48.8124 53.5514 50.7081 55.1311 52.4457C55.605 53.0776 56.3949 53.3935 57.0268 53.8674L57.9746 54.4993V54.8152C57.9746 55.4471 57.8166 56.079 57.6586 56.7109C57.6586 56.8688 57.5007 57.1848 57.5007 57.3427V57.5007C56.3949 59.8703 54.1833 60.976 52.4457 61.6079L51.8138 61.7659ZM62.8716 21.9577C62.0818 21.9577 61.1339 21.9577 60.3441 22.1157C57.1847 22.5896 54.3413 24.1693 52.1297 26.5388C49.7602 29.2243 48.4964 32.2257 48.3385 35.701C48.3385 37.1227 48.3385 38.5444 48.3385 39.9662V40.756C48.3385 43.9154 47.3906 46.9168 45.1791 49.4443C43.7574 51.182 43.2835 53.2356 43.9153 55.2892C44.3892 57.3427 45.9689 58.9224 48.0225 59.7123C49.1283 60.1862 50.2341 60.1862 51.4978 60.1862H51.8138L51.9717 60.0282C54.1833 59.2384 55.4471 58.2906 56.2369 56.8688C56.2369 56.7109 56.3949 56.3949 56.3949 56.237C56.5528 55.921 56.5528 55.6051 56.5528 55.2892H56.2369C55.4471 54.8152 54.6572 54.3413 54.0253 53.5515C52.1297 51.4979 51.1819 49.2863 51.1819 46.6009C51.1819 43.9154 51.1819 41.0719 51.1819 38.3865C51.1819 37.2807 51.6558 36.8068 52.6036 36.6488C56.8688 36.0169 60.66 34.4372 64.1354 31.9097L64.9252 31.2779C67.2947 29.3822 69.3483 27.0127 70.928 24.3272C68.4005 22.7475 65.715 21.9577 62.8716 21.9577Z" fill="black"/>
<path d="M37.9125 43.1255C36.0169 43.1255 34.2792 43.1255 32.3836 43.1255C27.1706 43.1255 22.7475 39.1763 21.7997 34.1213C20.8519 28.1185 24.6431 22.5895 30.8039 21.4838C31.1198 21.6417 31.4358 21.7997 31.7517 21.7997C33.6473 22.4316 35.385 23.5374 36.6488 25.1171C38.5444 27.3286 39.4922 30.0141 39.3342 33.0155C39.1763 35.2271 38.3864 37.2807 37.1227 39.0183C36.1748 40.2821 36.4908 41.5458 37.5966 42.4936C37.9125 42.4936 38.0705 42.8096 37.9125 43.1255ZM36.8067 31.1199C36.1748 31.1199 35.7009 31.5938 35.7009 32.0677C35.7009 32.6996 36.1748 33.1735 36.8067 33.1735C37.4386 33.1735 37.9125 32.6996 37.9125 32.2257C37.7545 31.5938 37.2806 31.1199 36.8067 31.1199ZM29.3822 32.2257C29.3822 31.5938 29.0662 31.1199 28.4344 31.1199C27.8025 31.1199 27.3286 31.5938 27.3286 32.2257C27.3286 32.6996 27.8025 33.1735 28.4344 33.1735C29.0662 33.1735 29.3822 32.8575 29.3822 32.2257ZM33.6473 32.2257C33.6473 31.5938 33.1734 31.1199 32.6995 31.1199C32.0676 31.1199 31.5937 31.5938 31.5937 32.0677C31.5937 32.6996 31.9097 33.1735 32.5416 33.1735C33.1734 33.1735 33.6473 32.6996 33.6473 32.2257Z" fill="#FEBE12"/>
<path d="M37.1226 88.7786C37.1226 83.7236 37.1226 78.6686 37.1226 73.6136C37.1226 69.8223 39.4921 66.189 43.1254 64.7673C45.6529 63.8195 48.1804 62.5557 50.7079 61.45C50.7079 61.45 50.8659 61.45 50.8659 61.292H51.0238V61.45C50.8659 62.7137 50.8659 63.8195 51.0238 65.0833C51.0238 65.0833 51.0238 65.0832 51.0238 65.2412C51.0238 66.8209 51.0238 68.5586 51.0238 70.1383C49.6021 70.1383 48.1804 70.1383 46.7587 70.1383C45.8109 70.1383 44.863 70.9281 44.863 72.0339C44.863 72.3498 44.863 72.8237 44.863 73.1397C45.021 74.7194 45.179 76.2991 45.337 77.7208C45.4949 79.3005 45.6529 80.8801 45.8109 82.3019C45.9688 84.3555 46.2848 86.567 46.4427 88.6206C43.4413 88.7786 40.2819 88.7786 37.1226 88.7786Z" fill="#567A85"/>
<path d="M47.3906 89.5685H36.4907V84.1975C36.4907 80.7222 36.4907 77.0889 36.4907 73.6136C36.4907 69.5064 39.0182 65.5572 42.9675 63.9775C44.7051 63.3456 46.4428 62.5558 48.1804 61.7659C48.9703 61.45 49.7601 61.1341 50.392 60.8181L50.55 60.6602H51.8137V61.7659C51.6557 63.0297 51.6557 64.1355 51.8137 65.2413V65.3992V65.5572V71.2441H51.0239H49.7601C48.8123 71.2441 47.7065 71.2441 46.7587 71.2441C46.1268 71.2441 45.6529 71.718 45.6529 72.3499C45.6529 72.6658 45.6529 72.9817 45.6529 73.2977L45.8109 75.1933C45.9689 76.1411 45.9689 76.931 46.1268 77.8788L46.2848 79.4585C46.4428 80.5642 46.4428 81.5121 46.6007 82.6178L46.7587 84.1975C46.9167 85.7772 47.0746 87.3569 47.2326 88.9366L47.3906 89.5685ZM37.9124 87.9888H45.495C45.337 86.725 45.179 85.4613 45.021 84.1975L44.8631 82.6178C44.7051 81.5121 44.7051 80.5642 44.5471 79.4585L44.3892 77.8788C44.2312 76.931 44.2312 76.1411 44.0732 75.1933L43.9153 73.1397C43.9153 72.6658 43.9153 72.3499 43.9153 71.876C43.9153 70.4542 45.179 69.3484 46.6007 69.3484C47.5485 69.3484 48.6543 69.3484 49.6021 69.3484H50.0761V65.3992V65.0833C49.9181 64.2934 49.9181 63.3456 49.9181 62.5558C49.4442 62.7137 48.9703 63.0297 48.4964 63.1877C46.7587 63.9775 45.021 64.7673 43.2834 65.3992C39.966 66.663 37.7545 69.9803 37.7545 73.4556C37.7545 76.931 37.7545 80.5642 37.7545 84.0396L37.9124 87.9888Z" fill="black"/>
<path d="M74.4033 61.292C77.2468 62.5557 80.0902 63.6615 82.9336 64.9253C86.409 66.505 88.1466 69.3484 88.3046 72.9817C88.4626 78.1947 88.3046 83.4076 88.3046 88.6206C85.4612 88.6206 82.7757 88.6206 79.9322 88.6206C79.9322 88.4627 79.9322 88.3047 79.9322 88.1467C80.0902 86.0931 80.4061 84.0395 80.5641 81.828C80.7221 80.4062 80.88 79.1425 81.038 77.7208C81.196 75.8251 81.5119 73.9295 81.6699 72.0339C81.8279 70.9281 80.8801 69.9803 79.7743 69.9803C78.6685 69.9803 77.5627 69.9803 76.4569 69.9803C75.825 69.9803 75.0352 69.9803 74.4033 69.9803C74.4033 68.2426 74.4033 66.505 74.4033 64.7673C74.4033 63.8195 74.4033 62.5557 74.4033 61.292Z" fill="#567A85"/>
<path d="M89.0945 89.5684H79.1425V88.7786C79.1425 88.6206 79.1425 88.4626 79.1425 88.3047L79.9323 80.5642C80.0903 79.6164 80.0903 78.8265 80.2482 77.8787L80.4062 75.9831C80.5642 74.7193 80.7221 73.4556 80.8801 72.1918C80.8801 71.8759 80.7221 71.5599 80.5642 71.402C80.4062 71.086 79.9323 70.9281 79.6164 70.9281C78.8265 70.9281 78.0367 70.9281 77.4048 70.9281H76.299H73.4556V64.9252V59.8702L74.5614 60.3441C75.5092 60.6601 76.299 61.134 77.2468 61.4499C79.1425 62.2398 81.196 63.1876 83.0917 63.9774C86.725 65.7151 88.7786 68.7165 88.7786 72.8237C88.7786 76.457 88.7786 80.2482 88.7786 83.7236C88.7786 85.3032 88.7786 86.8829 88.7786 88.4626V89.5684H89.0945ZM80.7221 87.9887H87.3568C87.3568 86.725 87.3568 85.3032 87.3568 84.0395C87.3568 80.4062 87.3568 76.7729 87.3568 73.1396C87.3568 69.6643 85.6192 67.1368 82.4598 65.7151C80.5642 64.7673 78.5106 63.9774 76.6149 63.1876C76.141 63.0296 75.5092 62.7137 75.0353 62.5557V65.0832V69.5063H77.2468C78.0367 69.5063 78.8265 69.5063 79.6164 69.5063C80.4062 69.5063 81.0381 69.8223 81.67 70.4542C82.1439 71.086 82.4598 71.7179 82.3018 72.5078C82.1439 73.7715 81.9859 75.0353 81.8279 76.299L81.67 78.1946C81.512 79.1425 81.512 79.9323 81.354 80.8801L80.7221 87.9887Z" fill="black"/>
<path d="M78.0367 37.4387C78.0367 38.7025 78.0367 40.1242 78.0367 41.3879C78.0367 44.0734 78.9845 46.4429 80.5642 48.6545C81.3541 49.6023 82.1439 50.7081 82.3019 51.9719C83.2497 56.7109 80.2483 60.3442 76.1411 60.9761C75.3512 61.1341 74.5614 60.9761 73.7716 61.1341H73.6136C73.6136 61.1341 73.4556 61.1341 73.4556 60.9761C72.1919 60.5022 70.9281 60.0283 69.8223 59.0805C68.8745 57.9747 68.0847 56.553 68.2426 54.9733C68.4006 54.8153 68.5586 54.8153 68.5586 54.6573C70.6122 53.5516 72.1919 51.8139 72.9817 49.6023C73.2976 48.8125 73.6136 47.8647 73.4556 46.9169C73.6136 46.6009 73.6136 46.443 73.6136 46.127C73.6136 44.8633 73.6136 43.5995 73.6136 42.4937C73.6136 40.914 73.6136 39.3343 73.6136 37.7547C75.0353 37.7547 76.457 37.7547 78.0367 37.4387Z" fill="#C69292"/>
<path d="M73.6135 61.7659L73.1396 61.6079C71.8758 61.134 70.4541 60.6601 69.3483 59.5543C68.4005 58.4485 67.2947 57.0268 67.4527 54.8153V54.3414L67.7686 54.1834C67.9266 54.0254 68.0846 54.0254 68.2425 53.8674C70.2961 52.7617 71.5599 51.182 72.3497 49.1284V48.9704C72.6656 48.1806 72.8236 47.5487 72.6656 46.9168V46.6009L72.8236 46.2849C72.8236 46.2849 72.8236 46.127 72.8236 45.969V42.1777V36.4909H73.6135C75.1931 36.6488 76.6149 36.6488 77.8786 36.3329L78.8264 36.1749V38.3865C78.8264 39.3343 78.8264 40.1242 78.8264 41.072C78.8264 43.5995 79.6163 45.811 81.196 47.8646C81.9858 48.9704 82.7757 50.0762 83.0916 51.4979C83.5655 53.8674 83.0916 56.237 81.6699 58.1326C80.4061 59.8703 78.3525 61.134 76.141 61.292C75.6671 61.292 75.1932 61.292 74.7192 61.292C74.4033 61.292 74.0874 61.292 73.7714 61.292L73.6135 61.7659ZM69.0324 55.2892C69.0324 56.395 69.5063 57.3428 70.4541 58.4485C71.4019 59.2384 72.6657 59.7123 73.7714 60.1862H73.9294C74.2453 60.1862 74.4033 60.1862 74.7192 60.1862C75.1932 60.1862 75.5091 60.1862 75.983 60.1862C77.7207 60.0282 79.3003 59.0804 80.4061 57.6587C81.5119 56.079 81.8278 54.1834 81.5119 52.2878C81.3539 51.182 80.7221 50.3921 79.9322 49.2864C78.1946 47.0748 77.2467 44.3893 77.2467 41.5459C77.2467 40.5981 77.2467 39.8082 77.2467 38.8604V38.3865C76.2989 38.5445 75.3511 38.5445 74.4033 38.3865V43.2835V46.127C74.4033 46.4429 74.4033 46.7588 74.2453 46.9168C74.4033 47.8646 74.0874 48.8124 73.7714 49.6023V49.7603C72.9816 52.1298 71.4019 54.0254 69.0324 55.2892Z" fill="black"/>
<path d="M73.6135 60.9761C73.7714 60.9761 73.7714 60.9761 73.6135 60.9761C73.9294 61.134 74.0874 61.292 74.2454 61.292C74.2454 62.5558 74.2454 63.8195 74.2454 65.0833C71.8758 65.7151 69.6643 66.347 67.2947 66.663C65.3991 66.8209 63.5035 67.1369 61.4499 66.9789C60.818 66.9789 60.3441 66.8209 59.7122 66.8209C58.6064 66.8209 57.5007 66.663 56.3949 66.505C54.4992 66.189 52.7616 65.7151 51.0239 65.3992C51.0239 65.3992 51.0239 65.3992 51.0239 65.2412C51.0239 63.9775 51.0239 62.8717 51.0239 61.6079V61.45C51.1819 61.292 51.4978 61.134 51.6558 60.9761H51.8138C51.8138 60.9761 51.9717 60.9761 51.9717 60.8181C54.0253 60.1862 55.763 59.2384 56.7108 57.1848C57.5007 58.1326 58.7644 58.7645 59.8702 59.2384C61.1339 59.7123 62.5557 59.8703 63.8194 59.7123C65.3991 59.7123 66.9788 59.8703 68.4005 59.3964C68.8744 59.2384 69.3483 59.2384 69.6643 58.9225C70.928 59.8703 72.1918 60.5022 73.6135 60.9761Z" fill="#FBCDC1"/>
<path d="M62.0818 67.7687C61.9238 67.7687 61.7659 67.7687 61.6079 67.7687C61.292 67.7687 60.976 67.7687 60.6601 67.7687C60.3441 67.7687 60.1862 67.7687 59.8702 67.7687C58.7645 67.7687 57.6587 67.6107 56.7109 67.4528H56.5529C54.8152 67.1368 53.0776 66.8209 51.3399 66.347L50.5501 66.031L50.3921 65.2412V60.976L51.9718 60.0282C54.1833 59.2384 55.6051 58.2906 56.2369 56.7109L56.7109 55.6051L57.5007 56.5529C58.1326 57.3428 59.2384 57.8167 60.3441 58.2906C61.292 58.6065 62.5557 58.7645 63.9774 58.7645C64.4513 58.7645 64.7673 58.7645 65.2412 58.7645C66.347 58.7645 67.4527 58.7645 68.4006 58.4485C68.5585 58.4485 68.5585 58.4485 68.7165 58.4485C69.0324 58.4485 69.0324 58.2906 69.1904 58.2906L69.6643 57.5007L70.2962 58.1326C71.244 58.9224 72.5078 59.5543 73.7715 59.8703L74.2454 60.0282L74.4034 60.1862C74.4034 60.1862 74.4034 60.1862 74.5614 60.1862L75.1932 60.3442V60.976V65.3992L74.7193 65.5571C72.1918 66.347 69.8223 66.8209 67.6107 67.1368C65.8731 67.6107 63.9774 67.7687 62.0818 67.7687ZM51.8138 64.7673C53.3935 65.0832 54.9732 65.5571 56.5529 65.7151H56.7109C57.8166 65.8731 58.7644 66.031 59.7123 66.031C60.0282 66.031 60.3441 66.031 60.6601 66.031C60.976 66.031 61.134 66.031 61.4499 66.031C63.5035 66.031 65.3991 65.8731 67.1368 65.7151C69.0324 65.5571 71.244 65.0832 73.4556 64.4514V61.7659C73.4556 61.7659 73.2976 61.7659 73.2976 61.6079H73.1396C72.0338 61.292 70.9281 60.8181 69.8223 60.0282C69.5063 60.1862 69.3484 60.1862 69.0324 60.3442H68.8745C67.6107 60.6601 66.5049 60.6601 65.2412 60.6601C64.7673 60.6601 64.4513 60.6601 63.9774 60.6601C62.2398 60.6601 60.818 60.5021 59.7123 60.0282C58.7644 59.7123 57.8166 59.2384 56.8688 58.6065C55.6051 60.3442 53.8674 61.134 52.2877 61.7659L51.8138 62.0818V64.7673V64.7673Z" fill="black"/>
<path d="M79.9322 88.7786C82.7756 88.7786 85.4611 88.7786 88.3045 88.7786C88.7784 88.7786 89.2523 88.7786 89.7263 88.7786C90.3581 88.7786 90.832 89.2525 90.832 89.7264C90.832 90.3583 90.3581 90.6742 89.7263 90.8322C89.5683 90.8322 89.4103 90.8322 89.2523 90.8322C67.1367 90.8322 44.8631 90.8322 22.7474 90.8322C21.6416 90.8322 21.1677 90.5162 21.1677 89.7264C21.1677 89.0945 21.6416 88.7786 22.7474 88.7786C27.4865 88.7786 32.3835 88.7786 37.1226 88.7786C40.282 88.7786 43.2834 88.7786 46.4428 88.7786C56.2368 88.7786 65.8729 88.7786 75.667 88.7786C77.0887 88.7786 78.5104 88.7786 79.9322 88.7786Z" fill="#FEBE12"/>
<path d="M89.5683 91.6221C89.4104 91.6221 89.4104 91.6221 89.5683 91.6221H22.7475C21.7997 91.6221 21.1678 91.4641 20.8518 90.9902C20.6939 90.8322 20.3779 90.3583 20.3779 89.7264C20.3779 89.0946 20.6939 87.9888 22.7475 87.9888H37.1226H46.4428H75.6671H88.1466H88.6205C88.9365 87.9888 89.2524 87.9888 89.7263 87.9888C90.8321 87.9888 91.6219 88.7786 91.6219 89.7264C91.6219 90.6742 90.8321 91.4641 89.7263 91.6221C89.7263 91.6221 89.5683 91.6221 89.5683 91.6221ZM21.9576 89.8844C21.9576 89.8844 22.1156 90.0424 22.7475 90.0424H89.2524C89.5683 90.0424 89.5683 90.0424 89.7263 90.0424C89.7263 90.0424 90.0422 90.0424 90.0422 89.8844C90.0422 89.7264 89.7263 89.7264 89.7263 89.7264C89.4104 89.7264 89.0944 89.7264 88.7785 89.7264H79.9322H75.6671H46.4428H37.1226H22.7475C22.1156 89.7264 21.9576 89.8844 21.9576 89.8844V89.8844Z" fill="black"/>
<path d="M78.0367 37.4386C76.615 37.7545 75.0353 37.7545 73.6135 37.5965C73.1396 37.4386 72.5078 37.2806 72.0339 37.1226C69.1904 36.1748 66.8209 34.5951 65.3992 31.9097C68.0846 29.6981 70.2962 27.1706 72.0339 24.1692C74.4034 25.7489 75.9831 27.9604 76.9309 30.6459C77.8787 32.8575 78.1946 35.069 78.0367 37.4386Z" fill="#B98180"/>
<path d="M75.3513 38.5444C74.7194 38.5444 74.0875 38.5444 73.4557 38.3865L72.8238 38.2285C72.5078 38.0705 72.0339 38.0705 71.718 37.9126C68.2427 36.8068 66.0311 35.0691 64.6094 32.2257L64.2935 31.5938L64.7674 31.2779C67.2949 29.2243 69.5064 26.6968 71.0861 23.8533L71.56 23.0635L72.1919 23.5374C74.5614 25.1171 76.1411 27.3286 77.4049 30.33C78.3527 32.5416 78.6686 34.9111 78.5107 37.4387V38.0705L77.8788 38.2285C77.2469 38.3865 76.2991 38.5444 75.3513 38.5444ZM66.3471 32.0677C67.4528 34.1213 69.3485 35.543 72.1919 36.3329C72.5078 36.4908 72.8238 36.4908 73.2977 36.6488L73.7716 36.8068C75.0353 36.9647 76.1411 36.9647 77.2469 36.8068C77.2469 34.7532 76.931 32.6996 76.1411 30.9619C75.1933 28.5924 73.7716 26.8547 72.1919 25.433C70.6122 27.9605 68.5586 30.1721 66.3471 32.0677Z" fill="black"/>
<path d="M36.9506 43.1255C37.1086 42.8096 37.1086 42.4937 36.7927 42.3357C35.6869 41.3879 35.3709 40.1241 36.3188 38.8604C37.5825 37.1227 38.3724 35.0691 38.5303 32.8576C38.6883 29.8562 37.7405 27.1707 35.8448 24.9591C34.5811 23.3794 32.8434 22.2736 30.9478 21.6418C30.6319 21.4838 30.3159 21.3258 30 21.3258C32.3695 21.0099 34.7391 21.3258 36.9506 22.4316C39.952 24.0113 42.0056 26.5388 42.6375 30.0141C43.4274 33.9633 42.3216 37.2807 39.4781 40.1241C38.8463 40.756 38.8463 40.914 39.6361 41.3879C40.11 41.7038 40.5839 41.8618 41.0578 42.1777C41.3738 42.3357 41.5317 42.4937 41.3738 42.8096C41.3738 43.1255 41.0578 43.1255 40.8999 43.1255C39.3202 43.1255 38.0564 43.1255 36.9506 43.1255Z" fill="#E5A131"/>
<path d="M50.866 61.45C50.7081 61.45 50.7081 61.6079 50.866 61.45C50.7081 61.6079 50.7081 61.45 50.866 61.45Z" fill="#BCBADA"/>
<path d="M51.024 62.2398L50.2341 60.8181H50.3921L51.1819 62.0819L51.024 62.2398Z" fill="black"/>
<path d="M65.399 31.9097C66.6628 34.7531 69.0323 36.3328 72.0337 37.1226C72.5076 37.2806 73.1395 37.4386 73.6134 37.5965C73.6134 39.1762 73.6134 40.7559 73.6134 42.3356L73.4554 42.4936C72.3497 45.337 70.454 47.3906 67.6106 48.4964C67.1367 47.8645 66.5048 47.5486 65.8729 47.5486C65.0831 47.5486 64.2932 47.5486 63.5034 47.5486C62.3976 47.5486 61.4498 48.4964 61.4498 49.4442C61.4498 50.55 62.5556 51.4978 63.5034 51.4978C64.1353 51.4978 64.6092 51.4978 65.2411 51.4978C66.1889 51.6558 67.1367 51.3398 67.7686 50.55C70.1381 49.9181 72.0337 48.6544 73.6134 46.7587C73.7714 47.7066 73.4554 48.4964 73.1395 49.4442C72.3497 51.6558 70.77 53.3934 68.7164 54.4992C68.5584 54.4992 68.4004 54.6572 68.4004 54.8152C67.7686 54.9731 67.1367 55.2891 66.5048 55.2891C64.7671 55.605 63.0295 55.2891 61.2918 55.447C60.344 55.447 59.5542 55.447 58.6064 55.1311C58.2904 54.9731 57.8165 54.8152 57.5006 54.8152C56.5528 54.1833 55.605 53.7094 54.8151 52.9195C53.0775 51.1819 52.1296 49.1283 52.1296 46.6008C52.1296 43.9153 52.1296 41.0719 52.1296 38.3864C52.1296 37.7545 52.2876 37.5966 52.9195 37.4386C57.1846 36.8067 61.2918 35.069 64.7672 32.5415C64.7672 32.3836 65.0831 32.0676 65.399 31.9097Z" fill="#FBCDC1"/>
<path d="M63.9774 56.3949C63.6614 56.3949 63.1875 56.3949 62.8716 56.3949C62.2397 56.3949 61.6078 56.3949 60.976 56.3949C60.0281 56.3949 59.0803 56.3949 58.1325 56.079C57.9745 56.079 57.8166 55.921 57.6586 55.921C57.5006 55.921 57.3427 55.7631 57.1847 55.7631H56.8688L56.2369 55.2891C55.447 54.8152 54.6572 54.3413 54.0253 53.5515C52.1297 51.4979 51.1819 49.2863 51.1819 46.6009C51.1819 43.9154 51.1819 41.0719 51.1819 38.3865C51.1819 37.2807 51.6558 36.8068 52.6036 36.6488C56.8688 36.0169 60.66 34.4372 64.1353 31.9097L65.715 30.804L66.1889 31.5938C67.2947 33.9633 69.3483 35.543 72.1918 36.4908C72.5077 36.6488 72.8236 36.6488 73.2975 36.8068L74.4033 37.1227V42.8096H74.2453C73.1396 45.969 70.928 48.1805 67.9266 49.2863L67.4527 49.4443L67.1367 48.9704C66.8208 48.4965 66.3469 48.3385 65.873 48.3385C65.0831 48.3385 64.2933 48.3385 63.5035 48.3385C63.1875 48.3385 62.7136 48.4965 62.5556 48.8124C62.3977 48.9704 62.2397 49.2863 62.2397 49.4443C62.2397 49.7602 62.3977 50.0762 62.7136 50.3921C62.8716 50.5501 63.1875 50.708 63.5035 50.708C64.1353 50.708 64.7672 50.708 65.3991 50.708C66.1889 50.708 66.8208 50.5501 67.2947 50.0762L67.4527 49.9182H67.7686C69.8222 49.4443 71.7178 48.3385 73.1396 46.4429L74.0874 45.1791L74.4033 46.7588C74.7192 47.8646 74.4033 48.8124 74.0874 49.7602V49.9182C73.2975 52.2877 71.7178 54.1834 69.3483 55.4471L69.1903 55.6051L68.8744 55.7631L68.2425 55.921C67.7686 56.079 67.2947 56.237 66.8208 56.237C65.5571 56.3949 64.7672 56.3949 63.9774 56.3949ZM61.7658 54.8152C62.0817 54.8152 62.5556 54.8152 62.8716 54.8152C63.9774 54.8152 65.0831 54.8152 66.031 54.6573C66.5049 54.6573 66.8208 54.4993 67.2947 54.3413L67.7686 54.1834C67.9266 54.0254 68.0846 54.0254 68.0846 54.0254C70.1382 52.9196 71.4019 51.3399 72.1918 49.2863V49.1284C71.086 50.2341 69.5063 51.024 67.9266 51.3399C67.1367 52.1298 66.1889 52.4457 64.9252 52.4457C64.4513 52.4457 63.8194 52.4457 63.3455 52.4457C62.7136 52.4457 62.0817 52.2877 61.4499 51.8138C60.818 51.3399 60.5021 50.5501 60.3441 49.7602C60.3441 49.1284 60.502 48.4965 60.976 47.8646C61.4499 47.2327 62.2397 46.9168 63.0296 46.9168C63.8194 46.9168 64.6092 46.9168 65.5571 46.9168C66.3469 46.9168 66.9788 47.2327 67.6106 47.7066C69.9802 46.7588 71.5599 45.0212 72.5077 42.3357C72.5077 42.3357 72.5077 42.1777 72.6657 42.1777V38.2285C72.3497 38.0705 71.8758 38.0705 71.5599 37.9126C68.5585 36.9647 66.3469 35.3851 64.9252 33.0155C61.2919 35.701 57.1847 37.4387 52.7616 38.0705H52.6036V38.2285C52.6036 40.914 52.6036 43.7574 52.6036 46.4429C52.6036 48.6544 53.3934 50.5501 54.9731 52.2877C55.447 52.9196 56.2369 53.2355 56.8688 53.7095L57.3427 54.0254C57.6586 54.0254 57.9745 54.1834 58.1325 54.3413C58.2905 54.3413 58.2905 54.4993 58.4485 54.4993C59.2383 54.6573 60.0281 54.8152 60.818 54.8152C61.2919 54.8152 61.4499 54.8152 61.7658 54.8152Z" fill="black"/>
<path d="M57.1846 54.9731C57.6585 54.9731 57.9744 55.2891 58.2904 55.2891C59.0802 55.605 60.028 55.605 60.9759 55.605C62.7135 55.4471 64.4512 55.763 66.1888 55.447C66.8207 55.2891 67.4526 55.1311 68.0845 54.9731C68.0845 56.5528 68.7163 57.8166 69.6642 59.0803C69.3482 59.5542 68.8743 59.5542 68.4004 59.5542C66.8207 60.0282 65.241 59.8702 63.8193 59.8702C62.3976 59.8702 61.1338 59.8702 59.8701 59.3963C58.6063 58.9224 57.5005 58.4485 56.7107 57.3427C57.0266 56.3949 57.3426 55.763 57.1846 54.9731Z" fill="#F8AF9F"/>
<path d="M63.5034 60.6601C62.0817 60.6601 60.8179 60.5021 59.7121 60.0282C58.4484 59.5543 57.1846 58.9224 56.2368 57.8166L55.9209 57.5007V57.1848C55.9209 56.8688 56.0789 56.7109 56.0789 56.3949C56.2368 55.921 56.3948 55.4471 56.2368 54.9732V54.1834H57.0267C57.5006 54.1834 57.8165 54.3413 58.1325 54.4993C58.2904 54.4993 58.2904 54.6573 58.4484 54.6573C59.2382 54.8152 60.0281 54.9732 60.8179 54.9732C61.4498 54.9732 62.0817 54.9732 62.8715 54.9732C63.9773 54.9732 65.0831 54.9732 66.0309 54.8152C66.5048 54.8152 66.8207 54.6573 67.2947 54.4993L69.0323 54.0254V55.1312C69.0323 56.3949 69.5062 57.5007 70.454 58.6065L70.77 59.0804L70.454 59.5543C69.9801 60.1862 69.5062 60.1862 69.0323 60.3441H68.8743C67.6106 60.6601 66.5048 60.6601 65.2411 60.6601C64.7672 60.6601 64.4512 60.6601 63.9773 60.6601C63.8193 60.6601 63.6614 60.6601 63.5034 60.6601ZM57.6586 57.0268C58.2904 57.6587 59.2382 58.1326 60.344 58.6065C61.2918 58.9224 62.5556 59.0804 63.9773 59.0804C64.4512 59.0804 64.7672 59.0804 65.2411 59.0804C66.3468 59.0804 67.4526 59.0804 68.4004 58.7645H68.5584C68.0845 57.9746 67.6106 57.1848 67.4526 55.921C67.1367 56.079 66.6628 56.079 66.3468 56.237C65.0831 56.3949 63.9773 56.3949 62.8715 56.3949C62.2397 56.3949 61.6078 56.3949 60.9759 56.3949C60.0281 56.3949 59.0803 56.3949 58.1325 56.079H57.9745C57.9745 56.3949 57.8165 56.5529 57.8165 56.8688C57.6586 56.8688 57.6586 56.8688 57.6586 57.0268Z" fill="black"/>
<path d="M52.2877 61.6079L51.4978 60.3441L51.6558 60.1862L52.4456 61.6079H52.2877Z" fill="black"/>
<path d="M75.667 88.7785C65.8729 88.7785 56.2368 88.7785 46.4427 88.7785C46.2848 86.7249 45.9688 84.5133 45.8109 82.4598C45.6529 80.8801 45.4949 79.3004 45.3369 77.8787C45.179 76.299 45.021 74.7193 44.863 73.2976C44.863 72.9816 44.863 72.5077 44.863 72.1918C44.863 71.244 45.8109 70.4541 46.7587 70.2961C48.1804 70.2961 49.6021 70.2961 51.0238 70.2961C58.7643 70.2961 66.6628 70.2961 74.4032 70.2961C75.0351 70.2961 75.825 70.2961 76.4568 70.2961C76.4568 70.4541 76.4568 70.6121 76.6148 70.6121C77.5626 71.244 77.7206 72.1918 77.4047 73.2976C77.2467 74.2454 77.2467 75.1932 77.0887 76.299C76.9307 77.7207 76.7728 79.3004 76.6148 80.7221C76.4568 82.3018 76.2989 83.8815 76.1409 85.4612C75.9829 86.5669 75.9829 87.6727 75.667 88.7785ZM66.0309 80.0902C66.1889 78.6685 64.9251 77.2468 63.1874 77.2468C61.4498 77.2468 60.344 78.5105 60.344 80.0902C60.344 81.6699 61.6078 83.0916 63.1874 83.0916C64.9251 82.9337 66.1889 81.354 66.0309 80.0902Z" fill="#5BBF90"/>
<path d="M45.8109 89.5684V88.7786C45.6529 87.1989 45.495 85.6192 45.337 84.0395L45.179 82.4598C45.021 81.3541 45.021 80.4062 44.8631 79.3005L44.7051 77.7208C44.5471 76.7729 44.5471 75.9831 44.3892 75.0353L44.2312 72.9817C44.2312 72.5078 44.2312 72.1918 44.2312 71.7179C44.2312 70.2962 45.495 69.1904 46.9167 69.1904C47.8645 69.1904 48.9703 69.1904 49.9181 69.1904H77.0887L77.2467 69.8223C78.5105 70.7701 78.5105 72.1918 78.1945 73.1397C78.0366 73.7715 78.0366 74.4034 78.0366 75.0353C78.0366 75.3512 78.0366 75.6672 77.8786 75.9831L77.7206 77.4048C77.5627 78.3526 77.5627 79.4584 77.4047 80.4062V81.0381C77.2467 82.4598 77.0888 83.8816 76.9308 85.1453C76.9308 85.6192 76.7728 85.9352 76.7728 86.4091C76.7728 87.1989 76.6148 87.9887 76.4569 88.6206L76.2989 89.2525L45.8109 89.5684ZM48.8123 71.0861C48.1804 71.0861 47.3906 71.0861 46.7587 71.0861C46.1268 71.0861 45.6529 71.56 45.6529 72.1918C45.6529 72.5078 45.6529 72.8237 45.6529 73.1397L45.8109 75.0353C45.9689 75.9831 45.9689 76.7729 46.1268 77.7208L46.2848 79.3005C46.4428 80.4062 46.4428 81.3541 46.6007 82.4598L46.7587 84.0395C46.9167 85.3033 47.0746 86.725 47.2326 87.9888H75.0352C75.0352 87.5148 75.1931 87.0409 75.1931 86.567C75.1931 86.0931 75.1931 85.7772 75.3511 85.3033C75.5091 83.8816 75.667 82.6178 75.825 81.1961V80.5642C75.983 79.6164 75.983 78.6686 76.1409 77.5628L76.2989 76.1411C76.2989 75.8251 76.2989 75.5092 76.2989 75.1933C76.2989 74.5614 76.4569 73.7715 76.6148 73.1397C76.7728 72.1918 76.6148 71.7179 76.1409 71.244L75.983 71.0861H49.9181C49.4442 71.0861 49.1282 71.0861 48.8123 71.0861ZM63.1875 83.7236C61.1339 83.7236 59.5542 82.1439 59.5542 79.9323C59.5542 78.9845 59.8701 78.0367 60.66 77.4048C61.2919 76.7729 62.2397 76.299 63.3454 76.299C64.4512 76.299 65.399 76.7729 66.0309 77.5628C66.6628 78.1947 66.9787 79.1425 66.9787 80.0903C67.1367 80.8801 66.8208 81.828 66.1889 82.4598C65.2411 83.2497 64.2933 83.7236 63.1875 83.7236ZM63.1875 77.8787C62.5556 77.8787 62.0817 78.0367 61.6078 78.5106C61.2919 78.8265 60.9759 79.4584 60.9759 79.9323C60.9759 81.1961 61.9237 82.1439 63.0295 82.1439C63.6614 82.1439 64.1353 81.828 64.6092 81.3541C64.9251 81.0381 65.0831 80.4062 65.0831 80.0903V79.9323V79.7744C65.0831 79.3005 64.9251 78.8265 64.6092 78.5106C64.4512 78.1947 63.8194 77.8787 63.1875 77.8787Z" fill="black"/>
<path d="M74.4033 70.2961C66.6629 70.2961 58.7644 70.2961 51.0239 70.2961C51.0239 68.7164 51.0239 66.9788 51.0239 65.3991C52.7616 65.873 54.6572 66.3469 56.3949 66.5048C57.5007 66.6628 58.6064 66.8208 59.7122 66.8208C60.3441 66.8208 60.818 66.9788 61.4499 66.9788C63.3455 66.9788 65.3991 66.8208 67.2947 66.6628C69.6643 66.3469 72.0338 65.873 74.2454 65.0831C74.4033 66.8208 74.4033 68.5585 74.4033 70.2961Z" fill="white"/>
<path d="M74.4034 71.086H50.2341V64.4513L51.4979 64.7673C53.0776 65.2412 54.8152 65.5571 56.5529 65.873H56.7109C57.8166 66.031 58.7645 66.189 59.7123 66.189C60.0282 66.189 60.3441 66.189 60.6601 66.189C60.976 66.189 61.134 66.189 61.4499 66.189C63.5035 66.189 65.3992 66.031 67.1368 65.873C69.1904 65.5571 71.5599 65.0832 73.9295 64.4513L74.8773 64.1354V71.086H74.4034ZM51.8138 69.5063H73.6135V66.189C71.402 66.8209 69.3484 67.2948 67.4527 67.4527C65.7151 67.6107 63.6615 67.9266 61.6079 67.7687C61.292 67.7687 60.976 67.7687 60.6601 67.7687C60.3441 67.7687 60.1862 67.7687 59.8702 67.7687C58.7645 67.7687 57.6587 67.6107 56.7109 67.4527H56.5529C54.9732 67.2948 53.5515 66.8209 51.9718 66.5049L51.8138 69.5063Z" fill="black"/>
<path d="M51.0238 61.7659C51.0238 63.0296 51.0238 64.1354 51.0238 65.3992C50.8658 64.1354 50.8658 62.8717 51.0238 61.7659Z" fill="#BCBADA"/>
<path d="M50.234 65.3992C50.076 64.1354 50.076 62.8717 50.234 61.6079L51.8136 61.7659V65.3992H50.234Z" fill="black"/>
<path d="M75.667 88.7785C75.9829 87.6727 75.9829 86.567 76.1409 85.3032C76.2989 83.7235 76.4568 82.1438 76.6148 80.5641C76.7728 79.1424 76.9307 77.5627 77.0887 76.141C77.2467 75.1932 77.2467 74.0874 77.4046 73.1396C77.5626 72.0338 77.5626 71.086 76.6148 70.4541C76.6148 70.4541 76.4568 70.2962 76.4568 70.1382C77.5626 70.1382 78.6684 70.1382 79.7742 70.1382C80.88 70.1382 81.8278 71.086 81.6698 72.1918C81.5118 74.0874 81.1959 75.983 81.0379 77.8787C80.88 79.3004 80.722 80.5641 80.564 81.9859C80.4061 84.0395 80.0901 86.0931 79.9322 88.3046C79.9322 88.4626 79.9322 88.6206 79.9322 88.7785C78.5104 88.7785 77.0887 88.7785 75.667 88.7785Z" fill="#5BBF90"/>
<path d="M79.9322 89.5684H74.7192L74.8772 88.6206C75.0352 87.9887 75.0352 87.1989 75.1931 86.567C75.1931 86.0931 75.1931 85.7771 75.3511 85.3032C75.5091 83.8815 75.6671 82.6178 75.825 81.196V80.5642C75.983 79.6164 75.983 78.6685 76.141 77.5628L76.2989 76.141C76.2989 75.8251 76.2989 75.5092 76.2989 75.1932C76.2989 74.5613 76.4569 73.7715 76.6149 73.1396C76.7728 72.1918 76.6149 71.7179 76.141 71.244C75.825 71.086 75.825 70.7701 75.6671 70.6121L75.1931 69.5063H77.4047C78.1946 69.5063 78.9844 69.5063 79.7742 69.5063C80.5641 69.5063 81.196 69.8223 81.8278 70.4542C82.3018 71.086 82.6177 71.7179 82.4597 72.5078C82.3018 73.7715 82.1438 75.0353 81.9858 76.299L81.8278 78.1946C81.6699 79.1425 81.6699 79.9323 81.5119 80.8801L80.7221 88.4626V88.6206V89.4104L79.9322 89.5684ZM76.6149 87.9887H79.1424L79.9322 80.5642C80.0902 79.6164 80.0902 78.8265 80.2482 77.8787L80.4061 75.9831C80.5641 74.7193 80.7221 73.4556 80.88 72.1918C80.88 71.8759 80.7221 71.5599 80.5641 71.402C80.4061 71.086 79.9322 70.9281 79.6163 70.9281C78.9844 70.9281 78.5105 70.9281 77.8786 70.9281C78.1946 71.7179 78.1946 72.6657 78.0366 73.2976C77.8786 73.9295 77.8786 74.5613 77.8786 75.1932C77.8786 75.5092 77.8786 75.8251 77.7207 76.141L77.5627 77.5628C77.4047 78.5106 77.4047 79.6164 77.2467 80.5642V81.196C77.0888 82.6178 76.9308 84.0395 76.7728 85.3032C76.7728 85.7771 76.6149 86.0931 76.6149 86.567C76.7728 87.0409 76.7728 87.5148 76.6149 87.9887Z" fill="black"/>
<path d="M67.6106 48.6544C70.454 47.5487 72.5076 45.653 73.4555 42.6516C73.4555 42.4937 73.6134 42.4937 73.6134 42.4937C73.6134 43.7574 73.6134 45.0212 73.6134 46.1269C73.6134 46.4429 73.6134 46.6008 73.4555 46.9168C71.8758 48.8124 69.9801 50.2341 67.6106 50.708C67.9265 49.9182 67.9265 49.2863 67.6106 48.6544Z" fill="#7D707B"/>
<path d="M66.189 51.8139L66.8208 50.3921C66.9788 49.9182 66.9788 49.4443 66.8208 48.9704L66.5049 48.1806L67.2947 47.8646C69.9802 46.9168 71.7179 45.1792 72.6657 42.3357C72.6657 42.1778 72.8237 42.0198 72.8237 42.0198L74.2454 39.9662V46.127C74.2454 46.4429 74.2454 46.9168 74.0874 47.2328C72.1918 49.6023 70.1382 50.866 67.7687 51.4979L66.189 51.8139ZM68.5585 49.1284C68.5585 49.2864 68.5585 49.4443 68.5585 49.6023C70.1382 48.9704 71.5599 48.0226 72.8237 46.4429C72.8237 46.4429 72.8237 46.2849 72.8237 46.127V45.6531C71.7179 47.0748 70.2962 48.3385 68.5585 49.1284Z" fill="black"/>
<path d="M73.2974 61.6079H73.1394L73.9293 60.1862L74.0872 60.3441L73.2974 61.6079Z" fill="black"/>
<path d="M67.6105 48.6545C67.9264 49.2864 67.9264 50.0762 67.6105 50.7081C66.9786 51.4979 66.1888 51.8139 65.083 51.6559C64.4511 51.6559 63.9772 51.6559 63.3453 51.6559C62.3975 51.6559 61.2917 50.866 61.2917 49.6023C61.2917 48.6545 62.2396 47.7067 63.3453 47.7067C64.1352 47.7067 64.925 47.7067 65.7149 47.7067C66.5047 47.7067 67.1366 48.0226 67.6105 48.6545Z" fill="#6A5F6A"/>
<path d="M65.399 52.4458C65.241 52.4458 65.0831 52.4458 64.9251 52.4458C64.4512 52.4458 63.8193 52.4458 63.3454 52.4458C62.7135 52.4458 62.0817 52.2878 61.4498 51.8139C60.8179 51.34 60.502 50.5502 60.344 49.7603C60.344 49.1284 60.502 48.4966 60.9759 47.8647C61.4498 47.2328 62.2396 46.9169 63.0295 46.9169C63.8193 46.9169 64.6092 46.9169 65.557 46.9169C66.5048 46.9169 67.2946 47.3908 67.9265 48.1806L68.0845 48.3386C68.5584 49.2864 68.5584 50.2342 68.0845 51.0241L67.9265 51.182C67.4526 51.9719 66.5048 52.4458 65.399 52.4458ZM64.2932 50.8661C64.6092 50.8661 64.9251 50.8661 65.241 50.8661C66.0309 50.8661 66.5048 50.7081 66.9787 50.2342C67.1367 49.7603 67.1367 49.4444 66.9787 48.9705C66.6628 48.6545 66.3468 48.3386 65.8729 48.3386C65.0831 48.3386 64.2932 48.3386 63.5034 48.3386C63.1874 48.3386 62.7135 48.4966 62.5556 48.8125C62.3976 48.9705 62.2396 49.2864 62.2396 49.4444C62.2396 49.7603 62.3976 50.0762 62.7135 50.3922C62.8715 50.5502 63.1874 50.7081 63.5034 50.7081C63.6613 50.8661 63.9773 50.8661 64.2932 50.8661Z" fill="black"/>
<path d="M66.0309 80.0903C66.1888 81.354 64.9251 82.9337 63.1874 82.9337C61.6077 82.9337 60.344 81.67 60.344 79.9323C60.344 78.3526 61.6077 77.0889 63.1874 77.0889C64.9251 77.0889 66.1888 78.6686 66.0309 80.0903Z" fill="#CABFC8"/>
<path d="M63.1875 83.7236C61.1339 83.7236 59.5542 82.1439 59.5542 79.9324C59.5542 78.9845 59.8701 78.0367 60.66 77.4049C61.2919 76.773 62.2397 76.2991 63.3455 76.2991C64.4512 76.2991 65.399 76.773 66.0309 77.5628C66.6628 78.1947 66.9787 79.1425 66.9787 80.0903C67.1367 80.8802 66.8208 81.828 66.1889 82.4599C65.2411 83.2497 64.2933 83.7236 63.1875 83.7236ZM63.1875 77.8788C62.5556 77.8788 62.0817 78.0367 61.6078 78.5106C61.2919 78.8266 60.9759 79.4585 60.9759 79.9324C60.9759 81.1961 61.9237 82.1439 63.0295 82.1439C63.6614 82.1439 64.1353 81.828 64.6092 81.3541C64.9251 81.0381 65.0831 80.4063 65.0831 80.0903V79.9324V79.7744C65.0831 79.3005 64.9251 78.8266 64.6092 78.5106C64.4512 78.1947 63.8194 77.8788 63.1875 77.8788Z" fill="black"/>
</svg>
