<svg width="112" height="112" viewBox="0 0 112 112" fill="none" xmlns="http://www.w3.org/2000/svg">
<g clip-path="url(#clip0)">
<path d="M25.3867 45.5467C25.3867 36.5867 25.3867 27.6267 25.3867 19.04C25.3867 18.2933 25.0134 18.2933 24.2667 18.2933C21.2801 18.2933 18.6667 18.2933 15.68 18.2933C7.84005 18.2933 1.12005 12.32 5.00816e-05 4.48C5.00816e-05 2.98667 5.00816e-05 1.86667 5.00816e-05 0.746667C5.00816e-05 0.373333 5.01094e-05 0 0.746717 0C5.22672 0 9.33338 0 13.8134 0C20.9067 0.373333 27.2534 5.6 28.7467 12.6933C28.7467 13.0667 28.7467 13.0667 29.1201 13.44C30.9867 11.2 32.8534 9.70667 35.4667 8.58667C37.3334 7.84 39.5734 7.09333 41.8134 7.09333C45.92 7.09333 49.6534 7.09333 53.76 7.09333C54.5067 7.09333 54.88 7.46667 54.88 8.21333C55.2534 16.8 49.28 23.52 41.8134 25.0133C39.9467 25.3867 38.0801 25.3867 35.8401 25.3867C33.9734 25.3867 32.1067 25.3867 30.2401 25.3867C29.8667 25.3867 29.4934 25.3867 29.4934 25.76C29.4934 29.8667 29.4934 33.9733 29.4934 38.4533C31.7334 35.84 33.9734 34.3467 36.96 33.2267C38.4534 32.8533 40.32 32.48 41.8134 32.48C45.92 32.48 49.6534 32.48 53.76 32.48C54.1334 32.48 54.5067 32.48 54.5067 33.2267C54.8801 41.44 49.6534 48.5333 41.4401 50.4C39.5734 50.7733 37.7067 50.7733 35.8401 50.7733C33.9734 50.7733 32.1067 50.7733 30.2401 50.7733C29.4934 50.7733 29.4934 51.1467 29.4934 51.52C29.4934 55.6267 29.4934 60.1067 29.4934 64.2133C29.4934 64.96 29.8667 64.96 30.2401 64.96C38.0801 64.96 45.92 64.96 53.76 64.96C54.5067 64.96 54.5067 64.5867 54.5067 63.84C54.5067 57.4933 54.5067 51.52 54.5067 45.1733C54.5067 44.4267 54.5067 44.0533 54.88 43.68C62.3467 35.84 69.4401 28 76.9067 19.7867C77.6534 19.04 78.0267 19.04 78.7734 19.4133C81.7601 21.6533 85.1201 23.52 88.1067 25.76C88.4801 26.1333 88.8534 26.1333 89.2267 25.76C94.8267 20.16 100.427 14.56 106.027 8.96C105.653 8.58667 105.28 8.96 104.907 8.96C101.173 8.96 97.0667 8.96 93.3334 8.96C92.5867 8.96 92.2134 8.96 92.2134 8.21333C92.2134 5.6 92.2134 5.6 94.8267 5.6C100.427 5.6 105.653 5.6 111.253 5.6C112 5.6 112.373 5.6 112.373 6.34667C112.373 12.32 112.373 18.2933 112.373 24.2667C112.373 25.0133 112.373 25.3867 111.627 25.3867C109.013 25.3867 109.013 25.3867 109.013 22.7733C109.013 19.04 109.013 15.68 109.013 11.9467C109.013 11.9467 109.013 11.9467 108.64 11.5733C107.893 12.32 107.52 12.6933 106.773 13.44C105.28 14.9333 103.787 16.4267 102.293 17.92C101.92 18.2933 101.547 18.6667 101.547 19.4133C101.547 28.7467 101.547 38.08 101.547 47.04C101.547 47.4133 101.547 47.7867 101.92 48.5333C104.907 53.3867 106.027 58.6133 104.533 63.84C104.16 64.5867 104.533 64.5867 105.28 64.5867C107.52 64.5867 109.387 64.5867 111.627 64.5867C112.373 64.5867 112.373 64.5867 112.373 65.3333C112.373 68.32 112.373 68.32 109.76 68.32C107.893 68.32 106.027 68.32 104.16 68.32C103.413 68.32 103.04 68.32 102.667 69.0667C98.56 76.16 92.2134 79.52 84 79.1467C77.28 78.7733 71.68 75.4133 68.32 69.44C67.9467 68.6933 67.5734 68.32 66.4534 68.32C44.8 68.32 23.1467 68.32 1.49338 68.32C0.373383 68.32 5.00816e-05 67.9467 5.00816e-05 66.8267C5.00816e-05 64.5867 5.01651e-05 64.5867 2.24005 64.5867C9.33338 64.5867 16.8001 64.5867 23.8934 64.5867C25.0134 64.5867 25.3867 64.2133 25.0134 63.0933C25.0134 61.6 25.0134 60.1067 25.0134 58.24C25.0134 57.4933 25.0134 57.12 23.8934 57.12C21.2801 57.12 18.2934 57.12 15.68 57.12C6.34672 57.12 -1.11995 48.9067 -0.373283 39.5733C-0.373283 39.2 -0.373283 38.8267 5.00816e-05 38.8267C4.85338 38.8267 9.33338 38.4533 14.1867 38.8267C18.2934 39.2 21.6534 41.0667 24.2667 44.0533C25.0134 45.5467 25.0134 45.5467 25.3867 45.5467C25.3867 45.5467 25.0134 45.5467 25.3867 45.5467ZM85.12 75.7867C94.08 75.7867 101.547 68.32 101.547 59.7333C101.547 50.7733 94.4534 43.3067 85.4934 43.3067C76.5334 43.3067 69.0667 50.4 69.0667 59.36C68.6934 68.6933 76.16 75.7867 85.12 75.7867ZM64.96 38.08C62.72 40.6933 60.4801 42.9333 58.2401 45.5467C57.8667 45.92 57.8667 46.2933 57.8667 46.6667C57.8667 52.64 57.8667 58.24 57.8667 64.2133C57.8667 64.96 57.8667 64.96 58.6134 64.96C60.8534 64.96 62.72 64.96 64.96 64.96C65.7067 64.96 65.7067 64.96 65.7067 64.2133C65.3334 62.3467 64.96 60.8533 64.96 58.9867C64.96 52.64 64.96 45.92 64.96 39.5733C64.96 39.2 64.96 38.8267 64.96 38.08ZM8.96005 43.3067C7.46672 43.3067 5.97338 43.3067 4.48005 43.3067C3.73338 43.3067 3.73338 43.3067 3.73338 44.0533C4.85338 48.9067 8.96005 53.0133 14.1867 53.76C17.5467 54.1333 20.9067 53.76 24.6401 54.1333C25.3867 54.1333 25.0134 53.76 25.0134 53.3867C23.8934 48.9067 21.2801 45.5467 16.8001 44.0533C14.1867 43.3067 11.5734 43.3067 8.96005 43.3067ZM45.1734 10.8267C43.6801 10.8267 41.4401 10.8267 39.5734 11.2C34.7201 11.9467 30.2401 16.0533 29.1201 20.9067C29.1201 21.28 28.7467 21.6533 29.4934 21.6533C32.8534 21.6533 36.5867 22.0267 39.9467 21.28C44.8 20.5333 49.28 16.0533 50.0267 11.5733C50.0267 10.8267 50.0267 10.8267 49.28 10.8267C48.16 10.8267 46.6667 10.8267 45.1734 10.8267ZM19.7867 14.56C21.2801 14.56 22.7734 14.56 24.2667 14.56C25.0134 14.56 25.0134 14.1867 25.0134 13.8133C24.2667 8.96 19.7867 4.48 14.9334 3.73333C11.5734 3.36 7.84005 3.73333 4.48005 3.73333C3.73338 3.73333 3.73338 4.10667 4.10672 4.48C5.22672 8.96 8.21338 12.32 12.32 13.8133C14.9334 14.56 17.5467 14.56 19.7867 14.56ZM34.72 47.04C36.2134 47.04 38.08 47.04 40.32 46.6667C45.1734 45.92 50.0267 41.44 50.7734 36.5867C50.7734 36.2133 50.7734 35.84 50.4 35.84C47.04 35.84 43.3067 35.4667 39.9467 36.2133C35.0934 36.96 30.6134 41.0667 29.4934 45.92C29.4934 46.6667 29.4934 46.6667 30.2401 46.6667C31.3601 47.04 32.8534 47.04 34.72 47.04ZM97.8134 22.4C95.5734 24.64 93.3334 26.88 91.0934 29.12C90.72 29.4933 90.72 29.8667 90.72 30.24C90.72 33.6 90.72 36.5867 90.72 39.9467C90.72 40.32 90.72 40.6933 91.0934 40.6933C93.7067 41.44 95.5734 42.56 97.8134 44.4267C97.8134 36.96 97.8134 29.8667 97.8134 22.4ZM76.16 26.5067C73.92 29.12 71.6801 31.36 69.4401 33.6C69.0667 33.9733 68.6934 34.72 68.6934 35.0933C68.6934 38.4533 68.6934 41.8133 68.6934 45.1733C68.6934 45.92 68.6934 47.04 68.6934 48.16C70.56 45.5467 72.8001 43.68 75.4134 42.1867C75.7867 41.8133 75.7867 41.8133 75.7867 41.0667C75.7867 39.5733 75.7867 38.4533 75.7867 36.96C76.16 33.6 76.16 30.24 76.16 26.5067ZM79.52 25.0133C79.52 30.24 79.52 34.72 79.52 39.5733C79.52 39.9467 79.52 40.32 80.2667 40.32C82.1334 39.9467 84.0001 39.5733 86.2401 39.5733C86.9867 39.5733 86.9867 39.5733 86.9867 38.8267C86.9867 35.84 86.9867 33.2267 86.9867 30.24C86.9867 29.8667 86.9867 29.4933 86.6134 29.4933C84.3734 28.3733 82.1334 26.88 79.52 25.0133Z" fill="#060604"/>
<path d="M39.1998 87.36C40.6931 86.6133 41.8131 86.9866 43.3065 86.9866C52.2665 86.9866 61.2265 86.9866 70.1865 86.9866C73.5465 86.9866 76.1598 89.2266 75.7865 92.5866C75.7865 94.4533 76.1598 96.32 75.4131 98.1866C76.5331 97.44 78.0265 97.8133 79.1465 97.8133C88.1065 97.8133 97.4398 97.8133 106.4 97.8133C109.76 97.8133 112.373 100.053 112 103.787C112 105.28 112.373 106.773 112 108.267C111.253 110.507 109.386 112.373 106.773 112.373C97.0665 112.373 87.3598 112.373 77.6531 112.373C76.5331 112.373 75.4131 112 74.6665 111.253C74.2931 110.88 73.9198 110.88 73.5465 111.253C72.7998 112 71.6798 112 70.1865 112C60.8531 112 51.5198 112 41.8131 112C40.6931 112 39.1998 111.627 38.4531 110.88C38.0798 110.507 37.7065 110.507 37.3331 110.88C36.5865 112 35.4665 112 33.9731 112C24.6398 112 15.3065 112 5.59978 112C2.23978 112 -0.000215387 109.76 -0.000215387 106.4C-0.000215387 104.907 -0.000215387 103.413 -0.000215387 102.293C-0.000215387 101.173 1.11978 100.427 1.11978 99.68C1.11978 98.9333 -0.000215387 98.1866 -0.000215387 97.0666C-0.000215387 94.4533 -0.746882 91.4666 1.11978 89.2266C1.49312 88.8533 1.11978 88.8533 1.11978 88.48C0.373118 86.9866 -0.000215387 85.8666 -0.000215387 84.3733C-0.000215387 82.88 -0.373549 81.3866 0.373118 79.8933C1.11978 77.6533 2.98645 75.7866 5.59978 75.7866C15.3065 75.7866 25.0131 75.7866 34.7198 75.7866C37.7065 75.7866 39.9464 78.0266 39.9464 81.0133C39.9464 83.2533 40.3198 85.12 39.1998 87.36ZM19.7865 97.8133C24.6398 97.8133 29.1198 97.8133 33.9731 97.8133C35.4665 97.8133 36.2131 97.0666 36.2131 95.5733C36.2131 94.4533 36.2131 93.7066 36.2131 92.5866C36.2131 92.2133 36.2131 91.84 35.8398 91.4666C35.4665 90.72 34.3465 90.3466 32.8531 90.72C32.1065 91.0933 32.4798 91.84 32.4798 92.2133C32.4798 94.4533 32.4798 94.4533 29.8665 94.4533C29.1198 94.4533 28.7464 94.4533 28.7464 93.3333C28.7464 90.72 28.7465 90.72 26.1331 90.72C25.3865 90.72 25.0131 91.0933 25.0131 91.84C25.0131 94.4533 25.0131 94.4533 22.3998 94.4533C21.6531 94.4533 21.2798 94.4533 21.2798 93.3333C21.2798 90.72 21.2798 90.72 18.6665 90.72C17.9198 90.72 17.5464 91.0933 17.5464 91.84C17.5464 94.4533 17.5465 94.4533 14.9331 94.4533C14.1865 94.4533 14.1865 94.08 14.1865 93.3333C14.1865 90.3466 14.1865 90.3466 11.1998 90.72C10.8265 90.72 10.4531 90.72 10.4531 91.4666C10.4531 92.2133 10.4531 92.96 10.4531 93.7066C10.4531 94.4533 10.0798 94.4533 9.70645 94.4533C6.71978 94.4533 6.71978 94.4533 6.71978 91.84C6.71978 91.4666 6.71978 91.4666 6.71978 91.0933C6.71978 91.0933 6.71978 90.72 6.34645 90.72C5.59978 89.6 3.73312 90.72 3.73312 92.5866C3.73312 93.7066 3.73312 94.4533 3.73312 95.5733C3.73312 97.44 4.47978 97.8133 5.97312 97.8133C10.8265 97.8133 15.3065 97.8133 19.7865 97.8133ZM55.9998 108.64C60.8531 108.64 65.3331 108.64 70.1865 108.64C71.6798 108.64 72.4265 107.893 72.4265 106.4C72.4265 105.28 72.4265 104.533 72.4265 103.413C72.4265 103.04 72.4265 103.04 72.4265 102.667C72.0531 101.547 71.3065 100.8 69.4398 101.173C68.3198 101.173 69.0665 102.293 69.0665 102.667C69.0665 104.533 69.0665 104.533 66.4531 104.533C65.7065 104.533 65.3331 104.16 65.3331 103.413C65.3331 100.8 65.3331 100.8 62.7198 100.8C61.9731 100.8 61.5998 100.8 61.5998 101.92C61.5998 104.533 61.5998 104.533 58.9865 104.533C58.2398 104.533 58.2398 104.16 58.2398 103.413C58.2398 100.8 58.2398 100.8 55.2531 100.8C54.8798 100.8 54.5065 100.8 54.5065 101.547C54.5065 102.293 54.5065 103.04 54.5065 103.787C54.5065 104.16 54.5065 104.533 54.1331 104.533C53.0131 104.533 51.8931 104.907 51.1465 104.533C50.3998 104.16 51.1465 103.04 50.7731 102.293C50.7731 101.92 50.7731 101.92 50.7731 101.547C50.7731 101.173 50.7731 101.173 50.3998 101.173C49.2798 101.173 48.1598 100.8 47.4131 101.173C47.0398 101.547 47.4131 102.667 47.4131 103.413C47.4131 103.787 47.4131 103.787 47.4131 104.16C47.4131 104.533 47.4131 104.907 46.6665 104.907C43.6798 105.28 43.6798 105.28 43.6798 102.293C43.6798 101.92 43.6798 101.92 43.6798 101.547C43.6798 101.547 43.6798 101.173 43.3065 101.173C41.8131 100.427 39.9464 101.547 39.9464 103.04C39.9464 104.16 39.9464 104.907 39.9464 106.027C39.9464 107.893 40.6931 108.267 42.1865 108.267C46.6665 108.64 51.5198 108.64 55.9998 108.64ZM19.7865 86.6133C24.6398 86.6133 29.1198 86.6133 33.9731 86.6133C35.4665 86.6133 36.2131 86.24 36.2131 85.12C36.2131 83.6266 36.2131 82.5066 36.2131 81.0133C36.2131 79.8933 35.0931 79.1466 33.2264 79.52C32.1064 79.52 32.8531 80.64 32.8531 81.0133C32.8531 82.88 32.8531 82.88 30.6131 82.88C29.1198 82.88 29.1198 82.88 29.1198 81.3866C29.1198 79.1466 29.1198 79.1466 26.8798 79.1466C25.7598 79.1466 25.3865 79.52 25.3865 80.64C25.3865 82.88 25.3864 82.88 23.1464 82.88C21.6531 82.88 21.6531 82.88 21.6531 81.3866C21.6531 79.1466 21.6531 79.1466 19.4131 79.1466C17.9198 79.1466 17.9198 79.1466 17.9198 80.64C17.9198 82.5066 17.9198 82.5066 16.0531 82.5066C14.5598 82.5066 14.5598 82.5066 14.5598 81.0133C14.5598 79.1466 14.5598 79.1466 12.6931 79.1466C10.8265 79.1466 10.8265 79.1466 10.8265 81.0133C10.8265 82.88 10.8265 82.88 8.95979 82.88C7.09312 82.88 7.09312 82.88 7.09312 81.0133C7.09312 80.64 7.09312 80.2666 7.09312 79.8933C7.09312 79.52 7.09312 79.52 6.71978 79.52C5.59978 78.7733 3.73312 79.8933 3.73312 81.76C3.73312 82.5066 3.73312 83.6266 3.73312 84.3733C3.73312 86.24 4.47978 86.9866 5.97312 86.9866C10.8265 86.6133 15.3065 86.6133 19.7865 86.6133ZM55.9998 97.8133C60.8531 97.8133 65.3331 97.8133 70.1865 97.8133C71.6798 97.8133 72.4265 97.0666 72.4265 95.5733C72.4265 94.8266 72.4265 94.08 72.4265 93.3333C72.4265 92.96 72.4265 92.5866 72.4265 92.2133C72.0531 91.0933 71.3065 90.72 69.4398 90.72C68.3198 90.72 69.0665 91.84 69.0665 92.2133C69.0665 94.08 69.0665 94.08 66.4531 94.08C65.7065 94.08 65.3331 94.08 65.3331 92.96C65.3331 90.3466 65.3331 90.3466 62.7198 90.3466C61.9731 90.3466 61.5998 90.72 61.5998 91.4666C61.5998 94.08 61.5998 94.08 58.9865 94.08C58.2398 94.08 57.8665 94.08 57.8665 92.96C57.8665 90.3466 57.8665 90.3466 55.2531 90.3466C54.5065 90.3466 54.5065 90.72 54.5065 91.4666C54.5065 94.08 54.5064 94.08 51.8931 94.08C51.1464 94.08 51.1465 94.08 51.1465 93.3333C51.1465 92.5866 51.5198 91.0933 51.1465 90.72C50.3998 90.3466 49.2798 90.72 48.5331 90.72C47.7865 90.72 47.7865 91.0933 47.7865 91.4666C47.7865 92.2133 47.7865 92.96 47.7865 93.7066C47.7865 94.08 47.7865 94.4533 47.0398 94.4533C44.0531 94.4533 44.0531 94.4533 44.0531 91.84C44.0531 91.4666 44.0531 91.4666 44.0531 91.0933C44.0531 91.0933 44.0531 90.72 43.6798 90.72C42.1864 89.9733 40.3198 91.0933 40.3198 92.96C40.3198 93.7066 40.3198 94.8266 40.3198 95.5733C40.3198 97.44 41.0664 97.8133 42.5598 97.8133C47.0398 97.8133 51.5198 97.8133 55.9998 97.8133ZM19.7865 108.64C24.6398 108.64 29.1198 108.64 33.9731 108.64C35.4665 108.64 36.2131 107.893 36.2131 106.4C36.2131 105.653 36.2131 104.907 36.2131 103.787C36.2131 101.92 35.4665 101.173 33.5998 101.173C32.8531 101.173 32.4798 101.173 32.4798 102.293C32.4798 104.907 32.4798 104.907 29.8665 104.907C29.1198 104.907 28.7464 104.907 28.7464 103.787C28.7464 101.173 28.7465 101.173 26.1331 101.173C25.3865 101.173 25.0131 101.547 25.0131 102.293C25.0131 104.907 25.0131 104.907 22.3998 104.907C21.6531 104.907 21.2798 104.907 21.2798 104.16C21.2798 103.413 21.6531 102.293 21.2798 101.547C20.9064 100.8 19.4131 101.547 18.6665 101.173C17.9198 101.173 17.9198 101.547 17.9198 102.293C17.9198 104.907 17.9198 104.907 15.3065 104.907C14.5598 104.907 14.5598 104.907 14.5598 104.16C14.5598 103.413 14.9331 101.92 14.5598 101.547C13.8131 101.173 12.6931 101.547 11.9465 101.547C11.5731 101.547 11.1998 101.92 11.1998 102.293C11.1998 103.04 11.1998 103.787 11.1998 104.533C11.1998 104.907 11.1998 105.28 10.4531 105.28C7.46645 105.28 7.46645 105.28 7.46645 102.667C7.46645 102.293 7.46645 102.293 7.46645 101.92C7.46645 101.92 7.46645 101.547 7.09312 101.547C5.59978 100.427 3.73312 101.547 3.73312 103.413C3.73312 104.16 3.73312 105.28 3.73312 106.027C3.73312 107.893 4.47978 108.267 5.97312 108.267C10.8265 108.64 15.3065 108.64 19.7865 108.64ZM92.2131 108.64C96.6931 108.64 101.546 108.64 106.026 108.64C107.893 108.64 108.266 107.893 108.266 106.027C108.266 105.28 108.266 104.16 108.266 103.413C108.266 103.04 108.266 102.667 107.893 102.293C107.52 101.547 106.026 100.8 104.906 101.173C104.16 101.547 104.533 102.293 104.533 102.667C104.533 104.533 104.533 104.533 102.293 104.907C101.546 104.907 100.8 104.907 101.173 103.787C101.173 101.173 101.173 101.173 98.5598 101.173C97.8131 101.173 97.4398 101.173 97.4398 102.293C97.4398 104.907 97.4398 104.907 94.8265 104.907C94.0798 104.907 93.7065 104.533 93.7065 103.787C93.7065 101.173 93.7065 101.173 91.0931 101.173C90.3465 101.173 89.9731 101.173 89.9731 102.293C89.9731 104.907 89.9731 104.907 87.3598 104.907C86.6131 104.907 86.6131 104.533 86.6131 103.787C86.6131 101.173 86.6131 101.173 83.6265 101.173C82.8798 101.173 82.8798 101.173 82.8798 101.92C82.8798 102.667 82.8798 103.413 82.8798 104.16C82.8798 104.533 82.8798 104.907 82.1331 104.907C79.1465 104.907 79.1465 105.28 79.1465 102.293C79.1465 101.92 79.1465 101.92 79.1465 101.547C79.1465 101.547 79.1465 101.173 78.7731 101.173C77.2798 100.427 75.4131 101.547 75.4131 103.04C75.4131 104.16 75.4131 104.907 75.4131 106.027C75.4131 107.893 76.1598 108.267 77.6531 108.267C82.8798 108.64 87.7331 108.64 92.2131 108.64Z" fill="#060604"/>
<path d="M85.12 75.7866C76.16 75.7866 69.0667 68.3199 69.0667 59.3599C69.0667 50.3999 76.5333 43.3066 85.4933 43.3066C94.4533 43.3066 101.547 50.7732 101.547 59.7332C101.173 68.6932 94.08 75.7866 85.12 75.7866ZM77.6533 66.0799C77.6533 66.8266 77.28 68.3199 78.0267 68.6932C78.4 69.4399 79.8933 68.6932 80.64 68.6932C81.3867 68.6932 82.5067 68.3199 83.2533 68.6932C83.6267 69.0666 83.6267 70.1866 83.2533 71.3066C83.2533 72.0532 83.6267 72.4266 84.3733 72.4266C86.9867 72.4266 86.9867 72.4266 86.9867 69.8132C86.9867 69.0666 86.9867 68.6932 87.7333 68.6932C90.72 68.3199 92.5867 65.7066 92.2133 62.7199C91.84 60.1066 89.6 57.8666 86.6133 57.8666C85.4933 57.8666 84.3733 57.8666 83.6267 57.8666C82.5067 57.8666 81.3867 57.1199 81.3867 55.9999C81.3867 54.8799 82.1333 54.1332 83.6267 54.1332C85.12 54.1332 86.6133 54.1332 87.7333 54.1332C88.48 54.1332 88.8533 54.5066 88.48 54.8799C88.48 55.6266 88.48 55.9999 89.2267 55.9999C91.84 55.9999 91.84 55.9999 91.84 53.3866C91.84 52.6399 92.2133 51.1466 91.4667 50.7732C91.0933 50.3999 89.9733 50.7732 88.8533 50.7732C88.1067 50.7732 86.9867 51.1466 86.24 50.7732C85.4933 50.3999 85.8667 48.9066 86.24 48.1599C86.24 47.4132 85.8667 47.4132 85.12 47.4132C82.5067 47.4132 82.5067 47.4132 82.5067 50.0266C82.5067 50.7732 82.5067 50.7732 81.76 51.1466C78.7733 51.5199 76.9067 54.1332 77.28 57.1199C77.6533 59.7332 79.8933 61.9732 82.88 61.9732C84 61.9732 85.12 61.9732 86.24 61.9732C87.36 61.9732 88.1067 62.7199 88.1067 63.8399C88.1067 64.9599 87.36 65.7066 86.24 65.7066C84.7467 65.7066 83.2533 65.7066 81.76 65.7066C81.0133 65.7066 81.0133 65.3332 81.0133 64.9599C81.0133 64.2132 80.64 63.8399 79.8933 63.8399C77.6533 63.4666 77.6533 63.4666 77.6533 66.0799Z" fill="#FCD30E"/>
<path d="M64.96 38.08C64.96 38.8267 64.96 39.2 64.96 39.5734C64.96 45.92 64.96 52.64 64.96 58.9867C64.96 60.8534 64.96 62.72 65.7067 64.2134C65.7067 64.96 65.7067 64.96 64.96 64.96C62.72 64.96 60.8534 64.96 58.6134 64.96C57.8667 64.96 57.8667 64.5867 57.8667 64.2134C57.8667 58.24 57.8667 52.64 57.8667 46.6667C57.8667 46.2934 57.8667 45.92 58.24 45.5467C60.48 42.9334 62.72 40.6934 64.96 38.08Z" fill="#2F68B2"/>
<path d="M8.96035 43.3066C11.5737 43.3066 14.187 42.9333 16.427 44.0533C20.907 45.5466 23.5204 48.9066 24.6404 53.3866C24.6404 53.76 25.0137 54.5066 24.267 54.1333C20.907 54.1333 17.1737 54.5066 13.8137 53.76C8.96035 53.0133 4.48035 48.9066 3.36035 44.0533C3.36035 43.3066 3.36035 43.3066 4.10702 43.3066C6.34702 43.3066 7.84035 43.3066 8.96035 43.3066Z" fill="#5BBF90"/>
<path d="M45.173 10.8267C47.0397 10.8267 48.533 10.8267 50.0264 10.8267C50.773 10.8267 50.773 10.8267 50.773 11.5734C50.0264 16.4267 45.5464 20.9067 40.693 21.2801C36.5864 22.0267 33.2264 21.6534 29.8664 21.6534C29.1197 21.6534 29.1197 21.2801 29.493 20.9067C30.2397 16.0534 34.7197 11.9467 39.573 11.2001C41.4397 10.8267 43.3064 10.8267 45.173 10.8267Z" fill="#5BBF90"/>
<path d="M19.787 14.56C17.1737 14.56 14.5604 14.9334 12.3204 13.8134C7.84037 12.32 5.22704 8.96004 4.10704 4.48004C3.73371 4.1067 3.73371 3.73337 4.48038 3.73337C7.84038 3.73337 11.5737 3.36004 14.9337 3.73337C19.787 4.48004 24.267 8.96004 25.0137 13.44C25.0137 14.1867 25.0137 14.1867 24.267 14.1867C23.147 14.56 21.2804 14.56 19.787 14.56Z" fill="#5BBF90"/>
<path d="M34.7201 47.04C32.8535 47.04 31.3601 47.04 29.8668 47.04C29.1201 47.04 29.1201 47.04 29.1201 46.2934C30.2401 41.44 34.3468 37.3334 39.5735 36.5867C42.9335 36.2134 46.6668 36.5867 50.0268 36.2134C50.7734 36.2134 50.7734 36.5867 50.4001 36.96C49.6534 41.8134 45.1734 46.2934 39.9468 47.04C38.0801 47.04 36.2135 47.04 34.7201 47.04Z" fill="#5BBF90"/>
<path d="M97.8136 22.4C97.8136 29.8667 97.8136 36.96 97.8136 44.0534C95.5736 42.56 93.3335 41.0667 91.0935 40.32C90.7202 40.32 90.7202 39.9467 90.7202 39.5734C90.7202 36.2134 90.7202 33.2267 90.7202 29.8667C90.7202 29.4934 90.7202 29.12 91.0935 28.7467C92.9602 27.2534 95.2002 25.0134 97.8136 22.4Z" fill="#2F68B2"/>
<path d="M76.16 26.5066C76.16 30.2399 76.16 33.9733 76.16 37.3333C76.16 38.8266 76.16 39.9466 76.16 41.4399C76.16 41.8133 76.16 42.1866 75.7867 42.5599C73.1733 44.0533 70.9333 45.9199 69.0667 48.5333C69.0667 47.4133 69.0667 46.2933 69.0667 45.5466C69.0667 42.1866 69.0667 38.8266 69.0667 35.4666C69.0667 34.7199 69.0667 34.3466 69.8133 33.9733C71.68 31.3599 73.5467 28.7466 76.16 26.5066Z" fill="#2F68B2"/>
<path d="M79.5198 25.0134C81.7598 26.5067 83.9998 28 86.2398 29.4934C86.6131 29.8667 86.6131 29.8667 86.6131 30.24C86.6131 33.2267 86.6131 35.84 86.6131 38.8267C86.6131 39.5734 86.6131 39.5734 85.8665 39.5734C83.9998 39.5734 82.1331 39.5734 79.8931 40.32C79.1465 40.32 79.1465 40.32 79.1465 39.5734C79.5198 35.0934 79.5198 30.24 79.5198 25.0134Z" fill="#2F68B2"/>
<path d="M19.7867 97.8133C15.3067 97.8133 10.4534 97.8133 5.9734 97.8133C4.48007 97.8133 3.7334 97.0667 3.7334 95.2C3.7334 94.08 3.7334 93.3333 3.7334 92.2133C3.7334 90.72 5.60006 89.6 7.0934 90.3467C7.0934 90.3467 7.46673 90.3467 7.46673 90.72C7.46673 91.0933 7.46673 91.0933 7.46673 91.4667C7.46673 94.4533 7.46673 94.08 10.4534 94.08C11.2001 94.08 11.2001 94.08 11.2001 93.3333C11.2001 92.5867 11.2001 91.84 11.2001 91.0933C11.2001 90.72 11.2001 90.3467 11.9467 90.3467C14.9334 90.3467 14.9334 90.3467 14.9334 92.96C14.9334 93.7067 14.9334 94.08 15.6801 94.08C18.2934 94.08 18.2934 94.08 18.2934 91.4667C18.2934 90.72 18.2934 90.3467 19.4134 90.3467C22.0267 90.3467 22.0267 90.3467 22.0267 92.96C22.0267 93.7067 22.4001 94.08 23.1467 94.08C25.7601 94.08 25.7601 94.08 25.7601 91.4667C25.7601 90.72 26.1334 90.3467 26.8801 90.3467C29.4934 90.3467 29.4934 90.3467 29.4934 92.96C29.4934 94.08 29.8667 94.08 30.6134 94.08C33.2267 94.08 32.8534 94.08 33.2267 91.84C33.2267 91.4667 32.8534 90.72 33.6001 90.3467C34.7201 89.9733 36.2134 90.3467 36.5867 91.0933C36.9601 91.4667 36.9601 91.84 36.9601 92.2133C36.9601 93.3333 36.9601 94.08 36.9601 95.2C36.9601 96.6933 36.2134 97.44 34.7201 97.44C29.1201 97.8133 24.6401 97.8133 19.7867 97.8133Z" fill="#FEBE12"/>
<path d="M55.9999 108.64C51.5199 108.64 46.6665 108.64 42.1865 108.64C40.3199 108.64 39.9465 107.893 39.9465 106.4C39.9465 105.28 39.9465 104.533 39.9465 103.413C39.9465 101.92 42.1865 100.8 43.3065 101.547L43.6799 101.92C43.6799 102.293 43.6799 102.293 43.6799 102.667C43.6799 105.653 43.6799 105.653 46.6665 105.28C47.0399 105.28 47.4132 105.28 47.4132 104.533C47.4132 104.533 47.4132 104.16 47.4132 103.787C47.4132 103.04 47.0399 101.92 47.4132 101.547C48.1599 101.173 49.2799 101.547 50.3999 101.547C50.7732 101.547 50.7732 101.92 50.7732 101.92C50.7732 102.293 50.7732 102.293 50.7732 102.667C50.7732 103.413 50.3999 104.533 51.1465 104.907C51.8932 105.28 53.0132 104.907 54.1332 104.907C54.5065 104.907 54.5065 104.533 54.5065 104.16C54.5065 103.413 54.5065 102.667 54.5065 101.92C54.5065 101.547 54.5065 101.173 55.2532 101.173C58.2399 101.173 58.2399 101.173 58.2399 103.787C58.2399 104.533 58.2399 104.907 58.9865 104.907C61.5999 104.907 61.5999 104.907 61.5999 102.293C61.5999 101.547 61.9732 101.173 62.7199 101.173C65.3332 101.173 65.3332 101.173 65.3332 103.787C65.3332 104.533 65.7065 104.907 66.4532 104.907C69.0665 104.907 69.0665 104.907 69.0665 103.04C69.0665 102.667 68.3199 101.547 69.4399 101.547C71.3065 101.173 72.0532 101.92 72.4265 103.04C72.4265 103.413 72.4265 103.413 72.4265 103.787C72.4265 104.907 72.4265 105.653 72.4265 106.773C72.4265 108.267 71.6799 109.013 70.1865 109.013C65.3332 108.64 60.8532 108.64 55.9999 108.64Z" fill="#FEBE12"/>
<path d="M19.7867 86.6133C15.3067 86.6133 10.4534 86.6133 5.9734 86.6133C4.10673 86.6133 3.7334 85.8666 3.7334 83.9999C3.7334 83.2533 3.7334 82.1333 3.7334 81.3866C3.7334 79.5199 5.60006 78.3999 7.0934 79.1466C7.46673 79.5199 7.46673 79.8933 7.46673 80.2666C7.46673 80.6399 7.46673 81.0133 7.46673 81.3866C7.46673 83.2533 7.46673 83.2533 9.3334 83.2533C11.2001 83.2533 11.2001 83.2533 11.2001 81.3866C11.2001 79.5199 11.2001 79.5199 13.0667 79.5199C14.9334 79.5199 14.9334 79.5199 14.9334 81.3866C14.9334 82.8799 14.9334 82.8799 16.4267 82.8799C18.2934 82.8799 18.2934 82.8799 18.2934 81.0133C18.2934 79.5199 18.2934 79.5199 19.7867 79.5199C22.0267 79.5199 22.0267 79.5199 22.0267 81.7599C22.0267 83.2533 22.0267 83.2533 23.5201 83.2533C25.7601 83.2533 25.7601 83.2533 25.7601 81.0133C25.7601 79.8933 25.7601 79.5199 27.2534 79.5199C29.4934 79.5199 29.4934 79.5199 29.4934 81.7599C29.4934 83.2533 29.4934 83.2533 30.9867 83.2533C33.2267 83.2533 32.8534 83.2533 33.2267 81.3866C33.2267 81.0133 32.4801 79.8933 33.6001 79.8933C35.4667 79.5199 36.5867 80.2666 36.5867 81.3866C36.5867 82.8799 36.5867 83.9999 36.5867 85.4933C36.5867 86.6133 35.8401 86.9866 34.3467 86.9866C29.1201 86.6133 24.6401 86.6133 19.7867 86.6133Z" fill="#FEBE12"/>
<path d="M55.9999 97.8133C51.5199 97.8133 46.6665 97.8133 42.1865 97.8133C40.3199 97.8133 39.9465 97.0667 39.9465 95.5733C39.9465 94.8267 39.9465 93.7067 39.9465 92.96C39.9465 91.0933 41.8132 89.9733 43.3065 90.72C43.3065 90.72 43.6799 90.72 43.6799 91.0933C43.6799 91.4667 43.6799 91.4667 43.6799 91.84C43.6799 94.8267 43.6799 94.8267 46.6665 94.4533C47.4132 94.4533 47.4132 94.08 47.4132 93.7067C47.4132 92.96 47.4132 92.2133 47.4132 91.4667C47.4132 90.72 47.4132 90.72 48.1599 90.72C48.9065 90.72 50.3999 90.3467 50.7732 90.72C51.5199 91.0933 50.7732 92.5867 50.7732 93.3333C50.7732 94.08 51.1465 94.08 51.5199 94.08C54.1332 94.08 54.1332 94.08 54.1332 91.4667C54.1332 90.72 54.1332 90.3467 54.8799 90.3467C57.4932 90.3467 57.4932 90.3467 57.4932 92.96C57.4932 93.7067 57.8665 94.08 58.6132 94.08C61.2265 94.08 61.2265 94.08 61.2265 91.4667C61.2265 90.72 61.2265 90.3467 62.3465 90.3467C64.9599 90.3467 64.9599 90.3467 64.9599 92.96C64.9599 93.7067 65.3332 94.08 66.0799 94.08C68.6932 94.08 68.6932 94.08 68.6932 92.2133C68.6932 91.84 67.9465 90.72 69.0665 90.72C70.9332 90.3467 71.6799 91.0933 72.0532 92.2133C72.0532 92.5867 72.0532 92.96 72.0532 93.3333C72.0532 94.08 72.0532 94.8267 72.0532 95.5733C72.0532 97.0667 71.3065 97.8133 69.8132 97.8133C65.7065 97.8133 60.8532 97.8133 55.9999 97.8133Z" fill="#FEBE12"/>
<path d="M19.7867 108.64C15.3067 108.64 10.4534 108.64 5.9734 108.64C4.10673 108.64 3.7334 107.893 3.7334 106.4C3.7334 105.653 3.7334 104.533 3.7334 103.787C3.7334 101.92 5.60007 100.8 7.0934 101.547C7.0934 101.547 7.46673 101.547 7.46673 101.92C7.46673 102.293 7.46673 102.293 7.46673 102.667C7.46673 105.653 7.46673 105.653 10.4534 105.28C10.8267 105.28 11.2001 104.907 11.2001 104.533C11.2001 103.787 11.2001 103.04 11.2001 102.293C11.2001 101.92 11.2001 101.547 11.9467 101.547C12.6934 101.547 14.1867 101.173 14.5601 101.547C15.3067 101.92 14.5601 103.413 14.5601 104.16C14.5601 104.907 14.9334 104.907 15.3067 104.907C17.9201 104.907 17.9201 104.907 17.9201 102.293C17.9201 101.547 17.9201 101.173 18.6667 101.173C19.4134 101.173 20.9067 100.8 21.2801 101.547C21.6534 101.92 21.2801 103.04 21.2801 104.16C21.2801 104.907 21.6534 104.907 22.4001 104.907C25.0134 104.907 25.0134 104.907 25.0134 102.293C25.0134 101.547 25.0134 101.173 26.1334 101.173C28.7467 101.173 28.7467 101.173 28.7467 103.787C28.7467 104.533 29.1201 104.907 29.8667 104.907C32.4801 104.907 32.4801 104.907 32.4801 102.293C32.4801 101.173 32.8534 101.173 33.6001 101.173C35.4667 101.173 36.2134 101.92 36.2134 103.787C36.2134 104.533 36.2134 105.28 36.2134 106.4C36.2134 107.893 35.4667 108.64 33.9734 108.64C29.1201 108.64 24.6401 108.64 19.7867 108.64Z" fill="#FEBE12"/>
<path d="M92.2137 108.64C87.7337 108.64 82.8804 108.64 78.4004 108.64C76.5337 108.64 76.1604 107.893 76.1604 106.4C76.1604 105.28 76.1604 104.533 76.1604 103.413C76.1604 101.92 78.4004 100.8 79.5204 101.547L79.8937 101.92C79.8937 102.293 79.8937 102.293 79.8937 102.667C79.8937 105.653 79.8937 105.653 82.8804 105.28C83.2537 105.28 83.6271 105.28 83.6271 104.533C83.6271 103.787 83.6271 103.04 83.6271 102.293C83.6271 101.547 84.0004 101.547 84.3737 101.547C87.3604 101.547 87.3604 101.547 87.3604 104.16C87.3604 104.907 87.3604 105.28 88.1071 105.28C90.7204 105.28 90.7204 105.28 90.7204 102.667C90.7204 101.92 91.0937 101.547 91.8404 101.547C94.4537 101.547 94.4537 101.547 94.4537 104.16C94.4537 104.907 94.8271 105.28 95.5737 105.28C98.1871 105.28 98.1871 105.28 98.1871 102.667C98.1871 101.92 98.5604 101.547 99.3071 101.547C101.92 101.547 101.92 101.547 101.92 104.16C101.92 105.28 102.294 105.28 103.04 105.28C105.28 105.28 105.28 105.28 105.28 103.04C105.28 102.667 104.907 101.92 105.654 101.547C106.774 101.173 108.267 101.547 108.64 102.667C108.64 103.04 109.014 103.413 109.014 103.787C109.014 104.533 109.014 105.653 109.014 106.4C109.014 108.267 108.267 109.013 106.774 109.013C101.547 108.64 96.6937 108.64 92.2137 108.64Z" fill="#FEBE12"/>
<path d="M77.6534 66.0799C77.6534 63.4666 77.6534 63.4666 80.2667 63.4666C81.0134 63.4666 81.3867 63.4666 81.3867 64.5866C81.3867 65.3332 81.3867 65.3332 82.1334 65.3332C83.6267 65.3332 85.1201 65.3332 86.6134 65.3332C87.7334 65.3332 88.4801 64.5866 88.4801 63.4666C88.4801 62.3466 87.7334 61.5999 86.6134 61.5999C85.4934 61.5999 84.3734 61.5999 83.2534 61.5999C80.2667 61.5999 78.0267 59.3599 77.6534 56.7466C77.2801 53.7599 79.5201 51.1466 82.1334 50.7733C82.8801 50.7733 82.8801 50.3999 82.8801 49.6532C82.8801 47.0399 82.8801 47.0399 85.4934 47.0399C86.2401 47.0399 86.6134 47.0399 86.6134 47.7866C86.6134 48.5332 86.2401 50.0266 86.6134 50.3999C86.9867 50.7732 88.1067 50.3999 89.2267 50.3999C89.9734 50.3999 91.0934 50.0266 91.8401 50.3999C92.5867 50.7732 91.8401 52.2666 92.2134 53.0132C92.2134 55.6266 92.2134 55.6266 89.6001 55.6266C88.8534 55.6266 88.4801 55.2533 88.8534 54.5066C88.8534 53.7599 88.8534 53.7599 88.1067 53.7599C86.6134 53.7599 85.1201 53.7599 84.0001 53.7599C82.8801 53.7599 82.1334 54.5066 81.7601 55.6266C81.7601 56.7466 82.5067 57.4932 84.0001 57.4932C85.1201 57.4932 86.2401 57.4932 86.9867 57.4932C89.9734 57.4932 92.2134 59.7333 92.5867 62.3466C92.9601 65.3333 91.0934 67.9466 88.1067 68.3199C87.3601 68.3199 87.3601 68.6933 87.3601 69.4399C87.3601 72.0533 87.3601 72.0532 84.7467 72.0532C84.0001 72.0532 83.6267 72.0532 83.6267 70.9332C83.6267 70.1866 84.0001 69.0666 83.6267 68.3199C83.2534 67.9466 82.1334 68.3199 81.0134 68.3199C80.2667 68.3199 78.7734 68.6932 78.4001 68.3199C77.6534 67.9466 77.6534 66.8266 77.6534 66.0799Z" fill="#F1572D"/>
</g>
<defs>
<clipPath id="clip0">
<rect width="112" height="112" fill="white"/>
</clipPath>
</defs>
</svg>
