<?xml version="1.0" encoding="utf-8"?>
<!-- Generator: Adobe Illustrator 21.0.1, SVG Export Plug-In . SVG Version: 6.00 Build 0)  -->
<svg version="1.1" id="Layer_1" xmlns="http://www.w3.org/2000/svg" xmlns:xlink="http://www.w3.org/1999/xlink" x="0px" y="0px"
	 viewBox="0 0 70.9 70.9" style="enable-background:new 0 0 70.9 70.9;" xml:space="preserve">
<style type="text/css">
	.st0{fill:#E1F3F5;}
	.st1{fill:#030202;}
	.st2{fill:#FC6270;}
	.st3{fill:#FBBB51;}
	.st4{fill:#070505;}
	.st5{fill:#070605;}
	.st6{fill:#01CBF0;}
	.st7{fill:#FA9055;}
	.st8{fill:#FBCFA2;}
	.st9{fill:#01C8EC;}
	.st10{fill:#F6F6F6;}
	.st11{fill:#F7F9FA;}
</style>
<title>feature-7</title>
<circle class="st0" cx="35.4" cy="35.4" r="35.4"/>
<g>
	<path class="st1" d="M24.4,40c-0.6-0.4-0.7-0.7-0.4-1.4c0.3-0.9,0.6-1.7,1-2.6c0.1,0,0.1-0.1,0-0.2c0,0-0.1,0.1-0.1,0.1
		c-0.7,0.7-1.4,1.4-2.1,2.1c-1,1-2.2,1-3.2,0c-2.2-2.1-4.3-4.3-6.5-6.5c-1-1-1-2.2,0-3.1c1.5-1.5,3.1-3.1,4.6-4.6c1-1,2.2-1,3.2,0
		c0.6,0.6,1.1,1.1,1.7,1.8c0.4-0.8,1.1-1.1,1.9-1.3c2.2-0.7,4.1-2,5.6-3.7c0.6-0.7,1.4-1.3,2.3-1.5c0.3-0.1,0.3-0.2,0.2-0.4
		c-1.6-2.8,0.4-6.2,3.6-6.2c1.9,0,3.6,1.4,4,3.3c0.4,1.8-0.6,3.8-2.3,4.5c-0.1,0.1-0.3,0.1-0.5,0.2c1,1.1,2.8,1.4,4.2,0.8
		c0.5-0.2,0.9-0.6,1.3-0.9c1.2-0.9,2.7-0.8,3.6,0.3c0.9,1.1,0.8,2.6-0.4,3.6c-2.3,1.9-4.9,2.8-7.9,2.7c-0.3,0-0.5,0.1-0.6,0.4
		c-0.3,0.9-0.6,1.8-0.9,2.6c-0.1,0.2-0.1,0.3,0.2,0.5c2,1,2.9,3,2.3,5.1c-0.5,1.6-0.9,3.3-1.4,5c0.2,0,0.3-0.2,0.4-0.3
		c1.1-1.1,2.2-2.2,3.3-3.3c0.6-0.6,1-0.6,1.6,0c0.9,0.9,1.9,1.9,2.8,2.8c0.2,0.2,0.3,0.2,0.4,0c1.2-1.2,2.5-2.5,3.7-3.7
		c0.2-0.2,0.2-0.3,0-0.4c-0.3-0.3-0.5-0.5-0.8-0.8c-0.6-0.6-0.3-1.4,0.5-1.6c2.5-0.5,5.1-1,7.6-1.5c0.8-0.2,1.3,0.4,1.1,1.2
		c-0.5,2.5-1,5-1.5,7.5c-0.1,0.4-0.2,0.7-0.7,0.9c-0.4,0.1-0.8-0.1-1-0.4c-0.3-0.3-0.6-0.6-0.9-0.9c-0.2-0.3-0.4-0.2-0.6,0
		c-2.2,2.3-4.5,4.5-6.8,6.8c-0.8,0.8-1.1,0.8-1.9,0c-0.9-0.9-1.8-1.8-2.6-2.7c-0.2-0.2-0.3-0.2-0.5,0c-1.4,1.4-2.7,2.7-4.1,4.1
		c-0.5,0.5-0.8,0.5-1.4,0.2c-0.4-0.6-0.4-0.9,0.2-1.5c1.6-1.6,3.2-3.2,4.8-4.8c0.6-0.6,1-0.6,1.6,0c0.9,0.9,1.8,1.8,2.7,2.7
		c0.3,0.3,0.4,0.3,0.7,0c2.3-2.3,4.6-4.6,6.9-6.9c0.5-0.5,1-0.5,1.6,0c0.2,0.2,0.3,0.4,0.6,0.5c0.3-1.5,0.6-3,0.9-4.4
		c0.1-0.3,0-0.3-0.3-0.3c-1,0.2-2,0.4-3,0.6c-0.5,0.1-0.9,0.1-1.4,0.3c0.1,0.1,0.2,0.2,0.2,0.2c0.7,0.7,0.7,1.1,0,1.8
		c-1.6,1.7-3.3,3.3-4.9,5c-0.7,0.7-1.1,0.7-1.7,0c-0.9-0.9-1.8-1.7-2.6-2.6c-0.3-0.3-0.4-0.3-0.7,0C36.9,43.9,31.9,49,26.8,54.1
		c-0.3,0.3-0.9,0.7-0.9,1c0,0.4,0.6,0.7,0.9,1c0.2,0.3,0.4,0.2,0.6,0c1.3-1.3,2.6-2.6,3.9-3.9c0.5-0.5,0.8-0.6,1.5-0.2
		c0.4,0.6,0.3,1-0.2,1.5c-1.6,1.6-3.1,3.1-4.7,4.7c-0.6,0.6-1,0.6-1.6,0c-0.8-0.8-1.5-1.5-2.3-2.3c-0.5-0.6-0.5-1,0-1.6
		c3.2-3.2,6.4-6.4,9.5-9.5c0.2-0.2,0.4-0.4-0.1-0.6c-1-0.5-1.5-1.6-1.3-2.7c0.3-1.9,0.6-3.8,0.9-5.7c-0.4-0.2-0.6,0-0.7,0.3
		c-2.2,4.3-4.4,8.6-6.5,12.9c-0.7,1.3-1.9,1.9-3.3,1.5c-1.5-0.4-2.3-1.9-1.8-3.4c0.1-0.5,0.3-0.9,0.5-1.4c0.3-0.7,0.5-0.9,1.3-0.8
		c0.6,0.4,0.7,0.7,0.4,1.4c-0.1,0.4-0.3,0.8-0.4,1.1c-0.2,0.5,0,1,0.4,1.2c0.5,0.2,1,0,1.3-0.5c0.3-0.5,0.5-1.1,0.8-1.6
		c2-4,4-8,6-11.9c0.3-0.6,0.7-0.9,1.4-0.8c0.5,0,1,0,1.4,0c1,0,1.3,0.4,1.2,1.3c-0.3,1.8-0.6,3.6-0.9,5.4C34.1,41,34,41.3,34,41.7
		c-0.1,0.5,0.2,0.9,0.6,1c0.4,0.1,0.8-0.1,0.9-0.6c0.7-2.4,1.3-4.7,2-7.1c0.5-1.8-0.6-3.2-2.5-3.3c-2,0-4,0-6,0
		c-0.3,0-0.4,0.1-0.5,0.4c-0.9,2.4-1.8,4.8-2.8,7.2C25.4,39.9,25,40.1,24.4,40z M38.6,25c2.4,0,4.4-0.7,6.1-2.1
		c0.1-0.1,0.3-0.2,0.4-0.4c0.3-0.3,0.3-0.6,0-0.9c-0.2-0.3-0.6-0.3-0.9-0.1c-0.1,0.1-0.3,0.2-0.4,0.3c-2.6,2.1-5.5,1.9-7.9-0.4
		c-1.7-1.6-4.3-0.9-4.9,1.3c-0.6,2.2-1.2,4.5-1.8,6.7c-0.1,0.3,0,0.4,0.3,0.4c1.7,0,3.3,0,5,0c0.3,0,0.4-0.1,0.5-0.3
		c0.4-1.3,0.9-2.6,1.4-3.9c0.2-0.6,0.6-0.8,1.2-0.7C37.9,25,38.4,25,38.6,25z M20.1,33.3c-1.3,0-3-1.5-2.4-3.1
		c0.1-0.2,0.1-0.3-0.1-0.5c-0.5-0.5-1-0.9-1.4-1.4c-0.2-0.2-0.3-0.2-0.4,0c-0.5,0.5-1,1-1.5,1.5c-0.2,0.2-0.2,0.4,0,0.6
		c2.2,2.2,4.3,4.3,6.5,6.5c0.2,0.2,0.4,0.2,0.6,0c0.5-0.5,1-1,1.5-1.5c0.2-0.2,0.2-0.2,0-0.4c-0.5-0.4-0.9-0.9-1.4-1.4
		c-0.3-0.3-0.6-0.6-1.1-0.3C20.3,33.3,20.2,33.3,20.1,33.3z M20.1,27.9c0.3,0,0.5,0.1,0.7,0.4c0.6,0.6,1.1,1.1,1.7,1.7
		c0.6,0.6,0.6,1,0,1.6c-0.2,0.2-0.2,0.3,0,0.4c0.5,0.5,1.1,1,1.6,1.6c0.2,0.2,0.3,0.2,0.4,0c0.4-0.5,0.9-0.9,1.3-1.3
		c0.4-0.4,0.4-0.5,0-0.9c-1.1-1.1-2.2-2.2-3.3-3.3c-1-1-2-2-3-3c-0.2-0.2-0.4-0.3-0.7,0c-0.5,0.5-0.9,1-1.4,1.4
		c-0.2,0.2-0.2,0.3,0,0.4c0.4,0.4,0.9,0.9,1.3,1.3c0.2,0.2,0.3,0.2,0.5,0C19.5,28.1,19.7,27.9,20.1,27.9z M36,18.7
		c1.3,0,2.3-1,2.3-2.3c0-1.3-1-2.3-2.3-2.3c-1.3,0-2.3,1-2.4,2.3C33.7,17.7,34.8,18.7,36,18.7z M28.7,24.2c-1.3,0.9-2.6,1.5-4,1.9
		c-0.5,0.1-0.7,0.5-0.6,0.9c0.1,0.4,0.5,0.6,1,0.4c1-0.3,1.9-0.7,2.8-1.2c0.1-0.1,0.3-0.1,0.3-0.3C28.4,25.4,28.5,24.8,28.7,24.2z
		 M27.1,30.1c0.1-0.5,0.3-1,0.4-1.6c-0.5,0.2-1,0.4-1.5,0.6C26.4,29.4,26.8,29.7,27.1,30.1z M20.8,30.8c0-0.1-0.6-0.7-0.7-0.7
		c-0.1,0-0.6,0.6-0.6,0.7c0.1,0.3,0.3,0.5,0.6,0.6C20.2,31.5,20.8,31,20.8,30.8z"/>
	<path class="st2" d="M32.7,52c-0.7-0.4-0.9-0.3-1.5,0.2c-1.3,1.3-2.6,2.6-3.9,3.9c-0.2,0.2-0.4,0.3-0.6,0c-0.3-0.4-0.9-0.7-0.9-1
		c0-0.3,0.6-0.7,0.9-1C31.9,49,36.9,43.9,42,38.8c0.3-0.3,0.4-0.3,0.7,0c0.9,0.9,1.7,1.8,2.6,2.6c0.7,0.7,1.1,0.7,1.7,0
		c1.7-1.6,3.3-3.3,4.9-5c0.7-0.7,0.7-1.1,0-1.8c-0.1-0.1-0.1-0.1-0.2-0.2c0.5-0.2,1-0.2,1.4-0.3c1-0.2,2-0.4,3-0.6
		c0.2,0,0.3,0,0.3,0.3c-0.3,1.5-0.6,2.9-0.9,4.4c-0.3-0.1-0.4-0.4-0.6-0.5c-0.6-0.5-1-0.5-1.6,0c-2.3,2.3-4.6,4.6-6.9,6.9
		c-0.3,0.3-0.4,0.3-0.7,0c-0.9-0.9-1.8-1.8-2.7-2.7c-0.6-0.6-1-0.6-1.6,0c-1.6,1.6-3.2,3.2-4.8,4.8c-0.5,0.5-0.6,0.8-0.2,1.5
		c-0.4,0.4-0.8,0.8-1.3,1.2c-0.5-0.3-1-0.3-1.3,0c-0.3,0.3-0.3,0.7,0,1.3C33.6,51.2,33.1,51.6,32.7,52z"/>
	<path class="st3" d="M24.4,40c0.7,0.1,1-0.1,1.3-0.7c0.9-2.4,1.9-4.8,2.8-7.2c0.1-0.3,0.2-0.4,0.5-0.4c2,0,4,0,6,0
		c1.9,0,3,1.5,2.5,3.3c-0.7,2.4-1.3,4.7-2,7.1c-0.1,0.5-0.5,0.7-0.9,0.6c-0.4-0.1-0.7-0.5-0.6-1c0.1-0.4,0.1-0.7,0.2-1.1
		c0.3-1.8,0.6-3.6,0.9-5.4c0.2-1-0.2-1.3-1.2-1.3c-0.5,0-1,0-1.4,0c-0.7-0.1-1.1,0.2-1.4,0.8c-2,4-4,8-6,11.9
		c-0.3,0.5-0.5,1.1-0.8,1.6c-0.3,0.5-0.8,0.7-1.3,0.5c-0.5-0.2-0.6-0.7-0.4-1.2c0.1-0.4,0.3-0.8,0.4-1.1c0.3-0.7,0.2-1-0.4-1.4
		c0.2-0.6,0.4-1.1,0.6-1.7c0.6,0.1,1-0.1,1.2-0.6c0.2-0.4,0-0.8-0.5-1.2C24,41.1,24.2,40.5,24.4,40z"/>
	<path class="st4" d="M34,50.8c-0.3-0.5-0.3-0.9,0-1.3c0.3-0.3,0.7-0.3,1.3,0c0.3,0.3,0.4,0.7,0.1,1.1C35.1,51.1,34.6,51.2,34,50.8z
		"/>
	<path class="st5" d="M23.8,41.6c0.5,0.4,0.7,0.7,0.5,1.2c-0.2,0.5-0.5,0.6-1.2,0.6c-0.5-0.3-0.7-0.7-0.5-1.2
		C22.8,41.7,23.2,41.5,23.8,41.6z"/>
	<path class="st6" d="M38.6,25c-0.2,0-0.7,0-1.1-0.1c-0.6-0.1-1,0.1-1.2,0.7c-0.5,1.3-0.9,2.6-1.4,3.9c-0.1,0.3-0.2,0.3-0.5,0.3
		c-1.7,0-3.3,0-5,0c-0.3,0-0.4-0.1-0.3-0.4c0.6-2.2,1.2-4.5,1.8-6.7c0.6-2.3,3.2-2.9,4.9-1.3c2.4,2.3,5.3,2.5,7.9,0.4
		c0.1-0.1,0.3-0.2,0.4-0.3c0.3-0.2,0.7-0.2,0.9,0.1c0.3,0.3,0.2,0.6,0,0.9c-0.1,0.1-0.3,0.2-0.4,0.4C43,24.3,41,25,38.6,25z"/>
	<path class="st7" d="M20.1,33.3c0,0,0.2,0,0.3,0c0.5-0.2,0.8,0,1.1,0.3c0.4,0.5,0.9,0.9,1.4,1.4c0.2,0.1,0.2,0.2,0,0.4
		c-0.5,0.5-1,1-1.5,1.5c-0.2,0.2-0.4,0.2-0.6,0c-2.2-2.2-4.3-4.3-6.5-6.5c-0.2-0.2-0.2-0.4,0-0.6c0.5-0.5,1-1,1.5-1.5
		c0.2-0.2,0.3-0.2,0.4,0c0.5,0.5,0.9,1,1.4,1.4c0.2,0.1,0.2,0.3,0.1,0.5C17.2,31.8,18.8,33.3,20.1,33.3z"/>
	<path class="st7" d="M20.1,27.9c-0.3,0-0.6,0.2-0.8,0.4c-0.2,0.2-0.3,0.2-0.5,0c-0.4-0.4-0.9-0.9-1.3-1.3c-0.2-0.2-0.2-0.3,0-0.4
		c0.5-0.5,1-0.9,1.4-1.4c0.2-0.3,0.4-0.2,0.7,0c1,1,2,2,3,3c1.1,1.1,2.2,2.2,3.3,3.3c0.4,0.4,0.4,0.5,0,0.9
		c-0.4,0.4-0.9,0.9-1.3,1.3c-0.2,0.2-0.3,0.2-0.4,0c-0.5-0.5-1-1.1-1.6-1.6c-0.2-0.2-0.2-0.3,0-0.4c0.6-0.6,0.6-1,0-1.6
		c-0.6-0.6-1.1-1.1-1.7-1.7C20.6,28.1,20.4,27.9,20.1,27.9z"/>
	<path class="st8" d="M36,18.7c-1.3,0-2.3-1.1-2.3-2.3c0-1.3,1.1-2.3,2.4-2.3c1.3,0,2.3,1.1,2.3,2.3C38.4,17.7,37.3,18.7,36,18.7z"
		/>
	<path class="st9" d="M28.7,24.2c-0.2,0.7-0.3,1.2-0.4,1.8c0,0.2-0.2,0.3-0.3,0.3c-0.9,0.5-1.8,0.9-2.8,1.2c-0.5,0.1-0.9,0-1-0.4
		c-0.1-0.4,0.1-0.7,0.6-0.9C26,25.7,27.4,25.1,28.7,24.2z"/>
	<path class="st10" d="M20.8,30.8c0,0.1-0.6,0.6-0.7,0.6c-0.3-0.1-0.5-0.3-0.6-0.6c0-0.1,0.5-0.7,0.6-0.7
		C20.1,30.1,20.8,30.8,20.8,30.8z"/>
	<path class="st11" d="M24.8,35.9c0,0,0.1-0.1,0.1-0.1C25,35.9,25,36,24.8,35.9C24.9,36,24.9,35.9,24.8,35.9z"/>
</g>
</svg>
