<?xml version="1.0" encoding="utf-8"?>
<!-- Generator: Adobe Illustrator 21.0.1, SVG Export Plug-In . SVG Version: 6.00 Build 0)  -->
<svg version="1.1" id="Layer_1" xmlns="http://www.w3.org/2000/svg" xmlns:xlink="http://www.w3.org/1999/xlink" x="0px" y="0px"
	 viewBox="0 0 70.9 70.9" style="enable-background:new 0 0 70.9 70.9;" xml:space="preserve">
<style type="text/css">
	.st0{fill:#E1F3F5;}
	.st1{fill:#020202;}
	.st2{fill:#030303;}
	.st3{fill:#26CDAB;}
	.st4{fill:#FCDAA9;}
	.st5{fill:#E7BE90;}
	.st6{fill:#3687C7;}
	.st7{fill:#FCD06B;}
	.st8{fill:#E3E5E9;}
	.st9{fill:#01AD8F;}
	.st10{fill:#01AE90;}
	.st11{fill:#01AA8C;}
	.st12{fill:#3687C6;}
	.st13{fill:#E2E4E8;}
	.st14{fill:#070604;}
</style>
<title>feature-7</title>
<g>
	<circle class="st0" cx="35.5" cy="35.5" r="35.4"/>
	<g>
		<path class="st1" d="M56.4,23.4c0,1.6,0,3.3,0,4.9c0,0.7-0.3,1-1,1c-2.3,0-4.6,0-7,0c-0.3,0-0.4,0.1-0.6,0.3c-1,1.4-2.3,2.3-4,2.7
			c-0.4,0.1-0.8,0.1-1.1,0.1c-0.3,0-0.4,0.1-0.6,0.2c-2.6,2.6-5.2,5.2-7.8,7.8c-0.6,0.6-1,0.6-1.6,0c-5-5-10-10-15-15
			c-0.6-0.6-0.6-1,0-1.6c2.9-2.9,5.8-5.8,8.6-8.6c0.6-0.6,1-0.6,1.6,0c0.8,0.8,1.5,1.5,2.3,2.3c0.2,0.2,0.4,0.2,0.6,0.1
			c1.3-0.5,2.7-1,4.1-1.4c1.5-0.4,3-0.2,4.4,0.4c1.9,0.8,3.6,1.8,5.4,2.8c0.6,0.4,1.3,0.6,2,0.7c0.2,0,0.3,0,0.4-0.3
			c0-0.5,0.3-0.7,0.9-0.7c0.6,0,1.3,0,1.9,0c0.3,0,0.4-0.1,0.3-0.3c0-0.1,0-0.2,0-0.4c0-0.5,0.3-0.8,0.8-0.8c1.6,0,3.2,0,4.8,0
			c0.5,0,0.8,0.3,0.8,0.9C56.4,20,56.4,21.7,56.4,23.4z M46.8,25.3c0-1.2,0-2.3,0-3.5c0-0.2-0.2-0.2-0.3-0.3c-1-0.1-1.9-0.4-2.8-0.9
			c-1.7-1-3.4-1.9-5.2-2.7c-0.9-0.4-1.8-0.6-2.7-0.4c-1.5,0.2-2.8,1-4.2,1.3c1,1,2,2,3,3c0.1,0.1,0.2,0.1,0.3,0.1
			c1.8,0.6,3.5,1.1,5.3,1.7c0.5,0.2,0.8,0.4,0.8,0.9c-0.2,0.7-0.6,0.9-1.3,0.6c-2.3-0.7-4.7-1.5-7-2.2c-0.8-0.2-1.5,0-1.9,0.7
			c-0.4,0.6-0.3,1.4,0.2,1.9c0.3,0.3,0.7,0.5,1.1,0.7c2,0.7,4,1.4,6,2c0.3,0.1,0.6,0.3,0.8,0.5c1,1.4,3.1,2.1,4.7,1.6
			c1.3-0.4,2.2-1.2,3-2.3c0-0.1,0.1-0.2,0.1-0.3C46.8,27.1,46.8,26.2,46.8,25.3z M31.7,21.4c-0.6-0.6-1.1-1.1-1.6-1.6
			c-0.1-0.1-0.2,0-0.4,0c-1.9,1.1-3.7,1.1-5.6,0c-0.2-0.1-0.3-0.1-0.4,0c-0.5,0.5-0.9,1-1.4,1.4c-0.2,0.2-0.2,0.3-0.1,0.5
			c1.1,1.8,1.1,3.7,0,5.5c-0.1,0.2-0.1,0.3,0,0.5c2.6,2.6,5.2,5.2,7.9,7.9c0.1,0.1,0.2,0.2,0.4,0.1c1.9-1.1,3.7-1.1,5.6,0
			c0.2,0.1,0.3,0.1,0.4,0c0.5-0.5,1-1,1.5-1.5c0.1-0.1,0.1-0.2,0-0.4c-0.7-1.1-1-2.3-0.8-3.6c0-0.2-0.1-0.3-0.3-0.4
			c-0.7-0.2-1.3-0.4-2-0.7c-0.3-0.1-0.5-0.1-0.6,0.3c-0.7,2-2.8,3.3-4.8,3c-2.2-0.3-4-1.9-4.2-4c-0.2-2.2,1-4.2,3-5
			c0.5-0.2,0.9-0.3,1.1-0.8c0.2-0.3,0.5-0.5,0.8-0.7C30.8,21.6,31.3,21.5,31.7,21.4z M51.5,23.4c0,1.3,0,2.7,0,4
			c0,0.2,0,0.3,0.3,0.3c0.9,0,1.7,0,2.6,0c0.2,0,0.3-0.1,0.3-0.3c0-2.7,0-5.4,0-8.1c0-0.2-0.1-0.3-0.3-0.3c-0.8,0-1.7,0-2.5,0
			c-0.3,0-0.4,0.1-0.4,0.4C51.5,20.7,51.5,22,51.5,23.4z M27.2,27.5c0,1.7,1,2.9,2.5,3.2c1.4,0.2,2.8-0.6,3.3-2
			c0.1-0.3,0.1-0.4-0.2-0.5c-0.5-0.2-1-0.3-1.5-0.5c-1.1-0.5-1.9-1.3-2.2-2.5c-0.1-0.3-0.2-0.2-0.3-0.1
			C27.7,25.7,27.2,26.6,27.2,27.5z M48.4,24.1c0,0.8,0,1.7,0,2.5c0,0.4-0.2,0.9,0.1,1.1c0.2,0.2,0.7,0,1.1,0.1c0.2,0,0.3,0,0.3-0.3
			c0-2.2,0-4.3,0-6.5c0-0.2-0.1-0.3-0.3-0.3c-0.3,0-0.5,0-0.8,0c-0.3,0-0.3,0.1-0.3,0.3C48.4,21.9,48.4,23,48.4,24.1z M35.2,37
			c0,0-0.1-0.1-0.1-0.1c-1.1-0.5-2.2-0.5-3.3,0c-0.2,0.1-0.2,0.2,0,0.3c0.5,0.5,1,1,1.5,1.5c0.1,0.1,0.2,0.2,0.4,0
			c0.5-0.5,1-1,1.5-1.5C35.1,37.2,35.2,37.1,35.2,37z M20.8,26.4c0.7-1.1,0.7-2.9,0-3.7c-0.5,0.6-1.1,1.1-1.6,1.6
			c-0.1,0.1-0.1,0.2,0,0.4C19.7,25.2,20.3,25.8,20.8,26.4z M26.9,19c0.6,0,1.1-0.1,1.6-0.4c0.2-0.1,0.2-0.2,0.1-0.3
			c-0.5-0.5-1-1-1.5-1.5c-0.1-0.1-0.2-0.1-0.4,0c-0.5,0.5-1,1-1.5,1.5c-0.2,0.2-0.1,0.3,0.1,0.4C25.9,18.9,26.4,19,26.9,19z
			 M38.9,31.2c0,0.4,0.1,0.8,0.2,1.1c0.2,0.6,0.2,0.6,0.6,0.1c0.1-0.1,0.2-0.3,0.4-0.4c0.1-0.1,0.1-0.2,0-0.3
			C39.8,31.6,39.4,31.4,38.9,31.2z"/>
		<path class="st2" d="M14.6,48.9c0-1.6,0-3.3,0-4.9c0-0.7,0.3-1,1-1c2.3,0,4.6,0,7,0c0.3,0,0.4-0.1,0.6-0.3
			c1.1-1.4,2.4-2.4,4.1-2.7c2.2-0.3,4.2,0.4,5.7,2c0.2,0.2,0.3,0.3,0.6,0.4c1.9,0.6,3.8,1.3,5.7,1.9c1.1,0.4,2,1,2.5,2.2
			c0.1,0.2,0.2,0.2,0.3,0.1c1.9-0.5,3.7-1,5.6-1.5c0.6-0.2,1.2-0.3,1.8-0.2c1.3,0.1,2.2,0.8,2.6,2c0.5,1.2,0.3,2.3-0.5,3.2
			c-0.5,0.6-1.2,1-1.9,1.3c-4.2,1.5-8.5,3-12.7,4.6c-1.8,0.6-3.5,0.5-5.2-0.2C30,54.9,28.2,54,26.5,53c-0.6-0.4-1.3-0.6-2-0.7
			c-0.2,0-0.3,0-0.3,0.2c0,0.5-0.3,0.8-0.9,0.8c-0.6,0-1.1,0-1.7,0c-0.5,0-0.5,0-0.5,0.5c0,0.1,0,0.1,0,0.2c0,0.5-0.3,0.8-0.8,0.8
			c-1.6,0-3.2,0-4.8,0c-0.6,0-0.8-0.3-0.8-0.9C14.6,52.2,14.6,50.5,14.6,48.9z M30,47.6c0.2-0.7,0.6-0.8,1.3-0.6
			c1,0.3,2.1,0.7,3.1,1c1.3,0.4,2.6,0.8,3.9,1.2c0.8,0.2,1.5,0,1.9-0.7c0.4-0.7,0.3-1.4-0.3-2c-0.3-0.3-0.7-0.5-1.1-0.6
			c-2-0.7-4-1.4-6-2c-0.3-0.1-0.5-0.3-0.7-0.5c-1.2-1.5-2.8-2-4.6-1.7C26,41.9,25,42.8,24.3,44c-0.1,0.1-0.1,0.2-0.1,0.3
			c0,0.9,0,1.8,0,2.6c0,1.2,0,2.3,0,3.5c0,0.2,0.1,0.3,0.3,0.3c1.1,0.1,2.1,0.4,3,1c1.6,0.9,3.2,1.8,4.9,2.6
			c0.7,0.3,1.5,0.5,2.3,0.5c0.8,0,1.6-0.3,2.4-0.6c4-1.5,8.1-2.9,12.1-4.3c0.4-0.2,0.8-0.4,1.1-0.7c0.5-0.5,0.6-1.1,0.3-1.7
			c-0.3-0.6-0.8-0.9-1.5-0.9c-0.3,0-0.5,0-0.8,0.1c-2,0.6-4.1,1.1-6.1,1.7c-0.2,0.1-0.3,0.2-0.4,0.4c-0.6,1.7-2.3,2.6-4.1,2.1
			c-2.4-0.7-4.7-1.5-7.1-2.2C30.3,48.3,30,48.1,30,47.6z M19.5,48.9c0-1.3,0-2.6,0-4c0-0.3-0.1-0.4-0.3-0.4c-0.9,0-1.7,0-2.6,0
			c-0.3,0-0.3,0.1-0.3,0.3c0,2.7,0,5.3,0,8c0,0.3,0.1,0.3,0.4,0.3c0.8,0,1.7,0,2.5,0c0.3,0,0.4-0.1,0.4-0.4
			C19.5,51.5,19.5,50.2,19.5,48.9z M22.6,48.2c0-0.8,0-1.7,0-2.5c0-0.3,0.2-0.8-0.1-1c-0.2-0.2-0.6,0-1-0.1c-0.3,0-0.4,0.1-0.4,0.4
			c0,1.9,0,3.7,0,5.6c0,0.4-0.1,0.8,0.1,1c0.2,0.2,0.7,0,1.1,0.1c0.3,0,0.4-0.1,0.3-0.4C22.6,50.3,22.6,49.2,22.6,48.2z"/>
		<path class="st3" d="M31.7,21.4c-0.5,0.1-0.9,0.3-1.2,0.5c-0.3,0.2-0.6,0.4-0.8,0.7c-0.3,0.5-0.7,0.6-1.1,0.8c-2,0.7-3.3,2.7-3,5
			c0.2,2.1,1.9,3.7,4.2,4c2,0.2,4.1-1,4.8-3c0.1-0.4,0.3-0.4,0.6-0.3c0.6,0.2,1.3,0.5,2,0.7c0.2,0.1,0.3,0.1,0.3,0.4
			c-0.2,1.3,0.1,2.5,0.8,3.6c0.1,0.2,0.1,0.3,0,0.4c-0.5,0.5-1,1-1.5,1.5c-0.1,0.2-0.2,0.1-0.4,0c-1.9-1.1-3.7-1.1-5.6,0
			c-0.2,0.1-0.3,0.1-0.4-0.1c-2.6-2.6-5.2-5.2-7.9-7.9c-0.2-0.2-0.2-0.3,0-0.5c1.1-1.8,1.1-3.7,0-5.5c-0.1-0.2-0.1-0.3,0.1-0.5
			c0.5-0.5,1-1,1.4-1.4c0.1-0.1,0.2-0.2,0.4,0c1.9,1.1,3.7,1.1,5.6,0c0.1-0.1,0.2-0.2,0.4,0C30.6,20.3,31.2,20.8,31.7,21.4z"/>
		<path class="st4" d="M46.8,25.3c0,0.9,0,1.8,0,2.7c0,0.1,0,0.2-0.1,0.3c-0.7,1.1-1.7,2-3,2.3C42.1,31,40,30.3,39,29
			c-0.2-0.3-0.5-0.4-0.8-0.5c-2-0.7-4-1.4-6-2c-0.4-0.1-0.8-0.3-1.1-0.7c-0.5-0.6-0.6-1.3-0.2-1.9c0.4-0.6,1.1-0.9,1.9-0.7
			c2.3,0.7,4.7,1.5,7,2.2c0.7,0.2,1,0,1.3-0.6c0.2,0,0.4,0,0.6,0.1c0.3,0.1,0.6,0,0.9,0.2c-0.2,0.3-0.3,0.6-0.1,1
			c0.1,0.3,0.4,0.4,0.7,0.4c0.6,0,1-0.5,0.7-1.2C43.9,25,44,25,44.1,25C45,25.1,45.9,25.2,46.8,25.3z"/>
		<path class="st5" d="M46.8,25.3c-0.9-0.1-1.8-0.2-2.7-0.3c-0.1,0-0.2,0-0.3,0.1c-0.5-0.4-0.7-0.5-1.3-0.2
			c-0.3-0.2-0.6-0.1-0.9-0.2c-0.2-0.1-0.4-0.1-0.6-0.1c0-0.5-0.3-0.8-0.8-0.9c-1.8-0.5-3.5-1.1-5.3-1.7c-0.1,0-0.2-0.1-0.3-0.1
			c-1-1-2-2-3-3c1.5-0.4,2.8-1.2,4.2-1.3c0.9-0.1,1.8,0.1,2.7,0.4c1.8,0.8,3.5,1.7,5.2,2.7c0.9,0.5,1.8,0.8,2.8,0.9
			c0.2,0,0.3,0,0.3,0.3C46.8,23,46.8,24.1,46.8,25.3z"/>
		<path class="st6" d="M51.5,23.4c0-1.3,0-2.6,0-4c0-0.3,0.1-0.4,0.4-0.4c0.8,0,1.7,0,2.5,0c0.2,0,0.3,0.1,0.3,0.3
			c0,2.7,0,5.4,0,8.1c0,0.2-0.1,0.3-0.3,0.3c-0.9,0-1.7,0-2.6,0c-0.3,0-0.3-0.1-0.3-0.3C51.5,26,51.5,24.7,51.5,23.4z"/>
		<path class="st7" d="M27.2,27.5c0-1,0.6-1.9,1.6-2.5c0.2-0.1,0.3-0.1,0.3,0.1c0.3,1.2,1.1,2.1,2.2,2.5c0.5,0.2,1,0.4,1.5,0.5
			c0.3,0.1,0.3,0.2,0.2,0.5c-0.5,1.4-1.9,2.2-3.3,2C28.2,30.5,27.2,29.2,27.2,27.5z"/>
		<path class="st8" d="M48.4,24.1c0-1.1,0-2.1,0-3.2c0-0.3,0.1-0.4,0.3-0.3c0.3,0,0.5,0,0.8,0c0.3,0,0.3,0.1,0.3,0.3
			c0,2.2,0,4.3,0,6.5c0,0.3-0.1,0.3-0.3,0.3c-0.4,0-0.8,0.1-1.1-0.1c-0.2-0.2-0.1-0.7-0.1-1.1C48.4,25.7,48.4,24.9,48.4,24.1z"/>
		<path class="st9" d="M35.2,37c0,0.1-0.1,0.2-0.1,0.2c-0.5,0.5-1,1-1.5,1.5c-0.2,0.2-0.2,0.1-0.4,0c-0.5-0.5-1-1-1.5-1.5
			c-0.1-0.1-0.2-0.2,0-0.3c1.1-0.5,2.2-0.5,3.3,0C35.1,36.9,35.1,37,35.2,37z"/>
		<path class="st10" d="M20.8,26.4c-0.6-0.6-1.1-1.1-1.7-1.7c-0.1-0.1-0.1-0.2,0-0.4c0.5-0.5,1.1-1.1,1.6-1.6
			C21.6,23.5,21.6,25.3,20.8,26.4z"/>
		<path class="st10" d="M26.9,19c-0.5,0-1.1-0.1-1.6-0.3c-0.2-0.1-0.3-0.2-0.1-0.4c0.5-0.5,1-1,1.5-1.5c0.1-0.1,0.2-0.1,0.4,0
			c0.5,0.5,1,1,1.5,1.5c0.2,0.2,0.1,0.2-0.1,0.3C28,18.8,27.5,19,26.9,19z"/>
		<path class="st11" d="M38.9,31.2c0.4,0.2,0.8,0.4,1.2,0.6c0.2,0.1,0.2,0.1,0,0.3c-0.1,0.1-0.3,0.2-0.4,0.4
			c-0.4,0.4-0.4,0.4-0.6-0.1C39,31.9,38.9,31.6,38.9,31.2z"/>
		<path class="st5" d="M30,47.6c0,0.5,0.3,0.8,0.7,0.9c2.4,0.7,4.7,1.5,7.1,2.2c1.7,0.5,3.5-0.4,4.1-2.1c0.1-0.2,0.2-0.3,0.4-0.4
			c2-0.6,4.1-1.1,6.1-1.7c0.2-0.1,0.5-0.1,0.8-0.1c0.7,0,1.2,0.3,1.5,0.9c0.3,0.6,0.2,1.2-0.3,1.7c-0.3,0.3-0.7,0.6-1.1,0.7
			c-4,1.4-8.1,2.9-12.1,4.3c-0.8,0.3-1.5,0.6-2.4,0.6c-0.8,0-1.6-0.2-2.3-0.5c-1.7-0.8-3.3-1.6-4.9-2.6c-0.9-0.6-1.9-0.9-3-1
			c-0.2,0-0.3,0-0.3-0.3c0-1.2,0-2.3,0-3.5c0.4,0,0.8,0.1,1.1,0.1c0.6,0.1,1.2,0.1,1.9,0.2c0.5,0.4,0.7,0.4,1.3,0.1
			C29,47.5,29.5,47.5,30,47.6z"/>
		<path class="st4" d="M30,47.6c-0.5-0.1-1,0-1.5-0.2c0.2-0.3,0.3-0.7,0.1-1c-0.2-0.3-0.4-0.4-0.8-0.4c-0.6,0.1-0.9,0.6-0.6,1.3
			c-0.6-0.1-1.2-0.1-1.9-0.2c-0.4,0-0.8-0.1-1.1-0.1c0-0.9,0-1.8,0-2.6c0-0.1,0-0.2,0.1-0.3c0.8-1.1,1.7-2.1,3.1-2.4
			c1.8-0.3,3.4,0.2,4.6,1.7c0.2,0.3,0.4,0.4,0.7,0.5c2,0.7,4,1.4,6,2c0.4,0.1,0.8,0.3,1.1,0.6c0.6,0.6,0.7,1.3,0.3,2
			c-0.4,0.7-1.1,0.9-1.9,0.7c-1.3-0.4-2.6-0.8-3.9-1.2c-1-0.3-2.1-0.7-3.1-1C30.6,46.7,30.2,46.9,30,47.6z"/>
		<path class="st12" d="M19.5,48.9c0,1.3,0,2.6,0,4c0,0.3-0.1,0.4-0.4,0.4c-0.8,0-1.7,0-2.5,0c-0.3,0-0.4-0.1-0.4-0.3
			c0-2.7,0-5.3,0-8c0-0.2,0-0.3,0.3-0.3c0.9,0,1.7,0,2.6,0c0.3,0,0.3,0.1,0.3,0.4C19.5,46.2,19.5,47.6,19.5,48.9z"/>
		<path class="st13" d="M22.6,48.2c0,1.1,0,2.1,0,3.2c0,0.3,0,0.4-0.3,0.4c-0.4,0-0.8,0.2-1.1-0.1c-0.2-0.2-0.1-0.7-0.1-1
			c0-1.9,0-3.7,0-5.6c0-0.3,0-0.5,0.4-0.4c0.3,0,0.8-0.1,1,0.1c0.2,0.2,0.1,0.7,0.1,1C22.6,46.5,22.6,47.3,22.6,48.2z"/>
		<path class="st14" d="M42.5,24.9c0.6-0.3,0.8-0.3,1.3,0.2c0.2,0.7-0.1,1.3-0.7,1.2c-0.3,0-0.5-0.1-0.7-0.4
			C42.2,25.5,42.3,25.2,42.5,24.9z"/>
		<path class="st14" d="M27.2,47.2c-0.3-0.7,0-1.2,0.6-1.3c0.3,0,0.6,0.1,0.8,0.4c0.2,0.4,0.1,0.7-0.1,1
			C28,47.7,27.7,47.6,27.2,47.2z"/>
	</g>
</g>
</svg>
