<?xml version="1.0" encoding="utf-8"?>
<!-- Generator: Adobe Illustrator 21.0.1, SVG Export Plug-In . SVG Version: 6.00 Build 0)  -->
<svg version="1.1" id="Layer_1" xmlns="http://www.w3.org/2000/svg" xmlns:xlink="http://www.w3.org/1999/xlink" x="0px" y="0px"
	 viewBox="0 0 70.9 70.9" style="enable-background:new 0 0 70.9 70.9;" xml:space="preserve">
<style type="text/css">
	.st0{fill:#E1F3F5;}
	.st1{fill:#030303;}
	.st2{fill:#FD4654;}
	.st3{fill:#FDE079;}
	.st4{fill:#58B98B;}
	.st5{fill:#E1A56E;}
	.st6{fill:#56B284;}
	.st7{fill:#7EABFA;}
</style>
<title>feature-7</title>
<circle class="st0" cx="35.4" cy="35.4" r="35.4"/>
<g>
	<path class="st1" d="M15.9,18.6c-0.2-0.5-0.1-0.9,0-1.4c0.4-1.5,1.8-2.5,3.4-2.5c6.6,0,13.2,0,19.8,0c1.8,0,3.5,0.1,5.3,0
		c2.3-0.1,3.8,1.6,3.8,3.8c-0.1,4.8,0,9.6,0,14.4c0,1.7-0.4,2.5-1.7,3.5c0.1,0.1,0.2,0.2,0.3,0.2c2.1,1,4.2,2,6.3,3
		c0.4,0.2,0.8,0.5,0.8,1c0.1,0.6-0.2,1.1-0.8,1.3c-1.2,0.5-2.5,1.1-3.8,1.6c-0.3,0.1-0.4,0.2-0.2,0.6c1.8,2.4,3.6,4.8,5.4,7.1
		c0.7,1,0.6,1.7-0.3,2.4c-0.9,0.7-1.9,1.4-2.8,2.1c-0.8,0.6-1.5,0.5-2.1-0.3c-1.8-2.4-3.7-4.9-5.5-7.3c-0.2-0.3-0.3-0.3-0.5,0
		c-0.8,1.1-1.7,2.1-2.5,3.2c-0.4,0.4-0.8,0.7-1.3,0.5c-0.6-0.1-0.9-0.5-1-1.1c-0.4-2.4-0.8-4.7-1.2-7.1c-0.4-2.2-0.8-4.3-1.1-6.5
		c0-0.3-0.2-0.3-0.4-0.3c-1.8,0-3.7,0-5.5,0c-3.6,0-7.2,0-10.8,0c-1.8,0-3.2-1.1-3.5-2.8c-0.1-0.2-0.1-0.5-0.1-0.8
		c0-3.1,0-6.2,0-9.3c0-0.2,0-0.4,0-0.6c0.2-0.2,0.4-0.4,0.8-0.3c0.4,0.1,0.6,0.4,0.6,0.9c0,3.1,0,6.3,0,9.4c0,1.3,0.9,2.1,2.2,2.1
		c2.5,0,5.1,0,7.6,0c2.5,0,5,0,7.5,0c0.3,0,0.7,0,1,0c0.3,0,0.4-0.1,0.3-0.4c-0.1-0.7-0.4-1.4-0.2-2.1c0.5-1,1.2-1.2,2.1-0.7
		c2.1,1,4.3,2.1,6.4,3.1c0.2,0.1,0.4,0.2,0.6,0.1c1.2,0.1,2.2-0.9,2.2-2.2c0-3.4,0-6.8,0-10.3c0-1.6,0-3.2,0-4.8
		c0-1.2-1-2.2-2.2-2.1c-0.2,0-0.3,0-0.5,0c-8.2,0-16.3,0-24.5,0c-0.1,0-0.2,0-0.4,0c-1.2,0-2.1,0.8-2.2,1.9c0,0.3-0.1,0.6-0.4,0.8
		C16.4,19,16.1,18.8,15.9,18.6z M36.9,33.7c0.2,1.1,0.4,2.2,0.6,3.4c0.7,3.8,1.3,7.7,2,11.5c0.1,0.5,0.2,1,0.3,1.6
		c0.3-0.4,0.6-0.8,0.9-1.1c0.7-0.9,1.5-1.8,2.2-2.7c0.4-0.5,0.9-0.4,1.2,0c1.4,1.9,2.9,3.8,4.3,5.7c0.6,0.7,1.1,1.5,1.7,2.2
		c0.3,0.5,0.3,0.5,0.7,0.2c0.8-0.6,1.5-1.2,2.3-1.7c0.5-0.4,0.5-0.4,0.1-0.9c-2-2.6-3.9-5.2-5.9-7.8c-0.4-0.6-0.4-0.7,0-1.3
		c1-0.4,1.9-0.8,2.9-1.2c0.1,0,0.1,0,0.2-0.1c0.2,0,0.3-0.1,0.4-0.2c0.4-0.1,0.9-0.3,1.3-0.6c-2-1-4-1.9-6-2.8
		c-2.4-1.1-4.8-2.3-7.2-3.5c-0.7-0.3-1.3-0.6-2-1C37,33.5,36.9,33.4,36.9,33.7z"/>
	<path class="st2" d="M15.8,20.6c0.2-0.3,0.5-0.5,0.9-0.3c0.3,0.1,0.5,0.4,0.4,0.8c-0.1,0.4-0.5,0.7-1,0.5c-0.1,0-0.2-0.1-0.3-0.1
		C15.8,21.2,15.7,20.9,15.8,20.6z"/>
	<path class="st3" d="M19.3,35.4c-0.2-0.3-0.3-0.6-0.5-0.9c-0.2-0.4-0.3-0.8-0.3-1.2c0-1.4,0-2.8,0-4.3c0-0.1-0.1-0.3,0.1-0.4
		c0.1,0.2,0.2,0.4,0.4,0.6c1.3,1.7,4.4,1.8,5.8,0.1c0.9-1.1,0.7-2.5-0.3-3.4c-0.7-0.6-1.6-0.9-2.6-0.9c-0.7,0-1.3-0.2-1.8-0.7
		c-0.4-0.4-0.4-0.9,0-1.4c0.4-0.4,0.8-0.6,1.3-0.7c1.3-0.2,2.2,0.3,2.5,1.5c0.1,0.4,0.4,0.6,0.8,0.5c0.3,0,0.6-0.3,0.6-0.7
		c0-0.8-0.4-1.4-1-1.9c-1.7-1.4-4.9-1.1-5.8,1.2c-0.1-0.1-0.1-0.3-0.1-0.4c0-1.4,0-2.8,0-4.2c0-0.8,0.2-1.4,0.7-2
		c0.1-0.1,0.1-0.1,0.1-0.2c0.1,0,0.2,0,0.4,0c8.2,0,16.3,0,24.5,0c0.2,0,0.3,0,0.5,0c0.1,0.1,0.1,0.2,0.2,0.3
		c0.5,0.6,0.7,1.3,0.7,2.1c0,3.5,0,7,0,10.5c0,0.2,0,0.4,0,0.6c-0.2-0.3-0.5-0.4-0.9-0.4c-0.9,0-1.9,0-2.8,0c-0.3,0-0.4-0.1-0.4-0.4
		c0-1.8,0-3.5,0-5.3c0-0.6,0-1.2,0-1.8c0-0.5-0.3-0.8-0.7-0.8c-0.4,0-0.7,0.3-0.7,0.9c0,2.6,0,5.3,0,7.9c0,0.6,0.3,0.9,0.9,0.9
		c1.3,0,2.5,0,3.8,0c0.3,0,0.6-0.1,0.8-0.4c0.1,0.1,0.1,0.1,0.1,0.2c0,1,0,2,0,3c0,0.5-0.2,1.1-0.5,1.5c-0.1,0.2-0.3,0.3-0.3,0.5
		c-0.2,0.1-0.4,0-0.6-0.1c-2.1-1-4.3-2.1-6.4-3.1c-1-0.5-1.6-0.2-2.1,0.7c-0.1,0-0.3-0.1-0.4-0.1c-0.3-0.1-0.5-0.1-0.8,0.1
		c-0.2,0.2-0.3,0.4-0.3,0.8c0.1,0.6,0.3,1.2,0.3,1.8c-2.5,0-5,0-7.5,0C24.4,35.4,21.9,35.4,19.3,35.4z M26.8,25.8c0,1.3,0,2.7,0,4
		c0,0.6,0.2,0.8,0.8,0.8c1.3,0,2.7,0,4,0c0.2,0,0.3,0,0.5-0.1c0.2-0.2,0.4-0.4,0.2-0.7c-0.1-0.3-0.4-0.5-0.7-0.5c-1,0-2,0-3,0
		c-0.3,0-0.4-0.1-0.4-0.4c0-0.7,0-1.3,0-2c0-0.3,0.1-0.4,0.4-0.4c1,0,1.9,0,2.9,0c0.5,0,0.9-0.3,0.9-0.7c0-0.4-0.3-0.7-0.9-0.7
		c-1,0-1.9,0-2.9,0c-0.3,0-0.4-0.1-0.4-0.4c0-0.7,0-1.3,0-2c0-0.3,0.1-0.4,0.4-0.4c1,0,1.9,0,2.9,0c0.5,0,0.8-0.3,0.8-0.7
		c0-0.4-0.3-0.7-0.8-0.7c-1.3,0-2.6,0-3.8,0c-0.6,0-0.9,0.2-0.9,0.9C26.8,23.1,26.8,24.5,26.8,25.8z M33.7,25.8c0,1.3,0,2.7,0,4
		c0,0.6,0.2,0.8,0.8,0.8c1.3,0,2.6,0,3.8,0c0.5,0,0.8-0.2,0.8-0.7c0-0.4-0.3-0.7-0.8-0.7c-0.9,0-1.9,0-2.8,0c-0.4,0-0.5-0.1-0.5-0.5
		c0-2.3,0-4.5,0-6.8c0-0.7-0.2-1-0.7-1c-0.5,0-0.7,0.3-0.7,1C33.7,23.2,33.7,24.5,33.7,25.8z"/>
	<path class="st4" d="M51,41.3c-0.1,0.1-0.2,0.2-0.4,0.2c-0.1-0.1-0.1,0-0.2,0.1c-1,0.4-1.9,0.9-2.9,1.2c-0.3,0-0.5,0.2-0.8,0.3
		c-0.5,0.2-0.7,0.7-0.3,1.1c0.6,0.8,1.2,1.6,1.8,2.4c1.3,1.7,2.6,3.4,3.9,5.1c0.4,0.6,0.4,0.9-0.2,1.4c-0.5,0.4-1.1,0.8-1.6,1.2
		c-0.6-0.7-1.2-1.5-1.7-2.2c-1.4-1.9-2.9-3.8-4.3-5.7c-0.4-0.5-0.8-0.5-1.2,0c-0.8,0.9-1.5,1.8-2.2,2.7c-0.3,0.3-0.5,0.7-0.9,1.1
		c-0.1-0.6-0.2-1.1-0.3-1.6c-0.7-3.8-1.3-7.7-2-11.5c-0.2-1.1-0.4-2.2-0.6-3.4c0.4,0.2,0.7,0.3,1.1,0.5c1.9,0.9,3.8,1.8,5.6,2.7
		c2.3,1.1,4.6,2.2,6.9,3.3C51.2,40.5,51.2,40.6,51,41.3z"/>
	<path class="st5" d="M44.7,35.4c0.1-0.2,0.2-0.3,0.3-0.5c0.3-0.4,0.5-1,0.5-1.5c0-1,0-2,0-3c0-0.1,0-0.2-0.1-0.2
		c0.1-0.2,0.1-0.4,0-0.5c0-0.2,0-0.4,0-0.6c0-3.5,0-7,0-10.5c0-0.8-0.2-1.5-0.7-2.1c-0.1-0.1-0.1-0.2-0.2-0.3
		c1.2-0.1,2.2,0.9,2.2,2.1c0,1.6,0,3.2,0,4.8c0,3.4,0,6.8,0,10.3C46.8,34.6,45.9,35.5,44.7,35.4z"/>
	<path class="st6" d="M50.2,54.3c0.5-0.4,1.1-0.8,1.6-1.2c0.6-0.5,0.7-0.8,0.2-1.4c-1.3-1.7-2.6-3.4-3.9-5.1
		c-0.6-0.8-1.2-1.6-1.8-2.4c-0.3-0.4-0.2-1,0.3-1.1c0.3-0.1,0.5-0.3,0.8-0.3c-0.4,0.6-0.5,0.7,0,1.3c2,2.6,3.9,5.2,5.9,7.8
		c0.4,0.5,0.4,0.5-0.1,0.9c-0.8,0.6-1.5,1.1-2.3,1.7C50.5,54.8,50.5,54.8,50.2,54.3z"/>
	<path class="st6" d="M51,41.3c0.3-0.8,0.3-0.8-0.5-1.2c-2.3-1.1-4.6-2.2-6.9-3.3c-1.9-0.9-3.8-1.8-5.6-2.7
		c-0.4-0.2-0.7-0.3-1.1-0.5c0-0.3,0.1-0.2,0.3-0.1c0.7,0.3,1.3,0.6,2,1c2.4,1.2,4.8,2.3,7.2,3.5c2,0.9,3.9,1.9,6,2.8
		C51.8,41,51.4,41.2,51,41.3z"/>
	<path class="st5" d="M34.4,35.4c0-0.6-0.2-1.2-0.3-1.8c-0.1-0.3,0-0.6,0.3-0.8c0.2-0.2,0.5-0.2,0.8-0.1c0.1,0.1,0.2,0.1,0.4,0.1
		c-0.1,0.7,0.1,1.4,0.2,2.1c0.1,0.3,0,0.4-0.3,0.4C35.1,35.4,34.7,35.4,34.4,35.4z"/>
	<path class="st7" d="M50.4,41.6c0-0.1,0-0.2,0.2-0.1C50.5,41.6,50.5,41.6,50.4,41.6z"/>
	<path class="st2" d="M18.6,23c1-2.3,4.2-2.6,5.8-1.2c0.6,0.5,1,1.1,1,1.9c0,0.4-0.2,0.7-0.6,0.7c-0.3,0-0.7-0.2-0.8-0.5
		c-0.3-1.2-1.3-1.7-2.5-1.5c-0.5,0.1-1,0.3-1.3,0.7c-0.4,0.4-0.4,0.9,0,1.4c0.5,0.5,1.1,0.7,1.8,0.7c1,0,1.8,0.3,2.6,0.9
		c1,0.9,1.2,2.3,0.3,3.4c-1.4,1.7-4.5,1.6-5.8-0.1c-0.1-0.2-0.3-0.4-0.4-0.6c-0.1-0.4-0.2-0.8,0-1.2c0.6-0.5,1.2-0.3,1.3,0.5
		c0,0.3,0.2,0.6,0.4,0.8c0.8,0.7,2.4,0.7,3.3,0c0.6-0.5,0.6-1.2,0-1.7c-0.5-0.4-1-0.5-1.6-0.5c-1.5,0-2.7-0.6-3.4-2
		C18.5,24,18.5,23.5,18.6,23z"/>
	<path class="st3" d="M18.6,24.4c0.7,1.4,1.9,2,3.4,2c0.6,0,1.1,0.1,1.6,0.5c0.6,0.5,0.6,1.2,0,1.7c-0.9,0.7-2.4,0.7-3.3,0
		c-0.2-0.2-0.4-0.4-0.4-0.8c-0.1-0.8-0.6-1-1.3-0.5c-0.1-0.1-0.1-0.2-0.1-0.2c0-0.8,0-1.7,0-2.5C18.5,24.6,18.5,24.5,18.6,24.4z"/>
	<path class="st2" d="M26.8,25.8c0-1.3,0-2.6,0-3.9c0-0.6,0.2-0.9,0.9-0.9c1.3,0,2.6,0,3.8,0c0.5,0,0.8,0.3,0.8,0.7
		c0,0.4-0.3,0.7-0.8,0.7c-1,0-1.9,0-2.9,0c-0.3,0-0.4,0.1-0.4,0.4c0,0.7,0,1.3,0,2c0,0.3,0.1,0.4,0.4,0.4c1,0,1.9,0,2.9,0
		c0.5,0,0.9,0.3,0.9,0.7c0,0.4-0.3,0.7-0.9,0.7c-1,0-1.9,0-2.9,0c-0.3,0-0.4,0-0.4,0.4c0,0.7,0,1.3,0,2c0,0.3,0.1,0.4,0.4,0.4
		c1,0,2,0,3,0c0.3,0,0.6,0.2,0.7,0.5c0.1,0.3,0,0.5-0.2,0.7c-0.1,0.1-0.3,0.1-0.5,0.1c-1.3,0-2.7,0-4,0c-0.5,0-0.8-0.3-0.8-0.8
		C26.8,28.4,26.8,27.1,26.8,25.8z"/>
	<path class="st2" d="M45.4,29.6c0,0.2,0,0.4,0,0.5c-0.2,0.3-0.5,0.4-0.8,0.4c-1.3,0-2.5,0-3.8,0c-0.6,0-0.9-0.3-0.9-0.9
		c0-2.6,0-5.3,0-7.9c0-0.5,0.3-0.9,0.7-0.9c0.4,0,0.7,0.3,0.7,0.8c0,0.6,0,1.2,0,1.8c0,1.8,0,3.5,0,5.3c0,0.3,0.1,0.4,0.4,0.4
		c0.9,0,1.9,0,2.8,0C44.9,29.2,45.2,29.3,45.4,29.6z"/>
	<path class="st2" d="M33.7,25.8c0-1.3,0-2.5,0-3.8c0-0.7,0.2-1,0.7-1c0.5,0,0.7,0.3,0.7,1c0,2.3,0,4.5,0,6.8c0,0.4,0.1,0.5,0.5,0.5
		c0.9,0,1.9,0,2.8,0c0.5,0,0.9,0.3,0.8,0.7c0,0.4-0.3,0.7-0.8,0.7c-1.3,0-2.6,0-3.8,0c-0.6,0-0.8-0.2-0.8-0.8
		C33.7,28.4,33.7,27.1,33.7,25.8z"/>
</g>
</svg>
