<?xml version="1.0" encoding="utf-8"?>
<!-- Generator: Adobe Illustrator 21.0.1, SVG Export Plug-In . SVG Version: 6.00 Build 0)  -->
<svg version="1.1" id="Layer_1" xmlns="http://www.w3.org/2000/svg" xmlns:xlink="http://www.w3.org/1999/xlink" x="0px" y="0px"
	 viewBox="0 0 70.9 70.9" style="enable-background:new 0 0 70.9 70.9;" xml:space="preserve">
<style type="text/css">
	.st0{fill:#E1F3F5;}
	.st1{fill:#040303;}
	.st2{fill:#030303;}
	.st3{fill:#FD4654;}
	.st4{fill:#050505;}
	.st5{fill:#FCB856;}
	.st6{fill:#FAA93D;}
	.st7{fill:#E42937;}
	.st8{fill:#FE4755;}
	.st9{fill:#DE2936;}
	.st10{fill:#FB2B3A;}
	.st11{fill:#FDE079;}
	.st12{fill:#040302;}
	.st13{fill:#050402;}
	.st14{fill:#F4CB57;}
</style>
<title>feature-7</title>
<g>
	<circle class="st0" cx="35.4" cy="35.4" r="35.4"/>
	<g>
		<path class="st1" d="M35.8,12c0.6,0.2,1.3,0.2,2,0.4c4.7,1.3,8.1,5.2,8.7,10c0.8,6.5-3.6,12.5-10,13.4c-6.6,1-12.7-3.5-13.7-10.2
			c-0.9-6.3,3.6-12.5,9.9-13.5c0.2,0,0.5,0,0.7-0.2C34.1,12,34.9,12,35.8,12z M25,28.6C25,28.6,25,28.6,25,28.6L25,28.6
			c0.1,0.1,0.1,0.2,0.1,0.2c0,0.1,0.1,0.2,0.1,0.2c2.9,5.5,10.2,7.3,15.3,3.7c1.5-1.1,2.8-2.4,3.6-4.1c0-0.1,0.1-0.1,0.1-0.2
			c0.1,0,0.1-0.1,0.1-0.2c0.9-1.9,1.1-3.8,0.9-5.9c-0.8-6.2-7-10.4-13.1-8.9c-4.6,1.1-7.8,5.1-8.1,9.8c-0.1,1.7,0.2,3.3,0.9,4.9
			c0,0.1,0,0.1,0.1,0.2c0,0,0,0,0,0C25,28.5,25,28.6,25,28.6z"/>
		<path class="st2" d="M43.7,44.4c-0.5-0.1-0.7-0.4-0.7-0.9c0-1.2,0-2.3,0-3.5c0-0.3-0.1-0.4-0.4-0.4c-0.2,0-0.5,0-0.7,0
			c-0.4,0-0.7,0-0.8-0.4c-0.2-0.4,0-0.6,0.3-0.9c1.3-1.3,2.5-2.7,3.8-4c0.2-0.2,0.4-0.4,0.5-0.6c0.3-0.3,0.7-0.3,1,0
			c1.5,1.6,3,3.1,4.5,4.7c0.2,0.2,0.2,0.5,0.1,0.7c-0.1,0.3-0.3,0.4-0.6,0.4c-0.3,0-0.6,0-0.9,0c-0.3,0-0.4,0.1-0.4,0.4
			c0,1.8,0,3.5,0,5.3c0,3.6,0,7.1,0,10.7c0,0.7-0.2,0.9-0.9,0.9c-1.5,0-3,0-4.6,0c-0.6,0-0.9-0.2-0.9-0.9c0-3.2,0-6.3,0-9.5
			c0-0.6,0.1-0.7,0.7-0.9c0.5,0.1,0.7,0.3,0.7,0.9c0,2.3,0,4.5,0,6.8c0,0.5,0,0.9,0,1.4c0,0.2,0,0.4,0,0.6c-0.1,0.4,0.1,0.4,0.4,0.4
			c0.8,0,1.6,0,2.4,0c1,0,1,0,0.9-1c0-0.2,0-0.4,0-0.5c0-4.9,0-9.8,0-14.6c0-0.9,0.1-1,1-1.2c0-0.1-0.1-0.1-0.1-0.1
			c-0.9-0.9-1.7-1.8-2.6-2.8c-0.2-0.2-0.3-0.1-0.4,0.1c-0.7,0.8-1.4,1.5-2.1,2.3c-0.2,0.2-0.3,0.4-0.5,0.6c0.9,0.1,1,0.2,1,1.1
			c0,1.4,0,2.7,0,4.1C44.4,44,44.3,44.2,43.7,44.4z"/>
		<path class="st3" d="M44.4,54.6c0-0.5,0-0.9,0-1.4c0-2.3,0-4.5,0-6.8c0-0.6-0.1-0.7-0.7-0.9c0-0.4,0-0.9,0-1.3
			c0.6-0.2,0.7-0.3,0.7-0.9c0-1.4,0-2.7,0-4.1c0-0.8-0.1-1-1-1.1c0.2-0.2,0.4-0.4,0.5-0.6c0.7-0.8,1.4-1.5,2.1-2.3
			c0.1-0.1,0.2-0.3,0.4-0.1c0.8,0.9,1.7,1.8,2.6,2.8c0,0,0.1,0.1,0.1,0.1c-0.9,0.2-1,0.2-1,1.2c0,4.9,0,9.8,0,14.6
			c0,0.2,0,0.4,0,0.5C46.9,54.6,45.6,54.6,44.4,54.6z"/>
		<path class="st2" d="M31.4,50.1c0-1.9,0-3.9,0-5.8c0-0.4-0.1-0.6-0.5-0.5c-0.2,0-0.5,0-0.7,0c-0.3,0-0.5-0.1-0.7-0.4
			c-0.1-0.3,0-0.5,0.2-0.8c0.4-0.4,0.8-0.8,1.1-1.2c1-1.1,2.1-2.2,3.1-3.3c0.5-0.5,0.8-0.5,1.3,0c1.4,1.5,2.8,3,4.2,4.4
			c0.2,0.3,0.4,0.5,0.3,0.9c-0.2,0.3-0.5,0.4-0.8,0.4c-0.3,0-0.8-0.2-1,0.1c-0.2,0.2-0.1,0.7-0.1,1c0,3.7,0,7.4,0,11
			c0,0.7-0.2,0.9-0.9,0.9c-1.5,0-3,0-4.5,0c-0.7,0-0.9-0.2-0.9-0.9C31.4,54,31.4,52.1,31.4,50.1z M36.4,54.6c0-1.9,0-3.8,0-5.7
			c0-1.9,0-3.7,0-5.6c0-0.6,0.2-0.8,0.7-0.8c0.1,0,0.2,0.1,0.3-0.1c-0.9-1-1.8-1.9-2.7-2.8c-0.2-0.2-0.3-0.1-0.4,0
			c-0.8,0.9-1.7,1.8-2.5,2.7c-0.1,0.1-0.2,0.1-0.1,0.2c0.8,0.1,1,0.2,1,1c0,3.5,0,7,0,10.6c0,0.2,0,0.3,0,0.5c0,0.2,0,0.4,0,0.6
			c-0.1,0.4,0.1,0.4,0.4,0.4c0.8,0,1.6,0,2.4,0C36.5,55.6,36.5,55.6,36.4,54.6z"/>
		<path class="st1" d="M20.4,51.5c-0.6-0.2-0.7-0.3-0.7-0.9c0-0.6,0-1.2,0-1.8c0-0.3-0.1-0.4-0.3-0.3c-0.3,0-0.6,0-0.9,0
			c-0.3,0-0.5-0.1-0.7-0.4c-0.1-0.3-0.1-0.5,0.2-0.8c1.5-1.6,2.9-3.1,4.4-4.7c0.3-0.4,0.7-0.4,1.1,0c1.5,1.5,2.9,3.1,4.4,4.6
			c0.2,0.2,0.3,0.5,0.2,0.8c-0.1,0.3-0.4,0.4-0.7,0.4c-0.3,0-0.5,0-0.8,0c-0.3,0-0.4,0.1-0.4,0.4c0,2.4,0,4.7,0,7.1
			c0,0.9-0.2,1-1.1,1c-1.5,0-3,0-4.5,0c-0.6,0-0.8-0.2-0.8-0.8c0-0.8,0-1.7,0-2.5c0-0.5,0.2-0.7,0.7-0.8c0.5,0.1,0.6,0.3,0.7,0.8
			c0,0.4,0,0.7,0,1.1c0,0.2,0,0.4,0,0.6c0,0.3,0.1,0.4,0.4,0.4c0.8,0,1.6,0,2.4,0c1,0,1,0,0.9-1c0-0.2,0-0.3,0-0.5c0-2,0-4.1,0-6.1
			c0-0.7,0.2-0.9,0.9-0.9c0,0,0.1,0,0.2,0c-0.7-0.8-1.4-1.5-2.1-2.3c-0.2-0.2-0.4-0.4-0.6-0.7c-0.2-0.2-0.3,0-0.4,0.1
			c-0.6,0.6-1.1,1.2-1.7,1.8c-0.3,0.3-0.7,0.7-1,1.1c1,0.1,1,0.2,1,1.2c0,0.8,0,1.6,0,2.4C21.1,51,20.9,51.3,20.4,51.5z"/>
		<path class="st3" d="M21.1,54.6c0-0.4,0-0.7,0-1.1c0-0.4-0.2-0.7-0.7-0.8c0-0.4,0-0.9,0-1.3c0.5-0.1,0.7-0.4,0.7-0.9
			c0-0.8,0-1.6,0-2.4c0-1-0.1-1-1-1.2c0.4-0.4,0.7-0.7,1-1.1c0.6-0.6,1.1-1.2,1.7-1.8c0.1-0.1,0.2-0.3,0.4-0.1
			c0.2,0.2,0.4,0.4,0.6,0.7c0.7,0.7,1.4,1.5,2.1,2.3c-0.1,0-0.1,0-0.2,0c-0.7,0-0.9,0.2-0.9,0.9c0,2,0,4.1,0,6.1c0,0.2,0,0.3,0,0.5
			C23.6,54.6,22.3,54.6,21.1,54.6z"/>
		<path class="st2" d="M17.5,24.9c-0.6,0-1.2,0-1.8,0c-0.5,0-0.8-0.3-0.8-0.7c0-0.4,0.3-0.7,0.8-0.7c1.2,0,2.5,0,3.7,0
			c0.4,0,0.7,0.3,0.7,0.6c0,0.4-0.3,0.7-0.7,0.7C18.8,24.9,18.1,24.9,17.5,24.9z"/>
		<path class="st2" d="M51.4,24.9c-0.6,0-1.2,0-1.8,0c-0.5,0-0.8-0.3-0.8-0.6c0-0.4,0.3-0.7,0.8-0.7c1.2,0,2.4,0,3.6,0
			c0.5,0,0.8,0.3,0.8,0.7c0,0.4-0.3,0.7-0.8,0.7C52.6,24.9,52,24.9,51.4,24.9z"/>
		<path class="st4" d="M50.3,30.6c0,0.4-0.4,0.7-0.9,0.6c-0.5-0.2-1-0.4-1.4-0.6c-0.4-0.2-0.5-0.5-0.4-0.8c0.1-0.3,0.5-0.5,0.9-0.4
			c0.5,0.2,0.9,0.3,1.3,0.5C50.2,30,50.3,30.2,50.3,30.6z"/>
		<path class="st4" d="M21.2,30c0,0.3-0.1,0.5-0.4,0.6c-0.5,0.2-0.9,0.4-1.4,0.5c-0.4,0.1-0.7,0-0.8-0.3c-0.1-0.3,0-0.7,0.4-0.9
			c0.5-0.2,0.9-0.4,1.4-0.5C20.8,29.2,21.2,29.5,21.2,30z"/>
		<path class="st4" d="M21.2,18.4c0,0.4-0.4,0.8-0.8,0.6c-0.5-0.2-1-0.4-1.5-0.6c-0.3-0.2-0.5-0.5-0.3-0.8c0.2-0.3,0.4-0.5,0.8-0.4
			c0.5,0.2,1,0.4,1.5,0.6C21.1,18,21.2,18.2,21.2,18.4z"/>
		<path class="st4" d="M48.4,19.1c-0.4,0-0.6-0.2-0.7-0.5c-0.1-0.3,0-0.6,0.3-0.7c0.5-0.2,1-0.4,1.5-0.6c0.3-0.1,0.6,0,0.7,0.3
			c0.1,0.3,0.1,0.6-0.1,0.8C49.6,18.7,48.9,18.9,48.4,19.1z"/>
		<path class="st5" d="M44.2,28.6c0,0.1-0.1,0.1-0.1,0.2c-0.2,0-0.2,0.1-0.3,0.2c-0.3,0.5-0.8,1-1.2,1.4c-1.1,1.1-2.4,2-3.9,2.6
			c-1.9,0.7-3.8,1-5.8,0.6c-1.2-0.2-2.3-0.5-3.4-1.1c-1.3-0.7-2.5-1.6-3.5-2.8c-0.3-0.3-0.4-0.8-0.9-0.9c0-0.1-0.1-0.1-0.1-0.2
			c0,0,0,0,0,0c0,0,0,0-0.1,0c0,0,0,0,0,0c0-0.1,0-0.1,0-0.1c0,0,0,0,0,0c0-0.1,0-0.1-0.1-0.2c-0.8-1.5-1-3.2-0.9-4.9
			c0.3-4.7,3.5-8.7,8.1-9.8c6.1-1.5,12.3,2.7,13.1,8.9c0.3,2,0,4-0.9,5.9C44.2,28.4,44.2,28.5,44.2,28.6z M27.9,19.6
			c-0.6-0.2-0.8-0.1-1.1,0.4c-0.8,1.6-1.1,3.3-0.9,5.1c0.6,4.7,5,8.1,9.7,7.5c4.9-0.7,8.2-5.2,7.4-10c-0.6-3.3-2.5-5.6-5.6-6.7
			c-3.1-1.1-6-0.5-8.6,1.6c-0.5,0.4-0.5,0.6-0.2,1.1C28.4,18.9,28.1,19.2,27.9,19.6z"/>
		<path class="st6" d="M25.1,28.8c0.4,0.2,0.6,0.6,0.9,0.9c1,1.2,2.2,2.1,3.5,2.8c1.1,0.5,2.2,0.9,3.4,1.1c2,0.3,3.9,0.1,5.8-0.6
			c1.5-0.6,2.8-1.4,3.9-2.6c0.4-0.4,0.9-0.9,1.2-1.4c0.1-0.1,0.1-0.2,0.3-0.2c-0.8,1.7-2,3-3.6,4.1c-5.1,3.5-12.4,1.8-15.3-3.7
			C25.2,29,25.2,28.9,25.1,28.8z"/>
		<path class="st6" d="M44.2,28.6c0-0.1,0-0.2,0.1-0.2C44.3,28.5,44.3,28.5,44.2,28.6z"/>
		<path class="st6" d="M24.9,28.3c0.1,0,0.1,0.1,0.1,0.2C24.9,28.4,24.9,28.4,24.9,28.3z"/>
		<path class="st6" d="M25,28.6C25,28.6,25.1,28.6,25,28.6C25.1,28.6,25,28.6,25,28.6C25,28.7,25,28.6,25,28.6z"/>
		<path class="st6" d="M25,28.5c0.1,0,0.1,0.1,0,0.1C25,28.6,25,28.5,25,28.5z"/>
		<path class="st7" d="M44.4,54.6c1.2,0,2.5,0,3.7,0c0.1,1,0.1,1-0.9,1c-0.8,0-1.6,0-2.4,0c-0.3,0-0.5-0.1-0.4-0.4
			C44.4,55,44.4,54.8,44.4,54.6z"/>
		<path class="st8" d="M32.8,54.6c0-0.2,0-0.3,0-0.5c0-3.5,0-7,0-10.6c0-0.8-0.1-1-1-1c-0.1-0.1,0-0.2,0.1-0.2
			c0.8-0.9,1.7-1.8,2.5-2.7c0.1-0.2,0.2-0.2,0.4,0c0.9,1,1.8,1.9,2.7,2.8c-0.1,0.1-0.2,0.1-0.3,0.1c-0.5,0-0.7,0.3-0.7,0.8
			c0,1.9,0,3.7,0,5.6c0,1.9,0,3.8,0,5.7C35.2,54.6,34,54.6,32.8,54.6z"/>
		<path class="st9" d="M32.8,54.6c1.2,0,2.5,0,3.7,0c0.1,1,0.1,1-0.9,1c-0.8,0-1.6,0-2.4,0c-0.3,0-0.5-0.1-0.4-0.4
			C32.7,55,32.7,54.8,32.8,54.6z"/>
		<path class="st10" d="M21.1,54.6c1.2,0,2.5,0,3.7,0c0.1,1,0.1,1-0.9,1c-0.8,0-1.6,0-2.4,0c-0.3,0-0.5-0.1-0.4-0.4
			C21.1,55,21.1,54.8,21.1,54.6z"/>
		<path class="st11" d="M27.9,19.6c0.2-0.4,0.5-0.7,0.8-1.1c0.4,0.2,0.7,0.1,1.1-0.2c3.2-2.7,8-2.3,10.6,1.1c1.7,2.3,2,4.8,0.9,7.5
			c-0.1,0-0.1,0.1-0.2,0.1c-0.5,0.6-1,1.1-1.6,1.6c-1.9,1.5-4.1,2-6.5,1.6c-1.9-0.4-3.5-1.4-4.7-2.9c-0.1-0.1-0.1-0.3-0.4-0.3
			c0,0,0,0,0,0c0-0.1,0-0.2-0.1-0.2c-0.9-2.1-0.8-4.1,0.2-6.1C28.2,20.3,28.3,19.9,27.9,19.6z M37.2,25.9c0-1.2-0.7-2.1-1.9-2.4
			c-0.4-0.1-0.8-0.1-1.2-0.3c-0.6-0.2-0.8-0.6-0.8-1.1c0.1-0.6,0.5-0.9,1.1-1c0.5,0,0.9,0.1,1.1,0.6c0.3,0.4,0.6,0.5,0.9,0.3
			c0.3-0.2,0.4-0.6,0.2-1c-0.2-0.3-0.4-0.7-0.7-0.8c-0.6-0.3-1-0.6-0.9-1.4c0-0.3-0.3-0.6-0.6-0.6c-0.4,0-0.6,0.2-0.7,0.6
			c0,0.2,0,0.4,0,0.6c0,0.3,0,0.4-0.3,0.5c-0.4,0.1-0.7,0.4-0.9,0.7c-1.2,1.6-0.3,3.6,1.6,3.9c0.4,0.1,0.7,0.1,1.1,0.2
			c0.4,0.2,0.6,0.5,0.6,0.9c0,0.5-0.1,0.9-0.5,1.1c-0.8,0.5-2,0.1-2.4-0.7c-0.2-0.4-0.5-0.5-0.9-0.4c-0.4,0.2-0.5,0.5-0.3,0.9
			c0.2,0.5,0.6,0.9,1,1.2c0.7,0.4,0.8,0.6,1,1.4c0,0,0,0,0,0c0.1,0.3,0.3,0.5,0.6,0.5c0.3,0,0.6-0.2,0.6-0.6c0-0.2,0-0.4,0-0.6
			c0-0.2,0.1-0.3,0.3-0.4C36.5,28,37.2,27.1,37.2,25.9z"/>
		<path class="st12" d="M27.9,19.6c0.3,0.3,0.3,0.7,0.1,1.1c-1,2-1.1,4.1-0.2,6.1c0,0.1,0,0.2,0.1,0.2c0,0,0,0,0,0
			c0,0.1,0,0.2,0.1,0.2c1.6,3.1,5.2,4.7,8.5,3.7c2.2-0.6,3.8-2,4.7-4.1c1.2-2.7,0.9-5.2-0.9-7.5c-2.5-3.4-7.4-3.9-10.6-1.1
			c-0.3,0.3-0.7,0.4-1.1,0.2c-0.3-0.5-0.3-0.8,0.2-1.1c2.6-2.1,5.5-2.7,8.6-1.6c3.1,1.1,5.1,3.4,5.6,6.7c0.8,4.9-2.5,9.3-7.4,10
			c-4.7,0.7-9.1-2.7-9.7-7.5c-0.2-1.8,0.1-3.5,0.9-5.1C27.1,19.5,27.4,19.4,27.9,19.6z"/>
		<path class="st13" d="M37.2,25.9c0,1.1-0.7,2-1.8,2.4c-0.3,0.1-0.3,0.2-0.3,0.4c0,0.2,0,0.4,0,0.6c0,0.4-0.3,0.5-0.6,0.6
			c-0.3,0-0.5-0.2-0.6-0.5c0,0,0,0,0,0c-0.2-0.7-0.3-1-1-1.4c-0.5-0.3-0.8-0.7-1-1.2c-0.2-0.4,0-0.8,0.3-0.9c0.4-0.2,0.7,0,0.9,0.4
			c0.4,0.8,1.6,1.2,2.4,0.7c0.4-0.3,0.6-0.7,0.5-1.1c0-0.4-0.3-0.7-0.6-0.9c-0.3-0.2-0.7-0.2-1.1-0.2c-2-0.3-2.8-2.3-1.6-3.9
			c0.2-0.3,0.6-0.6,0.9-0.7c0.3-0.1,0.3-0.2,0.3-0.5c0-0.2,0-0.4,0-0.6c0.1-0.4,0.3-0.6,0.7-0.6c0.3,0,0.6,0.2,0.6,0.6
			c-0.1,0.7,0.2,1.1,0.9,1.4c0.3,0.1,0.6,0.5,0.7,0.8c0.2,0.4,0.1,0.8-0.2,1c-0.3,0.2-0.7,0.1-0.9-0.3c-0.3-0.4-0.7-0.6-1.1-0.6
			c-0.6,0-1,0.4-1.1,1c-0.1,0.5,0.2,0.9,0.8,1.1c0.4,0.1,0.8,0.2,1.2,0.3C36.5,23.8,37.2,24.7,37.2,25.9z"/>
		<path class="st14" d="M41.3,27c-0.9,2.1-2.5,3.4-4.7,4.1c-3.3,1-7-0.6-8.5-3.7c0-0.1-0.1-0.2-0.1-0.2c0.2,0,0.3,0.2,0.4,0.3
			c1.2,1.5,2.8,2.5,4.7,2.9c2.4,0.5,4.6-0.1,6.5-1.6c0.6-0.5,1.1-1,1.6-1.6C41.1,27.1,41.2,27,41.3,27z"/>
		<path class="st14" d="M27.9,27c-0.1,0-0.1-0.1-0.1-0.2C27.9,26.9,27.9,26.9,27.9,27z"/>
	</g>
</g>
</svg>
