<?xml version="1.0" encoding="utf-8"?>
<!-- Generator: Adobe Illustrator 21.0.1, SVG Export Plug-In . SVG Version: 6.00 Build 0)  -->
<svg version="1.1" id="Layer_1" xmlns="http://www.w3.org/2000/svg" xmlns:xlink="http://www.w3.org/1999/xlink" x="0px" y="0px"
	 viewBox="0 0 70.9 70.9" style="enable-background:new 0 0 70.9 70.9;" xml:space="preserve">
<style type="text/css">
	.st0{fill:#E1F3F5;}
	.st1{fill:#FEDFD0;}
	.st2{fill:#040303;}
	.st3{fill:#E1A56E;}
	.st4{fill:#030303;}
	.st5{fill:#FDCFC1;}
	.st6{fill:#040404;}
	.st7{fill:#FACDBF;}
	.st8{fill:#FCDDCF;}
	.st9{fill:#FBCEC0;}
	.st10{fill:#F8CCBE;}
	.st11{fill:#FCDDCE;}
	.st12{fill:#FFDC80;}
	.st13{fill:#040403;}
	.st14{fill:#F6F4F4;}
</style>
<title>feature-7</title>
<circle class="st0" cx="35.4" cy="35.4" r="35.4"/>
<g>
	<path class="st1" d="M27.6,57.4c-1.7-0.5-3.4-1.1-5.1-1.6c-1.7-0.5-3.4-1.1-5-1.6c0,0,0-0.1,0-0.1c1.1-1.3,2.1-2.7,3.2-4
		c0.4-0.5,0.9-1,1.2-1.7c0.5-1.2,1.3-2.2,2.2-3.1c0.7-0.7,1.5-1.3,2.4-1.8c1.3-0.7,2.7-1.2,4.2-1.2c3.4,0,6.8,0,10.2,0
		c0.2,1.1-0.5,2.1-1.7,2.1c-1.9,0-3.9,0-5.8,0c-0.6,0-0.8,0.1-0.9,0.7c-1.7,0-3.4,0-5.1,0c0.6,0.9,1.3,1.3,2.3,1.3
		c3.2,0,6.4,0,9.6,0c1,0,1.8-0.3,2.5-0.9c0.2-0.2,0.4-0.3,0.7-0.2c1.8,0,3.6,0,5.4,0c0.5,0,0.9-0.1,1.3-0.4c0.7-0.6,1.3-1.2,2-1.7
		c1.3-1.1,2.6-2.3,4-3.4c0.5-0.4,0.9-1,1.7-0.9c0.7,0.6,0.6,1.4-0.1,2c-3.2,2.7-6.4,5.5-9.6,8.2c-0.9,0.7-1.9,1.2-3,1.4
		c-0.6,0.1-1.2,0.2-1.9,0.2c-0.6,0.1-0.7,0.2-0.8,0.8c-0.5,0-1,0.1-1.5,0.2c-0.1-0.4-0.4-0.7-0.9-0.6c-2,0.2-4,0.5-6,0.7
		c-0.4,0-0.7,0.2-0.9,0.5c-1,1.2-2,2.4-2.9,3.5C28.6,56.2,28.1,56.8,27.6,57.4z"/>
	<path class="st2" d="M41.3,51.3c0.1-0.6,0.2-0.7,0.8-0.8c0.6-0.1,1.2-0.1,1.9-0.2c1.1-0.2,2.1-0.7,3-1.4c3.2-2.7,6.4-5.4,9.6-8.2
		c0.7-0.6,0.8-1.4,0.1-2c-0.6-0.4-1.1-0.4-1.7,0.1c-2,1.7-3.9,3.3-5.9,5c-0.7,0.6-1.4,0.8-2.2,0.8c-1.7,0-3.3,0-5,0
		c-0.2,0-0.4,0-0.5,0.2c-0.6,0.6-1.4,0.9-2.2,0.9c-1.9,0-3.9,0-5.8,0c-0.5,0-0.8-0.2-0.8-0.7c0.1-0.6,0.3-0.7,0.9-0.7
		c1.9,0,3.9,0,5.8,0c1.2,0,1.9-1,1.7-2.1c-0.2-0.8-0.8-1.3-1.7-1.3c-3.2,0-6.3-0.1-9.5,0c-3.6,0.1-6.4,1.8-8.2,4.9
		c-0.7,1.3-1.5,2.4-2.4,3.5c-1.1,1.4-2.2,2.8-3.2,4.1c-0.1,0.1-0.2,0.2-0.3,0.3c-0.3,0.3-0.7,0.4-1,0.2c-0.3-0.2-0.3-0.6,0-1
		c0.3-0.4,0.6-0.8,0.9-1.2c1.2-1.6,2.5-3.2,3.7-4.7c0.3-0.3,0.5-0.7,0.7-1.1c2.1-4.1,5.4-6.3,10-6.4c3.1-0.1,6.1-0.1,9.2,0
		c0.8,0,1.3-0.2,1.9-0.7c1.3-1.1,2.7-2.2,3.9-3.3c1.6-1.5,4-0.9,4.6,1.2c0.7-0.7,1.6-1,2.6-0.8c1,0.3,1.6,0.9,1.9,1.9
		c0.2,0,0.3-0.1,0.4-0.2c1.2-0.9,2.7-0.8,3.6,0.3c0.9,1.1,0.8,2.7-0.3,3.6c-3.3,2.8-6.7,5.7-10,8.5c-1.3,1.1-2.8,1.5-4.5,1.7
		c-0.3,0-0.6,0.1-0.9,0.1C41.7,51.9,41.4,51.7,41.3,51.3z M47.9,36.5c-0.5-0.6-1.2-0.7-1.7-0.3c-1.6,1.3-3.1,2.6-4.7,3.9
		c-0.1,0.1-0.2,0.1-0.1,0.3c0.6,0.6,0.9,1.4,0.9,2.3c0.3-0.2,0.5-0.4,0.7-0.6c1.6-1.3,3.2-2.7,4.8-4C48.2,37.7,48.2,37.1,47.9,36.5z
		 M52,37.4c-0.6-0.3-1-0.3-1.6,0.2c-2.1,1.8-4.2,3.6-6.3,5.4C44,43,43.9,43.1,44,43.2c0.5,0,1.1,0,1.6,0c0.6,0,1.1,0,1.7,0
		c0.3,0,0.6-0.1,0.8-0.3c1.4-1.2,2.8-2.4,4.2-3.6C52.9,38.7,52.7,37.8,52,37.4z"/>
	<path class="st3" d="M37.2,32.4c-0.5,0-1,0-1.5,0c-0.2-0.6-0.3-0.7-0.9-0.7c-0.9,0-1.8,0-2.8,0c-1.5,0-1.3-0.2-1.9,1.2
		c-0.2,0.6-0.5,1.1-0.8,1.8c-0.4-0.9-0.7-1.6-1.1-2.4c-0.2-0.4-0.4-0.6-0.9-0.6c-0.5,0-1,0-1.6,0c-2.7,0-4.5-1.8-4.5-4.5
		c0-2.4,0-4.8,0-7.1c0-0.8,0-1.7,0-2.5c0.2-2,2-3.7,4-3.6c-0.1,0.2-0.1,0.4-0.1,0.7c0,3.6,0,7.3,0,10.9c0,1.6,1.5,3.2,3,3.4
		c1.1,0.1,2.2,0,3.3,0.1c0.1,0,0.1,0,0.2-0.1c0.8,0.1,1.6,0.1,2.4,0c0.1,0.1,0.3,0.1,0.5,0.1c3.3,0,6.5,0,9.8,0
		c-0.6,1.5-1.7,2.3-3.2,2.6c-1.1,0.2-2.2,0-3.3,0.1C37.5,31.7,37.3,31.8,37.2,32.4z"/>
	<path class="st4" d="M25.4,13.9c-2,0-3.8,1.7-4,3.6c-0.1,0.8,0,1.7,0,2.5c0,2.4,0,4.8,0,7.1c0,2.7,1.8,4.5,4.5,4.5c0.5,0,1,0,1.6,0
		c0.4,0,0.7,0.2,0.9,0.6c0.3,0.8,0.7,1.5,1.1,2.4c0.3-0.6,0.5-1.2,0.8-1.8c0.6-1.4,0.4-1.2,1.9-1.2c0.9,0,1.8,0,2.8,0
		c0.6,0,0.7,0.1,0.9,0.7c-0.1,0.5-0.4,0.7-0.9,0.6c-1,0-1.9,0-2.9,0c-0.3,0-0.4,0.1-0.5,0.3c-0.3,0.6-0.6,1.2-0.8,1.9
		c-0.2,0.5-0.6,0.9-1.2,0.9c-0.6,0-1-0.3-1.2-0.8c-0.3-0.6-0.6-1.3-0.8-1.9c-0.1-0.3-0.2-0.3-0.5-0.3c-0.8,0-1.6,0.1-2.4-0.1
		c-2.6-0.6-4.3-2.8-4.3-5.4c0-3.1,0-6.3,0-9.4c0-3.2,2.5-5.5,5.6-5.5c5,0,10,0,15,0c3.1,0,5.6,2.4,5.6,5.5c0,3.1,0,6.3,0,9.4
		c0,3.1-2.4,5.5-5.6,5.6c-0.9,0-1.7,0-2.6,0c-0.5,0-0.7-0.2-0.8-0.6c0.1-0.6,0.3-0.7,0.8-0.7c1.1,0,2.2,0.1,3.3-0.1
		c1.5-0.3,2.6-1.1,3.2-2.6c0.2-0.5,0.3-1.1,0.3-1.7c0-3,0-6,0-9c0-0.3,0-0.5,0-0.8c-0.4-2.1-2-3.6-4.2-3.6c-4.6,0-9.2,0-13.8,0
		C26.3,13.9,25.9,13.9,25.4,13.9z"/>
	<path class="st5" d="M15.9,53.5c1.1-1.4,2.2-2.8,3.2-4.1c0.9-1.1,1.7-2.3,2.4-3.5c1.8-3.1,4.6-4.8,8.2-4.9c3.2-0.1,6.3,0,9.5,0
		c0.9,0,1.5,0.5,1.7,1.3c-3.4,0-6.8,0-10.2,0c-1.5,0-2.9,0.5-4.2,1.2c-0.9,0.5-1.7,1.1-2.4,1.8c-0.9,0.9-1.7,1.9-2.2,3.1
		c-0.3,0.7-0.8,1.1-1.2,1.7c-1.1,1.4-2.1,2.7-3.2,4c0,0,0,0.1,0,0.1c-0.4-0.1-0.8-0.3-1.2-0.4C16.1,53.8,15.9,53.7,15.9,53.5z"/>
	<path class="st6" d="M27.6,57.4c0.5-0.7,1-1.3,1.5-1.9c1-1.2,2-2.3,2.9-3.5c0.2-0.3,0.5-0.5,0.9-0.5c2-0.2,4-0.5,6-0.7
		c0.5-0.1,0.7,0.2,0.9,0.6c-0.1,0.5-0.3,0.7-0.8,0.8c-1.9,0.2-3.7,0.5-5.6,0.7c-0.2,0-0.4,0.1-0.5,0.3c-1.3,1.6-2.6,3.2-4,4.8
		c-0.2,0.3-0.5,0.5-0.9,0.4C27.7,58.1,27.6,57.8,27.6,57.4z"/>
	<path class="st7" d="M32.5,45c0.1,0.5,0.4,0.7,0.8,0.7c1.9,0,3.9,0,5.8,0c0.9,0,1.6-0.3,2.2-0.9c0.2-0.2,0.3-0.2,0.5-0.2
		c1.7,0,3.3,0,5,0c0.9,0,1.6-0.2,2.2-0.8c1.9-1.7,3.9-3.3,5.9-5c0.6-0.5,1.1-0.5,1.7-0.1c-0.7,0-1.2,0.5-1.7,0.9
		c-1.3,1.1-2.6,2.3-4,3.4c-0.7,0.6-1.3,1.2-2,1.7c-0.4,0.3-0.8,0.4-1.3,0.4c-1.8,0-3.6,0-5.4,0c-0.3,0-0.5,0.1-0.7,0.2
		c-0.7,0.6-1.6,0.9-2.5,0.9c-3.2,0-6.4,0-9.6,0c-1,0-1.7-0.4-2.3-1.3C29.1,45,30.8,45,32.5,45z"/>
	<path class="st8" d="M52,37.4c0.7,0.5,0.9,1.4,0.2,1.9c-1.4,1.2-2.8,2.4-4.2,3.6c-0.2,0.2-0.5,0.3-0.8,0.3c-0.6,0-1.1,0-1.7,0
		c0.1-0.2,0.3-0.4,0.5-0.5c0.7-0.6,1.5-1.2,2.2-1.9c1-0.8,1.9-1.6,2.9-2.4C51.4,38,51.9,37.9,52,37.4z"/>
	<path class="st9" d="M43,42.1c-0.2,0.2-0.4,0.4-0.7,0.6c0-0.9-0.3-1.7-0.9-2.3c-0.1-0.1,0-0.2,0.1-0.3c1.6-1.3,3.1-2.6,4.7-3.9
		c0.6-0.5,1.2-0.3,1.7,0.3c-0.2,0-0.3,0.1-0.4,0.2c-0.9,0.8-1.9,1.6-2.8,2.3c-0.6,0.5-1.2,1-1.8,1.5c-0.2,0.1-0.3,0.3-0.2,0.5
		C42.8,41.5,42.8,41.8,43,42.1z"/>
	<path class="st10" d="M52,37.4c-0.1,0.5-0.6,0.7-0.9,1c-0.9,0.8-1.9,1.6-2.9,2.4c-0.7,0.6-1.5,1.2-2.2,1.9
		c-0.2,0.2-0.4,0.3-0.5,0.5c-0.5,0-1.1,0-1.6,0c0-0.1,0.1-0.2,0.1-0.2c2.1-1.8,4.2-3.6,6.3-5.4C51,37.1,51.4,37.1,52,37.4z"/>
	<path class="st11" d="M43,42.1c-0.1-0.3-0.2-0.7-0.3-1c-0.1-0.3,0.1-0.4,0.2-0.5c0.6-0.5,1.2-1,1.8-1.5c0.9-0.8,1.9-1.6,2.8-2.3
		c0.1-0.1,0.3-0.2,0.4-0.2c0.4,0.6,0.4,1.2-0.1,1.6C46.1,39.5,44.5,40.8,43,42.1z"/>
	<path class="st12" d="M25.4,13.9c0.4,0,0.9,0,1.3,0c4.6,0,9.2,0,13.8,0c2.2,0,3.9,1.4,4.2,3.6c0,0.3,0,0.5,0,0.8c0,3,0,6,0,9
		c0,0.6-0.1,1.2-0.3,1.7c-3.3,0-6.5,0-9.8,0c-0.2,0-0.3,0-0.5-0.1c4-0.8,6.2-5,4.6-8.7c-0.1-0.2,0-0.3,0.1-0.5
		c0.6-0.6,1.2-1.2,1.8-1.8c0.4-0.4,0.4-0.7,0.1-1.1c-0.3-0.3-0.7-0.3-1,0.1c-0.5,0.5-1.1,1-1.5,1.5c-0.3,0.3-0.4,0.2-0.6,0
		c-1.8-2-4.7-2.6-7.1-1.6c-0.6,0.2-0.7,0.5-0.5,1c-0.4,0.3-0.8,0.6-1.1,1c-0.5-0.3-0.8-0.2-1.1,0.3c-1.1,1.6-1.3,3.4-0.7,5.3
		c0.7,2.4,2.4,3.8,4.8,4.3c-0.1,0-0.1,0.1-0.2,0.1c-1.1,0-2.2,0.1-3.3-0.1c-1.6-0.2-3-1.8-3-3.4c0-3.6,0-7.3,0-10.9
		C25.3,14.3,25.4,14.1,25.4,13.9z"/>
	<path class="st13" d="M31.9,28.9c-2.4-0.6-4-2-4.8-4.3c-0.6-1.9-0.3-3.6,0.7-5.3c0.3-0.5,0.6-0.6,1.1-0.3c0.3,0.4,0.2,0.7,0,1.1
		c-1.1,1.8-1.1,3.7,0.1,5.4c1.1,1.7,2.8,2.4,4.9,2.1c2.1-0.3,3.5-1.6,4-3.7c0.3-1,0.2-1.9-0.2-2.9c-0.1,0.1-0.2,0.2-0.3,0.3
		c-1.3,1.3-2.6,2.5-4,3.8c-0.4,0.4-0.7,0.4-1.2,0c-0.4-0.4-0.8-0.8-1.2-1.2c-0.3-0.3-0.3-0.7,0-1c0.3-0.3,0.6-0.3,1,0
		c0.2,0.2,0.4,0.4,0.6,0.6c0.2,0.2,0.3,0.2,0.6,0c1.2-1.2,2.4-2.4,3.7-3.5c0.2-0.2,0.2-0.3,0-0.5c-1.4-1.6-3.7-2.2-5.7-1.3
		c-0.4,0.2-0.8,0.2-1.1-0.2c-0.1-0.6,0-0.8,0.5-1c2.4-1.1,5.4-0.4,7.1,1.6c0.2,0.3,0.3,0.3,0.6,0c0.5-0.5,1-1,1.5-1.5
		c0.4-0.3,0.7-0.4,1-0.1c0.3,0.3,0.3,0.7-0.1,1.1c-0.6,0.6-1.2,1.2-1.8,1.8c-0.2,0.1-0.2,0.3-0.1,0.5c1.6,3.6-0.6,7.8-4.6,8.7
		C33.5,29.1,32.7,29.1,31.9,28.9z"/>
	<path class="st14" d="M30.1,18c0.3,0.4,0.6,0.4,1.1,0.2c2-0.9,4.3-0.3,5.7,1.3c0.2,0.2,0.2,0.3,0,0.5c-1.2,1.2-2.5,2.3-3.7,3.5
		c-0.2,0.2-0.4,0.2-0.6,0c-0.2-0.2-0.4-0.4-0.6-0.6c-0.3-0.3-0.7-0.3-1,0c-0.3,0.3-0.3,0.6,0,1c0.4,0.4,0.8,0.8,1.2,1.2
		c0.4,0.4,0.7,0.4,1.2,0c1.3-1.3,2.6-2.5,4-3.8c0.1-0.1,0.2-0.2,0.3-0.3c0.4,1,0.4,1.9,0.2,2.9c-0.6,2.1-1.9,3.4-4,3.7
		c-2,0.3-3.7-0.4-4.9-2.1c-1.2-1.8-1.2-3.6-0.1-5.4c0.2-0.4,0.3-0.7,0-1.1C29.2,18.6,29.7,18.3,30.1,18z"/>
</g>
</svg>
