<?xml version="1.0" encoding="utf-8"?>
<!-- Generator: Adobe Illustrator 21.0.1, SVG Export Plug-In . SVG Version: 6.00 Build 0)  -->
<svg version="1.1" id="Layer_1" xmlns="http://www.w3.org/2000/svg" xmlns:xlink="http://www.w3.org/1999/xlink" x="0px" y="0px"
	 viewBox="0 0 70.9 70.9" style="enable-background:new 0 0 70.9 70.9;" xml:space="preserve">
<style type="text/css">
	.st0{fill:#E1F3F5;}
	.st1{fill:#E5E8EC;}
	.st2{fill:#EECFB3;}
	.st3{fill:#B3DC7E;}
	.st4{fill:#010101;}
	.st5{fill:#030303;}
	.st6{fill:#030302;}
	.st7{fill:#FAD670;}
	.st8{fill:#FE816E;}
	.st9{fill:#B3DB7E;}
	.st10{fill:#FD816D;}
	.st11{fill:#FAD570;}
	.st12{fill:#4EC0E7;}
</style>
<title>feature-7</title>
<g>
	<circle class="st0" cx="35.4" cy="35.4" r="35.4"/>
	<g>
		<path d="M34.1,55.4c-5.8,0-11.6,0-17.3,0c-1.5,0-2.3-0.8-2.3-2.3c0-8.8,0-17.7,0-26.5c0-1.5,0.8-2.3,2.3-2.3c4.5,0,9,0,13.5,0
			c0.3,0,0.4-0.1,0.4-0.4c0-2.3,0-4.6,0-6.9c0-2.1,1.4-3.6,3.6-3.6c6.2,0,12.4,0,18.6,0c2.1,0,3.5,1.4,3.6,3.6c0,2.6,0,5.2,0,7.8
			c0,1.6-0.9,2.9-2.4,3.4c-0.3,0.1-0.3,0.3-0.3,0.5c0,8.2,0,16.4,0,24.6c0,1.1-0.6,1.9-1.7,2.1c-0.2,0-0.4,0-0.6,0
			C45.6,55.4,39.9,55.4,34.1,55.4z M34.1,54.1c5.8,0,11.6,0,17.4,0c0.6,0,0.9-0.2,0.9-0.8c0-7.3,0-14.6,0-21.8
			c0-0.3-0.1-0.3-0.3-0.3c-3,0-6,0-9,0c-0.2,0-0.3,0.1-0.4,0.3c-0.3,0.5-0.7,0.9-1.2,1c-0.9,0.2-1.7-0.1-2.2-0.8
			c-0.3-0.4-0.6-0.5-1-0.5c-7.3,0-14.6,0-21.9,0c-0.4,0-0.4,0.1-0.4,0.5c0,7.2,0,14.4,0,21.6c0,0.8,0.2,1,1,1
			C22.6,54.1,28.3,54.1,34.1,54.1z M43.6,14.8c-3.1,0-6.2,0-9.3,0c-1.3,0-2.2,0.9-2.2,2.2c0,2.6,0,5.3,0,7.9c0,1.2,0.9,2.1,2.1,2.1
			c0.8,0,1.7,0,2.5,0c0.3,0,0.5,0.1,0.7,0.3c0.9,1.1,1.9,2.2,2.8,3.4c0.2,0.3,0.5,0.5,0.9,0.4c0.4-0.1,0.5-0.5,0.5-0.9
			c0-0.9,0-1.8,0-2.7c0-0.4,0.1-0.5,0.4-0.5c3.6,0,7.2,0,10.9,0c1.4,0,2.2-0.8,2.2-2.2c0-2.6,0-5.1,0-7.7c0-1.4-0.8-2.3-2.2-2.3
			C49.7,14.8,46.6,14.8,43.6,14.8z M37.6,29.7c-0.4-0.4-0.7-0.8-0.9-1.1c-0.1-0.2-0.3-0.2-0.5-0.2c-0.7,0-1.4,0-2.1,0
			c-1.5,0-2.8-0.9-3.3-2.4c-0.1-0.2-0.2-0.3-0.4-0.3c-4.6,0-9.2,0-13.7,0c-0.7,0-0.9,0.2-0.9,0.9c0,0.9,0,1.8,0,2.7
			c0,0.4,0.1,0.5,0.5,0.5c6.9,0,13.9,0,20.8,0C37.2,29.7,37.4,29.7,37.6,29.7z M47.6,29.7c1.3,0,2.5,0,3.8,0c1,0,1,0,1-1
			c0-0.3-0.1-0.4-0.4-0.4c-2.7,0-5.4,0-8.1,0c-1,0-1,0-1,1c0,0.3,0.1,0.3,0.4,0.3C44.7,29.7,46.2,29.7,47.6,29.7z"/>
		<path class="st1" d="M34.1,54.1c-5.8,0-11.5,0-17.3,0c-0.8,0-1-0.2-1-1c0-7.2,0-14.4,0-21.6c0-0.4,0.1-0.5,0.4-0.5
			c7.3,0,14.6,0,21.9,0c0.5,0,0.8,0.1,1,0.5c0.6,0.7,1.3,1,2.2,0.8c0.6-0.1,1-0.5,1.2-1c0.1-0.2,0.2-0.3,0.4-0.3c3,0,6,0,9,0
			c0.3,0,0.3,0.1,0.3,0.3c0,7.3,0,14.6,0,21.8c0,0.6-0.2,0.8-0.9,0.8C45.7,54.1,39.9,54.1,34.1,54.1z M43.6,52.7c1.8,0,3.6,0,5.4,0
			c1.2,0,2.1-0.9,2.1-2.1c0-0.5,0-0.9,0-1.4c0-0.9-0.5-1.5-1.3-1.8c-0.2-0.1-0.6,0-0.7-0.3c-0.1-0.3,0-0.6,0-0.9c0,0,0,0,0,0
			c0-0.2,0-0.3,0.3-0.3c1.1-0.2,1.7-1,1.8-2.1c0-0.4,0-0.9,0-1.3c0-0.8-0.5-1.5-1.3-1.9c-0.2-0.1-0.6,0-0.7-0.2
			c-0.1-0.2,0-0.5,0-0.8c0,0,0-0.1,0-0.1c0-0.2,0-0.3,0.3-0.4c1-0.2,1.7-1,1.7-2c0-0.5,0-0.9,0-1.4c0-1.1-0.9-2-2-2
			c-3.7,0-7.3,0-11,0c-1.1,0-1.9,0.9-2,2c0,0.5,0,1,0,1.5c0,0.8,0.6,1.5,1.3,1.8c0.2,0.1,0.6,0,0.7,0.2c0.1,0.2,0,0.5,0,0.8
			c0,0,0,0.1,0,0.1c0,0.2,0,0.3-0.3,0.4c-1.1,0.2-1.7,1-1.7,2.1c0,0.5,0,0.9,0,1.4c0,0.8,0.6,1.6,1.4,1.9c0.2,0.1,0.5,0,0.6,0.2
			c0.1,0.2,0,0.5,0,0.7c0,0.1,0,0.1,0,0.2c0,0.3,0,0.4-0.3,0.4c-1,0.2-1.7,1-1.7,2c0,0.4,0,0.8,0,1.2c0,1.3,0.8,2.2,2.2,2.2
			C40.1,52.7,41.8,52.7,43.6,52.7z M18.5,39.8c0,4.1,3.3,7.5,7.4,7.5c4.1,0,7.5-3.3,7.5-7.4c0-4.1-3.3-7.5-7.4-7.5
			C21.9,32.4,18.5,35.7,18.5,39.8z M27.3,48.7c-2.2,0-4.3,0-6.5,0c-0.9,0-0.9,0-0.9,0.9c0,0.4,0.1,0.4,0.4,0.4c4.5,0,9,0,13.5,0
			c1,0,1,0,1-1c0-0.3-0.1-0.4-0.4-0.4C32,48.7,29.7,48.7,27.3,48.7z M28.7,51.4c-1.7,0-3.5,0-5.2,0c-0.9,0-0.9,0-0.9,0.9
			c0,0.4,0.1,0.4,0.4,0.4c3.6,0,7.2,0,10.8,0c1,0,1,0,1-1c0-0.3-0.1-0.4-0.4-0.4C32.5,51.4,30.6,51.4,28.7,51.4z M19.2,52.7
			c0.3,0,0.7,0,1,0c1,0,1,0,1-1.1c0-0.2-0.1-0.3-0.3-0.3c-0.9,0-1.8,0-2.7,0c-1,0-1,0-1,1.1c0,0.2,0.1,0.3,0.3,0.3
			C18,52.7,18.6,52.7,19.2,52.7z M17.2,49.3c0,0.7,0,0.7,0.7,0.7c0.7,0,0.7,0,0.7-0.7c0-0.7,0-0.7-0.7-0.7
			C17.2,48.7,17.2,48.7,17.2,49.3z"/>
		<path class="st2" d="M43.6,14.8c3.1,0,6.2,0,9.3,0c1.4,0,2.2,0.8,2.2,2.3c0,2.6,0,5.1,0,7.7c0,1.4-0.8,2.2-2.2,2.2
			c-3.6,0-7.2,0-10.9,0c-0.4,0-0.5,0.1-0.4,0.5c0,0.9,0,1.8,0,2.7c0,0.4-0.1,0.7-0.5,0.9c-0.4,0.2-0.7-0.1-0.9-0.4
			c-0.9-1.1-1.9-2.2-2.8-3.4C37.2,27.1,37,27,36.7,27c-0.8,0-1.7,0-2.5,0c-1.2,0-2.1-0.9-2.1-2.1c0-2.6,0-5.3,0-7.9
			c0-1.3,0.8-2.2,2.2-2.2C37.3,14.8,40.4,14.8,43.6,14.8z M52.3,20.6C52.3,20.6,52.3,20.6,52.3,20.6c0.1,0.9,0.1,1.8,0.1,2.7
			c0,1.1,0,1.1,1.1,1c0.2,0,0.3-0.1,0.3-0.3c0-2.1,0-4.2,0-6.3c0-0.2-0.1-0.3-0.3-0.3c-0.4,0-0.8,0-1.2,0c-0.3,0-0.4,0.1-0.5,0.4
			c-0.3,1.1-0.7,2.2-1.1,3.3c-0.1,0.2,0,0.4-0.3,0.4c-0.3,0-0.3-0.2-0.3-0.4c-0.4-1.1-0.8-2.2-1.1-3.3c-0.1-0.3-0.2-0.4-0.5-0.3
			c-0.4,0-0.8,0-1.1,0c-0.3,0-0.4,0.1-0.4,0.4c0,1.8,0,3.6,0,5.4c0,1,0,1,1,1c0.3,0,0.4-0.1,0.4-0.4c0-1.1,0-2.2,0-3.4
			c0.3,0.7,0.5,1.4,0.8,2.1c0.1,0.2,0.2,0.3,0.4,0.3c0.6,0,1.2,0,1.7,0c0.2,0,0.3-0.1,0.4-0.3C51.8,22,52.1,21.3,52.3,20.6z
			 M40.2,20.9c0,0.8,0,1.6,0,2.4c0,1.1,0,1.1,1.1,1c0.2,0,0.3-0.1,0.3-0.3c0-0.7,0-1.4,0-2.1c0-0.2,0-0.3,0.3-0.3c0.6,0,1.1,0,1.7,0
			c0.5,0,0.7,0.3,0.7,0.7c0,0.3,0,0.6,0,0.9c0,1.1,0,1.1,1.1,1c0.2,0,0.3-0.1,0.3-0.3c0-0.6,0-1.1,0-1.7c0-0.4-0.1-0.8-0.4-1.2
			c-0.1-0.2-0.1-0.3,0-0.4c0.5-0.7,0.5-1.4,0.1-2.1c-0.4-0.7-1-1.1-1.8-1.1c-1,0-2,0-3,0c-0.3,0-0.3,0.1-0.3,0.3
			C40.2,18.9,40.2,19.9,40.2,20.9z M34.8,20.9C34.8,20.9,34.8,20.9,34.8,20.9c0-0.3,0-0.5,0-0.8c0-0.6,0.5-1.1,1.1-1.3
			c0.6-0.1,1.3,0.2,1.5,0.8c0.1,0.5,0.4,0.6,0.8,0.5c0.1,0,0.3,0,0.4,0c0.3,0,0.3-0.1,0.3-0.3c-0.1-1.3-1.2-2.3-2.5-2.4
			c-1.3-0.1-2.5,0.8-2.8,2.1c-0.2,0.7-0.1,1.4-0.1,2.1c0,1.3,1.1,2.5,2.5,2.6c1.3,0.1,2.6-0.8,2.9-2.1c0.1-0.6,0.1-0.6-0.5-0.6
			c-0.1,0-0.3,0-0.4,0c-0.3,0-0.4,0-0.5,0.4c-0.1,0.7-0.8,1.1-1.5,1c-0.7-0.1-1.2-0.7-1.2-1.3C34.8,21.4,34.8,21.1,34.8,20.9z"/>
		<path class="st3" d="M37.6,29.7c-0.2,0-0.4,0-0.5,0c-6.9,0-13.9,0-20.8,0c-0.4,0-0.5-0.1-0.5-0.5c0-0.9,0-1.8,0-2.7
			c0-0.7,0.2-0.9,0.9-0.9c4.6,0,9.2,0,13.7,0c0.2,0,0.4,0.1,0.4,0.3c0.5,1.5,1.7,2.4,3.3,2.4c0.7,0,1.4,0,2.1,0
			c0.2,0,0.3,0.1,0.5,0.2C36.9,28.9,37.2,29.3,37.6,29.7z M23.9,27.7c0-0.7,0-0.7-0.7-0.7c-0.7,0-0.7,0-0.7,0.7c0,0.7,0,0.7,0.7,0.7
			C23.9,28.3,23.9,28.3,23.9,27.7z M20.6,27c-0.7,0-0.7,0-0.7,0.7c0,0.7,0,0.7,0.6,0.7c0.7,0,0.7,0,0.7-0.7C21.2,27,21.2,27,20.6,27
			z M17.8,28.3c0.7,0,0.7,0,0.7-0.7c0-0.6,0-0.6-0.6-0.6c-0.7,0-0.7,0-0.7,0.7C17.2,28.3,17.2,28.3,17.8,28.3z"/>
		<path class="st3" d="M47.6,29.7c-1.5,0-2.9,0-4.4,0c-0.3,0-0.4,0-0.4-0.3c0-1,0-1,1-1c2.7,0,5.4,0,8.1,0c0.3,0,0.4,0.1,0.4,0.4
			c0,1,0,1-1,1C50.1,29.7,48.9,29.7,47.6,29.7z"/>
		<path class="st4" d="M43.6,52.7c-1.7,0-3.5,0-5.2,0c-1.3,0-2.2-0.8-2.2-2.2c0-0.4,0-0.8,0-1.2c0-1,0.7-1.8,1.7-2
			c0.3,0,0.4-0.2,0.3-0.4c0-0.1,0-0.1,0-0.2c0-0.2,0.1-0.5,0-0.7c-0.1-0.2-0.4-0.1-0.6-0.2c-0.8-0.3-1.3-1-1.4-1.9
			c0-0.5,0-0.9,0-1.4c0-1.1,0.7-1.9,1.7-2.1c0.3,0,0.3-0.1,0.3-0.4c0,0,0-0.1,0-0.1c0-0.3,0.1-0.6,0-0.8c-0.1-0.2-0.4-0.1-0.7-0.2
			c-0.8-0.3-1.3-1-1.3-1.8c0-0.5,0-1,0-1.5c0-1.1,0.9-2,2-2c3.7,0,7.3,0,11,0c1.1,0,1.9,0.9,2,2c0,0.5,0,0.9,0,1.4
			c0,1.1-0.7,1.9-1.7,2c-0.3,0-0.3,0.2-0.3,0.4c0,0,0,0.1,0,0.1c0,0.3-0.1,0.6,0,0.8c0.1,0.2,0.5,0.2,0.7,0.2c0.8,0.3,1.3,1,1.3,1.9
			c0,0.4,0,0.9,0,1.3c0,1.1-0.7,1.9-1.8,2.1C49,46,48.9,46,49,46.3c0,0,0,0,0,0c0,0.3-0.1,0.6,0,0.9c0.1,0.3,0.5,0.2,0.7,0.3
			c0.8,0.4,1.2,1,1.3,1.8c0,0.4,0,0.9,0,1.4c0,1.2-0.9,2.1-2.1,2.1C47.1,52.7,45.3,52.7,43.6,52.7z M43.6,48.7c-1.8,0-3.5,0-5.3,0
			c-0.6,0-0.8,0.2-0.8,0.8c0,0.4,0,0.8,0,1.2c0,0.5,0.3,0.7,0.7,0.7c3.6,0,7.1,0,10.7,0c0.5,0,0.7-0.3,0.8-0.8c0-0.4,0-0.7,0-1.1
			c0-0.7-0.2-0.9-0.9-0.9C47,48.7,45.3,48.7,43.6,48.7z M43.6,44.6c1.8,0,3.5,0,5.3,0c0.6,0,0.8-0.2,0.8-0.8c0-0.4,0-0.8,0-1.1
			c0-0.5-0.3-0.8-0.7-0.8c-3.6,0-7.1,0-10.7,0c-0.5,0-0.7,0.3-0.7,0.8c0,0.4,0,0.7,0,1.1c0,0.7,0.2,0.9,0.9,0.9
			C40.1,44.6,41.8,44.6,43.6,44.6z M43.6,35.1c-1.8,0-3.5,0-5.3,0c-0.6,0-0.8,0.2-0.8,0.8c0,0.4,0,0.8,0,1.2c0,0.5,0.3,0.7,0.7,0.7
			c3.6,0,7.1,0,10.7,0c0.5,0,0.7-0.3,0.7-0.8c0-0.4,0-0.7,0-1.1c0-0.7-0.2-0.9-0.9-0.9C47,35.1,45.3,35.1,43.6,35.1z M43.6,39.2
			c-1,0-2.1,0-3.1,0c-1,0-1,0-1,1c0,0.3,0.1,0.4,0.4,0.4c2.3,0,4.5,0,6.8,0c1,0,1,0,1-1c0-0.3-0.1-0.4-0.4-0.3
			C46.1,39.2,44.8,39.2,43.6,39.2z M43.6,45.9c-1,0-2.1,0-3.1,0c-1,0-1,0-1,1c0,0.3,0.1,0.4,0.4,0.4c2.2,0,4.5,0,6.7,0c1,0,1,0,1-1
			c0-0.3-0.1-0.3-0.4-0.3C46,46,44.8,45.9,43.6,45.9z"/>
		<path class="st5" d="M18.5,39.8c0-4.1,3.4-7.4,7.5-7.4c4.1,0,7.4,3.4,7.4,7.5c0,4.1-3.4,7.4-7.5,7.4
			C21.8,47.3,18.5,43.9,18.5,39.8z M29.1,40.5c-0.8,0-1.7,0-2.5,0c-0.2,0-0.4,0.1-0.6,0.2c-1.2,1.2-2.4,2.4-3.6,3.6
			c-0.3,0.3-0.2,0.4,0.1,0.6c1.4,0.9,2.8,1.2,4.4,1c2.5-0.4,4.6-2.5,5-5c0-0.3,0-0.4-0.3-0.4C30.8,40.5,29.9,40.5,29.1,40.5z
			 M19.9,39.9c0,1.3,0.4,2.4,1.1,3.5c0.2,0.2,0.3,0.3,0.5,0c1.1-1.1,2.2-2.2,3.3-3.3c0.2-0.2,0.2-0.3,0-0.5
			c-1.1-1.1-2.2-2.2-3.3-3.3c-0.2-0.2-0.3-0.2-0.5,0.1C20.3,37.4,19.9,38.6,19.9,39.9z M26,33.8c-1.3,0-2.5,0.4-3.5,1.1
			c-0.2,0.2-0.2,0.3,0,0.5c1.1,1.1,2.2,2.2,3.3,3.3c0.2,0.2,0.3,0.2,0.5,0c1.1-1.1,2.2-2.2,3.3-3.3c0.2-0.2,0.2-0.3-0.1-0.5
			C28.4,34.1,27.2,33.8,26,33.8z M27.6,39.2c1.5,0,2.8,0,4.2,0c0.3,0,0.2-0.2,0.2-0.3c-0.2-0.9-0.5-1.8-1.1-2.6
			c-0.1-0.2-0.2-0.2-0.4,0C29.6,37.2,28.6,38.1,27.6,39.2z"/>
		<path d="M27.3,48.7c2.4,0,4.7,0,7.1,0c0.3,0,0.4,0.1,0.4,0.4c0,1,0,1-1,1c-4.5,0-9,0-13.5,0c-0.3,0-0.4-0.1-0.4-0.4
			c0-0.9,0-0.9,0.9-0.9C23,48.7,25.1,48.7,27.3,48.7z"/>
		<path d="M28.7,51.4c1.9,0,3.8,0,5.7,0c0.3,0,0.4,0.1,0.4,0.4c0,1,0,1-1,1c-3.6,0-7.2,0-10.8,0c-0.3,0-0.4-0.1-0.4-0.4
			c0-0.9,0-0.9,0.9-0.9C25.2,51.4,27,51.4,28.7,51.4z"/>
		<path d="M19.2,52.7c-0.6,0-1.2,0-1.7,0c-0.2,0-0.3-0.1-0.3-0.3c0-1.1,0-1.1,1-1.1c0.9,0,1.8,0,2.7,0c0.2,0,0.3,0.1,0.3,0.3
			c0,1.1,0,1.1-1,1.1C19.9,52.7,19.5,52.7,19.2,52.7z"/>
		<path d="M17.2,49.3c0-0.6,0-0.6,0.7-0.6c0.7,0,0.7,0,0.7,0.7c0,0.7,0,0.7-0.7,0.7C17.2,50,17.2,50,17.2,49.3z"/>
		<path class="st4" d="M52.3,20.6c-0.2,0.7-0.5,1.4-0.7,2.1c-0.1,0.2-0.2,0.3-0.4,0.3c-0.6,0-1.2,0-1.7,0c-0.2,0-0.3-0.1-0.4-0.3
			c-0.2-0.7-0.5-1.4-0.8-2.1c0,1.1,0,2.2,0,3.4c0,0.3-0.1,0.4-0.4,0.4c-1,0-1,0-1-1c0-1.8,0-3.6,0-5.4c0-0.3,0.1-0.4,0.4-0.4
			c0.4,0,0.8,0,1.1,0c0.3,0,0.4,0.1,0.5,0.3c0.4,1.1,0.7,2.2,1.1,3.3c0.1,0.2,0,0.4,0.3,0.4c0.3,0,0.3-0.3,0.3-0.4
			c0.4-1.1,0.8-2.2,1.1-3.3c0.1-0.3,0.2-0.4,0.5-0.4c0.4,0,0.8,0,1.2,0c0.2,0,0.3,0.1,0.3,0.3c0,2.1,0,4.2,0,6.3
			c0,0.2-0.1,0.3-0.3,0.3c-1.1,0-1.1,0.1-1.1-1C52.4,22.4,52.4,21.5,52.3,20.6C52.3,20.6,52.3,20.6,52.3,20.6z"/>
		<path class="st4" d="M40.2,20.9c0-1,0-2,0-3c0-0.3,0.1-0.3,0.3-0.3c1,0,2,0,3,0c0.8,0,1.4,0.3,1.8,1.1c0.4,0.7,0.3,1.4-0.1,2.1
			c-0.1,0.2-0.1,0.3,0,0.4c0.3,0.4,0.4,0.8,0.4,1.2c0,0.6,0,1.1,0,1.7c0,0.2,0,0.3-0.3,0.3c-1.1,0-1.1,0-1.1-1c0-0.3,0-0.6,0-0.9
			c0-0.5-0.3-0.7-0.7-0.7c-0.6,0-1.1,0-1.7,0c-0.3,0-0.3,0.1-0.3,0.3c0,0.7,0,1.4,0,2.1c0,0.2-0.1,0.3-0.3,0.3c-1.1,0-1.1,0-1.1-1
			C40.2,22.5,40.2,21.7,40.2,20.9z M42.7,20.2c0.3,0,0.6,0,0.9,0c0.4,0,0.7-0.3,0.7-0.7c0-0.4-0.3-0.6-0.7-0.7c-0.6,0-1.2,0-1.8,0
			c-0.2,0-0.2,0.1-0.2,0.2C41.5,20.2,41.5,20.2,42.7,20.2C42.6,20.2,42.6,20.2,42.7,20.2z"/>
		<path class="st6" d="M34.8,20.9c0,0.2,0,0.5,0,0.7c0,0.7,0.5,1.3,1.2,1.3c0.7,0.1,1.3-0.3,1.5-1c0.1-0.3,0.2-0.4,0.5-0.4
			c0.1,0,0.3,0,0.4,0c0.6,0,0.6,0,0.5,0.6c-0.3,1.3-1.5,2.2-2.9,2.1c-1.3-0.1-2.4-1.2-2.5-2.6c0-0.7-0.1-1.4,0.1-2.1
			c0.3-1.3,1.5-2.2,2.8-2.1c1.3,0.1,2.4,1.1,2.5,2.4c0,0.2,0,0.4-0.3,0.3c-0.1,0-0.3,0-0.4,0c-0.4,0-0.7,0-0.8-0.5
			c-0.1-0.6-0.9-0.9-1.5-0.8c-0.6,0.1-1.1,0.6-1.1,1.3C34.8,20.4,34.8,20.6,34.8,20.9C34.8,20.9,34.8,20.9,34.8,20.9z"/>
		<path d="M23.9,27.7c0,0.7,0,0.7-0.7,0.7c-0.7,0-0.7,0-0.7-0.7c0-0.7,0-0.7,0.7-0.7C23.9,27,23.9,27,23.9,27.7z"/>
		<path d="M20.6,27c0.6,0,0.6,0,0.6,0.7c0,0.7,0,0.7-0.7,0.7c-0.6,0-0.6,0-0.6-0.7C19.9,27,19.9,27,20.6,27z"/>
		<path d="M17.8,28.3c-0.6,0-0.6,0-0.6-0.6c0-0.7,0-0.7,0.7-0.7c0.6,0,0.6,0,0.6,0.6C18.5,28.3,18.5,28.3,17.8,28.3z"/>
		<path class="st7" d="M43.6,48.7c1.7,0,3.4,0,5.2,0c0.7,0,0.9,0.2,0.9,0.9c0,0.4,0,0.7,0,1.1c0,0.5-0.3,0.8-0.8,0.8
			c-3.6,0-7.1,0-10.7,0c-0.5,0-0.7-0.3-0.7-0.7c0-0.4,0-0.8,0-1.2c0-0.5,0.3-0.8,0.8-0.8C40.1,48.7,41.8,48.7,43.6,48.7z"/>
		<path class="st7" d="M43.6,44.6c-1.7,0-3.5,0-5.2,0c-0.7,0-0.9-0.2-0.9-0.9c0-0.4,0-0.7,0-1.1c0-0.5,0.3-0.8,0.7-0.8
			c3.6,0,7.1,0,10.7,0c0.5,0,0.7,0.3,0.7,0.8c0,0.4,0,0.8,0,1.1c0,0.5-0.3,0.8-0.8,0.8C47.1,44.6,45.3,44.6,43.6,44.6z"/>
		<path class="st7" d="M43.6,35.1c1.7,0,3.4,0,5.2,0c0.7,0,0.9,0.2,0.9,0.9c0,0.4,0,0.7,0,1.1c0,0.5-0.3,0.8-0.7,0.8
			c-3.6,0-7.1,0-10.7,0c-0.5,0-0.7-0.3-0.7-0.7c0-0.4,0-0.8,0-1.2c0-0.5,0.3-0.8,0.8-0.8C40.1,35.1,41.8,35.1,43.6,35.1z"/>
		<path class="st8" d="M43.6,39.2c1.2,0,2.4,0,3.7,0c0.3,0,0.4,0.1,0.4,0.3c0,1,0,1-1,1c-2.3,0-4.5,0-6.8,0c-0.3,0-0.4-0.1-0.4-0.4
			c0-1,0-1,1-1C41.5,39.2,42.6,39.2,43.6,39.2z"/>
		<path class="st8" d="M43.6,45.9c1.2,0,2.5,0,3.7,0c0.3,0,0.4,0,0.4,0.3c0,1,0,1-1,1c-2.2,0-4.5,0-6.7,0c-0.3,0-0.4-0.1-0.4-0.4
			c0-1,0-1,1-1C41.5,45.9,42.5,45.9,43.6,45.9z"/>
		<path class="st9" d="M29.1,40.5c0.8,0,1.7,0,2.5,0c0.3,0,0.4,0.1,0.3,0.4c-0.4,2.4-2.6,4.6-5,5c-1.6,0.2-3.1-0.1-4.4-1
			c-0.3-0.2-0.4-0.3-0.1-0.6c1.2-1.2,2.4-2.4,3.6-3.6c0.2-0.2,0.3-0.2,0.6-0.2C27.4,40.5,28.3,40.5,29.1,40.5z"/>
		<path class="st10" d="M19.9,39.9c0-1.3,0.4-2.5,1.1-3.5c0.1-0.2,0.2-0.3,0.5-0.1c1.1,1.1,2.2,2.2,3.3,3.3c0.2,0.2,0.2,0.3,0,0.5
			c-1.1,1.1-2.2,2.2-3.3,3.3c-0.2,0.2-0.3,0.2-0.5,0C20.3,42.3,19.9,41.1,19.9,39.9z"/>
		<path class="st11" d="M26,33.8c1.3,0,2.4,0.4,3.5,1.1c0.2,0.2,0.3,0.3,0.1,0.5c-1.1,1.1-2.2,2.2-3.3,3.3c-0.2,0.2-0.3,0.2-0.5,0
			c-1.1-1.1-2.2-2.2-3.3-3.3c-0.2-0.2-0.2-0.3,0-0.5C23.5,34.2,24.7,33.8,26,33.8z"/>
		<path class="st12" d="M27.6,39.2c1-1,2-2,2.9-2.9c0.2-0.2,0.2-0.1,0.4,0c0.6,0.8,0.9,1.6,1.1,2.6c0,0.2,0.1,0.3-0.2,0.3
			C30.4,39.2,29.1,39.2,27.6,39.2z"/>
		<path class="st2" d="M42.7,20.2C42.6,20.2,42.6,20.2,42.7,20.2c-1.2,0-1.2,0-1.1-1.1c0-0.2,0.1-0.2,0.2-0.2c0.6,0,1.2,0,1.8,0
			c0.4,0,0.7,0.3,0.7,0.7c0,0.4-0.3,0.7-0.7,0.7C43.2,20.2,43,20.2,42.7,20.2z"/>
	</g>
</g>
</svg>
