<?xml version="1.0" encoding="utf-8"?>
<!-- Generator: Adobe Illustrator 21.0.1, SVG Export Plug-In . SVG Version: 6.00 Build 0)  -->
<svg version="1.1" id="Layer_1" xmlns="http://www.w3.org/2000/svg" xmlns:xlink="http://www.w3.org/1999/xlink" x="0px" y="0px"
	 viewBox="0 0 70.9 70.9" style="enable-background:new 0 0 70.9 70.9;" xml:space="preserve">
<style type="text/css">
	.st0{fill:#E1F3F5;}
	.st1{fill:#FDE9A6;}
	.st2{fill:#E5E8EC;}
	.st3{fill:#EECFB3;}
	.st4{fill:#FE816E;}
	.st5{fill:#5DD5B3;}
	.st6{fill:#FBD670;}
	.st7{fill:#E3E6EA;}
	.st8{fill:#F27C68;}
	.st9{fill:#010101;}
	.st10{fill:#030302;}
	.st11{fill:#F9D470;}
	.st12{fill:#4EC0E6;}
</style>
<title>feature-7</title>
<circle class="st0" cx="35.4" cy="35.4" r="35.4"/>
<g>
	<path d="M34.6,56.1c-5.8,0-11.7,0-17.5,0c-1.5,0-2.3-0.8-2.3-2.3c0-10.5,0-21,0-31.5c0-1.5,0.8-2.3,2.3-2.3c5.3,0,10.6,0,16,0
		c0.4,0,0.5-0.1,0.5-0.4c0-0.9,0-1.9,0-2.8c0-1.2,0.9-2.1,2.1-2.1c6.2,0,12.3,0,18.5,0c1.2,0,2.1,0.9,2.1,2.1c0,5.7,0,11.4,0,17.2
		c0,0.8-0.4,1.4-1.1,1.8c-0.2,0.1-0.3,0.2-0.3,0.4c0,1.3,0,2.6,0,4c0,2.5-0.6,4.9-1.8,7c-0.1,0.2-0.2,0.4-0.2,0.7c0,2.6,0,5.1,0,7.7
		c0,0.4-0.1,0.5-0.5,0.5C46.4,56.1,40.5,56.1,34.6,56.1z M54.6,34.5c0.2-0.2,0.2-0.5,0.2-0.7c0-5.6,0-11.2,0-16.7c0-0.8-0.2-1-1-1
		c-6,0-12,0-18,0c-0.8,0-1,0.2-1,1c0,5.6,0,11.1,0,16.7c0,0.1,0,0.2,0,0.3c0,0.4,0.3,0.7,0.7,0.7c0.6,0,1.2,0,1.7,0
		c0.2,0,0.2-0.1,0.2-0.2c0-0.4,0-0.7,0-1.1c0-0.8,0.6-1.4,1.4-1.4c1.1,0,2.1,0.8,2.5,1.9c0.1,0.3,0,0.6,0.2,0.8c0.2,0.1,0.6,0,0.9,0
		c0.3,0,0.4-0.1,0.4-0.4c0-1.8,0-3.7,0-5.5c0-0.8,0.4-1.5,1.1-1.9c0.2-0.1,0.2-0.2,0.2-0.4c0-1.2,0-2.4,0-3.7c0-0.2-0.1-0.3-0.3-0.4
		c-0.7-0.3-1-0.9-1.1-1.7c-0.1-1,0.6-1.9,1.6-2.1c0.9-0.2,1.9,0.4,2.2,1.3c0.3,0.9,0,1.9-0.9,2.4c-0.2,0.1-0.3,0.2-0.3,0.5
		c0,1.2,0,2.4,0,3.6c0,0.2,0.1,0.3,0.3,0.4c0.7,0.4,1.1,1,1.1,1.8c0,0.7,0,1.4,0,2c1.4-0.2,1.8,0,2.5,1.2c0.1,0.1,0.2,0.1,0.3,0.1
		c1-0.3,2.1,0.3,2.4,1.2c0,0.1,0.1,0.2,0.3,0.2C53.2,33.3,54,33.7,54.6,34.5z M16.1,41.9c0,4,0,8,0,12c0,0.7,0.2,0.9,0.9,0.9
		c7.6,0,15.2,0,22.7,0c0.3,0,0.4-0.1,0.4-0.4c0-2,0-4.1,0-6.1c0-0.4-0.1-0.7-0.3-1.1c-0.3-0.4-0.6-0.9-0.8-1.4
		c-0.1-0.3-0.3-0.4-0.6-0.4c-2.8,0-5.6,0-8.5,0c-0.3,0-0.4,0-0.4-0.4c0-1.1,0-2.1,0-3.2c0-0.3,0.1-0.4,0.4-0.4c2.3,0,4.5,0,6.8,0
		c0.9,0,0.9,0,0.8-0.9c0-0.4-0.2-0.4-0.5-0.4c-6.4,0-12.7,0-19.1,0c-0.4,0-0.5-0.1-0.5-0.5c0-2.8,0-5.6,0-8.5c0-0.4,0.1-0.4,0.4-0.4
		c4.9,0,9.7,0,14.6,0c1,0,0.9,0,1-1c0-0.3-0.1-0.4-0.4-0.4c-5.5,0-11,0-16.5,0c-0.4,0-0.4,0.1-0.4,0.4
		C16.1,33.9,16.1,37.9,16.1,41.9z M45.4,34c0-1.5,0-3,0-4.5c0-0.2,0-0.4,0-0.6c0-0.5-0.3-0.7-0.7-0.8c-0.4,0-0.7,0.3-0.7,0.7
		c0,0.1,0,0.2,0,0.3c0,3.1,0,6.2,0,9.4c0,0.2,0,0.4,0,0.6c-0.2,1-1.1,1.8-2.2,1.7c-1-0.1-1.8-0.9-1.8-2c0-1.3,0-2.6,0-4
		c0-0.7-0.4-1.2-1-1.3c-0.3-0.1-0.4,0-0.4,0.3c0,2.1,0,4.3,0,6.4c0,2.3,0.8,4.5,2.1,6.4c0.1,0.2,0.2,0.2,0.4,0.2c3.4,0,6.7,0,10.1,0
		c0.2,0,0.3,0,0.4-0.2c0.8-1.6,1.4-3.2,1.5-4.9c0.2-2,0-4,0.1-6c0-0.5-0.2-0.8-0.6-0.8c-0.4,0-0.7,0.3-0.7,0.8c0,1,0,1.9,0,2.9
		c0,1,0,1-1,1c-0.3,0-0.4-0.1-0.4-0.4c0-1.6,0-3.2,0-4.8c0-0.5-0.2-0.8-0.7-0.8c-0.4,0-0.7,0.3-0.7,0.9c0,1.4,0,2.7,0,4.1
		c0,1,0,1-1,1c-0.3,0-0.3-0.1-0.3-0.3c0-1.3,0-2.7,0-4c0-0.7,0-1.5,0-2.2c0-0.5-0.3-0.8-0.7-0.8c-0.4,0-0.7,0.3-0.7,0.8
		c0,0.1,0,0.2,0,0.2c0,1.8,0,3.6,0,5.3c0,0.9,0,0.9-0.9,0.9c-0.4,0-0.4-0.1-0.4-0.4C45.4,37.3,45.4,35.7,45.4,34z M28.1,38.8
		c0.6,0,1.1,0,1.7,0c2.4,0,4.8,0,7.2,0c0.4,0,0.4-0.1,0.4-0.4c0-0.6,0-1.2,0-1.9c0-0.3-0.1-0.4-0.4-0.4c-0.6,0-1.1,0-1.7,0
		c-1.1,0-2-0.9-2-2c0-0.6,0-1.1,0-1.7c0-0.3-0.1-0.3-0.3-0.3c-4.7,0-9.3,0-14,0c-0.3,0-0.3,0.1-0.3,0.3c0,2,0,4,0,6
		c0,0.3,0.1,0.4,0.4,0.4C22.1,38.8,25.1,38.8,28.1,38.8z M24.8,28.1c2.8,0,5.5,0,8.3,0c0.3,0,0.4,0,0.4-0.3c0-2,0-4,0-6
		c0-0.3-0.1-0.3-0.4-0.3c-5.4,0-10.8,0-16.2,0c-0.6,0-0.8,0.2-0.8,0.8c0,1.8,0,3.6,0,5.5c0,0.3,0.1,0.4,0.4,0.4
		C19.3,28.1,22,28.1,24.8,28.1z M46.4,48.1c-1.6,0-3.1,0-4.7,0c-0.3,0-0.3,0.1-0.3,0.3c0,2,0,4,0,6c0,0.3,0.1,0.3,0.3,0.3
		c3.1,0,6.2,0,9.3,0c0.3,0,0.3-0.1,0.3-0.3c0-2,0-4,0-6c0-0.3-0.1-0.3-0.3-0.3C49.5,48.1,48,48.1,46.4,48.1z M34.5,44.1
		c0.9,0,1.7,0,2.6,0c0.3,0,0.8,0.2,1-0.1c0.2-0.2-0.2-0.6-0.2-0.9c0-0.3-0.2-0.3-0.4-0.3c-1.9,0-3.8,0-5.7,0c-1,0-1,0-1,1
		c0,0.3,0.1,0.3,0.3,0.3C32.2,44.1,33.4,44.1,34.5,44.1z M41.4,37.5c0,0.4,0,0.8,0,1.1c0,0.5,0.3,0.8,0.7,0.8c0.4,0,0.6-0.3,0.6-0.8
		c0-0.5,0-1,0-1.5c0-1.1,0-1.1-1.1-1c-0.2,0-0.3,0-0.3,0.3C41.5,36.8,41.4,37.1,41.4,37.5z M44.8,20.1c-0.4,0-0.7,0.3-0.7,0.7
		c0,0.4,0.3,0.7,0.6,0.7c0.4,0,0.7-0.3,0.7-0.7C45.4,20.4,45.1,20.1,44.8,20.1z"/>
	<path class="st1" d="M54.6,34.5c-0.6-0.9-1.3-1.3-2.4-1c-0.2,0-0.2,0-0.3-0.2c-0.3-0.9-1.4-1.5-2.4-1.2c-0.1,0-0.2,0-0.3-0.1
		c-0.8-1.2-1.1-1.4-2.5-1.2c0-0.7,0-1.4,0-2c0-0.8-0.4-1.4-1.1-1.8c-0.2-0.1-0.3-0.2-0.3-0.4c0-1.2,0-2.4,0-3.6
		c0-0.3,0.1-0.4,0.3-0.5c0.9-0.5,1.2-1.5,0.9-2.4c-0.3-0.9-1.3-1.5-2.2-1.3c-1,0.2-1.7,1.1-1.6,2.1c0,0.7,0.4,1.3,1.1,1.7
		c0.2,0.1,0.3,0.2,0.3,0.4c0,1.2,0,2.4,0,3.7c0,0.2,0,0.3-0.2,0.4c-0.7,0.4-1.1,1-1.1,1.9c0,1.8,0,3.7,0,5.5c0,0.3-0.1,0.4-0.4,0.4
		c-0.3,0-0.6,0.1-0.9,0c-0.3-0.1-0.1-0.5-0.2-0.8c-0.4-1.1-1.3-1.8-2.5-1.9c-0.8,0-1.4,0.5-1.4,1.4c0,0.4,0,0.7,0,1.1
		c0,0.2-0.1,0.2-0.2,0.2c-0.6,0-1.2,0-1.7,0c-0.4,0-0.7-0.3-0.7-0.7c0-0.1,0-0.2,0-0.3c0-5.6,0-11.1,0-16.7c0-0.8,0.2-1,1-1
		c6,0,12,0,18,0c0.8,0,1,0.2,1,1c0,5.6,0,11.2,0,16.7C54.8,34.1,54.8,34.3,54.6,34.5z M50.8,27.4c0,0.8,0,1.6,0,2.5c0,1,0,1,1,1
		c0.3,0,0.4-0.1,0.4-0.4c0-2,0-4.1,0-6.1c0-0.2,0.1-0.4,0.3-0.5c1.3-0.7,1.5-2.4,0.3-3.2c-0.6-0.4-0.7-0.8-0.6-1.4
		c0-0.1,0-0.2,0-0.2c0-0.2,0-0.2-0.2-0.2c-1.1-0.1-1.1-0.1-1.1,1c0,0.1,0,0.1,0,0.2c0,0.2-0.1,0.3-0.2,0.4c-0.7,0.4-1.1,1-1.1,1.7
		c0,0.8,0.4,1.4,1.1,1.8c0.2,0.1,0.2,0.2,0.2,0.4C50.8,25.3,50.8,26.3,50.8,27.4z M38.8,20.9c0-0.4,0-0.7,0-1.1c0-1,0-1-1-1
		c-0.3,0-0.3,0.1-0.3,0.3c0,1.2,0,2.3,0,3.5c0,0.2,0,0.4-0.3,0.5c-0.7,0.4-1.1,1-1.1,1.8c0,0.8,0.4,1.4,1.1,1.7
		c0.2,0.1,0.3,0.2,0.3,0.4c0,0.9,0,1.9,0,2.8c0,1,0,1,1,1c0.3,0,0.3-0.1,0.3-0.3c0-1.2,0-2.3,0-3.5c0-0.2,0-0.4,0.3-0.5
		c0.7-0.4,1.1-1,1.1-1.8c0-0.8-0.4-1.4-1.1-1.7c-0.2-0.1-0.3-0.2-0.3-0.4C38.8,22,38.8,21.4,38.8,20.9z"/>
	<path class="st2" d="M16.1,41.9c0-4,0-8,0-12c0-0.3,0.1-0.4,0.4-0.4c5.5,0,11,0,16.5,0c0.3,0,0.4,0,0.4,0.4c0,1,0,1-1,1
		c-4.9,0-9.7,0-14.6,0c-0.3,0-0.4,0.1-0.4,0.4c0,2.8,0,5.6,0,8.5c0,0.4,0.1,0.5,0.5,0.5c6.4,0,12.7,0,19.1,0c0.3,0,0.5,0,0.5,0.4
		c0,0.9,0.1,0.9-0.8,0.9c-2.3,0-4.5,0-6.8,0c-0.4,0-0.4,0.1-0.4,0.4c0,1.1,0,2.1,0,3.2c0,0.4,0.1,0.4,0.4,0.4c2.8,0,5.6,0,8.5,0
		c0.3,0,0.5,0.1,0.6,0.4c0.2,0.5,0.5,1,0.8,1.4c0.3,0.3,0.3,0.7,0.3,1.1c0,2,0,4.1,0,6.1c0,0.3-0.1,0.4-0.4,0.4
		c-7.6,0-15.2,0-22.7,0c-0.7,0-0.9-0.2-0.9-0.9C16.1,49.9,16.1,45.9,16.1,41.9z M22.1,42.8c-2.6,0-4.7,2.1-4.7,4.7
		c0,2.6,2.1,4.7,4.7,4.7c2.6,0,4.7-2.1,4.7-4.7C26.8,44.9,24.7,42.8,22.1,42.8z M34.1,50.8c1.2,0,2.5,0,3.7,0c0.9,0,0.9,0,1-0.9
		c0-0.3-0.1-0.4-0.4-0.4c-2.7,0-5.3,0-8,0c-1,0-0.9,0-1,1c0,0.3,0.1,0.4,0.4,0.4C31.2,50.8,32.6,50.8,34.1,50.8z M36.1,53.4
		c0.6,0,1.1,0,1.7,0c1,0,1,0,1-1c0-0.3-0.1-0.3-0.3-0.3c-1.3,0-2.7,0-4,0c-1,0-1,0-1,1c0,0.2,0.1,0.3,0.3,0.3
		C34.5,53.4,35.3,53.4,36.1,53.4z M36.1,48.1c0.6,0,1.1,0,1.7,0c1,0,1,0,1-1c0-0.3-0.1-0.3-0.3-0.3c-1.3,0-2.7,0-4,0c-1,0-1,0-1,1
		c0,0.2,0.1,0.3,0.3,0.3C34.5,48.1,35.3,48.1,36.1,48.1z M30.8,48.1c0.1,0,0.2,0,0.3,0c1.1,0,1.1,0,1-1.1c0,0,0,0,0,0
		c0-0.2,0-0.2-0.2-0.2c-0.7,0-1.5,0-2.2,0c-0.2,0-0.2,0-0.2,0.2c-0.1,1.1-0.1,1.1,1,1.1C30.5,48.1,30.7,48.1,30.8,48.1z M30.7,53.4
		c0.1,0,0.2,0,0.3,0c1.1,0,1.1,0,1-1.1c0-0.2,0-0.3-0.2-0.2c-0.7,0-1.5,0-2.2,0c-0.1,0-0.2,0-0.2,0.2c-0.1,1.1-0.1,1.2,1,1.2
		C30.5,53.4,30.6,53.4,30.7,53.4z"/>
	<path class="st3" d="M45.4,34c0,1.7,0,3.4,0,5c0,0.3,0,0.4,0.4,0.4c0.9,0,0.9,0,0.9-0.9c0-1.8,0-3.6,0-5.3c0-0.1,0-0.2,0-0.2
		c0-0.5,0.3-0.8,0.7-0.8c0.4,0,0.7,0.3,0.7,0.8c0,0.7,0,1.5,0,2.2c0,1.3,0,2.7,0,4c0,0.2,0,0.3,0.3,0.3c1,0,1,0,1-1
		c0-1.4,0-2.7,0-4.1c0-0.6,0.3-0.9,0.7-0.9c0.4,0,0.7,0.3,0.7,0.8c0,1.6,0,3.2,0,4.8c0,0.3,0.1,0.4,0.4,0.4c1,0,1,0,1-1
		c0-1,0-1.9,0-2.9c0-0.5,0.3-0.8,0.7-0.8c0.4,0,0.7,0.3,0.6,0.8c0,2,0.1,4-0.1,6c-0.2,1.7-0.7,3.4-1.5,4.9c-0.1,0.2-0.2,0.2-0.4,0.2
		c-3.4,0-6.7,0-10.1,0c-0.2,0-0.3-0.1-0.4-0.2c-1.3-1.9-2.1-4-2.1-6.4c0-2.1,0-4.3,0-6.4c0-0.3,0.1-0.4,0.4-0.3c0.6,0.2,1,0.7,1,1.3
		c0,1.3,0,2.6,0,4c0,1,0.8,1.9,1.8,2c1,0.1,2-0.6,2.2-1.7c0-0.2,0-0.4,0-0.6c0-3.1,0-6.2,0-9.4c0-0.1,0-0.2,0-0.3
		c0-0.5,0.3-0.7,0.7-0.7c0.4,0,0.6,0.3,0.7,0.8c0,0.2,0,0.4,0,0.6C45.4,31,45.4,32.5,45.4,34z"/>
	<path class="st4" d="M28.1,38.8c-3,0-6,0-9,0c-0.3,0-0.4-0.1-0.4-0.4c0-2,0-4,0-6c0-0.3,0.1-0.3,0.3-0.3c4.7,0,9.3,0,14,0
		c0.3,0,0.4,0.1,0.3,0.3c0,0.6,0,1.1,0,1.7c0,1.1,0.9,2,2,2c0.6,0,1.1,0,1.7,0c0.3,0,0.4,0.1,0.4,0.4c0,0.6,0,1.3,0,1.9
		c0,0.3-0.1,0.4-0.4,0.4c-2.4,0-4.8,0-7.2,0C29.3,38.8,28.7,38.8,28.1,38.8z"/>
	<path class="st5" d="M24.8,28.1c-2.8,0-5.5,0-8.3,0c-0.3,0-0.4-0.1-0.4-0.4c0-1.8,0-3.6,0-5.5c0-0.6,0.2-0.8,0.8-0.8
		c5.4,0,10.8,0,16.2,0c0.3,0,0.4,0,0.4,0.3c0,2,0,4,0,6c0,0.3-0.1,0.3-0.4,0.3C30.3,28.1,27.5,28.1,24.8,28.1z M19.4,22.8
		c-0.6,0-1.2,0-1.7,0c-0.2,0-0.3,0.1-0.3,0.3c0,1.2,0,2.3,0,3.5c0,0.2,0.1,0.3,0.3,0.3c1.2,0,2.3,0,3.5,0c0.2,0,0.3-0.1,0.3-0.3
		c0-1.2,0-2.3,0-3.5c0-0.2-0.1-0.3-0.3-0.3C20.6,22.8,20,22.8,19.4,22.8z M24.8,22.8c-0.6,0-1.1,0-1.7,0c-0.2,0-0.3,0-0.3,0.3
		c0,1.2,0,2.3,0,3.5c0,0.2,0.1,0.3,0.3,0.3c1.2,0,2.3,0,3.5,0c0.2,0,0.3-0.1,0.3-0.3c0-1.2,0-2.3,0-3.5c0-0.2-0.1-0.3-0.3-0.3
		C25.9,22.8,25.4,22.8,24.8,22.8z M32.1,24.8c0-0.6,0-1.1,0-1.7c0-0.2-0.1-0.3-0.3-0.3c-1.1,0-2.3,0-3.4,0c-0.2,0-0.3,0.1-0.3,0.3
		c0,1.1,0,2.3,0,3.4c0,0.2,0.1,0.3,0.3,0.3c1.1,0,2.3,0,3.4,0c0.2,0,0.3-0.1,0.3-0.3C32.1,25.9,32.1,25.3,32.1,24.8z"/>
	<path class="st4" d="M46.4,48.1c1.6,0,3.1,0,4.7,0c0.3,0,0.3,0.1,0.3,0.3c0,2,0,4,0,6c0,0.3-0.1,0.3-0.3,0.3c-3.1,0-6.2,0-9.3,0
		c-0.3,0-0.3-0.1-0.3-0.3c0-2,0-4,0-6c0-0.3,0.1-0.3,0.3-0.3C43.3,48.1,44.9,48.1,46.4,48.1z"/>
	<path class="st6" d="M34.5,44.1c-1.1,0-2.2,0-3.4,0c-0.3,0-0.3-0.1-0.3-0.3c0-1,0-1,1-1c1.9,0,3.8,0,5.7,0c0.3,0,0.4,0,0.4,0.3
		c0,0.3,0.4,0.7,0.2,0.9c-0.2,0.2-0.6,0.1-1,0.1C36.2,44.1,35.4,44.1,34.5,44.1z"/>
	<path class="st7" d="M41.4,37.5c0-0.4,0-0.8,0-1.2c0-0.2,0.1-0.3,0.3-0.3c1.1,0,1.1,0,1.1,1c0,0.5,0,1,0,1.5c0,0.5-0.3,0.8-0.6,0.8
		c-0.4,0-0.7-0.3-0.7-0.8C41.4,38.3,41.4,37.9,41.4,37.5z"/>
	<path class="st8" d="M44.8,20.1c0.4,0,0.7,0.3,0.7,0.7c0,0.4-0.3,0.7-0.7,0.7c-0.4,0-0.7-0.3-0.6-0.7
		C44.1,20.4,44.4,20.1,44.8,20.1z"/>
	<path class="st9" d="M50.8,27.4c0-1,0-2.1,0-3.1c0-0.2-0.1-0.3-0.2-0.4c-0.7-0.4-1.1-1-1.1-1.8c0-0.8,0.4-1.4,1.1-1.7
		c0.2-0.1,0.3-0.2,0.2-0.4c0-0.1,0-0.1,0-0.2c0-1.1,0-1.1,1.1-1c0.2,0,0.2,0.1,0.2,0.2c0,0.1,0,0.2,0,0.2c0,0.6,0,1,0.6,1.4
		c1.1,0.8,0.9,2.5-0.3,3.2c-0.2,0.1-0.3,0.2-0.3,0.5c0,2,0,4.1,0,6.1c0,0.3-0.1,0.4-0.4,0.4c-1,0-1,0-1-1
		C50.8,29,50.8,28.2,50.8,27.4z M51.4,21.4c-0.4,0-0.7,0.3-0.7,0.7c0,0.4,0.3,0.7,0.7,0.7c0.4,0,0.7-0.3,0.7-0.7
		C52.1,21.7,51.8,21.4,51.4,21.4z"/>
	<path class="st9" d="M38.8,20.9c0,0.6,0,1.1,0,1.7c0,0.2,0,0.3,0.3,0.4c0.7,0.4,1.1,1,1.1,1.7c0,0.8-0.4,1.4-1.1,1.8
		c-0.2,0.1-0.3,0.3-0.3,0.5c0,1.2,0,2.3,0,3.5c0,0.2,0,0.3-0.3,0.3c-1,0-1,0-1-1c0-0.9,0-1.9,0-2.8c0-0.2,0-0.3-0.3-0.4
		c-0.7-0.4-1.1-1-1.1-1.7c0-0.8,0.4-1.4,1.1-1.8c0.2-0.1,0.3-0.3,0.3-0.5c0-1.2,0-2.3,0-3.5c0-0.2,0-0.3,0.3-0.3c1,0,1,0,1,1
		C38.8,20.1,38.8,20.5,38.8,20.9z M38.8,24.8c0-0.4-0.3-0.7-0.6-0.7c-0.4,0-0.7,0.3-0.7,0.6c0,0.4,0.3,0.7,0.7,0.7
		C38.5,25.4,38.8,25.1,38.8,24.8z"/>
	<path class="st10" d="M22.1,42.8c2.6,0,4.7,2.1,4.7,4.6c0,2.6-2.1,4.7-4.7,4.7c-2.6,0-4.7-2.1-4.7-4.7
		C17.4,44.9,19.5,42.8,22.1,42.8z M23.9,48.1c-0.4,0-0.8,0-1.2,0c-0.1,0-0.3,0-0.4,0.1c-0.6,0.6-1.2,1.2-1.8,1.8
		c-0.2,0.2-0.1,0.2,0.1,0.3c1.8,1.1,4.3,0,4.8-2c0.1-0.2,0-0.2-0.2-0.2C24.7,48.1,24.3,48.1,23.9,48.1z M21.4,44.2
		c-1.9,0.3-3.5,2.7-2.2,4.9c0.1,0.2,0.2,0.1,0.3,0c0.6-0.6,1.2-1.2,1.8-1.8c0.1-0.1,0.1-0.2,0.1-0.3C21.4,46.1,21.4,45.1,21.4,44.2z
		 M24,46.8c0.4,0,0.8,0,1.2,0c0.2,0,0.3,0,0.2-0.3c-0.4-1.2-1.1-1.9-2.3-2.3c-0.2-0.1-0.3,0-0.3,0.2c0,0.4,0,0.7,0,1.1
		c0,0.4-0.1,0.9,0.1,1.2C23.1,47,23.6,46.7,24,46.8z"/>
	<path d="M34.1,50.8c-1.4,0-2.9,0-4.3,0c-0.3,0-0.4-0.1-0.4-0.4c0-1,0-1,1-1c2.7,0,5.3,0,8,0c0.3,0,0.4,0.1,0.4,0.4
		c0,0.9,0,0.9-1,0.9C36.6,50.8,35.3,50.8,34.1,50.8z"/>
	<path d="M36.1,53.4c-0.8,0-1.6,0-2.3,0c-0.2,0-0.3-0.1-0.3-0.3c0-1,0-1,1-1c1.3,0,2.7,0,4,0c0.3,0,0.3,0.1,0.3,0.3c0,1,0,1-1,1
		C37.2,53.4,36.6,53.4,36.1,53.4z"/>
	<path d="M36.1,48.1c-0.8,0-1.6,0-2.4,0c-0.2,0-0.3-0.1-0.3-0.3c0-1,0-1,1-1c1.3,0,2.7,0,4,0c0.3,0,0.3,0.1,0.3,0.3c0,1,0,1-1,1
		C37.2,48.1,36.7,48.1,36.1,48.1z"/>
	<path d="M30.8,48.1c-0.1,0-0.2,0-0.3,0c-1.1,0-1.1,0-1-1.1c0-0.2,0.1-0.2,0.2-0.2c0.7,0,1.5,0,2.2,0c0.2,0,0.2,0.1,0.2,0.2
		c0,0,0,0,0,0c0.1,1.1,0.1,1.1-1,1.1C31,48.1,30.9,48.1,30.8,48.1z"/>
	<path d="M30.7,53.4c-0.1,0-0.2,0-0.3,0c-1.1,0-1.1-0.1-1-1.2c0-0.2,0.1-0.2,0.2-0.2c0.7,0,1.5,0,2.2,0c0.2,0,0.2,0.1,0.2,0.2
		c0.1,1.1,0.1,1.1-1,1.1C31,53.4,30.8,53.4,30.7,53.4z"/>
	<path d="M19.4,22.8c0.6,0,1.2,0,1.7,0c0.2,0,0.3,0.1,0.3,0.3c0,1.2,0,2.3,0,3.5c0,0.2-0.1,0.3-0.3,0.3c-1.2,0-2.3,0-3.5,0
		c-0.2,0-0.3-0.1-0.3-0.3c0-1.2,0-2.3,0-3.5c0-0.2,0.1-0.3,0.3-0.3C18.3,22.8,18.9,22.8,19.4,22.8z M19.5,25.4c0.6,0,0.6,0,0.6-0.7
		c0-0.7,0-0.7-0.7-0.7c-0.6,0-0.6,0-0.6,0.7C18.8,25.4,18.8,25.4,19.5,25.4z"/>
	<path d="M24.8,22.8c0.6,0,1.2,0,1.7,0c0.2,0,0.3,0.1,0.3,0.3c0,1.2,0,2.3,0,3.5c0,0.2-0.1,0.3-0.3,0.3c-1.2,0-2.3,0-3.5,0
		c-0.2,0-0.3-0.1-0.3-0.3c0-1.2,0-2.3,0-3.5c0-0.2,0.1-0.3,0.3-0.3C23.6,22.8,24.2,22.8,24.8,22.8z M24.8,24.1c-0.7,0-0.7,0-0.7,0.7
		c0,0.7,0,0.7,0.7,0.7c0.7,0,0.7,0,0.7-0.7C25.4,24.1,25.4,24.1,24.8,24.1z"/>
	<path d="M32.1,24.8c0,0.6,0,1.1,0,1.7c0,0.2-0.1,0.3-0.3,0.3c-1.1,0-2.3,0-3.4,0c-0.2,0-0.3-0.1-0.3-0.3c0-1.1,0-2.3,0-3.4
		c0-0.2,0.1-0.3,0.3-0.3c1.1,0,2.3,0,3.4,0c0.2,0,0.3,0.1,0.3,0.3C32.1,23.6,32.1,24.2,32.1,24.8z M30.1,24.1c-0.7,0-0.7,0-0.7,0.7
		c0,0.6,0,0.6,0.6,0.6c0.7,0,0.7,0,0.7-0.7C30.8,24.1,30.8,24.1,30.1,24.1z"/>
	<path class="st8" d="M51.4,21.4c0.4,0,0.7,0.3,0.7,0.6c0,0.4-0.3,0.7-0.7,0.7c-0.4,0-0.7-0.3-0.7-0.7
		C50.8,21.7,51.1,21.4,51.4,21.4z"/>
	<path class="st8" d="M38.8,24.8c0,0.4-0.3,0.7-0.7,0.7c-0.4,0-0.7-0.3-0.7-0.7c0-0.4,0.3-0.6,0.7-0.6
		C38.5,24.1,38.8,24.4,38.8,24.8z"/>
	<path class="st11" d="M23.9,48.1c0.4,0,0.8,0,1.2,0c0.2,0,0.3,0,0.2,0.2c-0.5,2-3,3.1-4.8,2c-0.2-0.1-0.2-0.2-0.1-0.3
		c0.6-0.6,1.2-1.2,1.8-1.8c0.1-0.1,0.2-0.1,0.4-0.1C23,48.1,23.4,48.1,23.9,48.1z"/>
	<path class="st12" d="M21.4,44.2c0,0.9,0,1.9,0,2.8c0,0.1,0,0.2-0.1,0.3c-0.6,0.6-1.2,1.2-1.8,1.8c-0.1,0.1-0.2,0.1-0.3,0
		C18,46.9,19.5,44.5,21.4,44.2z"/>
	<path class="st4" d="M24,46.8c-0.3,0-0.9,0.2-1.1-0.1c-0.2-0.2-0.1-0.8-0.1-1.2c0-0.4,0-0.7,0-1.1c0-0.2,0-0.3,0.3-0.2
		c1.2,0.4,1.9,1.1,2.3,2.3c0.1,0.2,0,0.3-0.2,0.3C24.8,46.8,24.4,46.8,24,46.8z"/>
	<path class="st2" d="M19.5,25.4c-0.7,0-0.7,0-0.7-0.7c0-0.7,0-0.7,0.6-0.7c0.7,0,0.7,0,0.7,0.7C20.1,25.4,20.1,25.4,19.5,25.4z"/>
	<path class="st2" d="M24.8,24.1c0.7,0,0.7,0,0.7,0.7c0,0.7,0,0.7-0.7,0.7c-0.7,0-0.7,0-0.7-0.7C24.1,24.1,24.1,24.1,24.8,24.1z"/>
	<path class="st2" d="M30.1,24.1c0.6,0,0.6,0,0.6,0.6c0,0.7,0,0.7-0.7,0.7c-0.6,0-0.6,0-0.6-0.6C29.4,24.1,29.4,24.1,30.1,24.1z"/>
</g>
</svg>
