<svg xmlns="http://www.w3.org/2000/svg" viewBox="0 0 38.88 38.88"><title>real-estate</title><g id="Layer_2" data-name="Layer 2"><g id="Layer_1-2" data-name="Layer 1"><path d="M17.81,5.46A.82.82,0,0,1,18,4.25L21.86.36a.82.82,0,0,1,1.37,0L38.17,15.28a.79.79,0,0,1-.61,1.43H35.12c-.17,0-.27,0-.27.23,0,3.93,0,7.87,0,11.84a3,3,0,0,1,2.36.08A2.69,2.69,0,0,1,38,33.34c-1.47,1.33-3,2.55-4.62,3.75a8.73,8.73,0,0,1-3.23,1.5,10,10,0,0,1-2.4.29c-3.56,0-7.11,0-10.67,0a11.37,11.37,0,0,1-6.14-1.71L9.16,36.1c-.08.35,0,.66-.12,1a2.5,2.5,0,0,1-2.39,1.81c-1.92,0-3.85,0-5.77,0A.79.79,0,0,1,0,38Q0,29.59,0,21.2c0-.58.27-.89.85-.89,2,0,4-.07,6,0a2.41,2.41,0,0,1,2.23,2.31c0,.5,0,.5.54.5s.6,0,.6-.58c0-1.82,0-3.64,0-5.47,0-.36-.11-.43-.44-.42-.78,0-1.57,0-2.35,0a.78.78,0,0,1-.83-.47.81.81,0,0,1,.25-.92l6.58-6.57a.84.84,0,0,1,1.21-.14c.32.57.28.8-.19,1.27l-5,5c-.09.09-.22.16-.26.33.76,0,1.49,0,2.22,0a.82.82,0,0,0,.66-.27l9.64-9.64c.62-.62.93-.62,1.56,0L33,14.93c.1.1.18.26.36.26h2.55l-.25-.27L22.8,2.09c-.2-.2-.3-.2-.5,0C21.22,3.18,20.13,4.26,19,5.34A.81.81,0,0,1,17.81,5.46Zm4.51,31.9h5.43A8.21,8.21,0,0,0,31,36.72a9.14,9.14,0,0,0,2.23-1.4l3.62-2.94a1.17,1.17,0,0,0,.52-1.22,1.36,1.36,0,0,0-1-1,1.46,1.46,0,0,0-1.33.35l-4,3a2.14,2.14,0,0,1-1.33.45h-9a3.79,3.79,0,0,1-1.55-.3,21.44,21.44,0,0,1-3.3-2.05.7.7,0,0,1-.15-1,.76.76,0,0,1,1-.24,2.48,2.48,0,0,1,.33.19L19,31.92a2.8,2.8,0,0,0,1.56.51h9a.61.61,0,0,0,.64-.47,1,1,0,0,0-1-1.44c-1.86,0-3.72,0-5.58,0A3.45,3.45,0,0,1,21,29.43c-1.23-1.26-2.49-2.49-3.72-3.74a3.26,3.26,0,0,0-2.41-1c-1.78,0-3.57,0-5.35,0-.28,0-.36.07-.36.35q0,4.48,0,9a.48.48,0,0,0,.28.47c.8.47,1.6,1,2.4,1.44A9.78,9.78,0,0,0,17,37.36ZM17.54,24c0-1.9,0-3.72,0-5.54,0-.78.24-1,1-1h7.9c.9,0,1.12.21,1.12,1.12,0,3.38,0,6.76,0,10.14,0,.31.09.38.38.37.51,0,1,0,1.52,0a2.28,2.28,0,0,1,1.92,1.09,6.89,6.89,0,0,1,.39.87c.45-.34.87-.67,1.32-1a.56.56,0,0,0,.26-.53q0-4.71,0-9.42,0-1.54,0-3.08c0-.14,0-.29-.2-.26a1.15,1.15,0,0,1-1-.45q-4.65-4.66-9.31-9.32c-.24-.24-.35-.22-.58,0q-4.66,4.68-9.34,9.35a1.09,1.09,0,0,1-.93.41c-.2,0-.22.08-.22.24,0,2,0,4,0,6,0,.24.1.26.29.26.68,0,1.37,0,2,0A5.47,5.47,0,0,1,17.54,24Zm-16,5.62c0,2.48,0,5,0,7.44,0,.27.05.36.35.36,1.52,0,3,0,4.55,0,.83,0,1.19-.36,1.19-1.19,0-4.38,0-8.75,0-13.13a1.1,1.1,0,0,0-1.19-1.21c-1.52,0-3,0-4.55,0-.28,0-.36.06-.36.35C1.53,24.65,1.52,27.11,1.52,29.58ZM26,24c0-1.59,0-3.19,0-4.78,0-.21,0-.31-.27-.31q-3.23,0-6.45,0c-.22,0-.27.06-.27.27q0,3,0,6a.47.47,0,0,0,.14.37l3,3a1.63,1.63,0,0,0,1.23.5c.77,0,1.54,0,2.31,0,.25,0,.31-.07.31-.32C26,27.13,26,25.56,26,24Z" style="fill:#070505"/><path d="M17.81,5.46A.81.81,0,0,0,19,5.34c1.09-1.08,2.17-2.16,3.25-3.25.2-.2.3-.2.5,0L35.63,14.92l.25.27H33.33c-.18,0-.25-.16-.36-.26L23.33,5.3c-.63-.63-.93-.63-1.56,0l-9.64,9.64a.82.82,0,0,1-.66.27c-.73,0-1.47,0-2.22,0,0-.17.17-.24.26-.33l5-5c.47-.47.5-.7.19-1.27l1-1a.89.89,0,0,0,.66.2c.62-.13.81-.7.41-1.31Z" style="fill:#567a85"/><path d="M16.78,6.48c.39.61.21,1.19-.41,1.31a.89.89,0,0,1-.66-.2c-.27-.46-.27-.78,0-1.07S16.31,6.23,16.78,6.48Z" style="fill:#150d0c"/><path d="M22.32,37.36H17a9.78,9.78,0,0,1-5.25-1.45c-.8-.49-1.59-1-2.4-1.44A.48.48,0,0,1,9.12,34q0-4.48,0-9c0-.29.08-.36.36-.35,1.78,0,3.57,0,5.35,0a3.26,3.26,0,0,1,2.41,1c1.23,1.25,2.49,2.48,3.72,3.74a3.45,3.45,0,0,0,2.64,1.1c1.86,0,3.72,0,5.58,0a1,1,0,0,1,1,1.44.61.61,0,0,1-.64.47h-9A2.8,2.8,0,0,1,19,31.92l-2.09-1.36a2.48,2.48,0,0,0-.33-.19.76.76,0,0,0-1,.24.7.7,0,0,0,.15,1,21.44,21.44,0,0,0,3.3,2.05,3.79,3.79,0,0,0,1.55.3h9a2.14,2.14,0,0,0,1.33-.45l4-3a1.46,1.46,0,0,1,1.33-.35,1.36,1.36,0,0,1,1,1,1.17,1.17,0,0,1-.52,1.22l-3.62,2.94A9.14,9.14,0,0,1,31,36.72a8.21,8.21,0,0,1-3.21.64Z" style="fill:#fcdbc5"/><path d="M17.54,24a5.47,5.47,0,0,0-3.43-.8c-.68,0-1.37,0-2,0-.19,0-.29,0-.29-.26,0-2,0-4,0-6,0-.16,0-.27.22-.24a1.09,1.09,0,0,0,.93-.41q4.67-4.67,9.34-9.35c.23-.23.34-.25.58,0q4.65,4.67,9.31,9.32a1.15,1.15,0,0,0,1,.45c.23,0,.2.12.2.26q0,1.54,0,3.08,0,4.71,0,9.42a.56.56,0,0,1-.26.53c-.45.31-.87.65-1.32,1a6.89,6.89,0,0,0-.39-.87A2.28,2.28,0,0,0,29.45,29c-.51,0-1,0-1.52,0-.29,0-.38-.06-.38-.37,0-3.38,0-6.76,0-10.14,0-.91-.21-1.12-1.12-1.12h-7.9c-.77,0-1,.25-1,1C17.54,20.24,17.54,22.06,17.54,24Zm2.05-11a3,3,0,1,0,3-2.94A3,3,0,0,0,19.59,13ZM30.07,25.21c0,.77,0,1.54,0,2.31a.77.77,0,1,0,1.52,0q0-2.27,0-4.55c0-.56-.29-.89-.76-.88s-.75.33-.76.89C30.07,23.72,30.07,24.46,30.07,25.21Zm.79-6a.76.76,0,0,0-.79.71.76.76,0,1,0,1.51.06A.76.76,0,0,0,30.86,19.19Z" style="fill:#fcd30e"/><path d="M1.52,29.58c0-2.47,0-4.93,0-7.4,0-.29.08-.35.36-.35,1.52,0,3,0,4.55,0A1.1,1.1,0,0,1,7.61,23c0,4.38,0,8.75,0,13.13,0,.83-.36,1.19-1.19,1.19-1.52,0-3,0-4.55,0-.29,0-.35-.08-.35-.36C1.52,34.53,1.52,32.06,1.52,29.58ZM5.32,34a.78.78,0,0,0-.74-.76.76.76,0,1,0,0,1.52A.77.77,0,0,0,5.32,34Z" style="fill:#f1572d"/><path d="M26,24c0,1.57,0,3.14,0,4.71,0,.24-.05.32-.31.32-.77,0-1.54,0-2.31,0a1.63,1.63,0,0,1-1.23-.5l-3-3a.47.47,0,0,1-.14-.37q0-3,0-6c0-.21,0-.28.27-.27q3.23,0,6.45,0c.26,0,.27.1.27.31C26,20.81,26,22.4,26,24Zm-6-.09a.74.74,0,0,0,.71.78.78.78,0,0,0,.8-.74.81.81,0,0,0-.74-.77A.78.78,0,0,0,20,23.9Z" style="fill:#fdfdfd"/><path d="M19.59,13a3,3,0,0,1,5.92,0,3,3,0,1,1-5.92,0Zm1.52,0a1.45,1.45,0,0,0,1.45,1.44A1.47,1.47,0,0,0,24,13a1.44,1.44,0,0,0-1.44-1.44A1.42,1.42,0,0,0,21.11,13Z" style="fill:#0a0a06"/><path d="M30.07,25.21c0-.75,0-1.49,0-2.24,0-.56.28-.89.76-.89s.76.33.76.88q0,2.27,0,4.55a.77.77,0,1,1-1.52,0C30.07,26.75,30.07,26,30.07,25.21Z" style="fill:#060503"/><path d="M30.86,19.19a.76.76,0,0,1,.73.77.76.76,0,1,1-1.51-.06A.76.76,0,0,1,30.86,19.19Z" style="fill:#121007"/><path d="M5.32,34a.77.77,0,0,1-.74.76.76.76,0,1,1,0-1.52A.78.78,0,0,1,5.32,34Z" style="fill:#0c0d13"/><path d="M20,23.9a.78.78,0,0,1,.77-.73.81.81,0,0,1,.74.77.78.78,0,0,1-.8.74A.74.74,0,0,1,20,23.9Z" style="fill:#101111"/><path d="M21.11,13a1.42,1.42,0,0,1,1.44-1.43A1.44,1.44,0,0,1,24,13a1.47,1.47,0,0,1-1.43,1.43A1.45,1.45,0,0,1,21.11,13Z" style="fill:#faf9f9"/></g></g></svg>