<svg width="112" height="112" viewBox="0 0 112 112" fill="none" xmlns="http://www.w3.org/2000/svg">
<path d="M55.921 111.842C86.8053 111.842 111.842 86.8053 111.842 55.921C111.842 25.0367 86.8053 0 55.921 0C25.0367 0 0 25.0367 0 55.921C0 86.8053 25.0367 111.842 55.921 111.842Z" fill="#E1F3F5"/>
<path d="M64.6091 47.2327C64.7671 46.6009 64.6091 45.811 64.7671 45.1791C65.5569 45.0212 65.7149 44.5473 65.7149 43.9154C65.7149 37.9126 65.7149 31.7518 65.7149 25.749C65.7149 24.9591 65.8729 24.8011 66.6627 24.8011C67.6105 24.8011 68.7163 24.8011 69.6641 24.8011C75.9829 24.8011 82.1437 24.8011 88.4624 24.8011C89.0943 24.8011 89.4103 25.1171 89.4103 25.749C89.4103 26.5388 89.4103 27.3287 89.4103 27.9605C89.4103 28.9083 89.5682 29.0663 90.516 29.2243C90.516 29.8562 90.516 30.646 90.516 31.2779C89.5682 31.4358 89.4103 31.7518 89.4103 32.6996C89.4103 45.6531 89.4103 58.7645 89.4103 71.7179C89.4103 72.6657 89.4103 72.6657 88.4624 72.6657C83.4074 72.6657 78.3524 72.6657 73.2974 72.6657C72.6655 72.6657 72.5076 72.5078 72.5076 71.8759C72.5076 66.5049 72.5076 60.976 72.5076 55.6051C72.5076 54.1834 71.5598 53.2356 70.296 53.2356C69.0323 53.3935 67.7685 53.2356 66.5048 53.2356C66.0308 53.2356 65.8729 53.0776 65.8729 52.6037C65.8729 51.182 65.8729 49.7602 65.8729 48.3385C65.7149 47.7066 65.399 47.3907 64.6091 47.2327ZM71.5598 46.6009C71.5598 45.811 71.5598 44.8632 71.5598 44.0734C71.7177 41.8618 69.9801 41.2299 68.2424 41.7038C67.4526 41.8618 67.1366 42.8096 67.7685 43.4415C68.0844 43.7574 68.4004 43.9154 68.8743 43.7574C69.5062 43.5995 69.5062 43.9154 69.5062 44.5473C69.5062 46.2849 69.5062 48.0226 69.5062 49.7602C69.5062 50.3921 69.9801 50.866 70.612 50.866C71.2438 50.866 71.7177 50.3921 71.7177 49.7602C71.5598 48.6545 71.5598 47.5487 71.5598 46.6009Z" fill="#5BBF90"/>
<path d="M64.6092 47.2328C65.3991 47.3908 65.715 47.7067 65.715 48.4966C65.715 49.9183 65.715 51.34 65.715 52.7617C65.715 53.2356 65.873 53.3936 66.3469 53.3936C67.6106 53.3936 68.8744 53.3936 70.1381 53.3936C71.4019 53.2356 72.3497 54.1834 72.3497 55.7631C72.3497 61.1341 72.3497 66.663 72.3497 72.0339C72.3497 72.6658 72.5077 72.8238 73.1396 72.8238C78.1946 72.8238 83.2496 72.8238 88.3046 72.8238C89.2524 72.8238 89.2524 72.8238 89.2524 71.876C89.2524 58.9225 89.2524 45.8111 89.2524 32.8576C89.2524 31.9098 89.5683 31.5939 90.3582 31.4359C91.148 31.7519 91.306 31.9098 91.306 32.8576C91.306 45.1792 91.306 57.3428 91.306 69.6644C91.306 70.6122 91.306 71.4021 91.306 72.3499C91.306 74.0875 90.2002 75.0354 88.4625 75.0354C83.4075 75.0354 78.1946 75.0354 73.1396 75.0354C72.1917 75.0354 72.1917 75.0353 72.1917 75.9832C72.1917 76.4571 72.1917 77.0889 72.1917 77.5629C72.1917 78.5107 72.1917 79.3005 72.9816 80.0904C74.2453 81.5121 73.7714 83.5657 72.0338 84.5135C66.8208 87.199 61.6078 89.8844 55.763 91.1482C53.7094 91.6221 51.6558 91.7801 49.6022 91.4641C48.6544 91.3062 48.4964 91.1482 48.3384 90.2004C48.4964 89.5685 48.9703 89.2526 49.6022 89.4105C51.1819 89.5685 52.7616 89.5685 54.3412 89.2526C60.1861 88.1468 65.3991 85.4613 70.6121 82.7758C71.086 82.4599 71.2439 81.828 71.086 81.5121C70.77 81.0382 70.2961 81.0382 69.8222 81.1961C67.7686 81.986 65.715 82.7758 63.5034 83.4077C59.2383 84.6715 54.9731 85.4613 50.55 85.4613C48.8123 85.4613 47.3906 84.1976 47.0747 82.6179C46.7587 80.8802 47.7066 79.1425 49.2862 78.5107C49.9181 78.1947 50.708 78.1947 51.4978 78.1947C52.1297 78.1947 52.7616 78.0368 53.2355 77.5629C53.3934 77.4049 53.5514 77.2469 53.5514 77.0889C53.5514 76.931 53.2355 76.931 53.0775 76.931C51.0239 76.615 48.9703 76.2991 46.9167 75.8252C44.8631 75.3513 43.1254 75.8252 41.5458 77.2469C40.7559 78.0368 39.6501 78.5107 38.5443 78.8266C36.4908 79.4585 34.4372 79.4585 32.3836 79.3005C31.7517 79.3005 31.4357 79.4585 31.5937 80.0904C31.5937 81.1961 31.5937 82.4599 31.5937 83.5657C31.5937 84.1976 31.4357 84.9874 31.7517 85.4613C32.0676 85.9352 33.0154 85.6193 33.6473 85.6193C35.5429 85.6193 37.4386 85.4613 39.4922 85.7772C41.8617 86.0932 43.9153 87.199 45.9689 88.3047C46.4428 88.6207 46.6008 89.0946 46.4428 89.7265C45.9689 90.3583 45.495 90.5163 44.8631 90.2004C43.2834 89.5685 41.7037 88.6207 40.124 88.3047C39.4922 88.1468 38.8603 87.9888 38.0704 87.9888C36.4908 87.9888 34.7531 87.9888 33.1734 87.9888C31.7517 87.9888 31.7517 87.9888 31.5937 89.4105C31.5937 89.7265 31.5937 90.0424 31.5937 90.3583C31.4357 91.4641 30.4879 92.096 29.5401 92.096C27.3286 92.096 24.959 92.096 22.7475 92.096C21.4837 92.096 20.5359 91.1482 20.5359 89.7265C20.5359 84.9874 20.5359 80.2483 20.5359 75.5093C20.5359 74.0875 21.4837 73.1397 22.7475 73.1397C24.959 73.1397 27.1706 73.1397 29.2242 73.1397C30.6459 73.1397 31.4357 74.0875 31.5937 75.5093C31.5937 75.9832 31.5937 76.615 31.5937 77.0889C31.5937 77.4049 31.7517 77.5629 32.0676 77.5629C33.4893 77.5629 34.7531 77.5629 36.1748 77.4049C36.6487 77.4049 36.6487 77.0889 36.6487 76.615C36.6487 69.6644 36.6487 62.7138 36.6487 55.7631C36.6487 54.6574 36.9647 54.1834 37.9125 53.8675C38.2284 53.7095 38.7023 53.7095 39.0183 53.7095C46.9167 53.7095 54.8152 53.7095 62.5556 53.7095C63.1875 53.7095 63.3455 53.5516 63.3455 52.9197C63.3455 51.498 63.3455 50.0763 63.3455 48.6545C63.5034 47.8647 63.8194 47.3908 64.6092 47.2328ZM42.8095 55.6052C41.7037 55.6052 40.7559 55.6052 39.6501 55.6052C39.0183 55.6052 38.8603 55.7631 38.8603 56.395C38.8603 62.8717 38.8603 69.3485 38.8603 75.8252C38.8603 75.9832 38.8603 76.1411 38.8603 76.615C40.282 75.8252 41.3878 74.5614 42.8095 74.0875C44.0733 73.7716 45.337 73.4557 46.6008 73.6136C49.4442 74.0875 52.2877 74.5614 55.1311 75.1933C55.9209 75.3513 56.2369 75.9832 56.2369 76.615C56.0789 77.7208 55.447 78.8266 54.4992 79.4585C53.3934 80.2483 52.2876 80.4063 51.0239 80.4063C50.0761 80.4063 49.4442 81.0382 49.4442 81.828C49.4442 82.6179 50.0761 83.2497 51.0239 83.2497C55.1311 83.0918 59.2383 82.4599 63.1875 81.1961C63.5034 81.0382 63.6614 81.0382 63.6614 80.5643C63.6614 72.3499 63.6614 64.2935 63.6614 56.0791C63.6614 55.6052 63.5034 55.6052 63.1875 55.6052C61.2919 55.6052 59.2383 55.6052 57.3427 55.6052C56.8687 55.6052 56.7108 55.7631 56.7108 56.237C56.7108 58.4486 56.7108 60.6602 56.7108 62.8717C56.7108 63.5036 56.5528 64.1355 55.9209 64.4514C55.2891 64.7674 54.6572 64.4514 54.1833 64.1355C53.3934 63.5036 52.6036 63.0297 51.9717 62.3978C51.6558 62.2399 51.4978 62.2399 51.1819 62.3978C50.392 63.0297 49.6022 63.6616 48.9703 64.1355C48.6544 64.2935 48.4964 64.6094 48.0225 64.6094C47.0747 64.7674 46.4428 64.1355 46.4428 63.0297C46.4428 60.8181 46.4428 58.4486 46.4428 56.237C46.4428 55.7631 46.2848 55.6052 45.9689 55.7631C44.7051 55.6052 43.7573 55.6052 42.8095 55.6052ZM65.715 80.2483C67.2947 79.7744 68.7164 79.1425 70.1381 78.6686C70.4541 78.5107 70.2961 78.3527 70.2961 78.1947C70.2961 70.7702 70.2961 63.3456 70.2961 55.9211C70.2961 55.4472 70.1381 55.4472 69.8222 55.4472C68.7164 55.4472 67.6106 55.4472 66.5049 55.4472C65.873 55.4472 65.715 55.6052 65.715 56.0791C65.715 61.292 65.715 66.505 65.715 71.718C65.715 74.7194 65.715 77.4049 65.715 80.2483ZM29.6981 82.3019C29.6981 80.0904 29.6981 77.8788 29.6981 75.5093C29.6981 75.0353 29.6981 74.8774 29.0662 74.8774C27.1706 74.8774 25.275 74.8774 23.2214 74.8774C22.7475 74.8774 22.7475 75.0354 22.7475 75.3513C22.7475 79.9324 22.7475 84.5135 22.7475 88.9366C22.7475 89.4105 22.9054 89.5685 23.3793 89.5685C25.275 89.5685 27.1706 89.5685 29.0662 89.5685C29.6981 89.5685 29.6981 89.4105 29.6981 88.9366C29.6981 86.883 29.6981 84.6715 29.6981 82.3019ZM54.3412 61.608C54.3412 59.7124 54.3412 57.8167 54.3412 55.9211C54.3412 55.6052 54.1833 55.4472 54.0253 55.4472C52.2877 55.4472 50.55 55.4472 48.6544 55.4472C48.3384 55.4472 48.3384 55.6052 48.3384 55.7631C48.3384 57.6588 48.3384 59.3964 48.3384 61.45C49.1283 60.8181 49.7601 60.3442 50.392 59.8703C51.0239 59.3964 51.6558 59.3964 52.4456 59.8703C52.9195 60.5022 53.5514 60.9761 54.3412 61.608Z" fill="#080707"/>
<path d="M46.6007 89.4104C46.7587 88.7785 46.6007 88.3046 46.1268 87.9887C44.0732 87.0409 42.0196 85.7771 39.6501 85.4612C37.7545 85.3032 35.8588 85.3032 33.8052 85.3032C33.1734 85.3032 32.2256 85.6191 31.9096 85.1452C31.5937 84.8293 31.7517 83.8815 31.7517 83.2496C31.7517 82.1438 31.7517 80.8801 31.7517 79.7743C31.7517 79.1424 31.9096 78.9845 32.5415 78.9845C34.5951 78.9845 36.6487 78.9845 38.7023 78.5105C39.8081 78.1946 40.7559 77.7207 41.7037 76.9309C43.2834 75.5091 45.021 75.0352 47.0746 75.5091C49.1282 75.983 51.1818 76.299 53.2354 76.6149C53.3934 76.6149 53.7093 76.6149 53.7093 76.7729C53.7093 76.9309 53.5514 77.0888 53.3934 77.2468C52.9195 77.7207 52.2876 77.8787 51.6557 77.8787C50.8659 77.8787 50.234 77.8787 49.4442 78.1946C47.8645 78.8265 46.9167 80.5641 47.2326 82.3018C47.5485 83.8815 48.9703 85.1452 50.7079 85.1452C55.1311 84.9873 59.3962 84.3554 63.6614 83.0916C65.715 82.4598 67.9265 81.6699 69.9801 80.8801C70.454 80.7221 70.928 80.7221 71.2439 81.196C71.5598 81.6699 71.4019 82.3018 70.77 82.4598C65.557 85.1452 60.344 87.8307 54.4992 88.9365C52.9195 89.2524 51.3398 89.4104 49.7601 89.0945C49.1282 89.0945 48.6543 89.2524 48.4964 89.8843C48.0225 89.8843 47.2326 89.7263 46.6007 89.4104Z" fill="#E1A66E"/>
<path d="M90.3581 29.2243C89.4103 29.0663 89.2524 28.9083 89.2524 27.9605C89.2524 27.1707 89.2524 26.3808 89.2524 25.749C89.2524 25.1171 89.0944 24.8011 88.3045 24.8011C81.9858 24.8011 75.825 24.8011 69.5062 24.8011C68.5584 24.8011 67.4526 24.8011 66.5048 24.8011C65.715 24.8011 65.557 24.9591 65.557 25.749C65.557 31.7518 65.557 37.9126 65.557 43.9154C65.557 44.7052 65.2411 45.1791 64.6092 45.1791C63.8194 45.0212 63.5034 44.7052 63.5034 43.9154C63.5034 37.7546 63.5034 31.5938 63.5034 25.433C63.5034 24.0113 64.6092 22.9055 66.0309 22.9055C73.6134 22.9055 81.038 22.9055 88.6205 22.9055C90.0422 22.9055 91.148 24.0113 91.148 25.433C91.148 26.3808 91.148 27.1707 91.148 28.1185C91.306 28.7504 90.99 29.0663 90.3581 29.2243Z" fill="#080707"/>
<path d="M71.5598 46.6008C71.5598 47.7066 71.5598 48.6544 71.5598 49.7602C71.5598 50.3921 71.0859 50.866 70.454 50.866C69.8221 50.866 69.3482 50.3921 69.3482 49.7602C69.3482 48.0225 69.3482 46.2849 69.3482 44.5472C69.3482 44.0733 69.1903 43.7574 68.7163 43.7574C68.4004 43.7574 67.9265 43.7574 67.6106 43.4414C66.9787 42.8096 67.2946 41.8618 68.0845 41.7038C69.8221 41.3878 71.5598 41.8618 71.4018 44.0733C71.5598 44.8632 71.5598 45.653 71.5598 46.6008Z" fill="#080707"/>
<path d="M42.8096 55.6051C43.7574 55.6051 44.5473 55.6051 45.4951 55.6051C45.969 55.6051 45.969 55.7631 45.969 56.079C45.969 58.2906 45.969 60.6601 45.969 62.8717C45.969 63.9775 46.6009 64.6093 47.5487 64.4514C47.8646 64.4514 48.1805 64.1354 48.4965 63.9775C49.2863 63.3456 50.0762 62.8717 50.708 62.2398C51.024 62.0818 51.182 62.0818 51.4979 62.2398C52.2877 62.8717 53.0776 63.5036 53.7095 63.9775C54.1834 64.4514 54.8152 64.6093 55.4471 64.2934C56.079 63.9775 56.237 63.3456 56.237 62.7137C56.237 60.5022 56.237 58.2906 56.237 56.079C56.237 55.4471 56.3949 55.4471 56.8688 55.4471C58.7645 55.4471 60.8181 55.4471 62.7137 55.4471C63.1876 55.4471 63.1876 55.4471 63.1876 55.9211C63.1876 64.1354 63.1876 72.1919 63.1876 80.4062C63.1876 80.7222 63.0296 80.8801 62.7137 81.0381C58.7645 82.1439 54.6573 82.9337 50.5501 83.0917C49.6023 83.0917 48.9704 82.6178 48.9704 81.67C48.9704 80.7222 49.6023 80.2483 50.5501 80.2483C51.8138 80.2483 53.0776 80.0903 54.0254 79.3005C54.9732 78.5106 55.6051 77.5628 55.7631 76.457C55.921 75.8251 55.4471 75.1933 54.6573 75.0353C51.8138 74.5614 48.9704 73.9295 46.127 73.4556C44.8632 73.2976 43.5994 73.4556 42.3357 73.9295C42.8096 67.7687 42.8096 61.7659 42.8096 55.6051Z" fill="#FFDC80"/>
<path d="M65.7151 80.2482C65.7151 77.4048 65.7151 74.7193 65.7151 71.8759C65.7151 66.6629 65.7151 61.4499 65.7151 56.2369C65.7151 55.6051 65.8731 55.4471 66.5049 55.6051C67.6107 55.6051 68.7165 55.6051 69.8223 55.6051C70.1382 55.6051 70.2962 55.6051 70.2962 56.079C70.2962 63.5035 70.2962 70.928 70.2962 78.3526C70.2962 78.5106 70.4542 78.6685 70.1382 78.8265C68.5585 79.3004 67.1368 79.7743 65.7151 80.2482Z" fill="#F9D129"/>
<path d="M29.698 82.3019C29.698 84.5134 29.698 86.725 29.698 89.0945C29.698 89.5685 29.698 89.7264 29.0661 89.7264C27.1704 89.7264 25.2748 89.7264 23.3792 89.7264C22.9053 89.7264 22.7473 89.5685 22.7473 89.0945C22.7473 84.5134 22.7473 79.9323 22.7473 75.5092C22.7473 75.0353 22.9053 74.8773 23.2212 75.0353C25.1168 75.0353 27.0125 75.0353 29.0661 75.0353C29.54 75.0353 29.698 75.1933 29.698 75.6672C29.698 77.8788 29.698 80.0903 29.698 82.3019Z" fill="#5BBF90"/>
<path d="M42.8096 55.6051C42.8096 61.7659 42.8096 67.7687 42.8096 73.9295C41.3879 74.4034 40.2821 75.6672 38.8604 76.457C38.8604 76.1411 38.8604 75.9831 38.8604 75.6672C38.8604 69.1904 38.8604 62.7137 38.8604 56.237C38.8604 55.6051 39.0183 55.4471 39.6502 55.4471C40.756 55.6051 41.8618 55.6051 42.8096 55.6051Z" fill="#F9D129"/>
<path d="M54.3412 61.6079C53.5514 60.976 52.9195 60.5021 52.2876 60.0282C51.4978 59.5543 51.0239 59.5543 50.234 60.0282C49.6021 60.5021 48.9703 60.976 48.1804 61.6079C48.1804 59.7123 48.1804 57.8167 48.1804 55.921C48.1804 55.6051 48.3384 55.6051 48.4964 55.6051C50.234 55.6051 51.9717 55.6051 53.8673 55.6051C54.1832 55.6051 54.1832 55.7631 54.1832 56.079C54.3412 57.8167 54.3412 59.7123 54.3412 61.6079Z" fill="#E1A66E"/>
<path d="M52.7616 34.5952C52.7616 36.9648 52.6036 39.1763 52.1297 41.3879C51.6558 43.1256 51.0239 44.7053 49.9181 46.127C48.6544 47.7067 46.9167 48.8124 44.8631 49.2864C42.8095 49.7603 40.7559 49.7603 38.8603 49.1284C36.6487 48.4965 34.9111 47.0748 33.8053 45.0212C33.0154 43.5995 32.6995 42.0198 32.3836 40.2821C32.0676 38.2285 32.0676 36.1749 32.0676 34.1213C32.0676 31.5938 32.3836 29.2243 33.1734 26.8548C33.6473 25.433 34.2792 24.0113 35.385 22.9055C36.8067 21.4838 38.3864 20.536 40.282 20.2201C42.1776 19.9041 44.0733 19.9041 45.9689 20.378C48.4964 21.0099 50.2341 22.7476 51.1819 25.1171C51.8137 26.5388 52.1297 28.1185 52.2877 29.6982C52.6036 31.4359 52.7616 33.0156 52.7616 34.5952ZM51.4978 35.5431C51.4978 33.3315 51.4978 31.5938 51.1819 29.8562C51.0239 28.4345 50.708 27.0127 50.0761 25.591C49.2862 23.5374 47.8645 22.1157 45.653 21.4838C43.9153 21.0099 42.0197 21.0099 40.282 21.3258C38.7023 21.6418 37.2806 22.2737 36.1748 23.5374C35.227 24.6432 34.4372 25.907 34.1212 27.1707C33.3314 29.3823 33.1734 31.7518 33.0154 34.1213C33.0154 36.017 33.0154 37.9126 33.3314 39.6502C33.4893 41.072 33.8053 42.4937 34.4372 43.7574C35.385 45.969 36.9647 47.3907 39.1762 47.8646C40.9139 48.3385 42.4936 48.3385 44.2312 48.0226C45.9689 47.7067 47.3906 46.9168 48.4964 45.6531C49.4442 44.5473 50.0761 43.4415 50.392 42.0198C51.3398 39.9662 51.4978 37.5967 51.4978 35.5431Z" fill="#060608"/>
<path d="M51.4977 35.543C51.4977 37.4386 51.3398 39.8081 50.5499 42.1777C50.076 43.4414 49.6021 44.7052 48.6543 45.811C47.5485 47.0747 46.1268 47.8646 44.3891 48.1805C42.6515 48.4964 40.9138 48.4964 39.3341 48.0225C36.9646 47.3907 35.5429 45.9689 34.5951 43.9153C33.9632 42.6516 33.8052 41.2299 33.4893 39.8081C33.1733 37.9125 33.1733 36.0169 33.1733 34.1213C33.1733 31.7517 33.4893 29.5402 34.2791 27.1706C34.753 25.7489 35.3849 24.4852 36.3327 23.5373C37.4385 22.4316 38.8602 21.6417 40.4399 21.3258C42.3355 21.0098 44.0732 21.0098 45.8109 21.4837C47.8645 22.1156 49.2862 23.5373 50.234 25.5909C50.8659 26.8547 51.0238 28.2764 51.3398 29.8561C51.4977 31.5938 51.6557 33.3314 51.4977 35.543ZM38.2283 35.227C38.2283 35.701 38.2283 36.1749 38.2283 36.6488C37.7544 36.8067 37.5965 36.9647 37.5965 37.4386C37.5965 37.9125 37.5965 38.3864 37.7544 38.8603C37.9124 40.1241 38.0704 41.2299 38.3863 42.3356C38.7023 43.2835 39.1762 44.0733 39.966 44.5472C40.7559 45.0211 41.7037 45.1791 42.6515 45.0211C43.7573 44.8632 44.5471 44.5472 45.179 43.7574C45.8109 42.9675 46.1268 42.1777 46.2848 41.3878C46.7587 39.8081 46.7587 38.0705 46.9166 36.3328C46.9166 34.5952 46.9166 32.6995 46.7587 30.9619C46.6007 29.8561 46.4427 28.5924 46.1268 27.4866C45.6529 25.9069 44.7051 24.8011 42.8094 24.4852C41.7037 24.3272 40.7559 24.4852 39.808 25.117C38.8602 25.7489 38.3863 26.6967 38.0704 27.6445C37.5965 29.0663 37.4385 30.488 37.4385 31.9097C37.4385 32.2256 37.5965 32.5416 38.0704 32.5416C38.0704 33.0155 38.0704 33.4894 38.0704 33.9633C37.5965 34.1213 37.4385 34.2792 37.4385 34.5952C37.5965 35.0691 37.7544 35.227 38.2283 35.227Z" fill="#5BBF90"/>
<path d="M38.2284 36.6488C38.7023 36.8068 38.8602 36.9647 38.8602 37.2807C39.0182 38.8604 39.0182 40.4401 39.6501 41.8618C39.6501 42.0198 39.808 42.1777 39.808 42.3357C40.124 43.2835 40.9138 43.7574 41.8616 43.9154C43.2834 44.0734 44.3891 43.7574 45.179 42.1777C45.337 41.7038 45.4949 41.3879 45.6529 40.914C46.1268 39.1763 46.1268 37.5966 46.1268 35.859C46.1268 34.1213 46.1268 32.5416 45.9688 30.804C45.8109 29.5402 45.6529 28.2765 45.179 27.1707C44.7051 26.2229 43.9152 25.749 42.8095 25.591C40.9138 25.433 40.124 26.3808 39.6501 27.9605C39.3341 29.0663 39.1762 30.1721 39.0182 31.2779C39.0182 31.4358 39.0182 31.7518 39.0182 31.9097C39.0182 32.3836 38.8602 32.5416 38.3863 32.5416C38.0704 32.5416 37.7544 32.2257 37.7544 31.9097C37.9124 30.488 37.9124 28.9083 38.3863 27.6446C38.7023 26.6968 39.1762 25.749 40.124 25.1171C41.0718 24.4852 42.0196 24.3272 43.1254 24.4852C44.8631 24.6432 45.8109 25.9069 46.4427 27.4866C46.7587 28.5924 46.9166 29.6982 47.0746 30.9619C47.2326 32.6996 47.2326 34.5952 47.2326 36.3329C47.2326 38.0705 47.0746 39.6502 46.6007 41.3879C46.2848 42.3357 46.1268 43.1255 45.4949 43.7574C44.8631 44.5473 43.9152 45.0212 42.9674 45.0212C42.0196 45.1791 41.0718 45.0212 40.282 44.5473C39.4921 44.0734 39.0182 43.2835 38.7023 42.3357C38.2284 41.2299 38.0704 39.9662 38.0704 38.8604C38.0704 38.3865 37.9124 37.9126 37.9124 37.4387C37.5965 36.9647 37.7544 36.8068 38.2284 36.6488Z" fill="#060608"/>
<path d="M38.2283 34.1213C38.5443 34.1213 38.7022 34.2793 38.8602 34.5952C38.8602 34.9112 38.7022 35.2271 38.2283 35.2271C37.9124 35.2271 37.5964 34.9112 37.5964 34.7532C37.5964 34.4373 37.7544 34.1213 38.2283 34.1213Z" fill="#060608"/>
</svg>
