<svg width="113" height="112" viewBox="0 0 113 112" fill="none" xmlns="http://www.w3.org/2000/svg">
<path d="M56.4203 111.842C87.5804 111.842 112.841 86.8053 112.841 55.921C112.841 25.0367 87.5804 0 56.4203 0C25.2602 0 0 25.0367 0 55.921C0 86.8053 25.2602 111.842 56.4203 111.842Z" fill="#E1F3F5"/>
<path d="M57.5358 31.1199C56.2608 24.9591 59.7671 20.0621 64.3891 18.3244C69.0112 16.4288 74.7488 18.0085 77.6176 22.2736C79.3708 24.8011 80.0083 27.6446 79.5302 30.646C79.0521 33.6474 77.2989 36.0169 74.9082 37.9126C76.1832 38.8604 77.2989 39.9662 78.2552 41.0719C79.2114 42.1777 80.1677 43.4415 80.9646 44.7052C82.0803 43.9154 83.1959 43.1255 84.1522 42.3357C84.471 42.0198 84.6303 42.1777 85.1085 42.3357C88.1367 44.5473 91.1649 46.6009 94.1931 48.8124C94.5119 48.9704 94.6712 49.2863 94.6712 49.6023C94.6712 50.2341 94.6712 51.024 94.6712 51.6559C94.6712 51.9718 94.6712 52.2877 94.1931 52.1298C93.5556 52.1298 92.5993 51.9718 92.2805 52.2877C91.8024 52.7616 92.1212 53.5515 92.1212 54.3413C92.1212 56.7109 92.1212 59.0804 92.1212 61.4499C92.1212 61.9238 91.9618 62.0818 91.4836 62.0818C89.8899 62.0818 88.2961 62.0818 86.8616 62.0818C86.0647 62.0818 85.9054 62.3978 85.746 63.0296C85.5866 66.347 84.7897 69.5064 83.3553 72.6657C82.399 74.7193 81.2834 76.615 80.0083 78.3526C79.6896 78.6686 79.6896 79.1425 79.6896 79.6164C79.6896 83.2497 79.6896 86.725 79.6896 90.3583C79.6896 92.7278 78.0958 94.3075 75.7051 94.3075C72.5175 94.3075 69.3299 94.3075 66.1423 94.3075C63.911 94.3075 62.3172 92.7278 62.1578 90.5162C62.1578 90.0423 61.9985 89.8844 61.5203 90.0423C59.7671 90.3583 58.1734 90.5162 56.4202 90.5162C55.942 90.5162 55.7827 90.6742 55.7827 91.1481C55.7827 91.938 55.7827 92.8858 55.7827 93.6756C55.7827 94.1495 55.6233 94.3075 55.1451 94.3075C51.1607 94.3075 47.1762 94.3075 43.1917 94.3075C38.4103 94.3075 33.7883 94.3075 29.0069 94.3075C28.3694 94.3075 28.21 94.1495 28.21 93.5176C28.21 91.78 28.21 89.8844 28.21 88.1467C28.21 86.725 28.8475 85.4612 30.282 84.8293C30.6007 84.6714 30.7601 84.3554 30.7601 84.0395C30.7601 82.7758 30.6007 81.67 29.9632 80.7222C29.1663 79.4584 28.6882 78.0367 28.0506 76.7729C27.4131 75.3512 26.935 73.9295 27.0944 72.5078C27.0944 70.7701 27.0944 69.1904 27.0944 67.4528C27.0944 66.9789 27.2537 66.5049 26.4569 66.5049C26.2975 66.5049 26.2975 66.347 26.1381 66.189C24.2255 64.2934 22.313 62.3978 20.4004 60.5021C20.0817 60.1862 20.0817 60.0282 20.2411 59.5543C20.7192 58.9224 21.038 58.1326 21.3567 57.3427C21.5161 57.0268 21.5161 56.7109 21.3567 56.3949C20.8786 54.4993 19.6035 53.5515 17.691 53.2356C17.0535 53.0776 17.0535 52.9196 17.0535 52.2877C17.0535 49.6023 17.0535 46.9168 17.0535 44.3893C17.0535 43.9154 17.2128 43.7574 17.5316 43.5994C17.691 43.5994 17.8504 43.4415 17.8504 43.4415C19.9223 43.2835 20.8786 42.0198 21.3567 40.1241C21.5161 39.8082 21.3567 39.6502 21.3567 39.4922C20.8786 38.7024 20.5598 37.9126 20.0817 37.1227C19.9223 36.8068 19.9223 36.6488 20.2411 36.3329C22.1536 34.4372 24.2255 32.3836 26.1381 30.488C26.4569 30.1721 26.6162 30.1721 26.935 30.33C27.0944 30.33 27.0944 30.488 27.2537 30.488C28.0506 30.804 28.8475 31.5938 29.6444 31.5938C30.4413 31.5938 31.2382 30.9619 32.0351 30.646C32.3539 30.488 32.5133 30.488 32.5133 30.1721C32.5133 30.0141 32.5133 30.0141 32.6726 29.8561C32.9914 28.9083 32.9914 27.6446 33.6289 27.3286C34.2664 26.8547 35.5415 27.1707 36.4978 27.1707C38.4103 27.1707 40.3229 27.1707 42.3948 27.1707C42.8729 27.1707 43.0323 27.3286 43.0323 27.6446C43.0323 27.8025 43.1917 27.9605 43.1917 28.1185C43.9886 30.646 43.9886 30.646 46.5387 31.5938C46.8574 31.7518 47.0168 31.5938 47.1762 31.4358C47.9731 31.1199 48.77 30.646 49.4075 30.33C49.7262 30.1721 50.045 30.1721 50.2044 30.488C50.6825 31.2779 51.4794 31.2779 52.2763 31.1199C53.7107 30.9619 55.1451 30.804 56.4202 30.9619C57.0577 31.1199 57.3765 31.1199 57.5358 31.1199ZM53.7107 33.6474C54.667 34.5952 55.6233 35.543 56.5796 36.3329C56.8983 36.6488 56.8983 36.8068 56.7389 37.1227C56.1014 37.9126 55.7827 38.7024 55.4639 39.4922C55.3045 39.6502 55.3045 39.9662 55.3045 40.1241C56.2608 42.4937 56.2608 42.4937 58.8109 43.4415C58.9702 43.4415 59.1296 43.5994 59.1296 43.5994C59.6078 43.5994 59.7671 43.9154 59.7671 44.3893C59.7671 46.9168 59.7671 49.2863 59.7671 51.8138C59.7671 53.0776 59.7671 53.0776 58.6515 53.3935C57.0577 53.7095 56.1014 54.4993 55.6233 56.079C55.3045 57.1848 55.3045 57.3427 56.1014 58.1326C56.8983 58.9224 57.3765 59.8702 57.3765 60.976C57.3765 65.5571 57.3765 69.9803 57.3765 74.5614C57.3765 76.299 56.8983 77.8787 55.942 79.3004C55.3045 80.2482 54.667 81.0381 54.0295 81.9859C53.392 82.7758 53.8701 83.7236 53.7107 84.5134C53.7107 84.6714 53.8701 84.6714 54.0295 84.8293C55.1451 85.4612 55.942 86.409 56.1014 87.6728C56.1014 88.1467 56.2608 88.1467 56.7389 88.1467C58.3327 87.9887 60.0859 87.8308 61.6797 87.5148C62.3172 87.3569 62.4766 87.1989 62.4766 86.567C62.4766 81.354 62.4766 75.9831 62.4766 70.7701C62.4766 68.5585 64.0704 66.9789 66.3017 66.9789C69.4893 66.9789 72.8363 66.9789 76.0238 66.9789C78.2552 66.9789 79.8489 68.5585 79.8489 70.7701C79.8489 71.8759 79.8489 72.9817 79.8489 74.4034C80.0083 74.2454 80.0083 74.0875 80.1677 74.0875C82.2396 70.4542 83.3553 66.6629 83.5147 62.5557C83.5147 62.0818 83.3553 62.0818 83.0365 62.0818C81.4427 62.0818 79.8489 62.0818 78.2552 62.0818C77.6176 62.0818 77.4583 61.9238 77.4583 61.292C77.4583 58.4485 77.4583 55.6051 77.4583 52.9196C77.4583 52.4457 77.2989 52.1298 76.8207 52.2877C76.3426 52.2877 75.8645 52.2877 75.3863 52.2877C75.0676 52.2877 75.0676 52.2877 75.0676 51.9718C75.0676 51.182 75.0676 50.3921 75.0676 49.4443C75.0676 49.1284 75.2269 48.9704 75.5457 48.8124C76.3426 48.1805 77.1395 47.7066 77.9364 47.0748C79.3708 45.969 79.5302 45.969 78.4145 44.5473C77.1395 42.8096 75.7051 41.3879 73.9519 39.9662C73.9519 40.914 73.9519 41.7038 73.9519 42.4937C73.9519 44.8632 72.0394 47.0748 69.4893 47.2327C67.0986 47.5487 64.7079 45.811 64.0704 43.4415C63.7516 42.3357 63.911 41.3879 63.911 40.2821C63.911 39.3343 63.5923 38.5444 62.7954 37.9126C61.3609 36.9647 60.0859 35.701 59.289 34.1213C59.1296 33.9633 58.9702 33.6474 58.6515 33.6474C56.7389 33.4894 55.3045 33.4894 53.7107 33.6474ZM37.2947 56.8688C37.2947 60.8181 37.2947 64.9253 37.2947 68.8745C37.2947 70.6121 37.2946 70.6121 35.5415 70.6121C34.904 70.6121 34.7446 70.4542 34.7446 69.8223C34.7446 68.0846 34.904 66.347 34.5852 64.6093C34.1071 61.6079 31.0789 59.3963 28.21 59.3963C27.4131 59.3963 27.0944 59.8703 27.4131 60.6601C27.7319 61.4499 28.0506 62.0818 28.5288 62.8717C29.3257 64.4513 29.8038 66.189 29.8038 67.9267C29.8038 69.3484 29.8038 70.7701 29.8038 72.1918C29.8038 73.2976 29.9632 74.4034 30.6007 75.3512C31.2382 76.615 31.8758 77.8787 32.5133 79.1425C33.3102 80.5642 33.9477 81.9859 33.6289 83.7236C33.6289 84.1975 33.7883 84.3554 34.1071 84.1975C39.526 84.1975 45.1042 84.1975 50.5231 84.1975C51.0013 84.1975 51.1607 84.0395 51.0013 83.5656C50.6825 81.8279 51.32 80.4062 52.4357 79.3004C52.7545 78.9845 53.0732 78.5106 53.2326 78.1947C54.1889 76.9309 54.667 75.5092 54.667 73.9295C54.667 69.6643 54.667 65.3992 54.667 61.292C54.667 60.0282 54.1889 59.3963 53.392 59.3963C52.5951 59.3963 52.1169 60.0282 52.1169 61.292C52.1169 63.1876 52.1169 63.1876 50.2044 63.1876C49.7262 63.1876 49.5669 63.0296 49.5669 62.5557C49.5669 61.134 49.5669 59.8702 49.5669 58.4485C49.5669 57.5007 49.0887 57.0268 48.2918 57.0268C47.4949 57.0268 47.0168 57.6587 47.0168 58.4485C47.0168 59.3963 47.0168 60.3442 47.0168 61.292C47.0168 63.3456 47.0168 63.1876 44.9449 63.1876C44.4667 63.1876 44.4667 63.0296 44.4667 62.7137C44.4667 61.292 44.4667 59.8702 44.4667 58.6065C44.4667 57.6587 43.9886 57.1848 43.1917 57.1848C42.3948 57.1848 41.9167 57.8166 41.9167 58.6065C41.9167 59.5543 41.9167 60.6601 41.9167 61.6079C41.9167 63.3456 41.9167 63.3456 40.1635 63.3456C39.526 63.3456 39.3666 63.1876 39.3666 62.5557C39.3666 56.3949 39.3666 50.2341 39.3666 44.2313C39.3666 43.9154 39.3666 43.7574 39.3666 43.4415C39.2072 42.8096 38.8884 42.3357 38.0915 42.3357C37.454 42.3357 36.9759 42.8096 36.8165 43.4415C36.8165 43.5994 36.8165 43.9154 36.8165 44.0733C37.2947 48.1805 37.2947 52.6037 37.2947 56.8688ZM27.8913 57.0268C27.7319 56.8688 27.7319 56.7109 27.5725 56.7109C25.3412 53.7095 24.3849 50.3921 24.8631 46.7588C25.9787 39.0183 33.1508 33.8054 40.801 35.0691C49.7262 36.4908 54.8264 46.1269 50.8419 54.3413C50.5231 54.9732 50.5231 55.4471 51.1607 55.921C51.4794 56.079 51.4794 56.3949 51.7982 56.7109C51.9576 56.8688 51.9576 57.5007 52.2763 57.5007C52.5951 57.5007 52.2763 57.0268 52.4357 56.8688C52.9138 56.237 53.392 55.4471 53.5513 54.6573C53.8701 52.9196 54.9858 51.9718 56.7389 51.6559C57.2171 51.6559 57.2171 51.3399 57.2171 50.866C57.2171 49.7602 57.2171 48.4965 57.2171 47.2327C57.2171 45.811 57.2171 45.653 55.7827 45.3371C54.667 45.0212 54.0295 44.5473 53.7107 43.4415C53.7107 42.9676 53.5514 42.4937 53.2326 42.1777C52.1169 40.756 52.4357 39.3343 53.392 38.0705C53.7107 37.7546 53.5514 37.4387 53.2326 37.1227C52.2763 36.1749 51.32 35.3851 50.5231 34.4372C49.8856 33.8054 49.4075 33.6474 48.77 34.1213C47.6543 34.9111 46.5387 35.0691 45.423 34.1213C45.1042 33.9633 44.7855 33.8054 44.4667 33.8054C42.5542 33.4894 41.7573 32.3836 41.4385 30.646C41.4385 30.1721 41.1198 30.0141 40.6416 30.1721C39.3666 30.1721 38.0915 30.1721 36.8165 30.1721C35.5415 30.1721 35.5415 30.1721 35.2227 31.2779C35.0633 32.2257 34.4258 33.1735 33.1508 33.1735C32.832 33.1735 32.3539 33.3315 32.1945 33.6474C30.7601 34.7532 29.3257 34.5952 27.8913 33.4894C27.5725 33.1735 27.2537 33.3315 27.0944 33.6474C26.4569 34.2793 25.8193 34.9111 25.1818 35.543C24.7037 36.0169 23.9068 36.4908 23.7474 37.1227C23.588 37.7546 24.3849 38.3865 24.7037 39.1763C24.7037 39.1763 24.7037 39.3343 24.8631 39.3343C25.0224 39.6502 25.0224 39.9662 24.8631 40.2821C24.5443 40.914 24.0662 41.7038 23.9068 42.3357C23.588 44.2313 22.4724 45.0212 20.7192 45.1791C20.2411 45.1791 20.0817 45.4951 20.0817 45.969C20.0817 47.3907 20.0817 48.6545 20.0817 50.0762C20.0817 50.866 20.2411 51.182 21.038 51.3399C22.4724 51.4979 23.4286 52.1298 23.588 53.7095C23.588 54.0254 23.7474 54.1834 23.9068 54.4993C25.0224 56.079 25.0224 57.5007 23.9068 58.9224C23.7474 59.0804 23.588 59.3963 23.9068 59.5543C24.3849 59.8702 24.7037 60.5021 25.1818 60.6601C24.7037 58.6065 25.66 57.3427 27.8913 57.0268ZM34.7446 58.9224C34.7446 58.4485 34.7446 58.2906 34.7446 57.9746C34.7446 53.2356 34.7446 48.3385 34.7446 43.5994C34.7446 41.5458 36.3384 39.8082 38.4103 39.8082C40.4822 39.8082 42.076 41.3879 42.076 43.4415C42.076 47.0748 42.076 50.5501 42.076 54.1834C42.076 54.3413 41.7573 54.9732 42.3948 54.8152C43.5104 54.4993 44.4667 54.8152 45.423 55.4471C45.5824 55.4471 45.7418 55.6051 45.7418 55.6051C46.3793 54.9732 47.4949 54.9732 47.9731 54.0254C49.0887 51.8138 49.5669 49.4443 49.2481 46.9168C48.6106 41.7038 43.9886 37.5966 38.7291 37.4387C31.2382 37.1227 25.5006 43.7574 27.2537 51.024C28.5288 54.8152 30.9195 57.3427 34.7446 58.9224ZM69.6487 35.859C69.6487 36.9647 69.6487 38.0705 69.6487 39.1763C69.6487 39.4922 69.6487 39.8082 69.9674 39.6502C70.2862 39.6502 70.7643 39.9662 70.9237 39.3343C71.2425 37.5966 72.1987 36.4908 73.4738 35.543C76.8207 33.1735 77.9364 28.7504 76.1832 24.9591C74.43 21.3258 70.2862 19.1143 66.4611 20.22C62.9547 21.1678 60.564 23.3794 59.7671 26.8547C58.9702 30.488 60.2453 33.4894 63.2735 35.701C64.5485 36.6488 65.5048 37.7546 65.6642 39.1763C65.8236 39.9662 66.1423 39.6502 66.6205 39.6502C67.0986 39.6502 66.9392 39.3343 66.9392 39.0183C66.9392 36.8068 66.9392 34.7532 66.9392 32.5416C66.9392 32.0677 66.7798 31.9097 66.4611 31.5938C65.0267 30.804 64.2298 29.2243 64.5485 27.6446C64.8673 25.9069 66.3017 24.6432 68.0549 24.6432C69.808 24.4852 71.4018 25.591 71.88 27.3286C72.3581 29.0663 71.5612 30.646 69.9674 31.5938C69.6487 31.7518 69.4893 32.0677 69.4893 32.3836C69.808 33.8054 69.6487 34.7532 69.6487 35.859ZM64.7079 80.4062C64.7079 82.3018 64.7079 84.1975 64.7079 86.0931C64.7079 86.567 64.8673 86.725 65.3454 86.725C69.1705 86.725 72.9956 86.725 76.6614 86.725C77.1395 86.725 77.2989 86.567 77.2989 86.0931C77.2989 82.3018 77.2989 78.5106 77.2989 74.8773C77.2989 74.4034 77.1395 74.2454 76.6614 74.2454C72.8363 74.2454 69.0111 74.2454 65.3454 74.2454C64.8673 74.2454 64.7079 74.4034 64.7079 74.8773C64.7079 76.7729 64.7079 78.6686 64.7079 80.4062ZM42.2354 91.622C45.7418 91.622 49.4075 91.622 52.9138 91.622C53.392 91.622 53.5513 91.464 53.5513 90.9901C53.5513 90.0423 53.5513 89.0945 53.5513 87.9887C53.5513 87.0409 53.0732 86.567 52.1169 86.567C45.5824 86.567 39.0478 86.567 32.5133 86.567C31.557 86.567 31.0789 87.0409 31.0789 87.9887C31.0789 88.9365 31.0789 89.8844 31.0789 90.8322C31.0789 91.464 31.2382 91.622 31.8758 91.622C35.2227 91.622 38.7291 91.622 42.2354 91.622ZM84.6303 52.1298C83.1959 52.1298 81.6021 52.1298 80.1677 52.1298C79.8489 52.1298 79.6896 52.1298 79.6896 52.6037C79.6896 54.6573 79.6896 56.8688 79.6896 58.9224C79.6896 59.3963 79.849 59.5543 80.3271 59.3963C83.3553 59.3963 86.2241 59.3963 89.2523 59.3963C89.7305 59.3963 89.8899 59.2384 89.8899 58.7645C89.8899 56.7109 89.8899 54.4993 89.8899 52.4457C89.8899 51.9718 89.7305 51.8138 89.2523 51.8138C87.6585 52.1298 86.2241 52.1298 84.6303 52.1298ZM91.0055 49.6023C90.8461 49.4443 90.8461 49.4443 90.8461 49.4443C88.9336 48.0226 86.8616 46.6009 84.9491 45.3371C84.6303 45.1791 84.471 45.1791 84.1522 45.3371C82.8772 46.2849 81.6021 47.2327 80.1677 48.1805C79.5302 48.6544 78.7333 49.1284 77.9364 49.7602C82.5584 49.6023 86.8616 49.6023 91.0055 49.6023ZM70.9237 71.8759C72.8363 71.8759 74.7488 71.8759 76.6614 71.8759C76.8207 71.8759 77.1395 72.0339 77.2989 71.7179C77.6176 70.4542 76.9801 69.5064 75.7051 69.5064C72.6769 69.5064 69.6487 69.5064 66.6205 69.5064C65.186 69.5064 64.8673 69.9803 64.8673 71.402C64.8673 71.8759 65.0267 72.0339 65.5048 72.0339C67.258 71.8759 69.0111 71.8759 70.9237 71.8759ZM70.9237 91.622C72.3581 91.622 73.7925 91.622 75.2269 91.622C76.8207 91.622 77.1395 91.1481 77.1395 89.7264C77.1395 89.2525 76.9801 89.0945 76.502 89.0945C75.3863 89.0945 74.2707 89.0945 73.155 89.0945C70.4456 89.0945 67.7361 89.0945 65.186 89.0945C65.0267 89.0945 64.7079 88.9365 64.5485 89.2525C64.2298 90.5162 64.8673 91.464 66.1423 91.464C67.8955 91.622 69.4893 91.622 70.9237 91.622ZM68.533 42.1777C67.8955 42.1777 67.258 42.1777 66.4611 42.1777C65.9829 42.1777 65.9829 42.3357 65.9829 42.6516C66.3017 43.7574 67.258 44.5473 68.3736 44.5473C69.4893 44.5473 70.6049 43.7574 70.9237 42.6516C71.0831 42.3357 70.9237 42.0198 70.4456 42.1777C69.808 42.1777 69.1705 42.1777 68.533 42.1777ZM68.3736 29.8561C69.0112 29.8561 69.6487 29.3822 69.6487 28.7504C69.6487 28.1185 69.1705 27.4866 68.533 27.4866C67.8955 27.4866 67.258 27.9605 67.258 28.7504C67.258 29.2243 67.7361 29.8561 68.3736 29.8561Z" fill="#060604"/>
<path d="M53.7107 33.6474C55.3045 33.4894 56.7389 33.4894 58.1733 33.6474C58.492 33.6474 58.6514 33.8054 58.8108 34.1213C59.7671 35.701 60.8827 36.9648 62.3171 37.9126C63.114 38.3865 63.4328 39.1763 63.4328 40.2821C63.4328 41.3879 63.2734 42.3357 63.5922 43.4415C64.2297 45.811 66.461 47.5487 69.0111 47.2327C71.4018 46.9168 73.4737 44.8632 73.4737 42.4937C73.4737 41.7038 73.4737 40.914 73.4737 39.9662C75.2269 41.3879 76.6613 42.9676 77.9363 44.5473C79.052 45.969 79.052 45.969 77.4582 47.0748C76.6613 47.7066 75.8644 48.1806 75.0675 48.8124C74.9081 48.9704 74.5894 49.1284 74.5894 49.4443C74.5894 50.2342 74.5894 51.024 74.5894 51.9718C74.5894 52.2878 74.7487 52.2877 74.9081 52.2877C75.3863 52.2877 75.8644 52.2877 76.3425 52.2877C76.9801 52.2877 76.9801 52.4457 76.9801 52.9196C76.9801 55.7631 76.9801 58.6065 76.9801 61.292C76.9801 62.0818 77.1394 62.0818 77.7769 62.0818C79.3707 62.0818 80.9645 62.0818 82.5583 62.0818C82.8771 62.0818 83.0365 62.0818 83.0365 62.5557C82.7177 66.6629 81.6021 70.4542 79.6895 74.0875C79.6895 74.2454 79.5301 74.2454 79.3707 74.4034C79.3707 73.1397 79.3707 72.0339 79.3707 70.7701C79.3707 68.5586 77.777 66.9789 75.5456 66.9789C72.3581 66.9789 69.0111 66.9789 65.8235 66.9789C63.5922 66.9789 61.9984 68.5586 61.9984 70.7701C61.9984 75.9831 61.9984 81.354 61.9984 86.567C61.9984 87.1989 61.839 87.3569 61.2015 87.5148C59.6077 87.8308 57.8545 87.9887 56.2607 88.1467C55.7826 88.1467 55.7826 88.1467 55.6232 87.6728C55.4638 86.4091 54.6669 85.4612 53.5513 84.8294C53.3919 84.8294 53.2325 84.8294 53.2325 84.5134C53.2325 83.5656 52.9138 82.7758 53.5513 81.9859C54.1888 81.0381 54.8263 80.2483 55.4638 79.3004C56.4201 77.8787 56.8982 76.299 56.8982 74.5614C56.8982 69.9803 56.8982 65.5571 56.8982 60.976C56.8982 59.8703 56.4201 58.9224 55.6232 58.1326C54.8263 57.3428 54.8263 57.1848 55.1451 56.079C55.6232 54.4993 56.5795 53.7095 58.1733 53.3935C59.4483 53.0776 59.2889 53.0776 59.2889 51.8138C59.2889 49.2863 59.2889 46.9168 59.2889 44.3893C59.2889 43.9154 59.1296 43.5995 58.6514 43.5995C58.492 43.5995 58.3327 43.4415 58.3327 43.4415C55.7826 42.6516 55.7826 42.6516 54.8263 40.1241C54.6669 39.8082 54.8263 39.6502 54.9857 39.4923C55.3045 38.7024 55.7826 37.9126 56.1014 37.2807C56.2607 36.9648 56.2607 36.6488 55.942 36.4909C55.6232 35.543 54.6669 34.5952 53.7107 33.6474ZM63.5922 61.9239C64.8672 61.9239 64.8672 61.9239 64.8672 60.6601C64.8672 59.3964 64.8672 59.3964 63.5922 59.3964C62.3172 59.3964 62.3171 59.3964 62.3171 60.6601C62.1578 61.9239 62.1578 61.9239 63.5922 61.9239ZM69.6486 60.8181C69.6486 59.5543 69.6486 59.5543 68.3736 59.5543C67.0985 59.5543 67.0985 59.5543 67.0985 60.8181C67.0985 62.0818 67.0985 62.0818 68.3736 62.0818C69.6486 61.9239 69.6486 61.9239 69.6486 60.8181ZM74.7487 60.8181C74.7487 59.5543 74.7487 59.5543 73.4737 59.5543C72.358 59.5543 72.3581 59.5543 72.3581 60.6601C72.3581 61.9239 72.3581 61.9239 73.6331 61.9239C74.7487 61.9239 74.7487 61.9239 74.7487 60.8181Z" fill="#F6F9FB"/>
<path d="M37.2947 56.8688C37.2947 52.6037 37.2947 48.3385 37.2947 44.0734C37.2947 43.9154 37.2947 43.5994 37.2947 43.4415C37.4541 42.8096 37.7728 42.3357 38.5697 42.3357C39.2072 42.3357 39.6854 42.8096 39.8448 43.4415C39.8448 43.7574 39.8448 43.9154 39.8448 44.2313C39.8448 50.3921 39.8448 56.5529 39.8448 62.5557C39.8448 63.1876 40.0041 63.3456 40.6417 63.3456C42.3948 63.3456 42.3948 63.3456 42.3948 61.6079C42.3948 60.6601 42.3948 59.5543 42.3948 58.6065C42.3948 57.6587 42.873 57.1848 43.6699 57.1848C44.4668 57.1848 44.9449 57.8167 44.9449 58.6065C44.9449 60.0282 44.9449 61.4499 44.9449 62.7137C44.9449 63.0296 44.9449 63.1876 45.423 63.1876C47.495 63.1876 47.495 63.1876 47.495 61.292C47.495 60.3442 47.495 59.3963 47.495 58.4485C47.495 57.6587 47.9731 57.0268 48.77 57.0268C49.5669 57.0268 50.045 57.5007 50.045 58.4485C50.045 59.8703 50.045 61.134 50.045 62.5557C50.045 63.0296 50.045 63.1876 50.6826 63.1876C52.5951 63.1876 52.5951 63.1876 52.5951 61.292C52.5951 60.0282 52.9139 59.3963 53.8701 59.3963C54.667 59.3963 55.1452 60.0282 55.1452 61.292C55.1452 65.5571 55.1452 69.8223 55.1452 73.9295C55.1452 75.5092 54.667 76.9309 53.7108 78.1947C53.392 78.5106 53.2326 78.9845 52.9139 79.3004C51.3201 80.5642 50.6826 81.9859 51.0013 83.7236C51.0013 84.1975 51.0013 84.3554 50.5232 84.3554C45.1043 84.3554 39.526 84.3554 34.1071 84.3554C33.629 84.3554 33.4696 84.1975 33.629 83.8815C33.9477 82.1439 33.3102 80.7222 32.5133 79.3004C31.8758 78.0367 31.2383 76.7729 30.6008 75.5092C30.1226 74.5614 29.8039 73.4556 29.8039 72.3498C29.8039 70.9281 29.8039 69.5064 29.8039 68.0846C29.8039 66.189 29.4851 64.6093 28.5288 63.0296C28.2101 62.2398 27.7319 61.6079 27.4132 60.8181C27.0944 60.0282 27.4132 59.5543 28.2101 59.5543C31.2383 59.3963 34.1071 61.7659 34.5852 64.7673C34.904 66.5049 34.7446 68.2426 34.7446 69.9803C34.7446 70.6121 34.904 70.7701 35.5415 70.7701C37.2947 70.7701 37.2947 70.7701 37.2947 69.0325C37.2947 64.9253 37.2947 60.8181 37.2947 56.8688Z" fill="#F0D0B5"/>
<path d="M27.8913 57.0268C25.66 57.3428 24.8631 58.6065 24.8631 60.9761C24.3849 60.6601 24.0662 60.1862 23.588 59.8703C23.2693 59.7123 23.4287 59.3964 23.588 59.2384C24.7037 57.8167 24.8631 56.237 23.588 54.8153C23.4287 54.6573 23.2693 54.3414 23.2693 54.0254C23.1099 52.4457 22.1536 51.8139 20.7192 51.6559C19.9223 51.4979 19.7629 51.182 19.7629 50.3921C19.7629 48.9704 19.7629 47.7067 19.7629 46.285C19.7629 45.811 19.9223 45.6531 20.4005 45.4951C22.1536 45.1792 23.2693 44.3893 23.588 42.6517C23.7474 41.8618 24.2256 41.2299 24.5443 40.5981C24.7037 40.2821 24.7037 39.9662 24.5443 39.6503C24.5443 39.6503 24.5443 39.4923 24.3849 39.4923C24.0662 38.8604 23.2693 38.2285 23.4287 37.4387C23.588 36.8068 24.3849 36.3329 24.8631 35.859C25.5006 35.2271 26.1381 34.5952 26.7756 33.9634C27.0944 33.6474 27.2538 33.6474 27.5725 33.8054C29.0069 34.9112 30.4414 35.0692 31.8758 33.9634C32.1945 33.8054 32.5133 33.6474 32.8321 33.4895C34.2665 33.3315 34.7446 32.5417 35.0634 31.2779C35.3821 30.1721 35.3821 30.1721 36.6572 30.1721C37.9322 30.1721 39.2072 30.1721 40.4823 30.1721C40.9604 30.1721 41.1198 30.3301 41.2792 30.646C41.4385 32.3837 42.3948 33.4895 44.3074 33.8054C44.6261 33.8054 44.9449 33.9634 45.2636 34.1213C46.3793 35.0692 47.495 34.9112 48.6106 34.1213C49.4075 33.6474 49.8856 33.8054 50.3638 34.4373C51.1607 35.3851 52.117 36.3329 53.0732 37.1228C53.392 37.4387 53.5514 37.7546 53.2326 38.0706C52.2763 39.4923 51.9576 40.756 53.0732 42.1778C53.392 42.4937 53.5514 42.9676 53.5514 43.4415C53.7107 44.5473 54.5076 45.1792 55.6233 45.3371C57.0577 45.6531 57.0577 45.811 57.0577 47.2328C57.0577 48.4965 57.0577 49.6023 57.0577 50.8661C57.0577 51.34 57.0577 51.4979 56.5796 51.6559C54.8264 51.8139 53.7107 52.7617 53.392 54.6573C53.2326 55.4472 52.7545 56.237 52.2763 56.8689C52.117 57.1848 52.4357 57.5008 52.117 57.5008C51.6388 57.5008 51.7982 57.0268 51.6388 56.7109C51.4794 56.5529 51.3201 56.079 51.0013 55.9211C50.3638 55.4472 50.3638 55.1312 50.6825 54.3414C54.667 46.285 49.5669 36.6488 40.6416 35.0692C32.9914 33.8054 25.8194 39.0184 24.7037 46.7589C24.2256 50.3921 25.1818 53.7095 27.4132 56.7109C27.5725 56.7109 27.7319 56.7109 27.8913 57.0268Z" fill="#5BBF90"/>
<path d="M34.7446 58.9224C30.9195 57.3427 28.5288 54.8152 27.5725 50.866C25.8193 43.5994 31.557 36.9647 39.0478 37.2806C44.3073 37.4386 48.77 41.7038 49.5669 46.7588C49.8856 49.2863 49.4075 51.6558 48.2918 53.8674C47.8137 54.8152 46.698 54.8152 46.0605 55.4471C46.0605 55.4471 45.9011 55.2891 45.7418 55.2891C44.7855 54.6572 43.8292 54.3413 42.7135 54.6572C42.076 54.8152 42.3948 54.3413 42.3948 54.0253C42.3948 50.392 42.3948 46.9167 42.3948 43.2834C42.3948 41.2298 40.6416 39.6502 38.7291 39.6502C36.6571 39.6502 35.0633 41.2298 35.0633 43.4414C35.0633 48.1805 35.0633 53.0775 35.0633 57.8166C34.7446 58.1325 34.7446 58.4485 34.7446 58.9224Z" fill="#F5F8F9"/>
<path d="M69.6487 35.859C69.6487 34.7532 69.6487 33.6474 69.6487 32.5416C69.6487 32.0677 69.8081 31.9097 70.1268 31.7518C71.7206 30.9619 72.5175 29.2243 72.0394 27.4866C71.5612 25.7489 69.9674 24.6432 68.2143 24.8011C66.6205 24.8011 65.0267 26.2229 64.7079 27.8025C64.3892 29.2243 65.1861 30.9619 66.6205 31.7518C67.0986 31.9097 67.0986 32.2257 67.0986 32.6996C67.0986 34.9111 67.0986 36.9647 67.0986 39.1763C67.0986 39.4922 67.258 39.8082 66.7799 39.8082C66.4611 39.8082 65.9829 39.9662 65.8236 39.3343C65.6642 37.7546 64.7079 36.6488 63.4329 35.859C60.4047 33.6474 59.1296 30.646 59.9265 27.0127C60.7234 23.3794 62.9547 21.1678 66.6205 20.378C70.605 19.4302 74.7488 21.4838 76.3426 25.1171C78.0958 28.9083 76.9801 33.3315 73.6332 35.701C72.1988 36.6488 71.2425 37.7546 71.0831 39.4923C70.9237 40.1241 70.4456 39.8082 70.1268 39.8082C69.6487 39.9662 69.8081 39.6502 69.8081 39.3343C69.6487 38.0705 69.6487 36.9647 69.6487 35.859Z" fill="#5BBF90"/>
<path d="M64.7078 80.4063C64.7078 78.5106 64.7078 76.773 64.7078 74.8774C64.7078 74.4035 64.8671 74.2455 65.3453 74.2455C69.1704 74.2455 72.9955 74.2455 76.6612 74.2455C77.1394 74.2455 77.2987 74.4035 77.2987 74.8774C77.2987 78.6686 77.2987 82.4599 77.2987 86.0932C77.2987 86.5671 77.1394 86.725 76.6612 86.725C72.8361 86.725 69.011 86.725 65.3453 86.725C64.8671 86.725 64.7078 86.5671 64.7078 86.0932C64.7078 84.1975 64.7078 82.3019 64.7078 80.4063Z" fill="#385F7E"/>
<path d="M42.2354 91.622C38.729 91.622 35.2227 91.622 31.7163 91.622C31.0788 91.622 30.9194 91.464 30.9194 90.8322C30.9194 89.8844 30.9194 88.9365 30.9194 87.9887C30.9194 87.0409 31.3976 86.567 32.3538 86.567C38.8884 86.567 45.423 86.567 51.9575 86.567C52.9138 86.567 53.3919 87.0409 53.3919 87.9887C53.3919 88.9365 53.3919 89.8844 53.3919 90.9901C53.3919 91.464 53.2325 91.622 52.7544 91.622C49.2481 91.622 45.7417 91.622 42.2354 91.622Z" fill="#5BBF90"/>
<path d="M84.6304 52.1298C86.0648 52.1298 87.6586 52.1298 89.093 52.1298C89.5712 52.1298 89.7306 52.2877 89.7306 52.7616C89.7306 54.8152 89.7306 57.0268 89.7306 59.0804C89.7306 59.5543 89.5712 59.7123 89.093 59.7123C86.0648 59.7123 83.196 59.7123 80.1678 59.7123C79.6896 59.7123 79.5303 59.5543 79.5303 59.2384C79.5303 57.1848 79.5303 54.9732 79.5303 52.9196C79.5303 52.4457 79.6896 52.2877 80.1678 52.2877C81.7616 52.1298 83.196 52.1298 84.6304 52.1298Z" fill="#E7E9ED"/>
<path d="M91.0054 49.6022C86.7022 49.6022 82.5583 49.6022 78.0957 49.6022C78.8926 48.9704 79.5301 48.4965 80.327 48.0226C81.6021 47.0747 82.8771 46.1269 84.3115 45.1791C84.6303 45.0211 84.7896 44.8632 85.1084 45.1791C87.021 46.6008 89.0929 48.0226 91.0054 49.2863C91.0054 49.4443 91.0054 49.4443 91.0054 49.6022Z" fill="#5BBF90"/>
<path d="M70.9236 71.8759C69.011 71.8759 67.2578 71.8759 65.3453 71.8759C64.8671 71.8759 64.7078 71.7179 64.7078 71.244C64.7078 69.8223 65.0265 69.3484 66.4609 69.3484C69.4891 69.3484 72.5174 69.3484 75.5456 69.3484C76.8206 69.3484 77.6175 70.2962 77.1394 71.56C76.98 71.8759 76.8206 71.7179 76.5018 71.7179C74.7487 71.8759 72.8361 71.8759 70.9236 71.8759Z" fill="#979FAA"/>
<path d="M70.9237 91.622C69.3299 91.622 67.8955 91.622 66.3017 91.622C65.0266 91.622 64.2297 90.6742 64.7079 89.4105C64.8673 89.0945 65.186 89.2525 65.3454 89.2525C68.0549 89.2525 70.7643 89.2525 73.3144 89.2525C74.43 89.2525 75.5457 89.2525 76.6613 89.2525C77.1395 89.2525 77.2989 89.4105 77.2989 89.8844C77.2989 91.4641 76.9801 91.78 75.3863 91.78C73.7925 91.622 72.3581 91.622 70.9237 91.622Z" fill="#979FAA"/>
<path d="M68.533 42.1777C69.1705 42.1777 69.808 42.1777 70.6049 42.1777C71.083 42.1777 71.083 42.3357 71.083 42.6516C70.7643 43.7574 69.808 44.5473 68.533 44.5473C67.4173 44.5473 66.461 43.7574 66.1423 42.6516C65.9829 42.1777 66.1423 42.1777 66.6204 42.1777C67.0986 42.1777 67.7361 42.1777 68.533 42.1777Z" fill="#CACED6"/>
<path d="M68.3737 29.8561C67.7362 29.8561 67.0986 29.2242 67.0986 28.5924C67.0986 27.9605 67.7362 27.3286 68.3737 27.3286C69.0112 27.3286 69.6487 27.9605 69.4893 28.5924C69.6487 29.2242 69.0112 29.8561 68.3737 29.8561Z" fill="#EFCC6C"/>
<path d="M63.5922 61.9239C62.3171 61.9239 62.3171 61.9239 62.3171 60.6601C62.3171 59.3964 62.3171 59.3964 63.5922 59.3964C64.8672 59.3964 64.8672 59.3964 64.8672 60.6601C64.7078 61.9239 64.7078 61.9239 63.5922 61.9239Z" fill="#010101"/>
<path d="M69.6487 60.8181C69.6487 62.0818 69.6487 62.0818 68.3737 62.0818C67.0986 62.0818 67.0986 62.0818 67.0986 60.8181C67.0986 59.5543 67.0986 59.5543 68.3737 59.5543C69.6487 59.5543 69.6487 59.5543 69.6487 60.8181Z" fill="#010101"/>
<path d="M74.7488 60.8181C74.7488 61.9239 74.7488 61.9239 73.6332 61.9239C72.3582 61.9239 72.3582 61.9239 72.3582 60.6601C72.3582 59.5543 72.3581 59.5543 73.4738 59.5543C74.7488 59.5543 74.7488 59.5543 74.7488 60.8181Z" fill="#010101"/>
</svg>
