<svg width="112" height="112" viewBox="0 0 112 112" fill="none" xmlns="http://www.w3.org/2000/svg">
<path d="M55.921 111.842C86.8053 111.842 111.842 86.8053 111.842 55.921C111.842 25.0367 86.8053 0 55.921 0C25.0367 0 0 25.0367 0 55.921C0 86.8053 25.0367 111.842 55.921 111.842Z" fill="#E1F3F5"/>
<path d="M36.6489 23.3794C36.4909 22.5896 36.6489 22.2737 37.4387 21.9577C42.4937 19.9041 47.7067 19.2723 53.0776 20.2201C57.8167 21.0099 62.2398 22.9055 66.0311 25.749C66.347 26.0649 66.505 26.0649 66.8209 25.749C70.9281 21.3258 75.8252 19.7462 81.512 21.3258C87.1989 22.9055 90.8322 26.8548 91.938 32.6996C93.5177 40.5981 88.1467 48.3385 80.0903 49.7603C79.4585 49.9182 78.6686 50.0762 78.0367 49.9182C77.2469 49.7603 77.0889 50.2342 77.0889 50.866C76.9309 53.7095 76.2991 56.5529 75.1933 59.0804C74.5614 60.6601 73.9295 62.0818 72.9817 63.5036C72.6658 63.8195 72.8238 64.1354 73.1397 64.2934C78.8266 68.4006 84.3555 72.8237 89.5685 77.5628C90.2003 78.0367 90.6742 78.6686 91.3061 79.1425C92.2539 79.9323 92.4119 80.8801 92.2539 81.9859C91.78 84.6714 90.3583 86.725 88.4627 88.6206C86.725 90.3583 84.8294 91.78 82.3019 92.0959C81.0381 92.2539 80.0903 92.2539 79.1425 91.1481C78.5106 90.3583 77.7208 89.5684 77.0889 88.9366C76.615 88.4627 76.457 87.8308 76.9309 87.1989C77.7208 86.725 78.0367 86.725 78.6686 87.3569C79.4584 88.1467 80.0903 88.9366 80.8802 89.7264C81.1961 90.0423 81.3541 90.0423 81.828 90.0423C83.2497 89.7264 84.6714 89.2525 85.7772 88.3047C86.725 87.6728 87.3569 86.883 88.1467 86.0931C89.2525 84.8294 90.2003 83.4077 90.5163 81.67C90.6742 81.1961 90.5163 80.8801 90.2003 80.4062C89.2525 79.6164 88.4627 78.8265 87.5149 77.8787C82.7758 73.6136 77.7208 69.5064 72.5078 65.8731C72.1919 65.5572 72.0339 65.7151 71.718 66.0311C70.7702 67.2948 69.6644 68.5586 68.4006 69.6643C67.7687 70.1383 67.2948 70.6122 66.663 71.0861C66.1891 71.402 66.1891 71.56 66.505 72.0339C69.5064 76.1411 72.6658 80.0903 75.8252 84.0395C76.2991 84.6714 76.2991 85.1453 75.9831 85.7772C75.0353 86.0931 74.8774 86.0931 74.0875 85.3033C70.7702 81.512 67.6108 77.4048 64.7673 73.2976C64.4514 72.8237 64.2934 72.8237 63.8195 73.1397C58.7645 76.1411 53.3936 77.5628 47.5487 77.2469C34.1214 76.615 23.5374 66.9789 20.852 54.8153C18.1665 42.9676 23.2215 30.646 33.4895 24.3273C34.2793 23.8534 34.5953 23.8534 35.3851 24.4852C35.5431 25.433 35.3851 25.591 34.5953 26.2229C25.4331 32.6996 21.1679 41.5459 22.7476 52.6037C24.0113 61.7659 29.2243 68.4006 37.4387 72.5078C39.1764 73.4556 41.072 74.0875 43.1256 74.4034C43.2836 74.4034 43.2836 74.5614 43.4415 74.5614C46.9168 75.3512 50.3922 75.3512 53.8675 74.7194C63.3456 72.6658 69.9803 67.2948 73.6136 58.4486C74.7194 55.7631 75.3513 53.0776 75.5092 50.0762C75.5092 49.9182 75.6672 49.6023 75.3513 49.6023C74.0875 49.4443 72.9817 48.9704 71.8759 48.4965C71.8759 59.5543 63.9775 68.7165 54.0254 70.9281C44.5473 72.9817 34.5953 69.0325 29.3823 60.3442C24.1693 51.6559 25.2751 40.914 32.0678 33.4895C35.5431 29.6982 39.8082 27.1707 44.8632 26.2229C52.1298 24.9591 58.6065 26.6968 64.2934 31.5938C64.6094 30.646 64.9253 29.6982 65.3992 28.9084C65.8731 27.9605 65.8731 27.9605 65.0833 27.3287C60.6601 24.0113 55.7631 22.2737 50.2342 22.1157C47.8647 21.9577 45.6531 22.1157 43.4415 22.7476C41.8618 22.9055 40.4401 23.5374 39.0184 24.0113C37.5967 24.1693 36.9648 24.0113 36.6489 23.3794ZM73.6136 46.9168C73.7716 47.0748 73.9295 47.0748 74.0875 47.0748C75.9831 47.7067 77.8788 47.8646 79.9324 47.3907C85.1453 46.4429 89.2525 42.1777 90.0424 37.1227C90.8322 31.9098 88.3047 26.6968 83.7236 24.1693C80.7222 22.5896 77.5628 22.1157 74.2455 23.2215C74.0875 23.2215 73.9295 23.2215 73.7716 23.3794C73.6136 23.3794 73.6136 23.3794 73.4556 23.3794C65.8731 26.2229 63.0297 35.701 67.7687 42.1778C69.1905 44.5473 71.0861 46.127 73.6136 46.9168ZM47.2328 69.1904C49.1284 69.3484 51.182 69.1904 53.0776 68.7165C62.8717 66.347 69.5064 57.6587 69.1905 47.3907C69.1905 47.0748 69.0325 46.9168 68.8745 46.7589C64.9253 43.5995 63.0297 39.4923 63.1876 34.4373C63.1876 34.1213 63.0297 33.8054 62.8717 33.4895C58.4486 29.3823 53.2356 27.4866 47.2328 27.8026C46.285 27.8026 45.1792 27.9605 44.2314 28.1185C33.9634 30.1721 26.3809 39.9662 27.9606 51.4979C28.7504 57.1848 31.5939 61.6079 36.017 65.0833C39.3343 67.6108 43.1256 68.8745 47.2328 69.1904Z" fill="#0B0A07"/>
<path d="M36.6489 23.3794C36.9648 24.0113 37.5967 24.1693 38.2286 23.8534C39.6503 23.2215 41.072 22.7476 42.6517 22.5896C41.8619 22.9055 41.072 23.3794 40.2822 23.6954C37.4387 25.1171 34.9112 27.0127 32.6997 29.3823C30.1722 31.9098 28.2766 34.9112 27.0128 38.2285C25.4331 42.1778 24.8012 46.2849 25.1172 50.7081C25.2751 52.9196 25.7491 54.9732 26.3809 57.0268C27.4867 60.5021 29.2244 63.6615 31.5939 66.347C33.9634 69.1904 36.6489 71.402 39.9663 73.1397C40.9141 73.6136 41.8619 74.0875 42.8097 74.5614C40.7561 74.2454 38.8605 73.4556 37.1228 72.6658C28.9084 68.5586 23.6955 61.9239 22.4317 52.7617C20.852 41.7038 24.9592 32.8576 34.2794 26.3809C35.2272 25.749 35.2272 25.591 35.0692 24.6432C35.3852 24.0113 36.017 23.6954 36.6489 23.3794Z" fill="#2D4F66"/>
<path d="M85.4614 88.3047C84.3556 89.2525 83.0919 89.8844 81.5122 90.0423C81.1963 90.0423 80.8803 90.0423 80.5644 89.7264C79.7745 88.9365 79.1427 88.1467 78.3528 87.3568C77.7209 86.725 77.405 86.725 76.6152 87.1989C76.1413 86.725 75.6673 86.0931 75.3514 85.6192C75.8253 84.9873 75.8253 84.5134 75.1934 83.8815C71.8761 80.0903 68.7167 75.9831 65.8733 71.8759C65.5573 71.402 65.5573 71.244 66.0312 70.9281C66.6631 70.4542 67.137 69.9803 67.7689 69.5063C68.2428 70.4542 69.0326 71.086 69.6645 71.7179C71.7181 74.0875 73.7717 76.299 75.9833 78.5106C77.8789 80.5642 79.9325 82.4598 81.8281 84.5134C81.9861 84.6714 82.1441 84.8293 82.1441 84.9873C83.2499 86.2511 84.3556 87.3568 85.4614 88.3047Z" fill="#2D4F66"/>
<path d="M42.6516 74.4034C41.7038 73.9295 40.756 73.4556 39.8082 72.9817C36.4908 71.2441 33.8054 69.0325 31.4358 66.1891C29.0663 63.3456 27.3286 60.3442 26.2229 56.8689C25.591 54.8153 25.1171 52.7617 24.9591 50.5501C24.6432 46.285 25.275 42.1778 26.8547 38.0706C28.1185 34.7532 30.0141 31.9098 32.5416 29.2243C34.7532 26.8548 37.2807 24.9592 40.1241 23.5374C40.914 23.0635 41.7038 22.7476 42.4937 22.4316C44.7052 21.7998 47.0748 21.6418 49.2863 21.7998C54.8152 22.1157 59.7123 23.8534 64.1354 27.0128C64.9253 27.6446 64.9253 27.6446 64.4513 28.5924C63.9774 29.3823 63.6615 30.3301 63.3456 31.2779C57.6587 26.3809 51.182 24.6432 43.9154 25.907C38.8604 26.8548 34.5952 29.2243 31.1199 33.1735C24.4852 40.5981 23.3794 51.4979 28.4344 60.0283C33.6474 68.7166 43.4415 72.8238 53.0776 70.6122C63.1876 68.4006 71.086 59.2384 70.9281 48.1806C72.0339 48.6545 73.1396 49.1284 74.4034 49.2864C74.7193 49.2864 74.5614 49.6023 74.5614 49.7603C74.4034 52.6037 73.9295 55.4472 72.6657 58.1326C69.5064 67.1369 62.8717 72.6658 53.3935 74.5614C49.9182 75.3513 46.4429 75.1933 42.9676 74.4034C42.8096 74.5614 42.8096 74.4034 42.6516 74.4034Z" fill="#567A85"/>
<path d="M74.0875 23.3794C77.4049 22.2736 80.5643 22.7475 83.5657 24.3272C88.1468 26.8547 90.6743 31.9097 89.8844 37.2807C89.0946 42.3357 84.9874 46.6008 79.7744 47.5486C77.8788 47.8646 75.8252 47.8646 73.9296 47.2327C73.7716 47.0747 73.6136 47.0747 73.4557 47.0747C73.4557 46.9168 73.2977 46.7588 73.1397 46.7588C72.0339 45.9689 70.9282 45.1791 70.1383 44.0733C67.2949 40.598 66.505 36.4908 67.4528 32.2256C68.0847 29.3822 69.6644 27.0127 71.876 25.117C72.3499 24.6431 73.1397 24.4852 73.4557 23.6953C73.7716 23.5373 73.9296 23.5373 74.0875 23.3794ZM76.1411 34.5952C75.6672 33.9633 75.3513 33.3314 75.0354 32.6996C74.2455 31.4358 72.8238 31.1199 71.56 31.7517C70.9282 32.0677 70.2963 32.5416 69.5064 33.0155C68.2427 33.8053 67.7688 35.2271 68.5586 36.4908C69.9804 38.8603 71.2441 41.0719 72.6658 43.4414C73.2977 44.3893 74.0875 44.8632 75.1933 44.7052C75.9832 44.7052 76.931 44.5472 77.7208 44.5472C78.8266 44.5472 79.6165 44.0733 80.0904 42.9675C82.144 38.8603 84.1976 34.7531 86.2512 30.646C86.883 29.2242 86.4091 27.9605 85.1454 27.1706C84.5135 26.8547 83.8816 26.5388 83.2497 26.2228C81.5121 25.433 80.2483 25.7489 79.3005 27.4866C78.3527 30.172 77.2469 32.3836 76.1411 34.5952Z" fill="#5BBF90"/>
<path d="M47.2328 27.8026C53.2356 27.4867 58.4486 29.3823 62.8717 33.4895C63.1876 33.8055 63.1876 33.9634 63.1876 34.4373C63.0297 39.4924 64.9253 43.5995 68.8745 46.7589C69.1904 46.9169 69.1904 47.0749 69.1904 47.3908C69.6644 57.5008 62.8717 66.3471 53.0776 68.7166C51.182 69.1905 49.2864 69.3485 47.2328 69.1905C46.4429 68.8746 45.4951 68.4007 44.7053 68.0847C42.4937 66.979 40.756 65.5572 39.0184 63.9775C38.5445 63.5036 38.0706 63.1877 37.9126 62.3979C40.2821 64.7674 43.2835 65.5572 46.4429 65.3993C48.1806 65.3993 49.9182 65.3993 51.4979 65.3993C52.1298 65.3993 52.9197 65.3993 53.5515 65.2413C57.1848 64.4515 59.7123 62.2399 61.134 58.7646C61.292 58.4486 61.45 58.2907 61.7659 58.2907C63.9775 57.8168 65.3992 56.0791 65.5572 53.8675C65.8731 51.656 64.2934 49.9183 62.3978 50.0763C61.7659 50.0763 61.7659 50.0763 61.7659 49.4444C61.7659 45.9691 61.7659 42.3358 61.7659 38.8605C61.7659 38.2286 61.7659 37.5967 61.6079 36.9648C60.8181 33.4895 57.9747 31.278 54.4993 31.278C50.0762 31.278 45.811 31.278 41.3879 31.278C41.3879 31.12 41.3879 31.12 41.5459 30.962C42.8096 30.0142 44.0734 29.2244 45.4951 28.7505C46.127 28.4345 46.6009 28.1186 47.2328 27.8026Z" fill="#F6F3F3"/>
<path d="M85.4613 88.3046C84.3555 87.3568 83.2497 86.251 82.4599 85.1453C82.3019 84.9873 82.144 84.8293 82.144 84.6714C80.2483 82.6178 78.1947 80.7221 76.2991 78.6685C74.2455 76.457 72.0339 74.2454 69.9803 71.8759C69.3485 71.086 68.4007 70.6121 68.0847 69.6643C69.3485 68.5585 70.4543 67.2948 71.4021 66.031C71.718 65.7151 71.876 65.7151 72.1919 65.8731C77.4049 69.6643 82.4599 73.6135 87.199 77.8787C88.1468 78.6685 88.9366 79.6163 89.8844 80.4062C90.2004 80.7221 90.3583 81.0381 90.2004 81.6699C89.8844 83.4076 89.0946 84.8293 87.8308 86.0931C87.041 86.8829 86.4091 87.6728 85.4613 88.3046Z" fill="#385F7E"/>
<path d="M47.2328 27.8026C46.7589 28.1186 46.127 28.4345 45.4951 28.5925C44.0734 29.2243 42.8097 30.0142 41.5459 30.804C41.3879 30.804 41.3879 30.962 41.3879 31.12C39.6503 31.4359 38.0706 32.2257 36.8068 33.4895C35.3851 35.0692 34.9112 36.8068 34.9112 38.8604C34.7532 38.8604 34.5953 39.0184 34.5953 39.1764C33.1735 42.1778 32.6996 45.3372 32.5417 48.6545C32.5417 49.1284 32.5417 49.6023 32.8576 50.0762C32.0678 50.5501 31.5939 51.182 31.2779 51.9719C30.4881 54.6573 32.2257 57.3428 34.9112 57.9747C35.3851 58.1327 35.5431 58.2906 35.5431 58.6066C36.017 60.0283 36.8068 61.1341 37.7546 62.0819C37.9126 62.7138 38.3865 63.1877 38.8604 63.6616C40.5981 65.3992 42.4937 66.821 44.5473 67.7688C45.3372 68.2427 46.285 68.5586 47.0748 68.8745C42.9676 68.7166 39.3343 67.2949 36.017 64.7674C31.4359 61.292 28.7504 56.8689 27.9606 51.182C26.3809 39.8083 33.9634 30.0142 44.2314 27.8026C45.1792 27.9606 46.127 27.8026 47.2328 27.8026Z" fill="#E5EAF4"/>
<path d="M73.6137 23.5375C73.2977 24.1694 72.5079 24.4853 72.034 24.9592C69.8224 26.8548 68.2427 29.2244 67.6108 32.0678C66.663 36.4909 67.4529 40.4402 70.2963 43.9155C71.2441 45.0213 72.1919 45.8111 73.2977 46.6009C73.4557 46.7589 73.6137 46.7589 73.6137 46.9169C71.0862 46.127 69.0326 44.5474 67.4529 42.4938C62.7138 36.017 65.5572 26.3809 73.1398 23.6954C73.4557 23.5375 73.6137 23.5375 73.6137 23.5375Z" fill="#54B284"/>
<path d="M73.6135 46.9167C73.7715 46.9167 73.9295 46.9167 74.0874 47.0747C73.9295 47.0747 73.7715 47.0747 73.6135 46.9167Z" fill="#79C0A2"/>
<path d="M74.0874 23.3794C73.9295 23.5374 73.7715 23.5374 73.6135 23.5374C73.7715 23.3794 73.9295 23.3794 74.0874 23.3794Z" fill="#79C0A2"/>
<path d="M76.1411 34.5953C77.2468 32.2258 78.3526 30.0142 79.4584 27.8026C80.2482 26.065 81.67 25.5911 83.4076 26.5389C84.0395 26.8548 84.6714 27.1708 85.3033 27.4867C86.567 28.1186 87.0409 29.5403 86.409 30.962C84.3554 35.0692 82.3018 39.1764 80.2482 43.2836C79.7743 44.2314 78.9845 44.7053 77.8787 44.8633C77.0889 44.8633 76.1411 44.8633 75.3512 45.0213C74.2454 45.0213 73.4556 44.7053 72.8237 43.7575C71.402 41.388 69.9803 39.1764 68.7165 36.8069C67.9267 35.3851 68.2426 33.9634 69.5064 33.1736C70.1382 32.6997 70.7701 32.3837 71.5599 31.9098C72.8237 31.12 74.2454 31.5939 75.0353 32.8576C75.3512 33.3316 75.8251 33.9634 76.1411 34.5953ZM76.457 42.6517C77.7207 42.9677 78.3526 42.4938 78.9845 41.388C80.7222 37.7547 82.6178 34.1214 84.3554 30.3301C84.6714 29.8562 84.5134 29.5403 84.0395 29.2244C83.5656 29.0664 83.0917 28.7505 82.6178 28.4345C82.1439 28.1186 81.8279 28.2765 81.512 28.7505C80.2482 31.4359 78.8265 34.2794 77.4048 36.9648C77.2468 37.4387 76.9309 37.7547 76.299 37.9127C75.8251 37.9127 75.5092 37.5967 75.1932 37.1228C74.5614 36.175 73.9295 35.2272 73.4556 34.1214C73.1396 33.6475 72.8237 33.4895 72.3498 33.8055C71.8759 34.1214 71.402 34.4373 70.9281 34.7533C70.4542 35.0692 70.2962 35.2272 70.6121 35.8591C71.7179 37.5967 72.8237 39.4923 73.9295 41.388C74.4034 42.3358 75.0353 43.1256 76.457 42.6517Z" fill="#080B09"/>
<path d="M37.9127 62.2398C36.9648 61.134 36.175 60.0282 35.7011 58.7644C35.5431 58.4485 35.3852 58.1326 35.0692 58.1326C32.3837 57.5007 30.8041 54.8152 31.4359 52.1297C31.5939 51.3399 32.2258 50.708 33.0156 50.2341C33.6475 50.0761 34.1214 49.9182 34.7533 50.0761C35.0692 50.2341 35.2272 50.0761 35.2272 49.7602C35.2272 46.1269 35.2272 42.6516 35.2272 39.0183C35.2272 36.9647 35.7011 35.2271 37.1228 33.6474C38.3866 32.2256 39.8083 31.5938 41.7039 31.2778C46.127 31.2778 50.3922 31.2778 54.8153 31.2778C58.2907 31.2778 61.1341 33.4894 61.9239 36.9647C62.0819 37.5966 62.0819 38.2285 62.0819 38.8603C62.0819 42.3357 62.0819 45.9689 62.0819 49.4443C62.0819 49.9182 62.0819 50.0761 62.7138 50.0761C64.6094 49.7602 66.1891 51.6558 65.8732 53.8674C65.5572 56.079 64.2935 57.6587 62.0819 58.2905C61.766 58.2905 61.608 58.6065 61.45 58.7644C60.0283 62.2398 57.5008 64.4513 53.8675 65.2412C53.2356 65.3991 52.4458 65.3991 51.8139 65.3991C50.0763 65.3991 48.3386 65.3991 46.7589 65.3991C43.1256 65.3991 40.2822 64.6093 37.9127 62.2398ZM42.0199 39.8082C42.4938 40.1241 43.1256 40.2821 43.5995 40.598C44.2314 41.0719 44.8633 41.5458 45.4952 42.0197C47.3908 43.4414 49.4444 43.4414 51.34 42.0197C51.8139 41.7038 52.2878 41.2299 52.9197 40.9139C54.1835 39.9661 55.6052 39.3343 57.1849 39.8082C57.8168 39.9661 58.4486 40.1241 59.0805 40.598C59.5544 40.9139 59.7124 40.756 59.7124 40.2821C59.7124 39.6502 59.7124 38.8603 59.7124 38.2285C59.5544 35.8589 57.5008 33.6474 55.1313 33.4894C51.656 33.4894 48.0227 33.4894 44.5474 33.4894C43.1256 33.4894 41.8619 33.3314 40.4402 33.8053C37.5967 35.0691 36.9648 37.5966 37.4388 40.9139C39.6503 39.4922 39.9663 39.4922 42.0199 39.8082ZM42.1778 42.1777C40.5981 41.2299 37.7547 42.1777 37.2808 43.9154C37.2808 44.0733 37.2808 44.0733 37.2808 44.2313C37.2808 48.0225 37.1228 51.9718 37.4388 55.763C37.5967 59.8702 41.388 63.6615 46.601 63.0296C48.6545 63.1876 50.7081 63.1876 52.7617 63.0296C54.0255 63.0296 55.1313 62.5557 56.2371 61.9238C58.7646 60.1862 60.0283 57.8166 60.0283 54.8152C60.0283 51.6558 59.8703 48.4965 60.0283 45.3371C60.0283 43.7574 59.3964 42.9675 58.1327 42.1777C57.0269 41.3879 55.7631 41.3879 54.6574 42.1777C54.0255 42.6516 53.5516 43.1255 52.9197 43.4414C50.0763 45.495 47.2328 45.495 44.3894 43.4414C43.4416 43.1255 42.8097 42.4936 42.1778 42.1777ZM35.0692 55.763C35.0692 54.8152 35.0692 54.0254 35.0692 53.0776C35.0692 52.9196 35.0692 52.9196 35.0692 52.7616C35.0692 52.2877 34.7533 51.9718 34.2794 51.9718C33.8055 51.9718 33.4895 52.1297 33.4895 52.6036C33.1736 54.0254 33.8055 55.2891 35.0692 55.763ZM61.766 55.763C63.0297 55.1312 63.6616 53.8674 63.3457 52.7616C63.1877 52.2877 62.8718 52.1297 62.5558 52.1297C62.0819 52.1297 61.766 52.4457 61.766 52.9196C61.766 53.8674 61.766 54.8152 61.766 55.763Z" fill="#090808"/>
<path d="M34.911 39.0183C34.911 42.6516 34.911 46.1269 34.911 49.7602C34.911 50.0761 34.911 50.2341 34.4371 50.0761C33.8053 49.9182 33.3314 50.0761 32.6995 50.2341C32.3835 49.7602 32.3835 49.2863 32.3835 48.8124C32.3835 45.495 33.0154 42.3357 34.4371 39.3342C34.7531 39.1763 34.7531 39.0183 34.911 39.0183Z" fill="#F8F5F5"/>
<path d="M76.4572 42.6517C75.1934 43.2835 74.5615 42.4937 73.9297 41.3879C72.9818 39.4923 71.7181 37.7546 70.6123 35.859C70.2964 35.3851 70.2964 35.0692 70.9282 34.7532C71.4022 34.4373 71.8761 34.2793 72.35 33.8054C72.8239 33.4895 73.1398 33.6474 73.4557 34.1213C74.0876 35.0692 74.5615 36.1749 75.1934 37.1227C75.5093 37.5967 75.8253 37.9126 76.2992 37.9126C76.9311 37.9126 77.089 37.4387 77.405 36.9648C78.8267 34.2793 80.0904 31.4359 81.5122 28.7504C81.8281 28.1185 82.144 28.1185 82.6179 28.4345C83.0919 28.7504 83.5658 28.9084 84.0397 29.2243C84.6715 29.5402 84.6715 29.8562 84.3556 30.3301C82.46 33.9634 80.7223 37.5967 78.9847 41.3879C78.3528 42.4937 77.5629 42.8096 76.4572 42.6517Z" fill="#F5F3F2"/>
<path d="M42.1779 42.1777C42.9678 42.4936 43.4417 43.1255 44.2315 43.5994C47.075 45.653 49.9184 45.653 52.7619 43.5994C53.3937 43.1255 53.8676 42.6516 54.4995 42.3357C55.6053 41.5458 56.869 41.5458 57.9748 42.3357C59.0806 43.1255 59.8705 43.9154 59.8705 45.495C59.7125 48.6544 59.8705 51.8138 59.8705 54.9732C59.8705 57.9746 58.7647 60.5021 56.0792 62.0818C54.9734 62.7137 53.8676 63.1876 52.6039 63.1876C50.5503 63.3455 48.4967 63.3455 46.4431 63.1876C46.4431 63.0296 46.2851 62.8716 46.1272 62.8716C44.2315 61.6079 42.9678 59.8702 42.3359 57.6587C41.862 56.079 42.02 54.4993 42.02 52.9196C42.8098 53.3935 43.2837 53.2355 43.5997 52.4457C43.9156 51.6558 43.9156 50.866 43.5997 50.0762C43.2837 49.2863 42.9678 49.2863 42.1779 49.6022C42.02 49.4443 42.02 49.2863 42.02 49.2863C42.02 47.2327 42.02 45.0211 42.02 42.9675C42.02 42.4936 41.862 42.3357 42.1779 42.1777ZM48.0228 59.5543C49.1286 59.5543 49.9184 59.2384 50.5503 58.6065C51.0242 58.1326 51.0242 57.5007 50.7083 57.0268C50.3923 56.5529 49.7604 56.3949 49.1286 56.8688C48.4967 57.3427 47.8648 57.3427 47.2329 56.8688C46.759 56.3949 46.1272 56.5529 45.8112 57.0268C45.4953 57.5007 45.4953 57.9746 45.9692 58.4485C46.6011 59.2384 47.3909 59.5543 48.0228 59.5543ZM52.9198 51.1819C52.9198 51.8138 53.0778 52.2877 53.3937 52.7616C53.8676 53.2355 54.3415 53.2355 54.6575 52.7616C55.2894 51.9718 55.2894 50.2341 54.6575 49.6022C54.1836 49.1283 53.7097 49.1283 53.3937 49.6022C53.0778 50.0762 52.9198 50.5501 52.9198 51.1819Z" fill="#C2895A"/>
<path d="M44.3893 33.3314C47.8646 33.3314 51.4979 33.1735 54.9732 33.3314C57.3428 33.3314 59.3964 35.543 59.5543 38.0705C59.5543 38.7024 59.5543 39.4922 59.5543 40.1241C59.5543 40.598 59.3964 40.756 58.9225 40.44C58.2906 39.9661 57.6587 39.8082 57.0268 39.6502C55.4471 39.1763 54.0254 39.8082 52.7617 40.756C52.2878 41.0719 51.8139 41.5458 51.182 41.8618C49.2864 43.2835 47.2328 43.2835 45.3371 41.8618C44.7053 41.3879 44.0734 40.9139 43.4415 40.44C42.9676 40.1241 42.4937 39.8082 41.8618 39.6502C41.8618 39.1763 41.8618 38.7024 41.8618 38.2285C41.8618 36.9647 42.1778 35.8589 42.9676 34.7532C43.4415 34.2793 44.0734 33.9633 44.3893 33.3314Z" fill="#385F7E"/>
<path d="M42.0198 52.7617C42.0198 54.3414 41.8619 55.9211 42.3358 57.5008C42.9676 59.7123 44.2314 61.45 46.127 62.7137C46.285 62.8717 46.443 62.8717 46.443 63.0297C41.23 63.6616 37.5967 59.8703 37.2808 55.7631C37.1228 51.9719 37.2808 48.0226 37.1228 44.2314C37.1228 44.0734 37.1228 44.0734 37.1228 43.9154C37.7547 42.1778 40.4401 41.23 42.0198 42.1778C41.8619 42.3358 41.8619 42.4937 41.8619 42.6517C41.8619 44.7053 41.8619 46.9169 41.8619 48.9704C41.8619 49.1284 41.8619 49.2864 42.0198 49.2864C41.23 50.5501 41.23 51.6559 42.0198 52.7617Z" fill="#B07A4A"/>
<path d="M44.3892 33.3316C44.0733 33.9634 43.4414 34.2794 43.1254 34.9112C42.4936 36.017 42.0197 37.1228 42.0197 38.3866C42.0197 38.8605 42.0197 39.3344 42.0197 39.8083C39.9661 39.4923 39.6501 39.4923 37.2806 40.7561C36.8067 37.4387 37.4386 34.9112 40.282 33.6475C41.7037 33.1736 42.9675 33.3316 44.3892 33.3316Z" fill="#2D4F66"/>
<path d="M35.0691 55.763C33.8054 55.1312 33.1735 53.8674 33.4894 52.7616C33.6474 52.2877 33.8054 52.1298 34.2793 52.1298C34.7532 52.1298 35.0691 52.4457 35.0691 52.9196C35.0691 53.0776 35.0691 53.0776 35.0691 53.2355C35.0691 54.0254 35.0691 54.8152 35.0691 55.763Z" fill="#B07A4A"/>
<path d="M61.7659 55.763C61.7659 54.8152 61.7659 53.8674 61.7659 52.9196C61.7659 52.4457 61.9238 52.1298 62.5557 52.1298C63.0296 52.1298 63.3456 52.2877 63.5035 52.7616C63.6615 53.8674 63.0296 55.2891 61.7659 55.763Z" fill="#B07A4A"/>
<path d="M48.0226 59.5544C47.3907 59.5544 46.6009 59.2384 45.969 58.6066C45.4951 58.1326 45.4951 57.6587 45.811 57.1848C46.1269 56.7109 46.7588 56.553 47.2327 57.0269C47.8646 57.5008 48.4965 57.5008 49.1284 57.0269C49.6023 56.553 50.2341 56.7109 50.708 57.1848C51.024 57.6587 51.024 58.2906 50.5501 58.7645C50.0762 59.2384 49.2863 59.5544 48.0226 59.5544Z" fill="#0B0A07"/>
<path d="M52.9197 51.182C52.9197 50.5501 53.0776 50.0762 53.3936 49.6023C53.8675 49.1283 54.3414 49.1283 54.6573 49.6023C55.2892 50.2341 55.2892 52.1298 54.6573 52.7616C54.1834 53.2355 53.7095 53.2355 53.3936 52.7616C53.0776 52.2877 52.9197 51.8138 52.9197 51.182Z" fill="#0B0A07"/>
<path d="M42.0197 52.7617C41.3879 51.6559 41.2299 50.5501 42.1777 49.4443C42.9676 49.1284 43.2835 49.2864 43.5994 49.9183C43.9154 50.7081 43.9154 51.4979 43.5994 52.2878C43.2835 53.0776 42.8096 53.2356 42.0197 52.7617Z" fill="#0B0A07"/>
</svg>
