<svg width="112" height="112" viewBox="0 0 112 112" fill="none" xmlns="http://www.w3.org/2000/svg">
<path d="M55.921 111.842C86.8053 111.842 111.842 86.8053 111.842 55.921C111.842 25.0367 86.8053 0 55.921 0C25.0367 0 0 25.0367 0 55.921C0 86.8053 25.0367 111.842 55.921 111.842Z" fill="#E1F3F5"/>
<path d="M73.1399 66.9789H69.9805V75.0353H73.1399V66.9789Z" fill="#5BBF90"/>
<path d="M72.9818 73.6135H36.491V76.6149H72.9818V73.6135Z" fill="#5BBF90"/>
<path d="M77.0888 70.1382C77.8787 70.9281 78.8265 71.8759 79.6163 72.6657C79.7743 72.8237 80.0902 72.8237 80.2482 72.8237C80.8801 72.6657 81.354 72.8237 81.8279 73.2976C82.9337 74.4034 84.0395 75.5092 85.1453 76.615C85.6192 77.0889 85.6192 77.7207 85.1453 78.0367C84.6713 78.5106 84.1974 78.3526 83.7235 77.8787C82.7757 76.9309 81.6699 75.8251 80.7221 74.8773C79.6163 75.9831 78.6685 76.9309 77.7207 77.8787C80.5641 80.7221 83.4076 83.5656 86.251 86.409C87.1988 85.4612 88.1467 84.5134 89.2524 83.4076C88.6206 82.7757 87.8307 81.9859 87.0409 81.1961C86.7249 80.8801 86.567 80.4062 86.8829 79.9323C87.1988 79.6164 87.5148 79.6164 87.9887 79.4584C88.1467 79.4584 88.4626 79.6164 88.6206 79.7743C89.4104 80.5642 90.2003 81.1961 90.8321 81.9859C91.622 82.9337 91.622 83.7236 90.8321 84.6714C89.7263 85.7772 88.6206 86.8829 87.6728 87.8307C86.8829 88.6206 85.7771 88.6206 84.9873 87.8307C81.9859 84.8293 79.1424 81.9859 76.141 78.9845C75.6671 78.5106 75.5091 77.8787 75.5091 77.2468C75.5091 77.0889 75.5091 76.9309 75.5091 76.7729C74.8773 75.9831 74.0874 75.1932 73.2976 74.5614C73.2976 74.5614 73.1396 74.5614 73.1396 74.7193C73.1396 74.8773 73.1396 75.1932 73.1396 75.3512C73.1396 78.5106 73.1396 81.512 73.1396 84.6714C73.1396 86.409 72.5077 86.8829 70.928 86.8829C61.9238 86.8829 52.9196 86.8829 43.9153 86.8829C42.8096 86.8829 42.3357 86.567 42.3357 85.9351C42.3357 85.3033 42.8096 84.9873 43.9153 84.9873C52.7616 84.9873 61.6079 84.9873 70.2962 84.9873C70.6121 84.9873 70.7701 84.9873 71.086 84.9873C71.086 81.8279 71.086 78.6685 71.086 75.5092C70.4541 75.8251 69.9802 75.9831 69.3484 76.299C69.3484 77.8787 69.3484 79.6164 69.3484 81.1961C69.3484 82.7757 68.7165 83.4076 67.1368 83.4076C54.9732 83.4076 42.8096 83.4076 30.6459 83.4076C30.33 83.4076 30.0141 83.4076 29.6981 83.4076C29.6981 84.0395 29.6981 84.5134 29.6981 85.1453C29.8561 85.1453 30.172 85.1453 30.33 85.1453C32.8575 85.1453 35.385 85.1453 37.9125 85.1453C38.2285 85.1453 38.5444 85.1453 38.7024 85.3032C39.1763 85.4612 39.3342 85.7772 39.3342 86.409C39.3342 86.8829 39.0183 87.1989 38.5444 87.1989C38.0705 87.1989 37.5966 87.1989 37.2806 87.1989C34.7531 87.1989 32.2256 87.1989 29.6981 87.1989C28.2764 87.1989 27.6445 86.567 27.6445 85.1453C27.6445 84.6714 27.6445 84.0395 27.6445 83.4076C27.0127 83.4076 26.5388 83.4076 25.9069 83.4076C24.3272 83.4076 23.6953 82.7757 23.6953 81.354C23.6953 62.7137 23.6953 44.0733 23.6953 25.433C23.6953 24.0113 24.3272 23.3794 25.7489 23.3794C39.4922 23.3794 53.2355 23.3794 66.9788 23.3794C68.4005 23.3794 69.0324 24.0113 69.0324 25.433C69.0324 25.9069 69.0324 26.5388 69.0324 27.1707C69.6643 27.1707 70.1382 27.1707 70.7701 27.1707C72.1918 27.1707 72.8237 27.8025 72.8237 29.2242C72.8237 34.1213 72.8237 39.0183 72.8237 43.9154C72.8237 44.2313 72.8237 44.3893 72.8237 44.7052C73.4555 44.8632 73.9295 45.3371 74.0874 45.969C74.5613 48.0226 75.983 49.2863 78.0366 49.9182C78.3526 50.0762 78.8265 50.3921 78.9845 50.708C79.4584 51.3399 79.1424 52.2877 78.3526 52.6037C78.1946 52.7616 77.8787 52.7616 77.5627 52.9196C79.1424 55.763 79.7743 58.6065 79.6163 61.7659C79.7743 64.7673 78.8265 67.6107 77.0888 70.1382ZM67.1368 76.9309C66.9788 76.9309 66.9788 76.9309 66.8208 76.9309C64.4513 77.4048 62.2397 77.4048 59.8702 76.9309C58.7644 76.615 57.8166 76.299 56.7108 76.299C48.6544 76.299 40.44 76.299 32.3836 76.299C32.2256 76.299 31.9097 76.299 31.7517 76.299C31.1199 76.299 30.8039 75.6671 30.8039 75.1932C30.9619 74.7193 31.2778 74.4034 32.0677 74.4034C39.0183 74.4034 45.9689 74.4034 52.9196 74.4034C53.0775 74.4034 53.3935 74.4034 53.5515 74.4034C52.6036 73.4556 51.8138 72.6657 50.866 71.7179C50.708 71.5599 50.3921 71.5599 50.2341 71.5599C49.2863 71.5599 48.1805 71.5599 47.2327 71.5599C46.9168 71.5599 46.4428 71.402 46.1269 71.086C45.653 70.4542 46.1269 69.6643 46.9168 69.6643C47.7066 69.6643 48.3385 69.6643 49.1283 69.6643C48.6544 68.8745 48.3385 68.0846 48.0225 67.4528C47.8646 66.9788 47.5486 66.8209 47.0747 66.8209C42.1777 66.8209 37.1227 66.8209 32.2256 66.8209C32.0677 66.8209 31.7517 66.8209 31.5938 66.8209C30.9619 66.8209 30.6459 66.189 30.6459 65.7151C30.8039 65.2412 31.1199 64.9252 31.9097 64.9252C36.6488 64.9252 41.5458 64.9252 46.2849 64.9252C46.6008 64.9252 46.7588 64.9252 47.0747 64.9252C46.9168 63.9774 46.7588 63.0296 46.6008 62.0818C46.2849 62.0818 46.1269 62.0818 45.811 62.0818C41.2299 62.0818 36.6488 62.0818 32.0677 62.0818C31.7517 62.0818 31.4358 62.0818 31.1199 61.9238C30.8039 61.6079 30.6459 61.292 30.6459 60.976C30.6459 60.5021 30.9619 60.1862 31.4358 60.1862C31.5938 60.1862 31.9097 60.1862 32.0677 60.1862C36.6488 60.1862 41.2299 60.1862 45.811 60.1862C46.1269 60.1862 46.2849 60.1862 46.6008 60.1862C46.7588 59.2384 46.9168 58.2905 47.0747 57.3427C46.7588 57.3427 46.6008 57.3427 46.2849 57.3427C42.1777 57.3427 38.0705 57.3427 33.9633 57.3427C33.1735 57.3427 32.3836 57.3427 31.5938 57.3427C30.9619 57.3427 30.6459 57.0268 30.6459 56.3949C30.6459 55.921 30.9619 55.4471 31.5938 55.2891C31.7517 55.2891 32.0677 55.2891 32.2256 55.2891C36.9647 55.2891 41.5458 55.2891 46.2849 55.2891C47.3907 55.2891 48.0225 55.1312 48.3385 54.0254C48.8124 52.9196 49.4443 51.9718 50.0761 50.866C49.7602 50.866 49.6022 50.866 49.2863 50.866C43.5994 50.866 37.7546 50.866 32.0677 50.866C31.9097 50.866 31.5938 50.866 31.4358 50.866C30.9619 50.708 30.6459 50.3921 30.6459 49.7602C30.6459 49.1283 30.9619 48.9704 31.5938 48.8124C31.7517 48.8124 32.0677 48.8124 32.2256 48.8124C38.5444 48.8124 45.0211 48.8124 51.3399 48.8124C51.6558 48.8124 51.9718 48.8124 52.1297 48.6544C53.3935 47.7066 54.6572 46.9168 55.921 45.969C55.2891 45.969 54.4993 45.969 53.8674 45.969C53.2355 45.969 52.7616 45.4951 52.9196 44.8632C52.9196 44.2313 53.3935 43.9154 53.8674 43.9154C56.2369 43.9154 58.6065 43.9154 60.976 43.9154C61.134 43.9154 61.2919 43.9154 61.2919 44.0733C61.7658 44.5472 62.3977 44.3893 63.0296 44.3893C63.6615 44.3893 64.2933 44.3893 64.9252 44.5472C65.5571 44.5472 66.189 44.7052 66.8208 44.8632C66.8208 44.7052 66.8208 44.5472 66.8208 44.3893C66.8208 42.6516 66.8208 40.756 66.8208 39.0183C66.8208 38.2285 67.4527 37.7546 68.2426 37.9125C68.7165 38.0705 68.8744 38.5444 68.8744 39.0183C68.8744 40.914 68.8744 42.8096 68.8744 44.8632C68.8744 45.0211 69.0324 45.3371 69.0324 45.4951C69.5063 45.811 69.9802 45.969 70.6121 46.1269C70.6121 40.44 70.6121 34.7532 70.6121 29.0663C69.9802 29.0663 69.5063 29.0663 68.8744 29.0663C68.8744 29.3822 68.8744 29.5402 68.8744 29.8561C68.8744 31.2778 68.8744 32.6996 68.8744 34.1213C68.8744 34.9111 68.4005 35.385 67.6107 35.2271C66.9788 35.0691 66.8208 34.5952 66.8208 34.1213C66.8208 31.4358 66.8208 28.7503 66.8208 26.0649C66.8208 25.9069 66.8208 25.591 66.8208 25.275C52.9196 25.275 39.1763 25.275 25.433 25.275C25.433 44.0733 25.433 62.7137 25.433 81.354C39.1763 81.354 52.9196 81.354 66.8208 81.354C67.1368 79.9323 67.1368 78.5106 67.1368 76.9309ZM66.3469 50.708C62.2397 49.4443 56.8688 50.866 54.1833 55.6051C51.6558 60.1862 52.6036 65.7151 56.7108 69.1904C60.5021 72.3498 66.3469 72.3498 70.2962 69.1904C74.4034 65.8731 74.8773 60.5021 73.6135 57.6587C72.5077 57.9746 71.8759 57.6587 71.5599 56.5529C70.928 54.4993 69.6643 53.0776 67.6107 52.6037C66.5049 52.2877 66.189 51.6558 66.3469 50.708ZM75.983 53.7094C75.8251 53.8674 75.8251 53.8674 75.6671 54.0254C74.8773 54.8152 74.7193 55.1312 75.1932 56.2369C75.983 58.2905 76.299 60.3441 75.983 62.5557C75.1932 69.5063 68.8744 74.4034 61.9238 73.6135C54.3413 72.6657 49.2863 65.2412 51.1819 57.8166C53.0775 50.3921 60.976 46.4429 68.0846 49.2863C68.2426 49.4443 68.7165 49.4443 68.8744 49.4443C69.3483 49.1283 69.8223 48.8124 70.2962 48.4965C65.5571 45.653 57.3427 45.811 52.2877 51.8138C47.5486 57.3427 47.8646 66.189 53.2355 71.402C58.7644 76.7729 67.2948 77.0889 73.1396 71.8759C78.8265 66.6629 79.1424 58.6065 75.983 53.7094ZM69.3484 51.1819C70.928 51.9718 72.0338 53.0776 72.8237 54.6573C73.6135 53.0776 74.7193 51.8138 76.299 51.1819C74.7193 50.5501 73.6135 49.2863 72.8237 47.7066C72.0338 49.2863 70.928 50.3921 69.3484 51.1819ZM74.4034 73.1396C75.1932 73.9295 75.983 74.7193 76.7729 75.5092C77.2468 75.0353 77.7207 74.5614 78.1946 74.2454C77.4048 73.4556 76.6149 72.6657 75.8251 71.8759C75.3512 72.3498 74.8773 72.8237 74.4034 73.1396Z" fill="black"/>
<path d="M80.5642 45.495C80.4062 46.9167 80.2483 47.3906 79.6164 47.3906C78.9845 47.3906 78.6686 47.0747 78.5106 45.495C77.7208 45.337 76.773 45.653 76.615 44.3892C76.615 43.7573 77.0889 43.5994 78.5106 43.4414C78.6686 42.6516 78.3526 41.7037 79.6164 41.5458C80.2483 41.5458 80.4062 41.8617 80.5642 43.4414C81.3541 43.5994 82.4598 43.2834 82.3019 44.5472C82.3019 45.653 81.3541 45.337 80.5642 45.495Z" fill="black"/>
<path d="M67.1369 76.9309C67.1369 78.3526 67.1369 79.7743 67.1369 81.354C53.3936 81.354 39.6503 81.354 25.749 81.354C25.749 62.7137 25.749 43.9154 25.749 25.275C39.4923 25.275 53.2356 25.275 67.1369 25.275C67.1369 25.591 67.1369 25.7489 67.1369 26.0649C67.1369 28.7503 67.1369 31.4358 67.1369 34.1213C67.1369 34.7532 67.2949 35.0691 67.9267 35.2271C68.5586 35.385 69.1905 34.9111 69.1905 34.1213C69.1905 32.6996 69.1905 31.2778 69.1905 29.8561C69.1905 29.5402 69.1905 29.3822 69.1905 29.0663C69.8224 29.0663 70.2963 29.0663 70.9282 29.0663C70.9282 34.7532 70.9282 40.44 70.9282 46.1269C70.4543 45.969 69.8224 45.653 69.3485 45.4951C69.1905 45.3371 69.1905 45.1791 69.1905 44.8632C69.1905 42.9675 69.1905 41.0719 69.1905 39.0183C69.1905 38.5444 69.0325 38.0705 68.5586 37.9125C67.9267 37.5966 67.2949 38.0705 67.1369 39.0183C67.1369 40.756 67.1369 42.6516 67.1369 44.3893C67.1369 44.5472 67.1369 44.7052 67.1369 44.8632C66.505 44.7052 65.8731 44.7052 65.2413 44.5472C64.6094 44.5472 63.9775 44.3893 63.3456 44.3893C62.7138 44.3893 62.0819 44.5472 61.608 44.0733C61.608 43.9154 61.292 43.9154 61.292 43.9154C58.9225 43.9154 56.553 43.9154 54.1834 43.9154C53.7095 43.9154 53.2356 44.2313 53.2356 44.8632C53.2356 45.4951 53.5516 45.969 54.1834 45.969C54.9733 45.969 55.6052 45.969 56.237 45.969C54.9733 46.9168 53.7095 47.8646 52.4458 48.6544C52.2878 48.8124 51.9719 48.8124 51.6559 48.8124C45.3372 48.8124 38.8605 48.8124 32.5417 48.8124C32.3837 48.8124 32.0678 48.8124 31.9098 48.8124C31.2779 48.8124 30.962 49.1283 30.962 49.7602C30.962 50.3921 31.2779 50.708 31.7518 50.866C31.9098 50.866 32.2258 50.866 32.3837 50.866C38.0706 50.866 43.9155 50.866 49.6023 50.866C49.9183 50.866 50.0762 50.866 50.3922 50.866C49.7603 51.9718 49.1284 52.9196 48.6545 54.0254C48.1806 55.1312 47.7067 55.2891 46.6009 55.2891C41.8619 55.2891 37.2808 55.2891 32.5417 55.2891C32.3837 55.2891 32.0678 55.2891 31.9098 55.2891C31.2779 55.4471 30.962 55.763 30.962 56.3949C30.962 56.8688 31.2779 57.3427 31.9098 57.3427C32.6997 57.3427 33.4895 57.3427 34.2794 57.3427C38.3865 57.3427 42.4937 57.3427 46.6009 57.3427C46.9169 57.3427 47.0748 57.3427 47.3908 57.3427C47.2328 58.2905 47.0748 59.2384 46.9169 60.1862C46.6009 60.1862 46.443 60.1862 46.127 60.1862C41.5459 60.1862 36.9648 60.1862 32.3837 60.1862C32.2258 60.1862 31.9098 60.1862 31.7518 60.1862C31.2779 60.1862 30.962 60.5021 30.962 60.976C30.962 61.2919 31.2779 61.7659 31.4359 61.9238C31.5939 62.0818 32.0678 62.0818 32.3837 62.0818C36.9648 62.0818 41.5459 62.0818 46.127 62.0818C46.443 62.0818 46.6009 62.0818 46.9169 62.0818C47.0748 63.0296 47.2328 63.9774 47.3908 64.9252C47.0748 64.9252 46.9169 64.9252 46.6009 64.9252C41.8619 64.9252 36.9648 64.9252 32.2258 64.9252C31.4359 64.9252 30.962 65.2412 30.962 65.7151C30.804 66.347 31.2779 66.8209 31.9098 66.8209C32.0678 66.8209 32.3837 66.8209 32.5417 66.8209C37.4387 66.8209 42.4937 66.8209 47.3908 66.8209C47.8647 66.8209 48.1806 66.9788 48.3386 67.4527C48.6545 68.2426 48.9705 68.8745 49.4444 69.6643C48.6545 69.6643 47.8647 69.6643 47.2328 69.6643C46.443 69.6643 45.9691 70.4542 46.443 71.086C46.6009 71.402 47.0748 71.5599 47.5487 71.5599C48.4966 71.5599 49.6023 71.5599 50.5502 71.5599C50.7081 71.5599 51.0241 71.5599 51.182 71.7179C52.1298 72.5078 52.9197 73.4556 53.8675 74.4034C53.7095 74.4034 53.3936 74.4034 53.2356 74.4034C46.285 74.4034 39.3344 74.4034 32.3837 74.4034C31.5939 74.4034 31.2779 74.7193 31.12 75.1932C30.962 75.8251 31.4359 76.299 32.0678 76.299C32.2258 76.299 32.5417 76.299 32.6997 76.299C40.7561 76.299 48.9705 76.299 57.0269 76.299C58.1327 76.299 59.0805 76.7729 60.1863 76.9309C62.5558 77.4048 64.7674 77.4048 67.1369 76.9309C66.9789 76.9309 66.9789 76.9309 67.1369 76.9309ZM41.23 43.9154C38.2286 43.9154 35.2272 43.9154 32.3837 43.9154C32.0678 43.9154 31.9098 43.9154 31.5939 43.9154C31.12 44.0733 30.962 44.3893 30.962 44.8632C30.962 45.3371 31.2779 45.653 31.7518 45.811C31.9098 45.811 32.2258 45.811 32.5417 45.811C38.3865 45.811 44.2314 45.811 50.0763 45.811C50.2342 45.811 50.5502 45.811 50.7081 45.811C51.34 45.811 51.6559 45.4951 51.6559 44.8632C51.6559 44.3893 51.34 43.9154 50.7081 43.9154C50.5502 43.9154 50.2342 43.9154 50.0763 43.9154C47.0748 43.9154 44.0734 43.9154 41.23 43.9154ZM46.443 31.5938C43.5995 31.5938 40.914 31.5938 38.0706 31.5938C37.7547 31.5938 37.5967 31.5938 37.2808 31.5938C36.8069 31.7518 36.4909 32.0677 36.6489 32.5416C36.6489 32.8575 36.9648 33.1735 37.2808 33.4894C37.4387 33.6474 37.7547 33.6474 37.9126 33.6474C43.5995 33.6474 49.1284 33.6474 54.8153 33.6474C54.9733 33.6474 55.2892 33.6474 55.4472 33.6474C55.9211 33.4894 56.237 33.1735 56.237 32.6996C56.237 32.0677 55.7631 31.7518 54.9733 31.7518C52.1298 31.5938 49.2864 31.5938 46.443 31.5938ZM52.2878 41.0719C55.1313 41.0719 57.9747 41.0719 60.9761 41.0719C61.766 41.0719 62.0819 40.756 62.0819 40.1241C62.0819 39.4922 61.608 39.1763 60.9761 39.1763C55.1313 39.1763 49.4444 39.1763 43.5995 39.1763C43.2836 39.1763 42.8097 39.3343 42.6517 39.6502C42.4937 39.8082 42.4937 40.44 42.6517 40.598C42.8097 40.914 43.2836 41.0719 43.5995 41.0719C46.443 41.0719 49.4444 41.0719 52.2878 41.0719ZM37.7547 71.5599C39.6503 71.5599 41.388 71.5599 43.2836 71.5599C44.2314 71.5599 44.7053 71.244 44.7053 70.6121C44.7053 69.9802 44.2314 69.6643 43.2836 69.6643C39.6503 69.6643 36.017 69.6643 32.3837 69.6643C32.0678 69.6643 31.7518 69.6643 31.5939 69.6643C31.2779 69.8223 30.962 70.1382 30.962 70.4541C30.804 70.9281 31.12 71.244 31.5939 71.402C31.9098 71.402 32.0678 71.5599 32.3837 71.5599C34.1214 71.5599 36.017 71.5599 37.7547 71.5599ZM36.017 41.0719C37.2808 41.0719 38.7025 41.0719 39.9662 41.0719C40.5981 41.0719 41.072 40.598 41.072 40.1241C41.072 39.4922 40.5981 39.1763 39.9662 39.1763C37.2808 39.1763 34.7533 39.1763 32.0678 39.1763C31.2779 39.1763 30.962 39.4922 30.962 40.1241C30.962 40.756 31.4359 41.0719 32.0678 41.0719C33.3315 41.0719 34.7533 41.0719 36.017 41.0719Z" fill="#5BBF90"/>
<path d="M66.3469 50.7081C66.1889 51.6559 66.5049 52.2878 67.4527 52.6037C69.5063 53.2356 70.928 54.4993 71.4019 56.5529C71.7179 57.6587 72.3497 57.8167 73.4555 57.6587C74.7193 60.5022 74.2454 65.8731 70.1382 69.1905C66.3469 72.3498 60.3441 72.3498 56.5528 69.1905C52.4456 65.7151 51.4978 60.1862 54.0253 55.6051C56.8688 50.8661 62.2397 49.2864 66.3469 50.7081ZM63.5035 58.4486C61.6078 58.4486 59.7122 58.4486 57.8166 58.4486C57.0267 58.4486 56.5528 58.7645 56.5528 59.3964C56.5528 60.0283 57.0267 60.3442 57.8166 60.3442C61.6078 60.3442 65.3991 60.3442 69.1903 60.3442C69.9802 60.3442 70.4541 60.0283 70.4541 59.3964C70.4541 58.7645 69.9802 58.4486 69.1903 58.4486C67.2947 58.4486 65.3991 58.4486 63.5035 58.4486ZM63.5035 62.0819C61.6078 62.0819 59.7122 62.0819 57.6586 62.0819C56.8688 62.0819 56.3949 62.3978 56.3949 63.0297C56.3949 63.6615 56.8688 63.9775 57.5006 63.9775C61.2919 63.9775 65.2411 63.9775 69.0324 63.9775C69.3483 63.9775 69.6643 63.8195 69.8222 63.6615C69.9802 63.3456 70.1382 63.0297 70.1382 62.7137C69.9802 62.2398 69.6643 62.0819 69.1903 62.0819C67.2947 62.0819 65.3991 62.0819 63.5035 62.0819ZM63.5035 54.8153C62.0817 54.8153 60.5021 54.8153 59.0803 54.8153C58.2905 54.8153 57.9745 55.1312 57.9745 55.7631C57.9745 56.395 58.4485 56.8689 59.0803 56.8689C62.0817 56.8689 65.0832 56.8689 68.0846 56.8689C68.8744 56.8689 69.3483 56.395 69.1903 55.7631C69.1903 55.1312 68.7164 54.8153 68.0846 54.8153C66.3469 54.8153 64.9252 54.8153 63.5035 54.8153ZM63.5035 65.8731C62.5557 65.8731 61.6078 65.8731 60.66 65.8731C60.0281 65.8731 59.5542 66.347 59.5542 66.8209C59.5542 67.2948 60.0281 67.7687 60.66 67.7687C62.5557 67.7687 64.4513 67.7687 66.3469 67.7687C66.9788 67.7687 67.4527 67.2948 67.4527 66.8209C67.4527 66.189 66.9788 65.8731 66.3469 65.8731C65.3991 65.8731 64.4513 65.8731 63.5035 65.8731Z" fill="#E1F3F5"/>
<path d="M75.9831 53.7094C79.1424 58.6065 78.8265 66.6629 73.1396 71.7179C67.2948 76.9309 58.6065 76.6149 53.2355 71.244C47.8646 66.031 47.5487 57.1847 52.2877 51.6558C57.5007 45.653 65.5571 45.3371 70.2962 48.3385C69.8223 48.6544 69.3484 49.1283 68.8745 49.2863C68.7165 49.4443 68.4006 49.2863 68.0846 49.1283C60.976 46.2849 53.0776 50.3921 51.1819 57.6586C49.2863 65.0832 54.3413 72.5077 61.9238 73.4555C68.8745 74.2454 75.1932 69.3484 75.9831 62.3977C76.299 60.1862 75.9831 58.1326 75.1932 56.079C74.7193 54.9732 74.8773 54.8152 75.6671 53.8674C75.6671 53.8674 75.8251 53.7094 75.9831 53.7094Z" fill="#567A85"/>
<path d="M69.3484 51.182C70.9281 50.3921 72.0339 49.2864 72.8237 47.7067C73.6136 49.2864 74.7193 50.5501 76.299 51.182C74.7193 51.9718 73.4556 53.0776 72.8237 54.6573C72.0339 53.0776 70.9281 51.9718 69.3484 51.182Z" fill="#F9D129"/>
<path d="M74.4033 73.1396C74.8772 72.6657 75.3511 72.3498 75.825 71.8759C76.6149 72.6657 77.4047 73.4555 78.1946 74.2454C77.8786 74.5613 77.2468 75.0352 76.7729 75.5091C75.983 74.8773 75.1932 74.0874 74.4033 73.1396Z" fill="#E1F3F5"/>
<path d="M41.2299 43.9154C44.0733 43.9154 46.9168 43.9154 49.9182 43.9154C50.0762 43.9154 50.3921 43.9154 50.5501 43.9154C51.182 43.9154 51.4979 44.3893 51.4979 44.8632C51.4979 45.3371 51.182 45.811 50.5501 45.811C50.3921 45.811 50.2341 45.811 49.9182 45.811C44.0733 45.811 38.2285 45.811 32.3836 45.811C32.0677 45.811 31.9097 45.811 31.5938 45.811C31.1199 45.6531 30.804 45.3371 30.804 44.8632C30.804 44.3893 30.9619 44.0734 31.4358 43.9154C31.7518 43.9154 31.9097 43.9154 32.2257 43.9154C35.3851 43.9154 38.3865 43.9154 41.2299 43.9154Z" fill="black"/>
<path d="M46.4428 31.5938C49.2862 31.5938 52.1296 31.5938 54.9731 31.5938C55.7629 31.5938 56.2368 31.9097 56.2368 32.5416C56.2368 33.0155 56.0789 33.3314 55.447 33.4894C55.289 33.4894 54.9731 33.4894 54.8151 33.4894C49.1282 33.4894 43.5993 33.4894 37.9124 33.4894C37.5965 33.4894 37.2806 33.4894 37.2806 33.3314C36.9646 33.0155 36.6487 32.6995 36.6487 32.3836C36.6487 31.9097 36.8067 31.5938 37.2806 31.4358C37.5965 31.4358 37.7545 31.4358 38.0704 31.4358C40.9138 31.5938 43.7573 31.5938 46.4428 31.5938Z" fill="black"/>
<path d="M52.2878 41.0719C49.4443 41.0719 46.6009 41.0719 43.5995 41.0719C43.2836 41.0719 42.8096 40.756 42.6517 40.598C42.4937 40.44 42.4937 39.8081 42.6517 39.6502C42.8096 39.3342 43.2836 39.1763 43.5995 39.1763C49.4443 39.1763 55.1312 39.1763 60.9761 39.1763C61.7659 39.1763 62.0819 39.4922 62.0819 40.1241C62.0819 40.756 61.608 41.0719 60.9761 41.0719C57.9747 41.0719 55.1312 41.0719 52.2878 41.0719Z" fill="black"/>
<path d="M37.7544 71.56C35.8588 71.56 34.1211 71.56 32.2255 71.56C31.9096 71.56 31.7516 71.56 31.4357 71.402C30.9618 71.244 30.6458 70.9281 30.8038 70.4542C30.9618 70.1382 31.1197 69.8223 31.4357 69.6643C31.5936 69.5064 31.9096 69.6643 32.2255 69.6643C35.8588 69.6643 39.4921 69.6643 43.1254 69.6643C44.0732 69.6643 44.5471 69.9803 44.5471 70.6121C44.5471 71.244 44.0732 71.56 43.1254 71.56C41.3877 71.56 39.65 71.56 37.7544 71.56Z" fill="black"/>
<path d="M36.0169 41.0719C34.7532 41.0719 33.4894 41.0719 32.0677 41.0719C31.2778 41.0719 30.8039 40.756 30.9619 40.1241C30.9619 39.4922 31.4358 39.1763 32.0677 39.1763C34.7532 39.1763 37.2807 39.1763 39.9661 39.1763C40.598 39.1763 41.0719 39.4922 41.0719 40.1241C41.0719 40.756 40.598 41.0719 39.9661 41.0719C38.5444 41.0719 37.2807 41.0719 36.0169 41.0719Z" fill="black"/>
<path d="M63.5036 58.4485C65.3992 58.4485 67.2949 58.4485 69.1905 58.4485C69.9803 58.4485 70.4542 58.7644 70.4542 59.3963C70.4542 60.0282 69.9803 60.3441 69.1905 60.3441C65.3992 60.3441 61.608 60.3441 57.8167 60.3441C57.0269 60.3441 56.553 60.0282 56.553 59.3963C56.553 58.7644 57.0269 58.4485 57.8167 58.4485C59.7124 58.4485 61.608 58.4485 63.5036 58.4485Z" fill="black"/>
<path d="M63.5036 62.0818C65.3992 62.0818 67.2949 62.0818 69.3485 62.0818C69.8224 62.0818 70.2963 62.2398 70.2963 62.7137C70.2963 63.0296 70.2963 63.5035 69.9803 63.6615C69.8224 63.8194 69.5064 63.9774 69.1905 63.9774C65.3992 63.9774 61.45 63.9774 57.6588 63.9774C56.8689 63.9774 56.553 63.6615 56.553 63.0296C56.553 62.3977 57.0269 62.0818 57.8167 62.0818C59.5544 62.0818 61.608 62.0818 63.5036 62.0818Z" fill="black"/>
<path d="M63.5035 54.8152C64.9253 54.8152 66.5049 54.8152 67.9267 54.8152C68.7165 54.8152 69.0324 55.1311 69.0324 55.763C69.0324 56.3949 68.5585 56.8688 67.9267 56.8688C64.9252 56.8688 61.9238 56.8688 58.9224 56.8688C58.1326 56.8688 57.6587 56.3949 57.8166 55.763C57.8166 55.1311 58.2906 54.8152 58.9224 54.8152C60.5021 54.8152 61.9238 54.8152 63.5035 54.8152Z" fill="black"/>
<path d="M63.5034 65.873C64.4512 65.873 65.3991 65.873 66.3469 65.873C67.1367 65.873 67.4527 66.3469 67.4527 66.8209C67.4527 67.4527 66.9787 67.7687 66.3469 67.7687C64.4512 67.7687 62.5556 67.7687 60.66 67.7687C60.0281 67.7687 59.5542 67.2948 59.5542 66.8209C59.5542 66.189 60.0281 65.873 60.66 65.873C61.6078 65.873 62.5556 65.873 63.5034 65.873Z" fill="black"/>
</svg>
