<svg width="105" height="105" viewBox="0 0 105 105" fill="none" xmlns="http://www.w3.org/2000/svg">
<circle cx="52.5" cy="52.5" r="52.5" fill="#E1F3F5"/>
<path d="M49.9015 85.1907C49.0529 85.1907 48.206 85.1907 47.3574 85.1907C47.2179 85.0692 47.0488 85.148 46.8945 85.125C46.7911 85.1332 46.6795 85.0988 46.5942 85.1907C46.3824 85.1907 46.1707 85.1907 45.959 85.1907C45.1268 85.0512 44.2783 85.0889 43.4478 84.951C37.3912 83.9367 32.0093 81.4649 27.348 77.4551C22.7243 73.4782 19.4614 68.587 17.518 62.8079C16.2017 58.8966 15.8718 54.8803 16.0408 50.7769C16.141 48.3642 16.4988 46.0171 17.1471 43.7061C18.0941 40.3315 19.5631 37.1933 21.559 34.3144C22.0678 33.5807 22.2779 32.8389 22.2697 31.9509C22.2336 28.3482 22.2549 24.7455 22.2549 21.1444C22.2549 20.9113 22.2516 20.6782 22.273 20.4452C22.3025 20.1432 22.442 20.0037 22.767 20.0053C24.6102 20.0152 26.4551 20.0201 28.2983 20.002C28.7611 19.9971 28.8235 20.2646 28.8301 20.6077C28.8481 21.5186 28.8301 22.4295 28.8383 23.3405C28.8448 24.0413 28.8924 24.0824 29.6081 24.0922C29.6934 24.0939 29.5884 24.0807 29.6721 24.0939C31.8994 24.4599 33.7738 23.4898 35.7122 22.6085C39.0359 21.0951 42.5368 20.2121 46.2068 20.0677C49.1087 19.9544 52.0089 19.9183 54.873 20.4961C60.5586 21.6417 65.627 24.0676 70.0045 27.8886C75.8886 33.026 79.5176 39.4452 80.8996 47.1348C81.0752 48.1131 81.044 49.1077 81.1917 50.0859C81.1917 50.255 81.1917 50.4257 81.1917 50.5947C81.0965 50.685 81.1359 50.8032 81.1261 50.9099C81.1261 51.051 81.1261 51.1922 81.1261 51.3333C81.1441 51.4696 81.0785 51.6189 81.1917 51.7388C81.1917 52.1622 81.1917 52.5873 81.1917 53.0108C81.0883 53.2652 81.0883 53.5196 81.1917 53.774C81.1917 53.9857 81.1917 54.1975 81.1917 54.4092C81.113 54.4798 81.1294 54.5733 81.1261 54.6636C81.1294 54.7539 81.113 54.8474 81.1917 54.918C81.1917 55.0871 81.1917 55.2578 81.1917 55.4268C80.9931 56.2508 81.0851 57.101 80.939 57.9331C80.5992 59.8765 80.1003 61.7771 79.4585 63.64C79.3518 63.9502 79.2796 64.2391 79.4536 64.5526C80.4269 66.3056 81.1425 68.1406 81.1917 70.1791C81.1917 71.1114 81.1917 72.0453 81.1917 72.9776C81.1048 74.33 80.7913 75.6267 80.271 76.8806C79.8721 77.8425 79.3518 78.7304 78.7593 79.579C78.285 80.2585 78.1701 80.2683 77.5168 79.7612C77.4495 79.7086 77.3871 79.6528 77.3231 79.5987C77.2115 79.5051 77.0901 79.4231 76.9785 79.3279C76.4417 78.8617 76.4073 78.6779 76.8225 78.1231C77.0983 77.7538 77.3264 77.3566 77.5464 76.9545C79.7933 72.7658 79.278 67.3855 75.818 63.7352C71.585 59.2675 64.6389 58.9409 60.0892 62.9654C57.2891 65.4439 55.999 68.5706 56.1894 72.2898C56.2764 74.0034 56.7786 75.6201 57.6387 77.1153C59.843 80.8018 63.0567 82.7582 67.3816 82.8633C70.0291 82.9273 72.3795 82.1312 74.4804 80.5474C75.0187 80.142 75.1911 80.1699 75.6424 80.6967C75.7393 80.81 75.8377 80.9199 75.9411 81.0266C76.6617 81.8112 76.6568 81.9819 75.7934 82.6007C73.7483 84.068 71.5391 85.1004 68.9589 85.1267C68.9195 85.1267 68.8834 85.1562 68.8506 85.1858C68.3418 85.1858 67.833 85.1858 67.3242 85.1858C67.1108 85.0528 66.8761 85.1513 66.6529 85.1201C66.451 85.1201 66.2507 85.1201 66.0488 85.1201C64.2582 85.1661 62.6398 84.5653 61.1117 83.7168C60.4601 83.3557 59.8955 83.3376 59.2029 83.5871C57.2907 84.2765 55.3178 84.7475 53.299 85.0101C52.5932 85.1021 51.8743 85.0364 51.1718 85.1841C51.0865 85.1841 51.0028 85.1841 50.9174 85.1841C50.8321 85.0906 50.7188 85.1267 50.6154 85.1185C50.5071 85.1185 50.3988 85.1185 50.2905 85.1185C50.1591 85.1431 50.0147 85.0807 49.9015 85.1907Z" fill="black"/>
<path d="M51.1718 85.1907C51.8546 84.8969 52.5948 84.9642 53.3072 84.8558C55.5262 84.5161 57.6944 83.9909 59.797 83.203C60.1285 83.0783 60.3829 83.1308 60.6751 83.3048C62.3296 84.2896 64.1104 84.9051 66.034 85.0807C66.0849 85.0971 66.1062 85.1184 66.0931 85.1463C66.08 85.1759 66.0669 85.1907 66.0521 85.1907C61.0936 85.1907 56.1335 85.1907 51.1718 85.1907Z" fill="#FEFEFE"/>
<path d="M81.1884 53.7756C80.9816 53.5212 81.0062 53.2668 81.1884 53.0124C81.1884 53.2668 81.1884 53.5212 81.1884 53.7756Z" fill="#242424"/>
<path d="M66.6725 85.0807C66.8974 85.0774 67.137 84.9855 67.3257 85.1907C67.114 85.1907 66.9023 85.1907 66.6905 85.1907C66.6544 85.171 66.6397 85.148 66.6462 85.1217C66.6528 85.0955 66.661 85.0807 66.6725 85.0807Z" fill="#212121"/>
<path d="M66.6725 85.0807C66.6823 85.1168 66.6889 85.1546 66.6905 85.1907C66.4788 85.1907 66.2671 85.1907 66.0553 85.1907C66.0636 85.1513 66.057 85.1152 66.0373 85.0807C66.2474 85.0807 66.4591 85.0807 66.6725 85.0807Z" fill="#5C5C5C"/>
<path d="M81.0817 51.3514C81.0817 51.1823 81.0801 51.0117 81.0801 50.8426C81.1211 50.7934 81.1572 50.7983 81.19 50.8508C81.19 51.0199 81.19 51.1906 81.19 51.3596C81.149 51.4187 81.1129 51.4154 81.0817 51.3514Z" fill="#505050"/>
<path d="M46.8403 85.0807C47.0209 85.0741 47.2178 84.997 47.3574 85.1907C47.1883 85.1907 47.0176 85.1907 46.8485 85.1907C46.8092 85.1693 46.796 85.1447 46.8059 85.1201C46.8157 85.0938 46.8272 85.0807 46.8403 85.0807Z" fill="#505050"/>
<path d="M81.0817 51.3514C81.1178 51.3547 81.1539 51.3563 81.19 51.3596C81.19 51.486 81.19 51.614 81.19 51.7404C81.0308 51.6452 81.062 51.4958 81.0817 51.3514Z" fill="#383838"/>
<path d="M49.9014 85.1907C49.9999 85.0314 50.1493 85.0643 50.2953 85.0856C50.3265 85.1135 50.3364 85.1381 50.3216 85.1595C50.3085 85.1808 50.2953 85.1907 50.2838 85.1907C50.1558 85.1907 50.0278 85.1907 49.9014 85.1907Z" fill="#414141"/>
<path d="M50.2822 85.1907C50.2855 85.1546 50.2887 85.1201 50.2953 85.0857C50.4201 85.084 50.5464 85.0824 50.6712 85.0824C50.7073 85.1086 50.7188 85.1349 50.7056 85.1579C50.6925 85.1809 50.6794 85.1923 50.6646 85.1923C50.5366 85.1907 50.4102 85.1907 50.2822 85.1907Z" fill="#707070"/>
<path d="M81.1884 50.8508C81.1523 50.8491 81.1145 50.8475 81.0784 50.8426C81.0669 50.7392 81.039 50.6276 81.1884 50.5964C81.1884 50.6801 81.1884 50.7654 81.1884 50.8508Z" fill="#7A7A7A"/>
<path d="M81.1884 54.9197C81.0259 54.8918 81.0669 54.7752 81.0817 54.6702C81.1145 54.6078 81.149 54.6062 81.1884 54.6652C81.1884 54.7506 81.1884 54.8359 81.1884 54.9197Z" fill="#A1A1A1"/>
<path d="M46.8403 85.0807C46.8469 85.1168 46.8485 85.1546 46.8485 85.1907C46.7632 85.1907 46.6795 85.1907 46.5941 85.1907C46.6253 85.0413 46.7369 85.0692 46.8403 85.0807Z" fill="#7A7A7A"/>
<path d="M50.663 85.1907C50.6613 85.1546 50.663 85.1168 50.6695 85.0807C50.7746 85.0692 50.8911 85.0265 50.9174 85.1907C50.8337 85.1907 50.7483 85.1907 50.663 85.1907Z" fill="#9C9C9C"/>
<path d="M81.1884 54.6652C81.1523 54.6685 81.1178 54.6718 81.0817 54.6702C81.0571 54.5585 81.0456 54.4535 81.1884 54.4108C81.1884 54.4962 81.1884 54.5815 81.1884 54.6652Z" fill="#7F7F7F"/>
<path d="M47.5904 68.4048C47.5904 73.0449 47.5806 77.6849 47.6019 82.3249C47.6052 82.8813 47.5067 83.0799 46.8912 83.0405C40.147 82.599 34.1627 80.2437 29.0056 75.8827C23.8519 71.5217 20.4986 66.0265 18.9558 59.4432C18.5487 57.7083 18.3107 55.9488 18.2188 54.1679C18.1991 53.7871 18.2812 53.6608 18.6899 53.6608C28.1604 53.6723 37.6325 53.6739 47.1029 53.6575C47.6528 53.6558 47.5904 53.9464 47.5904 54.2927C47.5888 58.9967 47.5904 63.7008 47.5904 68.4048Z" fill="#FFDC80"/>
<path d="M57.5106 77.1826C55.8102 74.2463 55.5262 71.1327 56.575 67.9502C58.2755 62.7833 63.119 59.6237 68.5403 60.0242C73.7122 60.4066 78.1552 64.5493 78.9201 69.708C79.3042 72.2964 78.9775 74.7617 77.6448 77.053C76.4712 78.7747 74.9218 80.0435 73.0409 80.9347C70.075 82.3397 67.0237 82.5793 63.8872 81.6503C61.6878 80.9987 59.7822 79.8596 58.2377 78.1412C57.9652 77.8408 57.811 77.4584 57.5106 77.1826Z" fill="#5BBF90"/>
<path d="M22.3779 37.3985C22.3779 40.5236 22.3747 43.5469 22.3796 46.5702C22.3812 47.514 22.268 47.3892 23.1756 47.3909C30.3811 47.3942 37.5881 47.3843 44.7936 47.4073C45.3664 47.4089 45.4846 47.2563 45.4796 46.7081C45.4517 43.6142 45.4583 40.5203 45.4764 37.4247C45.4796 36.9947 45.3894 36.8421 44.9282 36.8568C43.8482 36.8929 42.7665 36.8568 41.6865 36.8749C41.3533 36.8815 41.2532 36.7813 41.2598 36.4465C41.2795 35.3665 41.2417 34.2832 41.2795 33.2049C41.2959 32.7404 41.1432 32.6435 40.7116 32.6583C39.7169 32.6911 38.719 32.6403 37.7244 32.6813C37.2155 32.7026 37.0252 32.5976 37.0531 32.0395C37.1056 31.0039 37.0547 29.9633 37.076 28.9243C37.0826 28.5731 36.994 28.4516 36.6247 28.4598C35.5233 28.4844 34.4204 28.4549 33.319 28.4762C32.9579 28.4828 32.9021 28.363 32.8513 28.0199C32.697 26.9645 33.0794 26.3852 34.056 25.8731C38.1117 23.7459 42.3939 22.5149 46.9601 22.2326C47.4295 22.2031 47.6068 22.2769 47.6052 22.8153C47.5871 32.2037 47.5871 41.5921 47.6035 50.9821C47.6052 51.5024 47.4476 51.6009 46.9634 51.6009C37.575 51.5878 28.1866 51.5861 18.7966 51.6025C18.3058 51.6042 18.2024 51.4762 18.2303 51.0018C18.5159 46.2124 19.8076 41.725 22.1908 37.556C22.2089 37.5249 22.2499 37.5052 22.3779 37.3985Z" fill="#EBEBEB"/>
<path d="M55.7495 82.2347C53.9358 82.6844 52.0926 82.9158 50.2297 83.0373C49.798 83.0652 49.6552 82.9749 49.6568 82.5088C49.6716 73.081 49.67 63.6515 49.6585 54.2237C49.6585 53.7773 49.7783 53.6608 50.2231 53.6608C59.6509 53.6739 69.0803 53.6739 78.5081 53.6591C78.9759 53.6591 79.0645 53.8036 79.035 54.2336C78.9119 56.0522 78.7018 57.8576 78.2488 59.627C78.1372 60.0488 77.909 59.8912 77.6973 59.7304C77.1409 59.3086 76.6009 58.8638 76.0084 58.4912C71.7245 55.7945 67.1468 55.1511 62.3903 56.8761C56.6883 58.9442 53.2349 63.0623 52.1943 69.0515C51.418 73.5225 52.5423 77.5749 55.3211 81.1629C55.4901 81.3812 55.6723 81.588 55.8184 81.8227C55.9054 81.9671 55.9957 82.1329 55.7495 82.2347Z" fill="#EBEBEB"/>
<path d="M60.6751 51.4121C61.005 51.12 61.3283 50.8212 61.6648 50.5389C61.9044 50.3387 61.9405 50.1975 61.6976 49.9349C60.5356 48.6859 60.4486 48.5972 59.3669 49.9037C58.2377 51.2693 56.9509 51.8159 55.1963 51.6206C53.921 51.4778 52.6178 51.5927 51.3211 51.5927C51.2834 51.3301 51.4968 51.2513 51.6182 51.1282C57.8947 44.8435 64.1793 38.5671 70.4475 32.2742C70.8267 31.8934 70.9875 31.964 71.2978 32.3284C72.0117 33.1688 72.6945 34.0305 73.3724 34.9004C73.6957 35.3156 73.7072 35.5388 73.3117 35.9311C69.7254 39.4797 66.1768 43.066 62.5872 46.6112C62.1063 47.0856 62.126 47.3318 62.6003 47.77C63.549 48.6465 63.5244 48.6744 64.4271 47.7717C67.7705 44.4283 71.1205 41.0931 74.4458 37.7349C74.8611 37.3164 74.9907 37.3722 75.2484 37.863C75.8311 38.9692 76.3629 40.0952 76.8635 41.2392C76.9932 41.5362 76.9653 41.7201 76.7306 41.9531C73.6055 45.0635 70.4886 48.182 67.3733 51.3022C67.2043 51.4712 67.0385 51.5976 66.7726 51.596C64.7833 51.5861 62.794 51.591 60.8047 51.591C60.7637 51.5319 60.7194 51.4729 60.6751 51.4121Z" fill="#FA5968"/>
<path d="M49.6667 50.0761C49.6667 47.9604 49.6782 45.9908 49.6568 44.0212C49.6519 43.6454 49.8489 43.4435 50.0737 43.2186C54.031 39.2647 57.98 35.3041 61.9504 31.3666C62.3558 30.9645 62.3853 30.7478 61.9553 30.3457C60.9328 29.3871 60.9541 29.3642 59.9578 30.3621C56.7375 33.5824 53.5156 36.8027 50.2986 40.0279C50.1361 40.192 50.0163 40.3988 49.908 40.5416C49.5748 40.4136 49.6716 40.238 49.6716 40.1149C49.6634 38.293 49.6749 36.4711 49.6585 34.6492C49.6552 34.298 49.775 34.06 50.0163 33.8187C53.0938 30.7544 56.1663 27.6851 59.2258 24.6027C59.5081 24.3171 59.7264 24.2613 60.0957 24.4254C61.2561 24.9408 62.3985 25.4873 63.5211 26.0799C63.943 26.3031 63.9249 26.4721 63.5917 26.7298C63.5244 26.7807 63.4702 26.848 63.4112 26.9087C62.213 28.1069 62.2212 28.0987 63.4998 29.2657C63.7329 29.4774 63.8527 29.4692 64.0578 29.2509C64.5223 28.7569 65.0279 28.3022 65.4858 27.8033C65.7271 27.5423 65.8961 27.5505 66.1719 27.7557C67.1386 28.4795 68.0775 29.2345 68.9982 30.0174C69.3593 30.326 69.3183 30.4753 69.0097 30.7823C64.9557 34.8167 60.9131 38.8658 56.8688 42.9101C54.6514 45.1275 52.4356 47.3449 50.2165 49.5607C50.0721 49.7035 49.9178 49.8397 49.6667 50.0761Z" fill="#FA5968"/>
<path d="M55.7495 82.2347C55.8463 81.7751 55.4261 81.5831 55.216 81.3188C53.404 79.0472 52.3092 76.4752 51.9383 73.6029C51.3441 69.017 52.5439 64.9055 55.5016 61.3832C58.0687 58.3271 61.3891 56.474 65.3791 55.9439C69.5924 55.3842 73.4266 56.3887 76.8734 58.8703C77.2148 59.1165 77.5512 59.3792 77.8532 59.6713C78.042 59.8535 78.1306 59.755 78.2472 59.6254C78.1208 60.4854 77.7794 61.2847 77.5414 62.2482C74.6395 59.3168 71.1976 57.7772 67.1239 57.9069C63.0304 58.0365 59.6328 59.7189 57.0215 62.8653C54.7384 65.6162 53.7109 68.8135 53.9342 72.3998C54.1574 75.9828 55.6592 78.9684 58.264 81.5486C57.3596 81.7964 56.5554 82.0164 55.7495 82.2347Z" fill="#B5C0CD"/>
<path d="M24.487 43.0988C24.4805 40.494 24.469 37.8876 24.4673 35.2828C24.4641 31.1302 24.4772 26.9777 24.4526 22.8251C24.4493 22.2867 24.5954 22.1045 25.1206 22.1751C25.5769 22.2375 26.0479 22.1013 26.5026 22.2539C26.606 22.4541 26.5568 22.6692 26.5568 22.8776C26.56 29.4331 26.56 35.9902 26.5584 42.5457C26.5584 43.3401 26.496 43.4221 25.7049 43.4156C25.2831 43.4123 24.7989 43.5633 24.487 43.0988Z" fill="#FFDC80"/>
<path d="M49.6667 30.9464C49.6667 28.23 49.6683 25.4578 49.6634 22.6872C49.6634 22.4082 49.6618 22.2031 50.0541 22.2211C52.5095 22.336 54.9108 22.743 57.1906 23.4144C54.6826 25.9256 52.1697 28.4401 49.6667 30.9464Z" fill="#FA5968"/>
<path d="M77.8352 44.0508C78.5212 46.3388 78.9184 48.7417 79.0399 51.1938C79.0629 51.6452 78.7986 51.5927 78.5212 51.5927C76.701 51.591 74.8808 51.591 73.0622 51.591C72.1201 51.591 71.1763 51.591 70.2867 51.591C72.8029 49.0782 75.3174 46.5669 77.8352 44.0508Z" fill="#FA5968"/>
<path d="M28.6872 43.0988C28.6807 39.1613 28.6725 35.2254 28.6659 31.2878C28.6642 29.827 28.6807 28.3662 28.656 26.9055C28.6495 26.4869 28.7709 26.3326 29.1895 26.3802C29.6901 26.436 30.2022 26.3047 30.6995 26.4508C30.798 26.6297 30.7537 26.8234 30.7537 27.0105C30.7569 32.2102 30.7553 37.41 30.7553 42.6081C30.7553 43.322 30.6847 43.4156 29.9675 43.4123C29.5259 43.4123 29.0204 43.5764 28.6872 43.0988Z" fill="#FFDC80"/>
<path d="M32.976 30.6263C33.6178 30.5722 34.2579 30.5377 34.898 30.6477C34.9998 30.8479 34.9522 31.0646 34.9522 31.273C34.9555 35.0464 34.9555 38.8182 34.9538 42.5916C34.9538 43.3401 34.8882 43.4024 34.1184 43.4254C32.9547 43.4599 32.9235 43.4271 32.9235 42.2535C32.9235 38.6081 32.9219 34.9627 32.9268 31.3157C32.9252 31.0859 32.8759 30.8495 32.976 30.6263Z" fill="#FFDC80"/>
<path d="M57.5106 77.1826C57.9652 77.442 58.1901 77.9196 58.5496 78.2741C60.5881 80.2864 62.9976 81.5108 65.8453 81.8982C68.9277 82.3183 71.7655 81.6667 74.3736 80.0106C75.5209 79.2819 76.5205 78.3726 77.3493 77.286C77.4232 77.1892 77.5446 77.1317 77.6448 77.0546C77.4774 77.5092 77.2164 77.9147 76.9029 78.2675C76.5516 78.6647 76.6074 78.929 77.0391 79.1834C77.1606 79.2556 77.2541 79.3738 77.3608 79.4706C76.8454 80.0123 76.3301 80.5523 75.8147 81.0939C75.0827 80.3373 75.0827 80.3373 74.2883 80.9101C68.8292 84.846 61.0427 83.2358 57.6435 77.4682C57.5877 77.3779 57.5533 77.2778 57.5106 77.1826Z" fill="#5BBF90"/>
<path d="M37.1746 34.8282C37.8147 34.7674 38.4564 34.7461 39.0949 34.8429C39.1786 34.9792 39.1491 35.1318 39.1491 35.2779C39.1507 37.7579 39.1376 40.2363 39.1606 42.7147C39.1655 43.2186 38.9767 43.4156 38.5073 43.4172C38.4433 43.4172 38.3809 43.4222 38.3169 43.4238C37.1516 43.4583 37.1188 43.4254 37.1188 42.2568C37.1188 40.0115 37.1171 37.7645 37.122 35.5192C37.1237 35.2894 37.0712 35.0514 37.1746 34.8282Z" fill="#FFDC80"/>
<path d="M41.373 39.0316C42.0132 38.9676 42.6533 38.9561 43.2934 39.0398C43.4181 40.3479 43.3607 41.6594 43.3295 42.9675C43.3147 43.6109 42.7009 43.4057 42.3299 43.4074C41.959 43.409 41.3501 43.6043 41.3369 42.9593C41.309 41.6511 41.2499 40.3397 41.373 39.0316Z" fill="#FFDC80"/>
<path d="M32.976 30.6263C32.9777 34.5672 32.9924 38.5096 32.9678 42.4505C32.9645 43.0545 33.1139 43.258 33.736 43.2317C34.8882 43.1841 34.8898 43.2203 34.8898 42.0894C34.8915 38.2749 34.8947 34.4605 34.8964 30.6477C35.0835 30.8217 34.9867 31.0465 34.9867 31.2451C34.9916 35.7095 34.9817 40.174 34.9965 44.6384C34.9981 45.1176 34.9029 45.2933 34.3794 45.2834C32.8644 45.2555 32.8644 45.2818 32.8644 43.7767C32.8628 39.6077 32.8595 35.4404 32.8677 31.2714C32.8693 31.058 32.7446 30.8069 32.976 30.6263Z" fill="#F9D129"/>
<path d="M24.4871 43.0988C25.0599 43.3384 25.6573 43.1809 26.2433 43.2055C26.4288 43.2137 26.4879 43.0709 26.4895 42.9035C26.4911 42.7131 26.4928 42.5227 26.4928 42.3323C26.4977 35.639 26.4993 28.9456 26.5026 22.2539C26.6717 22.4361 26.5847 22.6577 26.5847 22.8596C26.588 30.1093 26.5798 37.3574 26.5962 44.6072C26.5978 45.1259 26.4796 45.2933 25.9396 45.2818C24.4657 45.2506 24.4641 45.2752 24.4657 43.7964C24.4674 43.5633 24.4805 43.3302 24.4871 43.0988Z" fill="#F9D129"/>
<path d="M28.6872 43.0988C29.26 43.3368 29.8575 43.1809 30.4418 43.2055C30.6273 43.2137 30.6847 43.0676 30.6864 42.9018C30.688 42.7328 30.6896 42.5637 30.6896 42.393C30.6929 37.0784 30.6946 31.7654 30.6978 26.4508C30.8751 26.6281 30.7848 26.8513 30.7848 27.0515C30.7898 32.9078 30.7799 38.7641 30.798 44.6203C30.7996 45.1521 30.6535 45.2916 30.1316 45.2818C28.6642 45.2522 28.6626 45.2752 28.6659 43.7947C28.6675 43.5633 28.6807 43.3302 28.6872 43.0988Z" fill="#F9D129"/>
<path d="M37.1745 34.8282C37.1762 37.4116 37.1909 39.9967 37.1696 42.5802C37.1663 43.0775 37.3009 43.2383 37.8097 43.2285C39.0867 43.2055 39.0867 43.2318 39.0883 41.9581C39.09 39.5864 39.0932 37.213 39.0949 34.8413C39.282 34.989 39.1884 35.1958 39.1884 35.3714C39.1934 38.4801 39.1835 41.5871 39.1983 44.6958C39.1999 45.1176 39.1179 45.2818 38.6501 45.2801C37.0662 45.2752 37.0662 45.2949 37.0646 43.7176C37.0629 40.9684 37.058 38.2208 37.0678 35.4716C37.0695 35.2598 36.9447 35.0103 37.1745 34.8282Z" fill="#F9D129"/>
<path d="M41.373 39.0316C41.3747 40.2593 41.3878 41.4853 41.3714 42.7131C41.3665 43.1004 41.5011 43.2169 41.8835 43.2268C43.2868 43.2613 43.2852 43.2744 43.2868 41.8957C43.2868 40.9437 43.2901 39.9917 43.2934 39.0398C43.4148 39.0972 43.3952 39.2105 43.3952 39.3106C43.3952 41.1472 43.3886 42.9839 43.3968 44.8205C43.3984 45.1275 43.3377 45.2604 42.9848 45.2785C41.2663 45.3622 41.268 45.3753 41.2663 43.665C41.2647 42.3142 41.2581 40.9634 41.2696 39.6126C41.2696 39.4206 41.1531 39.1891 41.373 39.0316Z" fill="#F9D129"/>
<path d="M30.368 72.3522C30.2022 72.1257 30.0742 71.8975 29.8985 71.7186C28.9892 70.7929 28.9843 70.7979 29.9133 69.8689C33.6588 66.1233 37.4076 62.3811 41.1433 58.6274C41.4568 58.3123 41.6685 58.1563 42.0066 58.5929C42.3021 58.9754 42.9225 59.2839 42.9455 59.6532C42.9734 60.0816 42.3431 60.3951 41.9918 60.748C38.2972 64.4541 34.596 68.1537 30.8948 71.8532C30.7635 71.9862 30.624 72.1109 30.368 72.3522Z" fill="black"/>
<path d="M28.6708 61.0434C28.6659 59.3381 30.1283 57.8724 31.8287 57.879C33.5406 57.8855 34.9948 59.3529 34.9751 61.0566C34.9554 62.7471 33.539 64.1669 31.8484 64.1882C30.1496 64.2096 28.6774 62.7504 28.6708 61.0434Z" fill="black"/>
<path d="M40.2225 72.5885C38.5155 72.5869 37.0547 71.1146 37.0728 69.4158C37.0908 67.7253 38.5073 66.3072 40.1995 66.2842C41.8999 66.2596 43.3689 67.7105 43.382 69.4257C43.3935 71.1228 41.9278 72.5902 40.2225 72.5885Z" fill="black"/>
<path d="M59.0764 72.5951C58.0686 72.5951 58.0686 72.5951 58.0686 71.6103C58.0686 70.4745 58.0686 70.4745 59.1929 70.4745C60.1942 70.4745 60.1942 70.4745 60.1942 71.4708C60.1925 72.5951 60.1925 72.5951 59.0764 72.5951Z" fill="#030201"/>
<path d="M76.9915 71.5857C76.9915 72.5951 76.9915 72.5951 75.9558 72.5951C74.8742 72.5951 74.8742 72.5951 74.8742 71.4938C74.8742 70.4729 74.8742 70.4729 75.923 70.4729C76.9915 70.4729 76.9915 70.4729 76.9915 71.5857Z" fill="#030201"/>
<path d="M32.8578 61.0123C32.8693 61.5966 32.4212 62.0545 31.8304 62.0594C31.2657 62.0627 30.8259 61.6475 30.8012 61.0878C30.7766 60.492 31.2017 60.0225 31.786 60.0028C32.3638 59.9832 32.8447 60.4362 32.8578 61.0123Z" fill="#FFDC80"/>
<path d="M40.234 68.4015C40.8101 68.4048 41.2696 68.8792 41.2581 69.4585C41.2467 70.0445 40.7838 70.4778 40.188 70.4598C39.6267 70.4433 39.2048 70.01 39.2016 69.4454C39.1983 68.8529 39.648 68.3983 40.234 68.4015Z" fill="#FFDC80"/>
<path d="M71.5781 67.8594H69.7344C70.0677 68.2812 70.2786 68.7969 70.3672 69.4062H71.9375L71.5781 70.6406H70.3906C70.2969 71.5677 69.9297 72.2656 69.2891 72.7344C68.6484 73.2031 67.7578 73.4375 66.6172 73.4375L70.4688 77.9062V78H68.6953L64.5547 73.1797L64.5469 72.2031H66.4922C67.1432 72.1979 67.6719 72.0573 68.0781 71.7812C68.4844 71.5 68.7422 71.1198 68.8516 70.6406H64.3281L64.6875 69.4062H68.8359C68.5859 68.4167 67.8203 67.901 66.5391 67.8594H64.3438L64.7109 66.625H71.9375L71.5781 67.8594Z" fill="#030201"/>
</svg>
