<svg width="105" height="105" viewBox="0 0 105 105" fill="none" xmlns="http://www.w3.org/2000/svg">
<circle cx="52.5" cy="52.5" r="52.5" fill="#E1F3F5"/>
<path d="M22 53.3717C22.4187 52.675 23.0404 52.4657 23.8365 52.4864C25.4081 52.529 26.981 52.4864 28.5526 52.507C28.9829 52.5122 29.1354 52.467 29.0618 51.9526C28.3122 46.7299 29.0437 41.7115 31.2162 36.9037C31.5652 36.1321 32.2683 35.84 32.9545 36.1412C33.6615 36.4526 33.9238 37.1764 33.5581 37.9841C32.0641 41.2876 31.3261 44.7499 31.3597 48.3726C31.3713 49.5991 31.4708 50.8217 31.6686 52.0366C31.7241 52.3791 31.812 52.5368 32.1778 52.5019C33.9109 52.3326 34.5326 52.8715 34.3671 54.8166C34.3129 55.4615 34.5287 55.636 35.14 55.5701C35.6505 55.5145 36.1752 55.5274 36.6883 55.5675C37.1355 55.6024 37.2647 55.4731 37.2609 55.0104C37.2376 52.2757 37.2492 49.5396 37.2492 46.8049C37.2492 45.5551 37.2467 44.3066 37.2505 43.0569C37.2531 41.9092 37.6977 41.4724 38.8635 41.4711C41.9653 41.4685 45.0658 41.4594 48.1676 41.4814C48.6406 41.4853 48.7815 41.3845 48.7737 40.8895C48.7427 38.779 48.7582 36.6685 48.7621 34.5579C48.7647 33.4697 49.2467 32.9812 50.344 32.9851C54.0054 32.9967 57.6656 33.0148 61.327 33.0381C62.4139 33.0445 62.8546 33.4904 62.8559 34.5722C62.8598 38.8798 62.8675 43.1874 62.8443 47.495C62.8417 48.0146 62.9916 48.1296 63.4879 48.1257C66.5251 48.1038 69.561 48.1141 72.5982 48.1154C73.981 48.1154 74.3713 48.5044 74.3726 49.8757C74.3739 54.226 74.3726 58.5762 74.3726 62.9278C74.3726 63.1385 74.3726 63.3478 74.3726 63.565C74.6298 63.5869 74.6777 63.384 74.772 63.2625C79.0783 57.7853 80.699 51.5765 79.8137 44.6905C79.7478 44.18 79.6457 43.6721 79.5552 43.1654C79.4001 42.306 79.8047 41.612 80.5401 41.4788C81.3207 41.3393 81.9385 41.7813 82.0948 42.6485C83.7763 51.9668 81.4887 60.1181 74.887 66.9782C74.5096 67.3711 74.3287 67.7343 74.3636 68.2681C74.4037 68.8897 74.3739 69.5165 74.3778 70.1408C74.3778 70.1808 74.4024 70.2196 74.4282 70.3036C76.5788 69.8138 78.7346 69.3317 80.8864 68.829C84.4457 67.998 87.2606 69.7518 88.0826 73.3253C88.0904 73.3563 88.1421 73.377 88.1731 73.4028C88.1731 74.0064 88.1731 74.6087 88.1731 75.2122C87.8112 77.7182 86.2978 79.2484 83.9365 79.8598C78.6841 81.2207 73.4318 82.5829 68.1587 83.8624C65.0285 84.6223 61.9577 84.36 58.9657 83.2084C53.7211 81.1884 48.501 79.1063 43.2654 77.0617C42.764 76.8652 42.225 76.7334 41.7649 76.4723C39.6751 75.2872 37.3992 75.5159 35.1478 75.5224C34.773 75.5237 34.5907 75.6788 34.5894 76.0588C34.5894 76.4943 34.5416 76.9221 34.2741 77.2891C33.9497 77.7376 33.5141 77.9728 32.9532 77.9741C29.7881 77.9806 26.6217 77.9883 23.4566 77.9677C22.5932 77.9625 22.2753 77.6963 22 76.8911C22 69.0526 22 61.2128 22 53.3717Z" fill="black"/>
<path d="M55.829 21.1853C58.9748 21.2241 62.0326 21.732 64.9832 22.8383C65.937 23.195 66.3157 23.8076 66.0572 24.5818C65.8065 25.3314 65.0504 25.6105 64.1315 25.2745C60.3421 23.889 56.4507 23.4664 52.4507 24.0067C47.6752 24.6503 43.4813 26.5721 39.8173 29.6829C39.7022 29.7799 39.5924 29.8846 39.4761 29.9789C38.7924 30.5295 38.0143 30.4998 37.5297 29.9052C37.0605 29.3288 37.1575 28.5857 37.792 28.0222C39.1142 26.8474 40.5371 25.8122 42.0609 24.9126C46.3104 22.4066 50.9127 21.2189 55.829 21.1853Z" fill="black"/>
<path d="M80.6447 26.3589C80.6279 26.7531 80.4715 27.0723 80.2247 27.3579C76.739 31.3683 73.2586 35.3812 69.7665 39.3864C69.2043 40.0301 68.4534 40.0986 67.8821 39.6126C67.3031 39.1202 67.2721 38.3331 67.8485 37.6688C71.3264 33.6533 74.8121 29.6429 78.2977 25.6325C78.6984 25.1711 79.1843 24.9618 79.7917 25.1879C80.3371 25.3921 80.5814 25.8161 80.6447 26.3589Z" fill="black"/>
<path d="M77.4189 34.094C79.2076 34.103 80.6654 35.5738 80.646 37.3483C80.6266 39.1254 79.1481 40.5819 77.3723 40.5716C75.5927 40.5612 74.1439 39.0879 74.1568 37.303C74.1723 35.5053 75.6159 34.0849 77.4189 34.094Z" fill="black"/>
<path d="M73.4511 27.9511C73.4537 29.7476 72.0166 31.1912 70.2214 31.1951C68.434 31.199 66.9774 29.7476 66.9761 27.9614C66.9748 26.1844 68.4417 24.7084 70.2124 24.7058C71.9933 24.7033 73.4486 26.1624 73.4511 27.9511Z" fill="black"/>
<path d="M33.8515 32.9489C33.8424 32.2044 34.3982 31.6422 35.1348 31.6487C35.8392 31.6539 36.3962 32.2032 36.4105 32.9036C36.4247 33.6132 35.8185 34.231 35.1168 34.2245C34.4266 34.218 33.8605 33.6468 33.8515 32.9489Z" fill="#010101"/>
<path d="M34.3788 65.3847C34.3788 63.1449 34.3904 60.9039 34.3684 58.6641C34.3646 58.2376 34.486 58.1329 34.9035 58.1342C38.6089 58.1497 42.3129 58.1446 46.0183 58.1407C46.2806 58.1407 46.5236 58.1795 46.7692 58.2816C50.9333 60.0108 55.1027 61.7284 59.2656 63.4642C60.6717 64.0496 61.4097 65.302 61.2908 66.8025C61.1848 68.1479 60.1651 69.3718 58.8249 69.7246C58.0998 69.9159 57.3838 69.8668 56.6743 69.5928C53.9912 68.5537 51.303 67.5288 48.616 66.5C48.5152 66.4613 48.4157 66.4238 48.3149 66.3863C47.4567 66.0748 46.7485 66.3126 46.4629 67.008C46.1592 67.7485 46.5029 68.44 47.3779 68.7799C49.9188 69.7686 52.4649 70.7456 55.0096 71.7253C56.452 72.281 57.9046 72.8109 59.3379 73.3925C62.7939 74.7948 66.3028 74.8956 69.906 74.0103C73.8712 73.0371 77.8609 72.1621 81.8428 71.26C83.4919 70.8865 85.0519 71.8507 85.4758 73.4636C85.8907 75.0442 85.0299 76.7166 83.4364 77.125C77.8596 78.5544 72.3086 80.0989 66.6815 81.3202C64.3318 81.8294 62.0145 81.4456 59.7825 80.5706C53.345 78.0478 46.9075 75.5263 40.4738 72.9944C40.0047 72.8096 39.5394 72.7049 39.0341 72.7101C37.699 72.7243 36.3626 72.6856 35.0276 72.7295C34.4654 72.7476 34.3607 72.5576 34.3671 72.0406C34.3943 69.8216 34.3788 67.6038 34.3788 65.3847Z" fill="#FED3BD"/>
<path d="M60.2711 48.3558C60.2711 52.361 60.262 56.3649 60.2814 60.3701C60.284 60.9181 60.2284 61.0861 59.6404 60.8354C57.0517 59.733 54.4487 58.6654 51.8419 57.6043C51.4697 57.4531 51.334 57.267 51.334 56.8534C51.3482 49.9636 51.3482 43.0737 51.3353 36.1838C51.334 35.7341 51.3947 35.5518 51.9208 35.5609C54.4604 35.6087 57.0013 35.6216 59.5421 35.6061C60.1121 35.6022 60.2917 35.7341 60.2879 36.3402C60.2569 40.3454 60.2711 44.3506 60.2711 48.3558Z" fill="#5BBF90"/>
<path d="M71.7865 60.8431C71.7865 64.0096 71.7891 67.1747 71.7813 70.3411C71.7813 70.5854 71.9158 70.8878 71.4699 70.9847C69.1836 71.4823 66.9322 72.1686 64.5399 71.9993C62.8262 71.8778 62.6362 71.693 62.8533 69.9818C62.8792 69.7776 62.989 69.6251 63.0795 69.4558C64.1587 67.4448 64.2078 65.4338 63.0511 63.4357C62.9154 63.2018 62.8507 62.9769 62.8507 62.7094C62.8559 58.8968 62.8611 55.0854 62.8456 51.2728C62.8443 50.8295 62.9554 50.6847 63.4155 50.6886C66.021 50.7093 68.6279 50.7106 71.2334 50.6873C71.7077 50.6834 71.7956 50.8489 71.7943 51.2792C71.7788 54.4676 71.7865 57.6547 71.7865 60.8431Z" fill="#FFDC80"/>
<path d="M24.5848 65.2012C24.5848 62.036 24.5978 58.8722 24.5719 55.7071C24.568 55.1927 24.7102 55.0621 25.2155 55.0699C27.2175 55.0996 29.2194 55.0945 31.2214 55.0725C31.6699 55.0673 31.8056 55.194 31.8043 55.6502C31.7901 62.0011 31.7901 68.3508 31.8056 74.7017C31.8069 75.1502 31.6479 75.229 31.2472 75.2252C29.2233 75.2084 27.1994 75.2006 25.1768 75.229C24.6973 75.2355 24.568 75.1166 24.5719 74.6293C24.5965 71.4875 24.5848 68.3443 24.5848 65.2012Z" fill="#97A0B2"/>
<path d="M48.7595 50.2014C48.7595 52.0728 48.753 53.9455 48.766 55.8169C48.7685 56.1943 48.7104 56.3481 48.3175 56.1258C47.3456 55.5765 46.2858 55.5261 45.1976 55.5494C43.5847 55.5856 41.9704 55.5429 40.3562 55.5688C39.9258 55.5752 39.8237 55.4447 39.825 55.0285C39.8405 51.5429 39.8418 48.0572 39.8237 44.5716C39.8211 44.1361 39.9568 44.0443 40.3652 44.0469C42.9901 44.0637 45.615 44.0663 48.2399 44.0456C48.6716 44.0417 48.7724 44.1722 48.7685 44.5858C48.7466 46.4572 48.7582 48.3299 48.7595 50.2014Z" fill="#FA5968"/>
<path d="M77.424 36.6788C77.8195 36.7202 78.0586 36.9567 78.0444 37.3444C78.0315 37.7282 77.7807 37.9893 77.3788 37.9751C76.9833 37.9622 76.7481 37.7153 76.7597 37.3082C76.7726 36.905 77.0079 36.6943 77.424 36.6788Z" fill="#949DAF"/>
<path d="M70.8676 27.9317C70.8456 28.344 70.6389 28.5844 70.2317 28.5935C69.8272 28.6025 69.5804 28.3763 69.5687 27.9731C69.5571 27.5673 69.8156 27.3217 70.1994 27.3088C70.5885 27.2946 70.8237 27.5375 70.8676 27.9317Z" fill="#949DAF"/>
</svg>
