<svg width="105" height="105" viewBox="0 0 105 105" fill="none" xmlns="http://www.w3.org/2000/svg">
<circle cx="52.5" cy="52.5" r="52.5" fill="#E1F3F5"/>
<path d="M64.0592 19C65.1969 19.3557 66.0733 19.9864 66.4256 21.198C66.5425 21.6001 66.5717 22.0109 66.5219 22.4096C66.4428 23.0334 66.7058 23.176 67.2677 23.1262C67.6475 23.0918 68.0479 23.1073 68.4191 23.1898C69.8816 23.5129 70.7752 24.6952 70.777 26.2917C70.7821 31.5316 70.7787 36.7696 70.7787 42.0095C70.7787 46.433 70.7924 50.8565 70.7615 55.2783C70.7563 55.8986 70.9557 55.9914 71.5108 55.9966C73.097 56.0103 74.6901 55.8351 76.2677 56.1066C78.9916 56.5775 81.1672 58.992 81.3477 61.752C81.4078 62.6714 81.3941 63.5977 81.3889 64.5205C81.3855 65.1083 81.1208 65.5053 80.485 65.5637C79.923 65.6909 79.6291 65.5585 79.4143 65.0567C79.2682 64.7164 79.2236 64.3538 79.2218 63.9861C79.2184 63.4069 79.2218 62.8261 79.2201 62.2469C79.2098 59.8461 77.3143 58.0313 74.9032 58.119C69.6238 58.1276 64.3428 58.1774 59.0652 58.0984C56.7262 58.064 54.4904 59.6949 54.4732 62.5872C54.4423 67.8442 54.4337 73.1029 54.4767 78.3599C54.499 81.1216 56.3378 82.8556 59.1167 82.8573C64.396 82.8624 69.6754 82.8539 74.953 82.859C77.2507 82.9312 79.1961 81.0786 79.2047 78.7861C79.215 75.8904 79.2064 72.9929 79.2081 70.0972C79.2081 69.6882 79.2115 69.2809 79.3404 68.8873C79.5604 68.2154 79.9058 68.0298 80.6087 68.2051C81.1724 68.3116 81.3906 68.7017 81.3889 69.2242C81.3838 72.5237 81.4422 75.825 81.3356 79.1195C81.2428 82.0221 78.9933 84.4005 76.1199 84.8783C76.0357 84.892 75.9515 84.8938 75.9154 84.99C69.8576 84.99 63.7997 84.99 57.7419 84.99C55.6642 84.8267 54.2086 83.6839 53.1207 82.0049C52.4746 81.0081 52.2546 79.8653 52.1481 78.7002C52.0587 77.7154 52.0621 77.7137 51.0413 77.712C44.5573 77.712 38.0733 77.712 31.5892 77.712C31.3108 77.712 31.0307 77.7172 30.7523 77.7051C28.831 77.6295 27.6383 76.5778 27.3187 74.6839C27.1468 73.658 27.1468 73.658 26.1466 73.5686C24.5175 73.4225 23.3678 72.3347 23.1237 70.7227C23.0395 70.1694 23 69.616 23 69.0557C23.0034 58.2341 23.0017 47.4142 23.0017 36.5926C23.0017 36.12 22.9897 35.6474 23.1134 35.1852C23.2732 34.5854 23.6049 34.1918 24.27 34.1712C24.9007 34.2228 25.2083 34.6198 25.3595 35.1886C25.4884 35.6732 25.4678 36.1682 25.4678 36.6614C25.4678 47.5483 25.4678 58.4335 25.4695 69.3204C25.4695 69.6418 25.4627 69.9648 25.485 70.2862C25.5125 70.678 25.65 70.996 26.047 71.142C26.3047 71.2778 26.5831 71.2761 26.8633 71.2761C34.9833 71.2623 43.1034 71.3019 51.2218 71.2537C52.0879 71.2486 52.1223 71.2142 52.124 70.3395C52.1274 67.827 52.1034 65.3128 52.1343 62.8003C52.1515 61.2966 52.4333 59.8513 53.3545 58.6002C53.8168 57.9729 54.3512 57.4195 54.9836 56.9641C56.1041 56.2527 57.3054 55.7921 58.6579 55.8076C60.2475 55.811 61.8372 55.811 63.4251 55.7852C64.3256 55.7698 64.3634 55.7457 64.3634 54.8349C64.3668 47.2544 64.3651 39.674 64.3651 32.0935C64.3651 29.0019 64.3651 25.9085 64.3651 22.8169C64.3651 22.5385 64.3737 22.2583 64.3359 21.9799C64.2689 21.4867 63.987 21.21 63.4921 21.1619C63.0436 21.1172 62.5899 21.155 62.1396 21.1224C60.8748 21.1585 59.6082 21.1361 58.3417 21.1379C51.3678 21.1413 44.394 21.1396 37.4202 21.1396C36.2929 21.1396 36.2911 21.1413 36.2911 22.2858C36.2894 24.1951 36.2911 26.1061 36.2911 28.0154C36.2911 28.4021 36.2808 28.7871 36.2069 29.1686C35.8856 30.851 34.6328 31.9457 32.9177 31.9577C30.1061 31.9784 27.2963 31.9835 24.4865 31.9543C23.9486 31.9217 23.4468 31.7859 23.2492 31.2171C23.0447 30.6293 23.2509 30.1309 23.6805 29.7013C27.0162 26.3674 30.3467 23.0351 33.6824 19.7063C33.9728 19.4176 34.3148 19.1959 34.6706 19C44.4679 19 54.2636 19 64.0592 19Z" fill="black"/>
<path d="M80.6087 68.2051C79.7151 68.2291 79.4418 68.5316 79.4367 69.5696C79.4281 72.1457 79.435 74.7218 79.4332 77.2978C79.4332 77.834 79.4418 78.3719 79.4212 78.9081C79.3284 81.2402 77.3504 83.0893 75.0166 83.036C75.0183 82.7353 75.2692 82.6012 75.4411 82.4225C76.4808 81.3347 77.0307 80.0733 77.0238 78.5386C76.9998 73.1699 77.0032 67.7995 77.0204 62.4308C77.0256 60.879 76.4859 59.5866 75.3878 58.5074C75.2245 58.3476 75.0011 58.2169 75.0149 57.9385C77.3349 57.8715 79.3267 59.7086 79.4178 62.0201C79.4487 62.8089 79.4109 63.6011 79.4418 64.3899C79.4745 65.2114 79.7254 65.4709 80.485 65.5637C80.3595 66.3628 80.4523 67.1654 80.4369 67.9662C80.4369 68.0435 80.5486 68.126 80.6087 68.2051Z" fill="#5BBF90"/>
<path d="M24.2305 34.319C24.2305 33.4718 24.2305 32.6263 24.2305 31.779C27.042 31.7721 29.8552 31.767 32.6668 31.7584C34.827 31.7532 36.0437 30.5314 36.0471 28.3574C36.0505 26.0391 36.0557 23.7191 36.0402 21.4008C36.0385 21.0537 36.1021 20.923 36.4888 20.9248C44.9921 20.9368 53.4937 20.9351 61.997 20.9351C62.0399 20.9351 62.0812 20.9471 62.1241 20.954C62.4386 21.1654 62.5435 21.4833 62.5744 21.839C62.5985 22.1174 62.5933 22.3975 62.5933 22.6759C62.5933 33.3085 62.5933 43.9411 62.5933 54.5737C62.5933 55.9227 62.5916 55.9141 61.2236 55.9261C60.3231 55.9347 59.4209 55.8712 58.5221 55.964C57.3088 56.0138 56.2089 56.4228 55.1675 57.0191C54.8874 57.1274 54.6004 57.2133 54.3117 57.2958C51.9057 57.9781 50.3711 59.9595 50.3453 62.4755C50.3195 64.9674 50.3402 67.4592 50.3384 69.9511C50.3384 70.08 50.3384 70.2089 50.3384 70.3378C50.3281 71.3844 50.323 71.3895 49.3142 71.3895C41.775 71.3895 34.2358 71.3895 26.6966 71.3878C26.4611 71.3878 26.224 71.4239 25.992 71.3483C25.4867 71.2623 25.2822 70.9118 25.2221 70.4512C25.1911 70.2175 25.1997 69.9803 25.1997 69.7432C25.198 58.4232 25.1997 47.1049 25.198 35.7849C25.198 34.7435 25.0726 34.5562 24.2305 34.319Z" fill="#E9F5FE"/>
<path d="M75.0149 57.9386C76.4653 59.0797 77.2215 60.5387 77.2129 62.4171C77.1905 67.8407 77.1974 73.2644 77.2095 78.6881C77.2129 80.5201 76.4138 81.9241 75.0166 83.0377C69.5001 83.0429 63.9836 83.079 58.4688 83.036C56.1712 83.0188 54.3203 81.0408 54.3048 78.628C54.2687 73.1974 54.2636 67.7668 54.3065 62.3363C54.3272 59.7533 56.2657 57.9197 58.8555 57.9179C64.2414 57.9162 69.6273 57.93 75.0149 57.9386Z" fill="#5BBF90"/>
<path d="M58.5221 55.9674C59.1906 55.7337 59.878 55.9089 60.5568 55.8677C61.0071 55.8402 61.4591 55.8454 61.9093 55.8677C62.2771 55.8849 62.418 55.7337 62.3871 55.3762C62.3716 55.2061 62.3854 55.0325 62.3854 54.8606C62.3854 44.1009 62.3836 33.3412 62.3888 22.5814C62.3888 22.0212 62.3957 21.4678 62.1259 20.9557C62.5761 20.9488 63.0264 20.9247 63.4766 20.9402C64.1847 20.9626 64.5662 21.3595 64.5988 22.0744C64.6057 22.224 64.6006 22.3752 64.6006 22.5247C64.6006 33.446 64.5971 44.3655 64.6126 55.2868C64.6126 55.8265 64.5232 56.0172 63.9286 56C62.1259 55.9468 60.3231 55.9725 58.5221 55.9674Z" fill="#C7EEFD"/>
<path d="M67.1491 25.0733C68.5188 24.9891 68.8436 25.2898 68.8436 26.644C68.8436 36.2025 68.8385 45.761 68.8556 55.3212C68.8574 55.8419 68.7577 56.0636 68.2009 55.9914C67.6733 55.9227 66.9721 56.2148 66.6473 55.8952C66.2916 55.5463 66.5339 54.8383 66.5322 54.2884C66.5253 44.7728 66.5253 35.2573 66.5339 25.7401C66.5339 25.527 66.405 25.2744 66.6319 25.0888C66.9378 25.4359 66.8381 25.8638 66.8381 26.2608C66.845 35.6423 66.8415 45.0238 66.8467 54.4069C66.8467 54.761 66.7779 55.1304 66.9945 55.5326C67.2746 55.2318 67.1938 54.9053 67.1938 54.6115C67.2007 50.6829 67.1973 46.7543 67.1973 42.8257C67.1973 37.5223 67.1869 32.2207 67.211 26.9173C67.2179 26.2969 66.9773 25.692 67.1491 25.0733Z" fill="#C7EEFD"/>
<path d="M30.2694 75.4659C29.5957 75.227 29.1197 74.0979 29.4531 73.505C29.5888 73.2644 29.8432 73.3813 30.0408 73.3796C32.9829 73.3727 35.9251 73.371 38.8672 73.3744C42.6239 73.3796 46.3824 73.3916 50.1391 73.4002C50.4896 73.9793 50.3522 74.598 50.28 75.2081C50.2576 75.392 50.1305 75.5088 49.9243 75.5106C49.7954 75.5123 49.6665 75.514 49.5393 75.514C43.3062 75.514 37.0731 75.514 30.8399 75.5123C30.6492 75.514 30.4533 75.5518 30.2694 75.4659Z" fill="#E9F5FE"/>
<path d="M25.9919 71.35C27.2568 71.3414 28.5216 71.3277 29.7865 71.3277C36.3066 71.3259 42.8267 71.3156 49.3485 71.3431C50.0256 71.3466 50.1614 71.1455 50.1528 70.5131C50.1184 67.8545 50.1373 65.1942 50.1391 62.5339C50.1391 59.9785 51.6548 57.9214 54.09 57.1377C54.4492 57.0226 54.8032 57.0191 55.1675 57.0209C53.0846 58.5744 52.2735 60.6727 52.3491 63.2351C52.4247 65.7665 52.3543 68.3013 52.3749 70.8327C52.3783 71.2881 52.301 71.4531 51.7889 71.4531C43.3955 71.4359 35.0022 71.4428 26.6089 71.4411C26.4027 71.4428 26.1793 71.5081 25.9919 71.35Z" fill="#C7EEFD"/>
<path d="M67.1491 25.0733C67.3811 25.661 67.4155 26.2711 67.4155 26.9001C67.4069 36.3211 67.4103 45.7438 67.4035 55.1648C67.4035 55.4432 67.577 55.8643 67.0185 55.8608C66.7951 55.8591 66.6387 55.8007 66.6421 55.5395C66.6456 55.347 66.6387 55.1528 66.6387 54.9603C66.637 45.0014 66.6353 35.0442 66.6318 25.0853C66.8054 25.0819 66.9773 25.0767 67.1491 25.0733Z" fill="#E7F3FC"/>
<path d="M31.8246 24.6248C32.5808 23.915 33.3352 23.207 34.1034 22.4869C34.1034 24.5715 34.124 26.6818 34.0914 28.7905C34.0811 29.4246 33.6343 29.7941 32.995 29.8199C32.5258 29.8388 32.0549 29.813 31.584 29.8061C31.6717 28.3041 31.6201 26.8004 31.6442 25.2967C31.6459 25.0561 31.7387 24.843 31.8246 24.6248Z" fill="#98E4FA"/>
<path d="M31.8247 24.6248C31.8298 26.0718 31.8281 27.5188 31.8436 28.9675C31.847 29.2837 31.7284 29.5449 31.5823 29.8061C29.9652 29.8061 28.3463 29.8061 26.8151 29.8061C28.4615 28.1031 30.1439 26.3639 31.8247 24.6248Z" fill="#C7EEFD"/>
<path d="M30.2694 75.4659C36.1623 75.4607 42.0568 75.4538 47.9497 75.4487C48.5065 75.4487 49.065 75.4315 49.6218 75.4538C50.0068 75.471 50.1666 75.3439 50.146 74.9434C50.1185 74.4296 50.1391 73.9158 50.1391 73.4002C50.7595 73.3916 51.3816 73.3933 52.002 73.3693C52.277 73.359 52.3852 73.4397 52.3732 73.7284C52.3526 74.1993 52.3491 74.6719 52.3732 75.1428C52.3921 75.5002 52.2374 75.5724 51.9195 75.5638C51.2132 75.5466 50.5051 75.5621 49.7971 75.5621C43.5365 75.5621 37.2776 75.5638 31.017 75.5587C30.7661 75.5604 30.4997 75.6343 30.2694 75.4659Z" fill="#C7EDFC"/>
<path d="M49.9449 24.4134C52.3285 24.4134 54.7138 24.4099 57.0974 24.4151C58.8159 24.4185 59.9227 25.5115 59.9244 27.2283C59.9295 32.0179 59.9313 36.8092 59.9244 41.5987C59.9227 43.2726 58.8073 44.3879 57.1369 44.3896C52.325 44.3965 47.5131 44.3965 42.7012 44.3896C41.0583 44.3862 39.9533 43.2794 39.9499 41.6382C39.943 36.8057 39.943 31.9715 39.9499 27.139C39.9516 25.5339 41.0635 24.4237 42.6617 24.4168C45.09 24.4065 47.5183 24.4134 49.9449 24.4134Z" fill="black"/>
<path d="M44.7652 51.891C40.3228 51.891 35.8787 51.891 31.4363 51.891C31.2438 51.891 31.0479 51.9031 30.8571 51.879C30.3691 51.8171 30.0821 51.5284 30.0288 51.0438C29.9755 50.5592 30.1938 50.2206 30.6526 50.0402C30.9018 49.9422 31.1579 49.9594 31.4157 49.9594C40.3452 49.9594 49.2729 49.9594 58.2025 49.9594C58.4809 49.9594 58.761 49.9388 59.0273 50.0557C59.4484 50.243 59.6666 50.5781 59.6185 51.0249C59.5687 51.4941 59.2989 51.8189 58.8005 51.879C58.5891 51.9048 58.3726 51.8928 58.1578 51.8928C53.6947 51.891 49.23 51.891 44.7652 51.891Z" fill="black"/>
<path d="M38.5956 66.5656C36.1502 66.5656 33.7064 66.5673 31.2609 66.5656C30.4464 66.5656 30.0167 66.2287 30.0202 65.6015C30.0219 64.9759 30.455 64.6339 31.2661 64.6339C36.1983 64.6322 41.1305 64.6322 46.0627 64.6339C46.8618 64.6339 47.3533 65.0756 47.2811 65.7012C47.2175 66.2442 46.8034 66.5621 46.1228 66.5639C43.6138 66.5673 41.1047 66.5656 38.5956 66.5656Z" fill="black"/>
<path d="M38.6232 56.7803C36.1313 56.7803 33.6395 56.7837 31.1476 56.7785C30.4791 56.7768 30.0958 56.4881 30.0271 55.9622C29.9498 55.3625 30.3399 54.9019 30.9981 54.8555C31.383 54.828 31.7714 54.8469 32.1581 54.8469C36.6899 54.8469 41.2234 54.8469 45.7551 54.8469C45.927 54.8469 46.0988 54.8383 46.2707 54.8521C46.8911 54.9019 47.3173 55.3367 47.2829 55.8798C47.2503 56.4091 46.8412 56.7768 46.226 56.7785C43.6929 56.7854 41.1581 56.7803 38.6232 56.7803Z" fill="black"/>
<path d="M34.7634 61.6729C33.5604 61.6729 32.3591 61.678 31.1562 61.6712C30.4361 61.6677 30.0305 61.3257 30.0202 60.7346C30.0099 60.1159 30.4258 59.7447 31.1802 59.743C33.6068 59.7361 36.0316 59.7361 38.4582 59.743C39.1697 59.7447 39.5838 60.109 39.5942 60.695C39.6045 61.3137 39.1903 61.6695 38.4341 61.6729C37.2106 61.6763 35.987 61.6729 34.7634 61.6729Z" fill="black"/>
<path d="M35.0967 40.3167C35.1019 40.6003 34.9335 40.8374 34.7135 41.0557C33.7271 42.037 32.7492 43.0268 31.7559 44.0012C31.2524 44.4945 30.7059 44.5151 30.2883 44.0923C29.8947 43.6936 29.9119 43.1368 30.3691 42.6711C31.3744 41.6486 32.3952 40.6415 33.4074 39.6258C33.746 39.2873 34.1395 39.1756 34.5743 39.3887C34.93 39.5605 35.1122 39.8682 35.0967 40.3167Z" fill="black"/>
<path d="M44.6827 61.6712C44.1689 61.6712 43.655 61.6867 43.1429 61.6661C42.5878 61.6437 42.2012 61.2536 42.184 60.7432C42.1668 60.25 42.55 59.7757 43.0862 59.7568C44.1757 59.7207 45.267 59.7224 46.3566 59.7551C46.9013 59.7705 47.288 60.2208 47.2863 60.7174C47.2846 61.245 46.8738 61.6489 46.2861 61.6678C45.7516 61.685 45.2172 61.6712 44.6827 61.6712Z" fill="#010101"/>
<path d="M57.7247 71.8931C57.6869 71.2555 57.9584 70.7313 58.3898 70.2828C58.9105 69.7415 59.4364 69.2053 59.9828 68.688C61.014 67.7119 62.2857 67.7291 63.3082 68.7224C63.786 69.1864 64.2723 69.6418 64.714 70.1384C65.0267 70.489 65.2192 70.434 65.5251 70.123C67.2265 68.3941 68.9467 66.6842 70.6635 64.9725C72.0349 63.6046 73.1726 63.6063 74.5371 64.9691C74.9478 65.3781 75.3672 65.7802 75.7624 66.203C76.6217 67.119 76.6801 68.3976 75.8088 69.2809C72.9458 72.1852 70.0689 75.0758 67.1543 77.9286C65.9599 79.0972 64.0351 79.0714 62.8287 77.9165C61.2941 76.4472 59.811 74.9246 58.3124 73.4174C57.9 73.0032 57.6938 72.4928 57.7247 71.8931Z" fill="black"/>
<path d="M55.6762 42.4356C55.3703 42.4391 55.4872 42.2019 55.4837 42.0627C55.47 41.3547 55.4923 40.6449 55.4683 39.9369C55.4116 38.2338 54.6176 36.9501 53.1603 36.0943C52.8338 35.9035 52.7942 35.7952 52.9352 35.4309C53.3665 34.3173 53.3751 33.1521 53.0159 32.023C52.5399 30.5314 51.0001 29.6223 49.4775 29.8491C47.9119 30.0828 46.7106 31.4044 46.6677 32.9837C46.6436 33.8791 46.556 34.795 47.0251 35.6268C47.1488 35.8468 47.02 35.9207 46.8533 36.0118C45.0419 37.012 44.3081 38.5947 44.3837 40.6106C44.3872 40.6965 44.3837 40.7824 44.3837 40.8683C44.3837 42.5611 44.3837 42.5559 42.6772 42.4597C42.1582 42.4305 41.8815 42.1882 41.8815 41.6589C41.8815 36.8264 41.8815 31.9921 41.8798 27.1596C41.8798 26.6372 42.1324 26.3484 42.6583 26.3484C46.9976 26.3519 51.3352 26.3605 55.6745 26.3691C55.9873 26.6354 56.0079 27.0049 56.0096 27.3693C56.0199 32.0574 56.0199 36.7473 56.0096 41.4355C56.0096 41.7998 55.989 42.1693 55.6762 42.4356Z" fill="#C7EEFD"/>
<path d="M55.6762 42.4356C55.8378 41.8926 55.8068 41.3341 55.8068 40.779C55.8068 36.5273 55.8068 32.2774 55.8068 28.0257C55.8068 27.4706 55.8378 26.9121 55.6762 26.3691C56.1471 26.3622 56.618 26.345 57.0888 26.3484C57.7419 26.3553 57.9842 26.5873 57.9911 27.2318C58.0014 28.2595 57.9945 29.2889 57.9945 30.3165C57.9945 34.0028 57.9945 37.6873 57.9945 41.3736C57.9945 42.2638 57.7986 42.4563 56.8964 42.4545C56.4891 42.4563 56.0835 42.4425 55.6762 42.4356Z" fill="#98E5FB"/>
<path d="M51.2974 42.4374C49.7747 42.4442 48.2521 42.446 46.7295 42.4631C46.4391 42.4666 46.2964 42.3978 46.3102 42.073C46.3394 41.3014 46.2844 40.5246 46.3652 39.7599C46.5061 38.3971 47.5613 37.4674 48.9206 37.4364C49.3709 37.4261 49.8211 37.4467 50.2697 37.4536C51.0086 37.8076 51.2716 38.495 51.4039 39.2151C51.5775 40.1655 51.4864 41.1347 51.4572 42.0954C51.4537 42.226 51.3919 42.3428 51.2974 42.4374Z" fill="#F9D129"/>
<path d="M51.2974 42.4374C51.2974 41.4939 51.3197 40.5504 51.2905 39.6087C51.263 38.7546 50.8076 38.0775 50.2697 37.4536C51.9384 37.366 52.9729 37.9486 53.4077 39.2168C53.5865 39.7376 53.5469 40.2789 53.5349 40.8116C53.5229 41.341 53.7703 42.0284 53.4301 42.3566C53.0915 42.6848 52.4075 42.4288 51.8765 42.4563C51.684 42.4649 51.4898 42.4443 51.2974 42.4374Z" fill="#FFDC80"/>
<path d="M48.5924 33.6007C48.5924 33.4718 48.589 33.3429 48.5924 33.2157C48.6147 32.3719 49.1441 31.7825 49.8985 31.7618C50.6821 31.7412 51.2561 32.3341 51.2871 33.2037C51.2974 33.4821 51.2957 33.7605 51.2871 34.0389C51.2596 34.9102 50.689 35.51 49.9105 35.4962C49.1595 35.4808 48.6165 34.8861 48.5924 34.0509C48.589 33.8997 48.5924 33.7502 48.5924 33.6007Z" fill="#FDDECE"/>
<path d="M64.1692 76.497C62.7205 75.0706 61.2735 73.6425 59.823 72.2178C59.5842 71.9824 59.6237 71.7796 59.8471 71.5614C60.3059 71.1111 60.7734 70.6677 61.2065 70.1934C61.5089 69.8635 61.7409 69.8669 62.0503 70.19C62.7617 70.9324 63.4973 71.6524 64.2294 72.3759C64.9116 73.0496 65.3361 73.0445 66.0235 72.357C67.7833 70.6007 69.5396 68.8409 71.2994 67.0863C71.4489 66.9368 71.6173 66.8045 71.7754 66.6635C72.3872 67.1035 72.5625 67.6912 72.2669 68.3305C72.1209 68.645 71.9129 68.92 71.6637 69.1589C69.3403 71.3912 67.2041 73.8058 64.8944 76.0519C64.6951 76.2512 64.5438 76.5675 64.1692 76.497Z" fill="white"/>
<path d="M64.1692 76.497C65.4065 75.3765 66.5614 74.1735 67.7059 72.9585C68.9536 71.6318 70.2597 70.3618 71.5383 69.0661C72.4285 68.1638 72.4731 67.7136 71.7771 66.6653C72.5574 65.7269 72.5574 65.7269 73.3977 66.5639C74.6058 67.7703 74.6058 67.7703 73.3823 68.9956C70.9522 71.4256 68.5257 73.8573 66.0922 76.2839C65.4117 76.9593 64.891 77.0074 64.1692 76.497Z" fill="white"/>
</svg>
