<svg width="105" height="105" viewBox="0 0 105 105" fill="none" xmlns="http://www.w3.org/2000/svg">
<circle cx="52.5" cy="52.5" r="52.5" fill="#E1F3F5"/>
<path d="M54.1917 81.5116C53.0756 82.0308 53.0756 82.0308 52.451 80.9498C51.2203 78.8192 50.0155 76.6719 48.7534 74.5616C47.9957 73.2939 47.4783 72.0059 47.8867 70.4759C45.6138 70.4759 43.3871 70.4759 41.1123 70.4759C41.4948 71.191 41.8903 71.8581 42.2136 72.5585C42.6553 73.5083 42.8512 74.5246 42.853 75.5742C42.8567 77.3963 42.8438 79.2165 42.8641 81.0385C42.8678 81.421 42.7772 81.567 42.3744 81.5393C41.7997 81.5005 41.2232 81.5208 40.6466 81.5153C40.3898 81.251 40.447 80.9128 40.447 80.5969C40.4397 79.0261 40.4249 77.4554 40.4507 75.8865C40.4692 74.7187 40.1736 73.6543 39.5674 72.662C38.88 71.5403 38.2351 70.3909 37.5255 69.2821C37.0561 68.5467 37.0802 67.8851 37.52 67.1515C39.0722 64.5552 40.5542 61.9183 42.0714 59.3016C42.306 58.8969 42.5075 58.483 42.5093 58.0044C42.5148 57.2043 42.2192 56.5427 41.4819 56.1824C40.7224 55.8109 39.961 55.8423 39.2718 56.3949C38.9983 56.6148 38.7932 56.8901 38.6176 57.1932C36.6976 60.5101 34.7832 63.829 32.8743 67.1534C31.991 68.6908 31.9448 68.5762 30.4462 67.6856C30.0193 67.4305 29.9122 67.0739 30.1709 66.6286C30.2984 66.4087 30.4111 66.1795 30.5478 65.967C30.8287 65.5272 30.8749 65.0763 30.7289 64.5774C30.5072 63.8179 30.461 63.0381 30.4628 62.2472C30.4739 57.5831 30.4684 52.919 30.4684 48.2549C30.4684 47.8686 30.4573 47.4824 30.4887 47.1886C30.2171 48.107 29.6886 49.0051 29.2728 49.9457C28.2731 52.2038 27.1828 54.4213 26.1942 56.685C25.6047 58.0321 25.3035 59.4384 25.3072 60.9222C25.3238 67.4102 25.3164 73.8982 25.3109 80.388C25.3109 80.7706 25.4088 81.1808 25.115 81.5171C24.4036 81.5116 23.4944 81.7703 23.0361 81.4266C22.6018 81.1013 22.9104 80.1349 22.9086 79.453C22.8975 73.3106 22.9141 67.1681 22.8957 61.0257C22.8901 59.006 23.3096 57.0971 24.1578 55.2695C25.747 51.8453 27.3232 48.4175 28.8977 44.9859C29.2321 44.256 29.6608 43.6018 30.3852 43.2249C30.7603 43.029 30.6606 42.7352 30.6606 42.458C30.6661 35.946 30.6513 29.434 30.6698 22.922C30.679 19.9117 31.9966 17.6055 34.5763 16.0478C35.6813 15.3807 36.9009 15.024 38.1908 15.0222C45.7376 15.0092 53.2881 14.9741 60.8386 15.0333C65.0149 15.0647 68.3227 18.535 68.3485 22.7926C68.3781 27.8041 68.3559 32.8138 68.3559 37.8253C68.3559 45.5606 68.3596 53.2959 68.3485 61.0313C68.3485 61.4858 68.4021 61.7686 68.9214 61.9312C69.7049 62.1751 70.3387 62.7018 70.8081 63.3855C70.9984 63.6627 71.1148 63.659 71.3939 63.4816C73.5226 62.1308 75.8602 62.5114 77.4328 64.4647C77.6472 64.7326 77.7543 64.788 78.0685 64.5774C79.5376 63.598 81.0954 63.5019 82.6476 64.339C84.2275 65.1909 84.9833 66.5787 84.987 68.3674C84.9926 72.5696 84.9815 76.7735 85 80.9757C85.0018 81.4192 84.902 81.5836 84.4382 81.5448C83.8875 81.4986 83.3313 81.5226 82.7769 81.5171C82.4961 81.2048 82.5737 80.8204 82.5737 80.4583C82.5681 76.6479 82.57 72.8394 82.57 69.029C82.57 68.7758 82.5774 68.5208 82.5626 68.2676C82.4924 67.0776 81.6405 66.222 80.5428 66.2313C79.4378 66.2423 78.6081 67.0942 78.5489 68.2935C78.5212 68.846 78.5434 69.4023 78.5397 69.9566C78.5379 70.1876 78.5415 70.4186 78.4953 70.6477C78.366 71.2982 77.8726 71.7214 77.2406 71.7269C76.5828 71.7343 76.058 71.2927 75.9582 70.6052C75.8713 70.0102 75.9286 69.4059 75.9194 68.8072C75.9101 68.2307 75.9434 67.6523 75.9046 67.0757C75.8288 65.9652 74.9973 65.1447 73.9477 65.1262C72.8611 65.1059 71.9833 65.9171 71.9076 67.0628C71.8447 68.0311 71.8965 69.0013 71.8854 69.9714C71.8725 71.1227 71.4179 71.7288 70.5734 71.7288C69.7271 71.7288 69.2743 71.1263 69.2669 69.9733C69.2595 68.7037 69.2706 67.4342 69.2614 66.1629C69.254 65.2482 68.8715 64.546 68.0196 64.1764C66.7094 63.6072 65.3143 64.5367 65.2496 66.0372C65.1942 67.3049 65.2404 68.5762 65.233 69.8457C65.2311 70.1229 65.2422 70.402 65.1849 70.6736C65.0463 71.3185 64.5418 71.7325 63.9099 71.7269C63.2797 71.7214 62.7789 71.2945 62.6551 70.6477C62.5942 70.3281 62.6145 70.0028 62.6145 69.6794C62.6145 64.254 62.6145 58.8267 62.6126 53.4013C62.6126 53.0779 62.6274 52.7545 62.5775 52.433C62.4223 51.4425 61.5944 50.7163 60.6187 50.7089C59.632 50.7015 58.8041 51.4018 58.6267 52.3923C58.5657 52.736 58.5805 53.0834 58.5805 53.429C58.5805 59.917 58.5805 66.405 58.5787 72.8929C58.5787 73.2163 58.5934 73.5397 58.5528 73.8612C58.4789 74.4452 58.1721 74.8554 57.5956 75.0032C57.0227 75.1511 56.5404 74.9608 56.1967 74.4821C55.7772 73.9001 55.4594 73.257 55.1046 72.6342C54.7387 71.993 54.3599 71.3573 53.9811 70.7235C53.3343 69.6369 52.1849 69.2858 51.2018 69.8513C50.1726 70.4445 49.8658 71.6124 50.5052 72.7322C51.7876 74.9774 53.0738 77.2207 54.3839 79.4511C54.5133 79.6711 54.6463 79.8854 54.7664 80.109C55.2783 81.0551 55.2136 81.2122 54.1917 81.5116Z" fill="black"/>
<path d="M54.1918 81.5115C55.0104 80.9479 55.0122 80.9479 54.4893 80.0443C53.0941 77.6291 51.6878 75.2213 50.3093 72.7968C49.4851 71.3444 50.1929 69.7404 51.7673 69.4133C52.682 69.223 53.5653 69.6314 54.0975 70.5276C54.7923 71.6973 55.4742 72.8726 56.1413 74.0589C56.4517 74.6096 56.8527 75.0106 57.5198 74.848C58.222 74.6761 58.3828 74.1255 58.3809 73.4565C58.3717 66.599 58.3717 59.7414 58.3773 52.8838C58.3791 51.1523 59.8999 50.0436 61.4152 50.6479C62.2985 51.0008 62.8085 51.8157 62.8085 52.9115C62.8122 57.6921 62.8104 62.4707 62.8104 67.2513C62.8104 68.2214 62.8067 69.1916 62.8122 70.1599C62.8159 71.0413 63.2132 71.5439 63.9043 71.5532C64.5991 71.5643 65.0242 71.0561 65.0279 70.1894C65.0334 68.8497 65.0223 67.5118 65.0315 66.1721C65.0389 64.7751 65.9832 63.7828 67.2749 63.7994C68.5296 63.8142 69.4536 64.8046 69.4628 66.1647C69.4721 67.5266 69.4591 68.8885 69.4665 70.2523C69.4721 71.0672 69.9026 71.5606 70.579 71.555C71.2516 71.5513 71.6729 71.0561 71.6803 70.2393C71.6877 69.2932 71.6803 68.3452 71.6821 67.3991C71.6858 65.9189 72.571 64.9192 73.8793 64.91C75.2116 64.9007 76.1116 65.9152 76.1153 67.4361C76.1171 68.3822 76.1079 69.3302 76.119 70.2763C76.1264 71.0746 76.5809 71.5754 77.2536 71.5569C77.9022 71.5384 78.3198 71.0561 78.3309 70.2874C78.342 69.6184 78.3235 68.9476 78.3364 68.2787C78.3623 66.9815 79.3158 66.0169 80.5558 66.0187C81.7902 66.0206 82.7603 66.9944 82.764 68.2898C82.777 72.7007 82.7714 77.1098 82.7751 81.5208C80.1455 81.5263 77.516 81.5374 74.8846 81.5392C68.2635 81.5411 61.6406 81.5411 55.0196 81.5392C54.7443 81.5319 54.4671 81.5189 54.1918 81.5115Z" fill="#FEC377"/>
<path d="M25.1095 81.5153C25.1113 74.7021 25.1224 67.8888 25.1076 61.0775C25.1039 59.3608 25.4532 57.7475 26.1794 56.1935C27.5561 53.2516 28.8995 50.2931 30.2577 47.3439C30.3501 47.1406 30.4536 46.9429 30.6587 46.747C30.6587 46.9613 30.6587 47.1757 30.6587 47.39C30.6587 52.3554 30.6624 57.3207 30.655 62.286C30.6532 63.1933 30.7141 64.0914 31.0209 64.9451C31.2297 65.5235 30.8102 65.858 30.5903 66.259C30.0526 67.2458 30.036 67.2347 30.9932 67.789C31.9522 68.3416 31.9522 68.3416 32.5177 67.364C34.5245 63.8918 36.5295 60.4159 38.5419 56.9474C39.1073 55.9736 39.8631 55.5929 40.8998 55.7592C41.8108 55.9033 42.391 56.4596 42.6497 57.3299C42.8512 58.0099 42.6849 58.6382 42.3282 59.248C40.7963 61.8776 39.305 64.5312 37.7417 67.1404C37.2594 67.9443 37.265 68.5929 37.7805 69.3635C38.4975 70.4352 39.1239 71.568 39.791 72.6731C40.3657 73.6247 40.6466 74.6503 40.6411 75.7646C40.6318 77.6809 40.6429 79.599 40.6466 81.5153C35.4669 81.5134 30.2891 81.5134 25.1095 81.5153Z" fill="#FEC377"/>
<path d="M22.8975 31.0232C22.733 31.1691 22.6795 31.2116 22.6296 31.2597C21.3323 32.5329 21.3397 32.5255 20.1238 31.0934C19.9335 30.8698 19.9778 30.7663 20.1534 30.5926C21.1697 29.5855 22.1657 28.5599 23.1932 27.5657C23.7235 27.052 24.3038 27.0631 24.847 27.5898C25.8579 28.5691 26.8335 29.5818 27.8425 30.563C28.0994 30.8125 28.0421 30.9585 27.8129 31.1655C27.3861 31.5517 27.0165 32.2188 26.5545 32.2834C26.1276 32.3426 25.771 31.596 25.3571 31.2338C25.309 31.1913 25.2554 31.1562 25.1908 31.1082C25.0392 31.3262 25.1187 31.5609 25.1187 31.7753C25.1131 35.5579 25.1021 39.3424 25.1279 43.1251C25.1316 43.6684 25.0503 43.8735 24.4405 43.8531C22.8994 43.8033 22.8975 43.8384 22.8975 42.2621C22.8975 38.7788 22.8975 35.2955 22.8975 31.8122C22.8975 31.5905 22.8975 31.3687 22.8975 31.0232Z" fill="black"/>
<path d="M73.8996 30.9529C73.4339 31.4352 73.0828 31.7845 72.7502 32.1522C72.5543 32.3684 72.3899 32.4146 72.2051 32.1578C72.1921 32.1393 72.1737 32.1245 72.157 32.1079C71.7597 31.6939 71.1 31.3151 71.0391 30.8568C70.9836 30.4337 71.7135 30.0604 72.0961 29.6649C72.7539 28.9849 73.4247 28.3178 74.101 27.6581C74.7312 27.0446 75.28 27.0354 75.9046 27.6452C76.8784 28.595 77.8264 29.5725 78.8002 30.5224C79.0497 30.7663 79.0959 30.9252 78.8095 31.1747C78.3937 31.5387 78.0592 32.1799 77.6065 32.2668C77.1131 32.361 76.823 31.6108 76.4035 31.2763C76.337 31.2246 76.2779 31.1636 76.1171 31.0213C76.1171 31.3484 76.1171 31.5664 76.1171 31.7863C76.1171 35.593 76.1079 39.3997 76.1282 43.2045C76.1319 43.7016 76.0395 43.8661 75.5017 43.8531C73.8996 43.818 73.8996 43.8457 73.8996 42.2565C73.8996 38.7733 73.8996 35.29 73.8996 31.8067C73.8996 31.5849 73.8996 31.3632 73.8996 30.9529Z" fill="black"/>
<path d="M25.115 47.2034C25.115 48.2715 25.115 48.2715 24.034 48.2715C22.8975 48.2715 22.8975 48.2715 22.8975 47.1221C22.8975 46.054 22.8975 46.054 23.9785 46.054C25.115 46.054 25.115 46.054 25.115 47.2034Z" fill="black"/>
<path d="M76.1171 47.1867C76.1171 48.2715 76.1171 48.2715 75.0545 48.2715C73.8996 48.2715 73.8996 48.2715 73.8996 47.1387C73.8996 46.054 73.8996 46.054 74.9621 46.054C76.1171 46.054 76.1171 46.054 76.1171 47.1867Z" fill="black"/>
<path d="M76.1171 51.5349C76.1171 52.7064 76.1171 52.7064 74.9326 52.7064C73.8996 52.7064 73.8996 52.7064 73.8996 51.6605C73.8996 50.489 73.8996 50.489 75.0841 50.489C76.1171 50.489 76.1171 50.489 76.1171 51.5349Z" fill="black"/>
<path d="M44.9652 57.5646C44.6363 55.4377 43.3095 53.9575 41.3858 53.5731C39.451 53.1869 37.6327 54.085 36.5314 55.9828C35.3542 58.0118 34.1827 60.0463 32.9871 62.1178C32.8115 61.8942 32.8799 61.6836 32.8799 61.4969C32.8762 48.6836 32.8744 35.8684 32.8781 23.055C32.8799 19.5883 35.236 17.2304 38.7026 17.2286C45.9058 17.2249 53.1089 17.2249 60.3139 17.2286C63.7787 17.2304 66.1366 19.5883 66.1366 23.0569C66.1403 33.261 66.1384 43.4669 66.1366 53.6711C66.1366 53.8559 66.1218 54.0388 66.1144 54.2236C65.5933 53.7782 65.4492 53.0908 65.05 52.566C64.8505 49.6944 62.2893 47.6469 59.2513 48.4396C58.9483 48.4692 59.037 48.2807 59.1016 48.144C59.2273 47.8705 59.4398 47.6543 59.6172 47.4141C61.916 44.2856 62.1581 39.8377 60.1937 36.7646C59.9701 36.4615 59.8962 36.0938 59.765 35.7501C58.3421 32.0247 55.707 29.6372 51.8098 28.7706C48.0087 27.9261 44.5993 28.9295 41.8755 31.633C38.8874 34.597 37.8692 38.2743 39.0427 42.3841C40.0997 46.0854 42.5537 48.5228 46.1885 49.7738C46.4287 49.857 46.6689 49.9364 46.8759 50.0935C49.8252 51.7677 52.8409 51.8084 55.9177 50.4723C56.2226 50.3393 56.4961 50.0621 56.8805 50.2155C56.3095 51.2004 56.1413 52.263 56.1468 53.3957C56.1746 58.0524 56.1616 62.7091 56.1524 67.364C56.1524 67.6449 56.315 68.0939 56.0286 68.1771C55.6442 68.2898 55.1841 68.3342 54.7775 68.0385C53.4193 67.048 51.8616 66.7487 50.4276 67.5802C49.2911 68.2381 48.1787 68.2233 46.9997 68.2251C45.3403 68.227 43.6809 68.2122 42.0215 68.2048C41.8274 67.9054 42.04 67.6726 42.1675 67.4435C42.6572 66.5546 43.1912 65.6917 43.6957 64.8121C43.862 64.5238 44.0172 64.1653 44.4755 64.2799C44.749 64.424 44.919 64.6809 45.1296 64.8897C45.7321 65.4865 46.4564 65.8025 47.3009 65.8099C48.7774 65.8229 50.2539 65.8376 51.7285 65.8062C53.4526 65.7711 54.8662 64.3261 54.8515 62.6593C54.8367 61.0183 53.4397 59.5807 51.7488 59.564C49.9286 59.5455 48.1066 59.4679 46.2883 59.6361C46.0924 59.6158 45.9132 59.5308 45.8392 59.3552C45.5879 58.7399 45.1481 58.215 44.9652 57.5646Z" fill="#EBEBEB"/>
<path d="M56.8823 50.2173C55.1268 51.1505 53.2715 51.7252 51.2665 51.5866C49.6607 51.4757 48.0844 51.1875 46.7447 50.1785C46.9942 49.9789 47.2713 50.0658 47.5411 50.112C51.2074 50.7477 54.4079 49.7406 57.0911 47.2274C58.8521 45.5772 59.8888 43.4799 60.2639 41.0721C60.4543 39.8524 60.4672 38.6439 60.2214 37.4317C60.1679 37.1637 60.0884 36.8866 60.2917 36.6371C61.0345 37.5315 61.3209 38.6328 61.5316 39.7212C61.9696 41.9923 61.6499 44.1876 60.567 46.248C60.2159 46.917 59.8168 47.56 59.2993 48.1181C59.2125 48.2123 59.0665 48.3066 59.2587 48.4396C58.307 48.8222 57.5032 49.3987 56.8823 50.2173Z" fill="#C8C8C8"/>
<path d="M44.3739 64.3464C44.2926 64.3834 44.1743 64.3982 44.1373 64.461C43.4111 65.6972 42.5906 66.8817 42.0233 68.2085C41.2953 68.2085 40.5672 68.2085 39.8299 68.2085C39.8077 67.8907 40.0054 67.7059 40.1255 67.4971C41.432 65.2242 42.7311 62.9494 44.069 60.695C44.6474 59.7193 45.0225 58.7103 44.9652 57.5665C45.5639 58.0931 45.6748 58.9284 46.1904 59.5086C46.1885 59.8061 45.9169 59.8468 45.7413 59.965C44.3425 60.9149 43.8971 62.1142 44.3425 63.7532C44.3942 63.9454 44.4921 64.1413 44.3739 64.3464Z" fill="#C8C8C8"/>
<path d="M65.0518 52.5679C65.6654 52.9541 65.8335 53.6267 66.1162 54.2254C66.1236 56.5741 66.1162 58.9228 66.1477 61.2696C66.1587 62.0772 65.4251 61.7852 65.0518 62.1973C65.0518 58.9043 65.0518 55.7352 65.0518 52.5679Z" fill="#C8C8C8"/>
<path d="M60.2898 36.639C60.6668 38.5349 60.7167 40.4179 60.2011 42.3102C58.6674 47.9444 53.0054 51.4407 47.2917 50.2561C47.1124 50.2192 46.9276 50.2044 46.7465 50.1804C44.5716 49.5022 42.6202 48.4471 41.1492 46.6657C38.3608 43.2896 37.6161 39.4847 39.2052 35.4009C40.7593 31.4075 43.777 29.0293 48.0401 28.4472C53.4674 27.7043 58.3717 30.8661 60.0736 36.0643C60.1346 36.2564 60.2159 36.4468 60.2898 36.639Z" fill="black"/>
<path d="M44.3738 64.3464C43.4961 62.127 44.056 60.6339 46.1903 59.5067C48.1639 59.2129 50.1522 59.3145 52.1258 59.4051C53.8499 59.4845 55.1175 61.1015 55.0473 62.844C54.9789 64.5312 53.5838 65.9559 51.88 66.0002C50.313 66.0409 48.7423 66.0298 47.1734 66.0039C45.9409 65.9818 45.0557 65.3221 44.3738 64.3464Z" fill="black"/>
<path d="M49.5018 19.4442C50.8156 19.4442 52.1276 19.4571 53.4396 19.4368C53.8166 19.4313 53.946 19.5218 53.9534 19.9247C53.9866 21.6617 54.0014 21.6617 52.2773 21.6617C50.0654 21.6617 47.8553 21.6506 45.6433 21.6709C45.2091 21.6746 45.0576 21.5822 45.0594 21.111C45.0631 19.4442 45.0428 19.4442 46.7373 19.4442C47.6594 19.4442 48.5797 19.4442 49.5018 19.4442Z" fill="black"/>
<path d="M42.8549 20.5751C42.8549 21.6617 42.8549 21.6617 41.7923 21.6617C40.6374 21.6617 40.6374 21.6617 40.6374 20.5308C40.6374 19.4442 40.6374 19.4442 41.6999 19.4442C42.8549 19.4442 42.8549 19.4442 42.8549 20.5751Z" fill="black"/>
<path d="M49.5276 30.5335C54.3858 30.5261 58.3606 34.5028 58.3772 39.3868C58.3939 44.2412 54.4024 48.2623 49.5553 48.2715C44.6362 48.2807 40.6392 44.3096 40.6411 39.4145C40.6411 34.5009 44.6048 30.5409 49.5276 30.5335Z" fill="#5BBF90"/>
<path d="M49.5775 61.5764C50.2686 61.5764 50.9597 61.5635 51.649 61.5801C52.3567 61.5986 52.8187 62.0384 52.8298 62.6667C52.839 63.2949 52.3771 63.7754 51.6823 63.7846C50.2317 63.8031 48.7829 63.8031 47.3323 63.7846C46.6375 63.7754 46.1755 63.2931 46.1866 62.6648C46.1977 62.0365 46.6597 61.5967 47.3693 61.5801C48.1047 61.5635 48.8402 61.5764 49.5775 61.5764Z" fill="#E5E6E7"/>
<path d="M49.3798 40.5343C48.8513 40.5084 48.3099 40.5398 47.7943 40.4437C46.1811 40.1425 45.0668 38.7677 45.076 37.16C45.0834 35.5616 46.2107 34.1978 47.8405 33.9169C48.3043 33.8375 48.4873 33.7063 48.4023 33.2443C48.3321 32.8636 48.478 32.6936 48.8827 32.7417C49.134 32.7712 49.3909 32.7657 49.6441 32.7435C50.2687 32.6862 50.799 32.7029 50.6253 33.5843C50.5588 33.9225 50.8526 33.8412 51.0374 33.8763C52.5915 34.1646 53.678 35.2271 53.9146 36.6685C53.9755 37.0399 53.9238 37.2358 53.484 37.1896C53.1643 37.1563 52.8372 37.1656 52.5157 37.1877C52.0593 37.2191 51.7082 37.197 51.5456 36.6297C51.4328 36.2379 51.0134 36.079 50.5865 36.0771C49.8714 36.0753 49.1544 36.0587 48.4392 36.0808C47.7426 36.103 47.2806 36.5779 47.2954 37.2081C47.3102 37.8123 47.7574 38.2614 48.4226 38.2835C49.1377 38.3076 49.8529 38.2835 50.5699 38.2928C52.3309 38.3168 53.7464 39.5697 53.9293 41.2568C54.116 42.9754 52.9666 44.5553 51.2111 44.8676C50.7085 44.9582 50.5329 45.1078 50.6161 45.5865C50.677 45.9357 50.5495 46.0965 50.1707 46.0558C49.8972 46.0263 49.6163 46.0299 49.341 46.054C48.7441 46.1057 48.2193 46.1113 48.3949 45.2483C48.4725 44.8732 48.1565 44.9545 47.9477 44.9157C46.4398 44.6329 45.3643 43.5815 45.1075 42.1641C45.0354 41.7705 45.0834 41.5469 45.5657 41.6079C45.8836 41.6467 46.2125 41.6264 46.534 41.6135C46.9554 41.595 47.312 41.5617 47.458 42.1383C47.567 42.5651 48.0124 42.7222 48.4633 42.724C49.1562 42.724 49.8492 42.7388 50.5403 42.7204C51.2499 42.7019 51.7137 42.2528 51.7193 41.6245C51.7248 40.9944 51.261 40.5417 50.5569 40.5121C50.1652 40.4955 49.7716 40.5084 49.3798 40.5084C49.3798 40.5195 49.3798 40.5269 49.3798 40.5343Z" fill="black"/>
</svg>
