<svg width="109" height="112" viewBox="0 0 109 112" fill="none" xmlns="http://www.w3.org/2000/svg">
<g clip-path="url(#clip0)">
<path d="M34.2373 108.532C34.2373 93.2755 34.2373 78.0185 34.2373 62.4148C34.2373 60.3343 34.2373 60.3343 36.3335 60.3343C39.1283 60.3343 41.9232 60.3343 44.7181 60.3343C46.1155 60.3343 46.1155 60.681 46.1155 62.068C46.1155 77.6718 46.1155 92.9287 46.1155 108.532C42.2726 108.532 38.4296 108.532 34.2373 108.532Z" fill="#FEBE12"/>
<path d="M88.3879 108.532C88.3879 93.2755 88.3879 78.0185 88.3879 62.7616C88.3879 61.0278 88.3879 61.0278 90.1347 61.0278C92.9296 61.0278 95.7245 61.0278 98.5193 61.0278C100.266 61.0278 100.266 61.0278 100.266 62.7616C100.266 77.6718 100.266 92.9288 100.266 107.839C100.266 108.186 100.266 108.186 100.266 108.532C96.0738 108.532 92.2309 108.532 88.3879 108.532Z" fill="#2F68B2"/>
<path d="M109 14.5634C109 20.8049 104.808 26.6996 98.8685 28.4334C97.1217 29.1269 96.0737 29.8204 95.3749 31.2074C94.3269 33.2879 93.9775 33.2879 92.9294 31.2074C92.2307 29.8204 91.1826 28.7801 89.4359 28.4334C83.1474 26.3529 79.3044 20.4582 79.3044 14.5634C79.3044 7.97519 83.8461 2.42721 90.1346 0.346711C99.5673 -2.08053 109 4.85445 109 14.5634ZM92.9294 19.0712C91.8814 19.0712 90.8333 19.0712 89.7852 19.0712C88.7371 19.0712 88.0384 19.7647 88.0384 20.8049C88.0384 21.8452 88.7371 22.1919 89.4359 22.5387C89.7852 22.5387 90.4839 22.5387 90.8333 22.5387C91.8814 22.5387 92.2307 22.8854 92.2307 23.9257C92.2307 25.3127 93.2788 26.0062 94.3269 25.6594C95.375 25.3127 95.3749 24.6192 95.3749 23.5789C95.3749 22.8854 95.7243 22.5387 96.423 22.5387C99.2179 21.8452 100.615 19.7647 100.266 17.3374C99.9166 14.9102 97.8205 13.5232 95.3749 13.1764C94.3269 13.1764 93.2788 13.1764 92.2307 13.1764C91.1826 13.1764 90.8333 12.4829 90.8333 11.7894C90.8333 11.0959 91.532 10.4024 92.2307 10.4024C92.9294 10.4024 93.6282 10.4024 93.9775 10.4024C95.375 10.4024 96.7724 10.4024 97.8205 10.4024C98.8685 10.4024 99.5673 9.70894 99.5673 8.66869C99.5673 7.62844 98.8685 6.93495 97.8205 6.93495C97.4711 6.93495 97.1217 6.93495 96.7724 6.93495C95.7243 6.93495 95.0256 6.93495 95.3749 5.54795C95.3749 4.85445 95.0256 4.16095 94.3269 3.8142C93.6282 3.46745 93.2788 3.46745 92.5801 3.8142C91.8814 4.16095 91.8814 4.85445 91.8814 5.54795C91.8814 6.24145 91.8814 6.5882 90.8333 6.5882C88.3878 6.93495 86.641 9.01544 86.9903 11.7894C87.3397 14.2167 89.0865 15.9504 91.8814 15.9504C92.9294 15.9504 93.9775 15.9504 94.6762 15.9504C95.7243 15.9504 96.423 16.6439 96.423 17.3374C96.423 18.3777 95.7243 18.7244 94.6762 18.7244C94.6762 19.0712 93.6282 19.0712 92.9294 19.0712Z" fill="#FCD30E"/>
<path d="M52.4038 108.533C52.4038 96.3963 52.4038 84.26 52.4038 72.1238C52.4038 70.7368 52.7532 70.3901 54.1506 70.3901C56.9455 70.3901 60.0897 70.3901 62.8846 70.3901C63.9327 70.3901 64.282 70.7368 64.282 71.7771C64.282 76.6316 64.282 81.4861 64.282 86.3405C64.282 93.6223 64.282 100.904 64.282 108.533C60.0897 108.533 56.2468 108.533 52.4038 108.533Z" fill="#2F68B2"/>
<path d="M25.8526 29.8205C25.5032 29.8205 24.8045 29.8205 24.4551 29.8205C16.7692 29.8205 9.43269 29.8205 1.74679 29.8205C0.349359 29.8205 0 29.4737 0 27.74C0 24.6192 0 21.4985 0 18.3777C0 16.9907 0.349359 16.644 1.74679 16.644C10.8301 16.644 20.2628 16.644 29.3461 16.644C30.7436 16.644 31.0929 16.9907 31.0929 18.3777C31.0929 20.1115 31.0929 21.8452 31.0929 23.579C31.0929 24.966 31.0929 26.353 31.0929 28.0867C31.0929 29.127 30.7436 29.8205 29.6955 30.1672C28.6474 29.8205 27.25 29.8205 25.8526 29.8205ZM20.2628 21.4985C18.516 21.4985 17.1186 21.4985 15.3718 21.4985C14.3237 21.4985 13.625 22.192 13.625 22.8855C13.625 23.9257 14.3237 24.6192 15.3718 24.6192C18.516 24.6192 21.6603 24.6192 24.8045 24.6192C25.8526 24.6192 26.5513 23.9257 26.5513 22.8855C26.5513 21.8452 25.8526 21.1517 24.8045 21.1517C23.407 21.4985 21.6603 21.4985 20.2628 21.4985ZM8.03526 21.4985C7.33654 21.4985 6.63782 21.4985 5.9391 21.4985C4.89103 21.4985 4.19231 22.192 4.19231 22.8855C4.19231 23.9257 4.89103 24.6192 5.9391 24.6192C7.33654 24.6192 8.73397 24.6192 10.1314 24.6192C11.1795 24.6192 11.8782 23.9257 11.8782 22.8855C11.8782 21.8452 11.1795 21.1517 10.1314 21.1517C9.08333 21.4985 8.73397 21.4985 8.03526 21.4985Z" fill="#FCD30E"/>
<path d="M52.404 108.533C56.247 108.533 60.4393 108.533 64.2822 108.533C66.3784 108.533 68.4745 108.533 70.5707 108.533C74.4136 108.533 78.2566 108.533 82.4489 108.533C84.545 108.533 86.6412 108.533 88.7374 108.533C92.5803 108.533 96.7726 108.533 100.616 108.533C102.362 108.533 104.109 108.533 106.205 108.533C107.253 108.533 108.301 109.226 108.301 110.266C108.301 111.307 107.603 112 106.205 112C100.266 112 94.3271 112 88.7374 112C63.2341 112 37.7309 112 12.2277 112C10.4809 112 9.78223 111.653 9.78223 110.266C9.78223 109.226 10.4809 108.533 12.2277 108.533C13.9745 108.533 15.372 108.533 17.1188 108.533C20.9617 108.533 24.8047 108.533 28.997 108.533C31.0931 108.533 33.1893 108.533 34.9361 108.533C38.779 108.533 42.9713 108.533 46.8143 108.533C48.2117 108.533 50.3079 108.533 52.404 108.533Z" fill="#567A85"/>
<path d="M28.2979 108.533C24.4549 108.533 20.612 108.533 16.4197 108.533C16.4197 100.211 16.4197 91.5418 16.4197 83.2198C16.4197 81.8328 16.769 81.4861 18.1665 81.4861C20.9613 81.4861 23.7562 81.4861 26.9004 81.4861C28.2979 81.4861 28.2979 81.4861 28.2979 82.8731C28.2979 91.5418 28.2979 100.211 28.2979 108.533Z" fill="#2F68B2"/>
<path d="M82.0996 108.532C78.2567 108.532 74.4137 108.532 70.2214 108.532C70.2214 100.21 70.2214 91.8884 70.2214 83.9132C70.2214 82.1794 70.2214 82.1794 72.3176 82.1794C75.1125 82.1794 77.9073 82.1794 80.7022 82.1794C82.0996 82.1794 82.0996 82.1794 82.0996 83.5664C82.0996 91.8884 82.0996 100.21 82.0996 108.532Z" fill="#FEBE12"/>
<path d="M25.8525 29.8204C27.2499 29.8204 28.298 29.8204 29.6954 29.8204C28.298 32.5944 27.5993 35.3684 28.298 38.4891C28.6474 40.2228 28.9967 41.9566 30.3941 42.9968C30.7435 44.0371 31.4422 45.0773 32.8397 45.4241C32.8397 45.7708 33.189 46.1176 33.5384 46.1176C36.3332 47.8513 39.4775 48.5448 42.6217 47.8513C45.0672 47.5046 47.1634 46.4643 48.5608 44.3838C49.6089 43.6903 50.3076 42.9968 50.657 41.6098C51.3557 41.2631 51.3557 40.5696 51.705 40.2228C52.4038 38.1424 52.7531 36.0619 52.4038 33.6346C51.3557 27.0464 44.7179 22.1919 37.7307 23.9256C34.9358 24.6191 32.8397 26.0061 31.0929 27.7399C31.0929 26.3529 31.0929 24.9659 31.0929 23.2321C33.5384 21.8451 35.9839 20.4581 38.7788 20.4581C42.9711 20.1114 46.4647 21.1516 49.6089 23.5789C53.8012 26.6996 55.8973 31.2074 55.548 36.4086C55.548 38.8359 54.8493 41.2631 53.8012 43.3436C53.8012 43.6903 53.4518 43.6903 53.4518 44.0371C52.7531 44.7306 52.0544 45.7708 51.3557 46.8111C49.2595 48.5448 47.1634 49.9318 44.7179 50.6253C39.8268 52.0123 34.9358 51.3188 30.7435 48.5448C30.3941 48.1981 30.3941 48.1981 30.0448 48.1981C29.3461 47.5046 28.6473 46.4643 27.5993 45.7708C27.9486 45.4241 27.9486 45.0773 27.5993 45.0773C24.455 40.2228 24.1057 35.3684 25.8525 29.8204Z" fill="#92BBC6"/>
<path d="M89.0866 48.1981C88.0386 45.4241 88.0385 42.9968 90.1347 40.9163C91.8815 39.1826 95.0257 38.8358 97.1219 40.2228C99.5674 41.6098 100.615 44.3838 99.9168 46.8111C99.218 49.2383 97.1219 50.9721 94.327 50.9721C93.2789 50.9721 92.2309 50.6253 91.1828 50.2786C90.4841 49.9318 89.7853 48.8916 89.0866 48.1981Z" fill="#5BBF90"/>
<path d="M27.5995 50.6254C28.9969 54.0929 27.9489 56.8668 25.154 58.6006C23.0578 59.6408 20.9617 59.6408 18.8655 58.2538C16.7694 56.8668 16.0707 54.7863 16.42 52.7059C16.7694 50.2786 18.1668 48.8916 20.6123 47.8514C22.3591 47.5046 23.7566 47.5046 25.154 48.5449C26.2021 48.8916 26.9008 49.5851 27.5995 50.6254Z" fill="#F1572D"/>
<path d="M81.4008 60.6811C82.4489 63.1084 82.4489 65.1889 80.7021 67.2694C78.9553 69.3499 75.8111 70.0434 73.3656 69.0031C70.9201 67.6161 69.5226 64.8421 70.2214 62.0681C70.2214 61.7214 70.2214 61.7214 70.2214 61.3746C70.9201 60.3344 71.2694 59.6409 72.3175 58.9474C74.4137 57.5604 76.5098 57.5604 78.606 58.6006C80.0034 58.9474 80.7021 59.6409 81.4008 60.6811Z" fill="#F1572D"/>
<path d="M72.6669 58.6006C71.9681 59.2941 71.2694 60.3343 70.5707 61.0278C64.2823 56.1733 57.9938 51.3188 51.7053 46.4644C52.404 45.4241 53.1028 44.7306 53.8015 43.6904C59.7406 48.1981 66.029 53.0526 71.9681 57.5603C72.3175 58.2538 72.3175 58.6006 72.6669 58.6006Z" fill="#567A85"/>
<path d="M81.4008 60.681C80.7021 59.6408 80.0034 58.9473 78.9553 58.6005C81.0515 56.1733 83.497 54.0928 85.5931 51.6656C86.6412 50.6253 87.6893 49.5851 88.7374 48.1981C89.4361 48.8916 90.1348 49.9318 91.1829 50.2786C88.0387 53.746 84.5451 57.2135 81.4008 60.681Z" fill="#567A85"/>
<path d="M27.5993 50.6253C26.9006 49.5851 26.2019 48.8916 25.1538 48.1981C26.2019 47.5046 26.9006 46.4643 27.9487 45.7708C28.9968 46.4643 29.6955 47.1578 30.3942 48.1981C29.3461 48.8916 28.6474 49.5851 27.5993 50.6253Z" fill="#567A85"/>
<path d="M92.9292 19.0712C93.6279 19.0712 94.676 19.0712 95.3747 19.0712C96.4228 19.0712 97.1215 18.7245 97.1215 17.6842C97.1215 16.644 96.4228 16.2972 95.3747 16.2972C94.3266 16.2972 93.2785 16.2972 92.5798 16.2972C90.1343 16.2972 88.0382 14.5635 87.6888 12.1362C87.3394 9.70899 89.0862 7.62849 91.5318 6.935C92.2305 6.935 92.5798 6.58825 92.5798 5.89475C92.5798 5.20125 92.5798 4.50775 93.2785 4.161C93.9773 3.81425 94.3266 3.81425 95.0253 4.161C95.7241 4.50775 96.0734 5.20125 96.0734 5.89475C96.0734 7.28174 96.4228 7.28174 97.4709 7.28174C97.8202 7.28174 98.1696 7.28174 98.5189 7.28174C99.567 7.28174 100.266 7.97524 100.266 9.01549C100.266 10.0557 99.567 10.7492 98.5189 10.7492C97.1215 10.7492 95.7241 10.7492 94.676 10.7492C93.9773 10.7492 93.2785 10.7492 92.9292 10.7492C92.2305 10.7492 91.5318 11.096 91.5318 12.1362C91.5318 13.1765 91.8811 13.5232 92.9292 13.5232C93.9773 13.5232 95.0253 13.5232 96.0734 13.5232C98.5189 13.5232 100.615 15.257 100.964 17.6842C101.314 20.4582 99.9164 22.5387 97.1215 22.8855C96.4228 22.8855 96.0734 23.2322 96.0734 23.9257C96.0734 24.966 96.0734 25.6595 95.0253 26.0062C93.9773 26.353 92.9292 25.6595 92.9292 24.2725C92.9292 23.2322 92.5798 22.8855 91.5318 22.8855C91.1824 22.8855 90.4837 22.8855 90.1343 22.8855C89.0862 22.8855 88.7369 22.192 88.7369 21.1517C88.7369 20.4582 89.4356 19.7647 90.4837 19.418C90.833 19.0712 91.8811 19.0712 92.9292 19.0712Z" fill="#567A85"/>
<path d="M20.2626 21.4984C22.0094 21.4984 23.4068 21.4984 25.1536 21.4984C26.2017 21.4984 27.2498 22.1919 26.9004 23.2321C26.9004 24.2723 26.2017 24.9658 25.1536 24.9658C22.0094 24.9658 18.8651 24.9658 15.7209 24.9658C14.3235 24.9658 13.6248 24.2723 13.6248 23.2321C13.6248 22.1919 14.3235 21.8451 15.3716 21.8451C17.1183 21.4984 18.5158 21.4984 20.2626 21.4984Z" fill="#567A85"/>
<path d="M8.03509 21.4984C8.73381 21.4984 9.43252 21.4984 10.1312 21.4984C11.1793 21.4984 11.878 22.1919 11.878 23.2321C11.878 23.9256 11.1793 24.9658 10.1312 24.9658C8.73381 24.9658 7.33637 24.9658 5.93893 24.9658C4.89086 24.9658 4.19214 24.2723 4.19214 23.2321C4.19214 22.1919 4.89086 21.8451 5.93893 21.8451C6.63765 21.4984 7.33637 21.4984 8.03509 21.4984Z" fill="#567A85"/>
<path d="M37.3812 41.2631C35.9838 42.6501 34.5864 44.0371 32.8396 45.4241C31.7915 45.0773 31.0928 44.0371 30.394 42.9968C31.7915 41.6098 33.1889 40.2228 34.9357 38.8358C35.6344 39.8761 36.3331 40.5696 37.3812 41.2631Z" fill="#567A85"/>
<path d="M48.9106 44.7307C47.1638 43.3437 45.7663 42.3034 44.0195 40.9165C44.7182 40.223 45.417 39.1827 45.7663 38.1425C47.5131 39.5295 48.9106 40.5697 50.6573 41.9567C50.6573 42.9969 49.6093 44.0372 48.9106 44.7307Z" fill="#567A85"/>
<path d="M45.7658 38.1423C45.4164 39.1826 44.7177 39.8761 44.019 40.9163C43.3203 41.2631 42.6215 41.6098 41.9228 41.6098C40.176 42.3033 38.7786 41.9566 37.3812 41.2631C36.3331 40.5696 35.6344 39.8761 34.9356 38.8358C34.2369 37.1021 33.8876 35.3683 34.9356 33.2878C36.3331 30.5139 39.4773 29.4736 42.2722 30.5139C45.4164 31.5541 46.8138 34.6748 46.1151 37.4488C45.7658 37.7956 45.7658 38.1423 45.7658 38.1423Z" fill="#5BBF90"/>
</g>
<defs>
<clipPath id="clip0">
<rect width="109" height="112" fill="white"/>
</clipPath>
</defs>
</svg>
