<svg width="28" height="24" viewBox="0 0 28 24" fill="none" xmlns="http://www.w3.org/2000/svg">
<path d="M28 0V4.10147C26.4497 4.52871 25.266 5.12684 24.4489 5.89586C23.6528 6.66489 23.0138 7.64753 22.532 8.84379C22.0501 10.0187 21.8092 11.4606 21.8092 13.1696C23.7785 13.1696 25.2346 13.7463 26.1773 14.8999C27.141 16.0534 27.6229 17.2817 27.6229 18.5848C27.6229 20.1015 27.0991 21.3832 26.0516 22.4299C25.0041 23.4766 23.7785 24 22.3749 24C20.5522 24 18.9914 23.2096 17.6925 21.6288C16.3936 20.0267 15.7441 17.8478 15.7441 15.0921C15.7441 12.6569 16.2574 10.3818 17.2839 8.26702C18.3105 6.13084 19.7142 4.31509 21.4949 2.81976C23.2757 1.30307 25.4441 0.363152 28 0ZM12.2245 0V4.10147C10.6741 4.52871 9.49046 5.12684 8.6734 5.89586C7.87729 6.66489 7.23831 7.64753 6.75645 8.84379C6.2746 10.0187 6.03367 11.4606 6.03367 13.1696C8.04489 13.1696 9.52188 13.7463 10.4646 14.8999C11.4074 16.0534 11.8788 17.2817 11.8788 18.5848C11.8788 20.1015 11.3446 21.3832 10.2761 22.4299C9.22858 23.4766 8.01347 24 6.63075 24C4.82903 24 3.26824 23.2096 1.94837 21.6288C0.649458 20.0267 0 17.8478 0 15.0921C0 12.6569 0.513281 10.3818 1.53984 8.26702C2.5664 6.13084 3.95959 4.31509 5.71942 2.81976C7.50019 1.30307 9.66854 0.363152 12.2245 0Z" fill="black" fill-opacity="0.3"/>
</svg>
