<?xml version="1.0" encoding="utf-8"?>
<!-- Generator: Adobe Illustrator 21.0.1, SVG Export Plug-In . SVG Version: 6.00 Build 0)  -->
<svg version="1.1" id="Layer_1" xmlns="http://www.w3.org/2000/svg" xmlns:xlink="http://www.w3.org/1999/xlink" x="0px" y="0px"
	 viewBox="0 0 70.9 70.9" style="enable-background:new 0 0 70.9 70.9;" xml:space="preserve">
<style type="text/css">
	.st0{fill:#E1F3F5;}
	.st1{fill:#030202;}
	.st2{fill:#E5E8EC;}
	.st3{fill:#FA7F6C;}
	.st4{fill:#FA806C;}
	.st5{fill:#F9D46F;}
	.st6{fill:#030101;}
	.st7{fill:#5DD5B2;}
	.st8{fill:#EF684D;}
</style>
<title>feature-7</title>
<circle class="st0" cx="35.5" cy="35.5" r="35.4"/>
<g>
	<path class="st1" d="M28.2,39.9c-1.4,0.7-2.7,1.3-4,2c-0.2,0.1-0.2,0.3-0.1,0.4c0.6,2.5-0.9,5-3.4,5.6c-2.5,0.6-5.1-1-5.6-3.5
		c-0.5-2.6,1.2-5.1,3.7-5.5c1.8-0.3,3.2,0.3,4.4,1.6c0.2,0.2,0.3,0.2,0.5,0.1c1.4-0.7,2.8-1.4,4.2-2.1c0.2-0.1,0.3-0.3,0.3-0.5
		c0-1.7,0-3.4,0-5.1c0-0.3-0.1-0.4-0.3-0.5c-2.2-1.1-4.5-2.2-6.7-3.4C21,29,20.9,29,20.7,29.2c-1.1,1.1-2.7,1.3-4,0.6
		c-1.3-0.8-1.9-2.3-1.6-3.7c0.4-1.5,1.7-2.5,3.3-2.5c2,0,3.5,1.8,3.2,3.8c0,0.2,0,0.3,0.2,0.5c2.1,1,4.2,2.1,6.3,3.1
		c0,0,0.1,0,0.2,0.1c0-1.3,0-2.6,0-3.8c0-0.3,0.1-0.4,0.4-0.4c2,0,3.9,0,5.9,0c0.3,0,0.4-0.1,0.4-0.4c0-0.6,0-1.2,0-1.8
		c0-0.4-0.1-0.5-0.5-0.6c-2.1-0.5-3.5-2.3-3.5-4.4c0-2.1,1.4-4,3.5-4.5c2.4-0.6,5,0.8,5.6,3.3c0.7,2.5-0.8,5-3.3,5.7
		c-0.5,0.1-0.5,0.3-0.5,0.7c0,0.6,0,1.2,0,1.8c0,0.3,0.1,0.3,0.3,0.3c2,0,3.9,0,5.9,0c0.3,0,0.4,0.1,0.4,0.4c0,1.3,0,2.5,0,3.8
		c0.1,0,0.2-0.1,0.3-0.1c2-1,4-2,6-3c0.2-0.1,0.3-0.2,0.3-0.5c-0.3-1.8,0.9-3.4,2.7-3.8c1.7-0.3,3.4,0.9,3.7,2.6
		c0.4,1.8-0.8,3.5-2.5,3.9c-1.2,0.3-2.3-0.1-3.1-1C50.1,29,50,29,49.8,29.1c-2.2,1.1-4.5,2.2-6.7,3.4c-0.2,0.1-0.3,0.2-0.3,0.5
		c0,1.7,0,3.4,0,5.2c0,0.2,0.1,0.3,0.3,0.4c1.4,0.7,2.8,1.4,4.2,2.1c0.2,0.1,0.4,0.1,0.6-0.1c1.2-1.4,2.8-2,4.6-1.6
		c1.8,0.4,3,1.6,3.5,3.4c0.6,2.5-1,5.1-3.5,5.6c-2.6,0.5-5.1-1.2-5.5-3.8c-0.1-0.7-0.1-1.3,0.1-1.9c0-0.1,0.1-0.3-0.1-0.4
		c-1.3-0.7-2.6-1.3-4-2c0,1.3,0,2.5,0,3.7c0,0.4-0.1,0.5-0.5,0.5c-1.9,0-3.8,0-5.7,0c-0.3,0-0.4,0-0.4,0.4c0,1.6,0,3.1,0,4.7
		c0,0.2,0.1,0.3,0.3,0.4c1.7,0.5,2.6,2.2,2.2,3.9c-0.4,1.6-2,2.7-3.6,2.5c-1.8-0.2-3-1.7-2.9-3.5c0.1-1.3,1-2.5,2.3-2.9
		c0.3-0.1,0.4-0.2,0.4-0.5c0-1.5,0-3,0-4.5c0-0.3-0.1-0.4-0.4-0.4c-1.9,0-3.9,0-5.8,0c-0.3,0-0.4-0.1-0.4-0.4
		C28.2,42.4,28.2,41.2,28.2,39.9z M29.6,35.5c0,2.3,0,4.6,0,6.9c0,0.3,0.1,0.4,0.4,0.4c3.7,0,7.4,0,11.1,0c0.3,0,0.4-0.1,0.4-0.4
		c0-4.6,0-9.2,0-13.8c0-0.3-0.1-0.4-0.4-0.4c-3.7,0-7.4,0-11.1,0c-0.3,0-0.4,0.1-0.4,0.4C29.6,30.9,29.6,33.2,29.6,35.5z M51.3,40.1
		c-1.8,0-3.3,1.5-3.3,3.3c0,1.8,1.5,3.3,3.3,3.3c1.8,0,3.3-1.5,3.3-3.3C54.7,41.6,53.2,40.1,51.3,40.1z M19.7,40.1
		c-1.8,0-3.3,1.5-3.3,3.3c0,1.8,1.5,3.3,3.3,3.3c1.8,0,3.3-1.5,3.3-3.3C23,41.6,21.5,40.1,19.7,40.1z M38.8,19.7
		c0-1.8-1.5-3.3-3.3-3.3c-1.8,0-3.3,1.5-3.3,3.3c0,1.8,1.5,3.3,3.3,3.3C37.3,23,38.8,21.5,38.8,19.7z M35.5,50.7c-1.1,0-2,0.9-2,2
		c0,1.1,0.9,2,2,2c1.1,0,2-0.9,2-2C37.5,51.6,36.6,50.7,35.5,50.7z M20.3,26.9c0-1.1-0.9-2-2-2c-1.1,0-2,0.9-2,2c0,1.1,0.9,2,2,2
		C19.4,28.9,20.3,28,20.3,26.9z M54.7,26.9c0-1.1-0.9-2-2-2c-1.1,0-2,0.9-2,2c0,1.1,0.9,2,2,2C53.8,28.9,54.6,28,54.7,26.9z"/>
	<path class="st2" d="M29.6,35.5c0-2.3,0-4.6,0-6.9c0-0.3,0.1-0.4,0.4-0.4c3.7,0,7.4,0,11.1,0c0.3,0,0.4,0.1,0.4,0.4
		c0,4.6,0,9.2,0,13.8c0,0.3-0.1,0.4-0.4,0.4c-3.7,0-7.4,0-11.1,0c-0.3,0-0.4-0.1-0.4-0.4C29.6,40.1,29.6,37.8,29.6,35.5z M35.5,41.4
		c1.4,0,2.9,0,4.3,0c0.2,0,0.3,0,0.3-0.3c0-2,0-4,0-6c0-0.2-0.1-0.3-0.3-0.3c-0.9,0-1.8,0-2.7,0c-0.3,0-0.7-0.1-0.9,0
		c-0.2,0.2,0,0.6-0.1,0.9c0,0,0,0.1,0,0.1c0,0.2-0.1,0.3-0.3,0.3c-0.5,0-0.9,0-1.4,0c-0.3,0-0.7-0.1-0.9,0.1c-0.2,0.2,0,0.6-0.1,0.9
		c0,0,0,0,0,0c0,0.2-0.1,0.3-0.3,0.3c-0.7,0-1.4,0-2.1,0c-0.2,0-0.3,0.1-0.3,0.3c0,1.1,0,2.2,0,3.3c0,0.3,0.1,0.3,0.3,0.3
		C32.6,41.4,34.1,41.4,35.5,41.4z M35.5,32.2c-1.2,0-2.4,0-3.7,0c-1,0-0.9,0-1,1c0,0.3,0.1,0.4,0.4,0.4c2.6,0,5.3,0,7.9,0
		c1,0,1,0,1-1c0-0.3-0.1-0.3-0.3-0.3C38.4,32.2,36.9,32.2,35.5,32.2z M36.8,30.9c0.8,0,1.6,0,2.4,0c1,0,1,0,1-1
		c0-0.3-0.1-0.3-0.3-0.3c-1.8,0-3.5,0-5.3,0c-1,0-1,0-1,1c0,0.2,0.1,0.3,0.3,0.3C34.8,30.9,35.8,30.9,36.8,30.9z M31.6,29.5
		c-0.7,0-0.7,0-0.7,0.7c0,0.6,0,0.6,0.6,0.6c0.7,0,0.7,0,0.7-0.7C32.2,29.5,32.2,29.5,31.6,29.5z"/>
	<path class="st3" d="M51.3,40.1c1.8,0,3.3,1.5,3.3,3.3c0,1.8-1.5,3.3-3.3,3.3c-1.8,0-3.3-1.5-3.3-3.3C48,41.6,49.5,40.1,51.3,40.1z
		 M51.4,45.4c1.1,0,2-0.9,2-2c0-1.1-0.9-2-2-2c-1.1,0-2,0.9-2,2C49.4,44.5,50.3,45.4,51.4,45.4z"/>
	<path class="st3" d="M19.7,40.1c1.8,0,3.3,1.5,3.3,3.3c0,1.8-1.5,3.3-3.3,3.3c-1.8,0-3.3-1.5-3.3-3.3
		C16.4,41.6,17.8,40.1,19.7,40.1z M21.6,43.4c0-1.1-0.9-2-2-2c-1.1,0-2,0.9-2,2c0,1.1,0.9,2,2,2C20.7,45.4,21.6,44.5,21.6,43.4z"/>
	<path class="st4" d="M38.8,19.7c0,1.8-1.5,3.3-3.3,3.3c-1.8,0-3.3-1.5-3.3-3.3c0-1.8,1.5-3.3,3.3-3.3
		C37.3,16.3,38.8,17.8,38.8,19.7z M35.5,17.7c-1.1,0-2,0.9-2,1.9c0,1.1,0.9,2,2,2c1.1,0,2-0.9,2-1.9C37.5,18.6,36.6,17.7,35.5,17.7z
		"/>
	<path class="st5" d="M35.5,50.7c1.1,0,2,0.9,2,2c0,1.1-0.9,2-2,2c-1.1,0-2-0.9-2-2C33.5,51.6,34.4,50.7,35.5,50.7z"/>
	<path class="st5" d="M20.3,26.9c0,1.1-0.9,2-2,2c-1.1,0-2-0.9-2-2c0-1.1,0.9-2,2-2C19.4,24.9,20.3,25.8,20.3,26.9z"/>
	<path class="st5" d="M54.7,26.9c0,1.1-0.9,2-2,2c-1.1,0-2-0.9-2-2c0-1.1,0.9-2,2-2C53.8,24.9,54.7,25.8,54.7,26.9z"/>
	<path d="M35.5,41.4c-1.4,0-2.8,0-4.2,0c-0.3,0-0.3-0.1-0.3-0.3c0-1.1,0-2.2,0-3.3c0-0.2,0.1-0.3,0.3-0.3c0.7,0,1.4,0,2.1,0
		c0.2,0,0.3-0.1,0.3-0.3c0,0,0,0,0,0c0-0.3-0.1-0.8,0.1-0.9c0.2-0.2,0.6,0,0.9-0.1c0.5,0,0.9,0,1.4,0c0.2,0,0.3-0.1,0.3-0.3
		c0,0,0-0.1,0-0.1c0-0.3-0.1-0.8,0.1-0.9c0.2-0.2,0.6,0,0.9,0c0.9,0,1.8,0,2.7,0c0.2,0,0.3,0.1,0.3,0.3c0,2,0,4,0,6
		c0,0.3-0.1,0.3-0.3,0.3C38.4,41.4,36.9,41.4,35.5,41.4z M37.5,38.1c0,0.3,0,0.7,0,1c0,1,0,1,1,1c0.2,0,0.3-0.1,0.3-0.3
		c0-0.9,0-1.8,0-2.7c0-1.1,0-1.1-1.1-1c-0.2,0-0.3,0.1-0.3,0.3C37.5,37,37.5,37.6,37.5,38.1z M36.2,38.8c0-0.1,0-0.2,0-0.3
		c0-1,0-1-1-1c-0.2,0-0.3,0.1-0.3,0.3c0,0.5,0,0.9,0,1.4c0,1.1,0,1.1,1.1,1c0.2,0,0.3-0.1,0.3-0.3C36.2,39.5,36.2,39.2,36.2,38.8z
		 M33.5,39.5c0-0.7,0-0.7-0.7-0.7c-0.6,0-0.6,0-0.6,0.6c0,0.7,0,0.7,0.7,0.7C33.5,40.1,33.5,40.1,33.5,39.5z"/>
	<path d="M35.5,32.2c1.4,0,2.9,0,4.3,0c0.3,0,0.3,0.1,0.3,0.3c0,1,0,1-1,1c-2.6,0-5.3,0-7.9,0c-0.3,0-0.4-0.1-0.4-0.4c0-1,0-1,1-1
		C33.1,32.2,34.3,32.2,35.5,32.2z"/>
	<path d="M36.8,30.9c-1,0-2,0-3,0c-0.2,0-0.3-0.1-0.3-0.3c0-1,0-1,1-1c1.8,0,3.5,0,5.3,0c0.3,0,0.3,0.1,0.3,0.3c0,1,0,1-1,1
		C38.4,30.9,37.6,30.9,36.8,30.9z"/>
	<path d="M31.6,29.5c0.6,0,0.6,0,0.6,0.6c0,0.7,0,0.7-0.7,0.7c-0.6,0-0.6,0-0.6-0.6C30.9,29.5,30.9,29.5,31.6,29.5z"/>
	<path class="st6" d="M51.4,45.4c-1.1,0-2-0.9-2-2c0-1.1,0.9-2,2-2c1.1,0,2,0.9,2,2C53.3,44.5,52.4,45.4,51.4,45.4z M52,43.4
		c0-0.4-0.3-0.7-0.7-0.7c-0.4,0-0.7,0.3-0.7,0.7c0,0.4,0.3,0.6,0.7,0.6C51.7,44.1,52,43.8,52,43.4z"/>
	<path class="st6" d="M21.6,43.4c0,1.1-0.9,2-2,2c-1.1,0-2-0.9-2-2c0-1.1,0.9-2,2-2C20.8,41.5,21.6,42.3,21.6,43.4z M20.3,43.4
		c0-0.4-0.3-0.7-0.7-0.7c-0.4,0-0.7,0.3-0.7,0.6c0,0.4,0.3,0.7,0.7,0.7C20,44.1,20.3,43.8,20.3,43.4z"/>
	<path class="st6" d="M35.5,17.7c1.1,0,2,0.9,2,2c0,1.1-0.9,2-2,1.9c-1.1,0-2-0.9-2-2C33.5,18.5,34.4,17.7,35.5,17.7z M35.5,20.3
		c0.4,0,0.7-0.3,0.7-0.7c0-0.4-0.3-0.7-0.6-0.7c-0.4,0-0.7,0.3-0.7,0.7C34.9,20,35.2,20.3,35.5,20.3z"/>
	<path class="st7" d="M37.5,38.1c0-0.6,0-1.2,0-1.7c0-0.2,0-0.3,0.3-0.3c1.1-0.1,1.1-0.1,1.1,1c0,0.9,0,1.8,0,2.7
		c0,0.2-0.1,0.3-0.3,0.3c-1,0-1,0-1-1C37.5,38.8,37.5,38.5,37.5,38.1z"/>
	<path class="st7" d="M36.2,38.8c0,0.4,0,0.7,0,1.1c0,0.2-0.1,0.2-0.3,0.3c-1.1,0-1.1,0.1-1.1-1c0-0.5,0-0.9,0-1.4
		c0-0.2,0.1-0.3,0.3-0.3c1,0,1,0,1,1C36.2,38.6,36.2,38.7,36.2,38.8z"/>
	<path class="st7" d="M33.5,39.5c0,0.6,0,0.6-0.6,0.6c-0.7,0-0.7,0-0.7-0.7c0-0.6,0-0.6,0.6-0.6C33.5,38.8,33.5,38.8,33.5,39.5z"/>
	<path class="st8" d="M52,43.4c0,0.4-0.3,0.7-0.6,0.7c-0.4,0-0.7-0.3-0.7-0.6c0-0.4,0.3-0.7,0.7-0.7C51.7,42.8,52,43.1,52,43.4z"/>
	<path class="st8" d="M20.3,43.4c0,0.4-0.3,0.7-0.6,0.7c-0.4,0-0.7-0.3-0.7-0.7c0-0.4,0.3-0.6,0.7-0.6C20,42.8,20.3,43.1,20.3,43.4z
		"/>
	<path class="st8" d="M35.5,20.3c-0.4,0-0.7-0.3-0.7-0.6c0-0.4,0.3-0.7,0.7-0.7c0.4,0,0.6,0.3,0.6,0.7C36.2,20,35.9,20.3,35.5,20.3z
		"/>
</g>
</svg>
