<?xml version="1.0" encoding="utf-8"?>
<!-- Generator: Adobe Illustrator 21.0.1, SVG Export Plug-In . SVG Version: 6.00 Build 0)  -->
<svg version="1.1" id="Layer_1" xmlns="http://www.w3.org/2000/svg" xmlns:xlink="http://www.w3.org/1999/xlink" x="0px" y="0px"
	 viewBox="0 0 70.9 70.9" style="enable-background:new 0 0 70.9 70.9;" xml:space="preserve">
<style type="text/css">
	.st0{fill:#E1F3F5;}
	.st1{fill:#35256F;}
	.st2{fill:#372771;}
	.st3{fill:#362670;}
	.st4{fill:#FDCB7D;}
	.st5{fill:#4DE1C8;}
	.st6{fill:#362570;}
	.st7{fill:#392872;}
	.st8{fill:#382872;}
	.st9{fill:#372670;}
	.st10{fill:#36246E;}
</style>
<title>feature-7</title>
<circle class="st0" cx="35.5" cy="35.5" r="35.4"/>
<g>
	<path class="st1" d="M35.5,51.7c-5.2,0-10.4,0-15.5,0c-2.1,0-3.9-1.3-4.6-3.3c-0.3-1.1,0.3-2,1.4-2.1c0,0,0.1,0,0.1,0
		c0.3,0,0.7,0.1,0.9-0.1c0.2-0.2,0.1-0.6,0.1-1c0-6.5,0-13,0-19.6c0-1.6,1.1-2.8,2.8-2.8c2.6,0,5.3,0,7.9,0c0.3,0,0.4-0.1,0.6-0.3
		c2.8-4.9,9.9-4.9,12.7,0c0.2,0.3,0.3,0.4,0.6,0.4c2.6,0,5.3,0,7.9,0c1.7,0,2.7,1.2,2.7,2.7c0,6.7,0,13.5,0,20.2
		c0,0.4,0.1,0.5,0.4,0.5c0.2,0,0.4,0,0.7,0c1.1,0.1,1.7,1,1.4,2c-0.6,2-2.4,3.3-4.5,3.3c-3.9,0-7.8,0-11.7,0
		C38.1,51.7,36.8,51.7,35.5,51.7z M35.5,46.3c5.3,0,10.6,0,16,0c0.3,0,0.4-0.1,0.4-0.4c0-6.8,0-13.6,0-20.4c0-0.9-0.5-1.3-1.3-1.3
		c-2.5,0-5.1,0-7.6,0c-0.3,0-0.4,0-0.3,0.4c0.2,0.9,0.3,1.9,0.1,2.9c-0.6,4.1-4.6,6.9-8.7,6.1c-4.1-0.8-6.7-4.9-5.8-8.9
		c0.1-0.4,0-0.4-0.3-0.4c-2.5,0-5,0-7.5,0c-1,0-1.4,0.4-1.4,1.4c0,6.7,0,13.5,0,20.2c0,0.4,0.1,0.5,0.4,0.5
		C24.9,46.3,30.2,46.3,35.5,46.3z M29.4,26.3c0,3.4,2.7,6.1,6.1,6.1c3.4,0,6.1-2.7,6.1-6.1c0-3.4-2.7-6.1-6.1-6.1
		C32.1,20.2,29.4,23,29.4,26.3z M35.5,47.6c-6.1,0-12.3,0-18.4,0c-0.6,0-0.7,0.1-0.4,0.6c0.6,1.3,1.8,2.2,3.3,2.2
		c10.3,0,20.7,0,31,0c0.1,0,0.3,0,0.4,0c1.4-0.1,2.7-1.1,3.1-2.4c0.1-0.3,0-0.4-0.3-0.4c-0.1,0-0.2,0-0.4,0
		C47.7,47.6,41.6,47.6,35.5,47.6z"/>
	<path class="st2" d="M40.2,18.7c-0.4,0-0.8-0.4-0.6-0.8c0.1-0.3,0.3-0.7,0.5-1c0.2-0.3,0.5-0.3,0.8-0.2c0.3,0.2,0.4,0.5,0.3,0.8
		c-0.2,0.3-0.3,0.6-0.5,0.9C40.6,18.7,40.5,18.7,40.2,18.7z"/>
	<path class="st2" d="M30.3,16.7c0.5,0,1.3,1.2,1,1.7c-0.2,0.4-0.8,0.5-1,0.1c-0.2-0.3-0.4-0.6-0.5-1C29.5,17.1,29.8,16.7,30.3,16.7
		z"/>
	<path class="st2" d="M27.9,21.6c0,0.5-0.5,0.8-0.9,0.6c-0.3-0.1-0.6-0.3-0.9-0.5c-0.3-0.2-0.3-0.4-0.2-0.7c0.1-0.3,0.4-0.5,0.7-0.4
		c0.4,0.1,0.8,0.4,1.1,0.7C27.9,21.3,27.9,21.4,27.9,21.6z"/>
	<path class="st2" d="M44.4,20.5c0.4,0,0.6,0.2,0.7,0.4c0.1,0.3,0,0.5-0.2,0.7c-0.3,0.2-0.6,0.4-0.9,0.6c-0.3,0.1-0.5,0.1-0.7-0.2
		c-0.2-0.2-0.2-0.5-0.1-0.7C43.5,20.9,44,20.7,44.4,20.5z"/>
	<path class="st3" d="M34.9,16.4c0-0.2,0-0.3,0-0.5c0-0.3,0.3-0.6,0.6-0.6c0.3,0,0.6,0.2,0.6,0.6c0,0.3,0,0.7,0,1
		c0,0.3-0.3,0.6-0.6,0.6c-0.3,0-0.6-0.2-0.6-0.6C34.9,16.7,34.9,16.5,34.9,16.4z"/>
	<path class="st4" d="M29.4,26.3c0-3.4,2.7-6.1,6.1-6.1c3.4,0,6.1,2.8,6.1,6.1c0,3.4-2.8,6.1-6.1,6.1C32.1,32.5,29.4,29.7,29.4,26.3
		z M36.1,24.6C36.1,24.6,36.1,24.6,36.1,24.6c0.2,0,0.5,0,0.7,0c0.4,0,0.6-0.3,0.6-0.7c0-0.3-0.3-0.6-0.6-0.6c-0.1,0-0.2,0-0.4,0
		c-0.2,0-0.3,0-0.3-0.3c0-0.4-0.3-0.6-0.6-0.6c-0.4,0-0.6,0.2-0.6,0.6c0,0.3-0.1,0.4-0.4,0.5c-0.7,0.4-1,1-0.9,1.8
		c0.1,0.7,0.5,1.2,1.2,1.5c0.2,0.1,0.5,0.1,0.8,0.1c0.4,0,0.6,0.4,0.5,0.7c-0.1,0.3-0.3,0.4-0.5,0.4c-0.4,0-0.9,0-1.3,0
		c-0.4,0-0.6,0.3-0.6,0.6c0,0.3,0.3,0.6,0.6,0.6c0.1,0,0.2,0,0.3,0c0.2,0,0.4,0,0.4,0.3c0,0.3,0.3,0.5,0.6,0.5
		c0.3,0,0.6-0.3,0.6-0.6c0-0.2,0.1-0.3,0.3-0.4c0.8-0.4,1.1-1.2,0.9-2c-0.2-0.8-0.9-1.4-1.7-1.4c-0.1,0-0.2,0-0.3,0
		c-0.3-0.1-0.5-0.2-0.5-0.6c0-0.3,0.2-0.5,0.5-0.5C35.6,24.6,35.9,24.6,36.1,24.6z"/>
	<path class="st5" d="M35.5,47.6c6.1,0,12.2,0,18.3,0c0.1,0,0.2,0,0.4,0c0.3,0,0.4,0.1,0.3,0.4c-0.4,1.3-1.7,2.3-3.1,2.4
		c-0.1,0-0.3,0-0.4,0c-10.3,0-20.7,0-31,0c-1.5,0-2.7-0.8-3.3-2.2c-0.2-0.6-0.2-0.6,0.4-0.6C23.2,47.6,29.4,47.6,35.5,47.6z"/>
	<path class="st6" d="M45.5,40.3c0.4,0.3,0.7,0.7,1.1,1c0.3,0.3,0.3,0.7,0.1,0.9c-0.3,0.3-0.6,0.3-1-0.1c-0.4-0.3-0.7-0.7-1.1-1.1
		c0,0.3,0,0.4,0,0.6c-0.1,0.4-0.3,0.6-0.7,0.6c-0.3,0-0.6-0.3-0.6-0.6c0-0.7,0-1.4,0-2.1c0-0.4,0.2-0.6,0.6-0.6c0.7,0,1.4,0,2.1,0
		c0.4,0,0.6,0.2,0.6,0.6c0,0.4-0.2,0.6-0.6,0.7c-0.2,0-0.3,0-0.5,0C45.5,40.2,45.5,40.3,45.5,40.3z"/>
	<path class="st7" d="M25.5,27c-0.2,0-0.4,0-0.5,0c-0.3-0.1-0.5-0.3-0.5-0.6c0-0.3,0.3-0.6,0.6-0.6c0.3,0,0.6,0,0.9,0
		c0.4,0,0.6,0.3,0.6,0.6c0,0.3-0.2,0.6-0.6,0.7C25.9,27,25.7,27,25.5,27C25.5,27,25.5,27,25.5,27z"/>
	<path class="st7" d="M45.5,25.7c0.2,0,0.3,0,0.5,0c0.4,0,0.6,0.3,0.6,0.6c0,0.3-0.1,0.6-0.5,0.6c-0.4,0.1-0.8,0.1-1.2,0
		c-0.3-0.1-0.5-0.3-0.5-0.6c0-0.3,0.2-0.6,0.6-0.6C45.1,25.7,45.3,25.7,45.5,25.7z"/>
	<path class="st8" d="M31.4,34.7c-0.2,0.4-0.4,0.9-0.8,1.3c-0.2,0.2-0.5,0.1-0.7-0.1c-0.2-0.2-0.3-0.4-0.2-0.7
		c0.2-0.4,0.4-0.7,0.6-1c0.2-0.2,0.4-0.3,0.7-0.2C31.2,34.1,31.4,34.3,31.4,34.7z"/>
	<path class="st8" d="M41.4,35.3c0,0.3-0.2,0.5-0.4,0.6c-0.3,0.1-0.5,0-0.7-0.2c-0.3-0.3-0.5-0.7-0.6-1.1c-0.1-0.2,0-0.5,0.2-0.6
		c0.2-0.2,0.5-0.2,0.7-0.1C41,34.4,41.2,34.9,41.4,35.3z"/>
	<path class="st9" d="M27.9,31.1c0,0.4-0.3,0.5-0.6,0.7c-0.4,0.2-0.7,0.6-1.2,0.3c-0.4-0.2-0.4-0.8,0-1c0.3-0.2,0.6-0.4,0.9-0.5
		C27.4,30.3,27.9,30.6,27.9,31.1z"/>
	<path class="st9" d="M45.1,31.6c0,0.4-0.4,0.8-0.8,0.6c-0.3-0.1-0.7-0.4-1-0.6c-0.2-0.2-0.3-0.4-0.2-0.7c0.1-0.3,0.4-0.4,0.7-0.4
		c0.5,0.1,0.9,0.4,1.2,0.7C45.1,31.3,45.2,31.4,45.1,31.6z"/>
	<path class="st6" d="M36.1,36.3c0,0.2,0,0.3,0,0.5c0,0.4-0.3,0.6-0.6,0.6c-0.3,0-0.6-0.2-0.6-0.6c0-0.3,0-0.7,0-1
		c0-0.3,0.3-0.6,0.6-0.6c0.3,0,0.6,0.2,0.6,0.6C36.1,36,36.1,36.2,36.1,36.3z"/>
	<path class="st10" d="M36.1,24.6c-0.2,0-0.4,0-0.7,0c-0.3,0-0.5,0.2-0.5,0.5c0,0.3,0.2,0.5,0.5,0.6c0.1,0,0.2,0,0.3,0
		c0.9,0,1.5,0.6,1.7,1.4c0.2,0.8-0.2,1.6-0.9,2c-0.2,0.1-0.3,0.2-0.3,0.4c0,0.3-0.3,0.6-0.6,0.6c-0.3,0-0.6-0.2-0.6-0.5
		c0-0.3-0.2-0.3-0.4-0.3c-0.1,0-0.2,0-0.3,0c-0.4,0-0.6-0.3-0.6-0.6c0-0.3,0.2-0.6,0.6-0.6c0.4,0,0.9,0,1.3,0c0.3,0,0.5-0.1,0.5-0.4
		c0.1-0.3-0.1-0.7-0.5-0.7c-0.3,0-0.5,0-0.8-0.1c-0.7-0.3-1.1-0.8-1.2-1.5c-0.1-0.8,0.2-1.4,0.9-1.8c0.2-0.1,0.4-0.2,0.4-0.5
		c0-0.3,0.2-0.5,0.6-0.6c0.3,0,0.6,0.2,0.6,0.6c0,0.2,0.1,0.3,0.3,0.3c0.1,0,0.2,0,0.4,0c0.4,0,0.6,0.3,0.6,0.6
		c0,0.3-0.2,0.6-0.6,0.7C36.6,24.7,36.3,24.6,36.1,24.6C36.1,24.6,36.1,24.6,36.1,24.6z"/>
</g>
</svg>
