<?xml version="1.0" encoding="utf-8"?>
<!-- Generator: Adobe Illustrator 21.0.1, SVG Export Plug-In . SVG Version: 6.00 Build 0)  -->
<svg version="1.1" id="Layer_1" xmlns="http://www.w3.org/2000/svg" xmlns:xlink="http://www.w3.org/1999/xlink" x="0px" y="0px"
	 viewBox="0 0 70.9 70.9" style="enable-background:new 0 0 70.9 70.9;" xml:space="preserve">
<style type="text/css">
	.st0{fill:#E1F3F5;}
	.st1{fill:#EBEBF0;}
	.st2{fill:#D2D2D7;}
	.st3{fill:#01AD8F;}
	.st4{fill:#26CDAB;}
	.st5{fill:#544440;}
	.st6{fill:#FCBF02;}
	.st7{fill:#FED302;}
	.st8{fill:#69544E;}
	.st9{fill:#53433F;}
	.st10{fill:#FED402;}
</style>
<title>feature-7</title>
<circle class="st0" cx="35.5" cy="35.5" r="35.4"/>
<g>
	<path class="st1" d="M24.3,33.1c0.5-1.2,1-2.4,1.5-3.6c0.9-2.2,1.9-4.4,2.8-6.6c0,0,0.1,0.1,0.1,0.1c2.7,2.7,5.4,5.4,8,8
		c0.1,0.1,0.1,0.2,0.2,0.2c-0.1,0.1-0.2,0.1-0.2,0.2c-2.3,2.2-4.5,4.5-6.7,6.7c-0.1,0.1-0.1,0.2-0.2,0.2c-0.2-0.1-0.2-0.2-0.4-0.3
		C27.7,36.5,26,34.8,24.3,33.1z"/>
	<path class="st2" d="M29.8,38.5c0.1-0.1,0.1-0.2,0.2-0.2c2.2-2.3,4.5-4.5,6.7-6.7c0.1-0.1,0.2-0.1,0.2-0.2c0,0,0,0,0.1,0
		c0.1,0.1,0.2,0.2,0.3,0.3c2.3,2.3,4.7,4.7,7,7c0.3,0.3,0.6,0.6,0.9,0.9c-1.8,0.8-3.5,1.5-5.3,2.3c-1.5,0.6-2.9,1.2-4.4,1.9
		c-0.1,0.1-0.3,0.1-0.4,0.1c-0.1-0.1-0.2-0.2-0.3-0.3C33.1,41.9,31.5,40.2,29.8,38.5C29.8,38.5,29.8,38.5,29.8,38.5z"/>
	<path class="st3" d="M29.8,38.5c1.7,1.7,3.3,3.3,5,5c0.1,0.1,0.2,0.2,0.3,0.3c-0.4,0.6-1,1-1.4,1.5c-0.1,0.1-0.2,0.3-0.4,0.4
		c-0.4,0.4-0.8,0.8-1.2,1.2c-0.8,0.8-1.6,1.6-2.4,2.4c-0.2,0.2-0.4,0.3-0.6,0.5c-1.3,1.5-2.9,1.9-4.8,1.1c-0.6-0.4-1.1-0.8-1.6-1.3
		c-0.7-0.7-1.4-1.4-2.1-2.1c0,0,0,0,0-0.1c0.1-0.1,0.2-0.2,0.3-0.3c2.8-2.8,5.5-5.5,8.3-8.3C29.5,38.7,29.6,38.6,29.8,38.5z"/>
	<path class="st4" d="M29.8,38.5c-0.2,0-0.3,0.2-0.4,0.3c-2.8,2.8-5.5,5.5-8.3,8.3c-0.1,0.1-0.2,0.2-0.3,0.3
		c-0.4-0.4-0.9-0.9-1.3-1.3c-0.8-0.8-1.7-1.5-2.2-2.5c-0.7-1.8-0.3-3.3,1.1-4.7c1.9-1.9,3.8-3.8,5.7-5.7c0.1-0.1,0.2-0.2,0.3-0.3
		c1.7,1.7,3.4,3.4,5.1,5.1C29.5,38.3,29.6,38.4,29.8,38.5C29.8,38.5,29.8,38.5,29.8,38.5z"/>
	<path class="st3" d="M45.2,39.6c-0.3-0.3-0.6-0.6-0.9-0.9c-2.3-2.3-4.7-4.7-7-7c-0.1-0.1-0.2-0.2-0.3-0.3c0-0.2,0.1-0.3,0.2-0.4
		c0.6-0.6,1.2-1.2,1.8-1.8c0.5-0.5,1.1-1,1.5-1.5c0.1,0,0.1,0.1,0.2,0.1c2.9,2.9,5.9,5.9,8.8,8.8c0.9,0.9,1,2.3,0.3,3.3
		c-0.9,1.3-2.7,1.5-3.9,0.4C45.8,40.1,45.5,39.8,45.2,39.6z"/>
	<path class="st4" d="M40.5,27.6c-0.4,0.6-1,1-1.5,1.5c-0.6,0.6-1.2,1.2-1.8,1.8c-0.1,0.1-0.2,0.2-0.2,0.4c0,0,0,0-0.1,0
		c-0.1-0.1-0.1-0.2-0.2-0.2c-2.7-2.7-5.4-5.4-8-8c0,0-0.1-0.1-0.1-0.1c-0.3-0.3-0.5-0.5-0.8-0.8c-0.9-1-0.9-2.6,0.1-3.5
		c1-0.9,2.5-1,3.5,0C34.5,21.6,37.5,24.6,40.5,27.6C40.5,27.6,40.5,27.6,40.5,27.6z"/>
	<path class="st5" d="M29.8,49.3c0.7-0.8,1.6-1.6,2.4-2.4c0.4-0.4,0.8-0.8,1.2-1.2c2.4,2.4,4.8,4.8,7.1,7.1c1.3,1.3,1,3.3-0.5,4.1
		c-1,0.5-2.2,0.4-3-0.5c-1.1-1-2.1-2.1-3.2-3.2C32.4,52,31.1,50.7,29.8,49.3z"/>
	<path class="st6" d="M52.1,21.5c2-0.1,3.8,1.6,3.8,3.6c0,1.7-0.8,3-2.3,3.7c-0.2,0.1-0.3,0.2-0.3,0.4c0,0.4,0,0.8,0,1.2
		c0,0.7-0.5,1.2-1.3,1.2c0-1.7,0-3.4,0-5.1c0.4-0.1,0.8-0.2,1.1-0.6c0.4-0.7,0.1-1.6-0.7-1.8c-0.1,0-0.2-0.1-0.4-0.1
		C52.1,23.1,52.1,22.3,52.1,21.5z"/>
	<path class="st7" d="M52.1,21.5c0,0.8,0,1.7,0,2.5c-1.7,0-3.3-1.2-3.7-2.9c-0.4-1.7,0.4-3.6,2-4.3c0.3-0.2,0.5-0.3,0.4-0.7
		c0-0.4,0-0.7,0-1.1c0-0.8,0.5-1.3,1.3-1.3c0,1.7,0,3.4,0,5.2c-0.8,0.1-1.3,0.6-1.3,1.3C50.8,20.8,51.3,21.3,52.1,21.5z"/>
	<path class="st8" d="M17.2,43.7c0.5,1,1.4,1.7,2.2,2.5c0.4,0.4,0.9,0.9,1.3,1.3c0,0,0,0,0,0.1c-0.8,0.7-1.5,1.5-2.2,2.2
		c-0.5,0.4-0.9,1-1.4,1.4c-0.9-0.8-1.8-1.6-2-2.9c-0.2-1.2,0.1-2.3,0.9-3.2C16.4,44.5,16.8,44.2,17.2,43.7z"/>
	<path class="st9" d="M17.1,51.1c0.5-0.4,0.9-0.9,1.4-1.4c0.7-0.7,1.4-1.5,2.2-2.2c0.7,0.7,1.4,1.4,2.1,2.1c0.5,0.5,1,1,1.6,1.3
		c-0.7,0.8-1.4,1.6-2.5,2c-1.4,0.4-2.6,0.2-3.7-0.7C17.8,51.9,17.4,51.5,17.1,51.1z"/>
	<path class="st6" d="M52.1,18.9c0-1.7,0-3.4,0-5.2c0.7,0,1.3,0.5,1.3,1.2c0,0.1,0,0.2,0,0.3c-0.1,0.8,0.1,1.4,0.9,1.9
		c1.2,0.6,1.7,1.8,1.6,3.2c0,0.6-0.6,1.2-1.2,1.2c-0.7,0-1.3-0.5-1.3-1.1C53.3,19.4,53,19.1,52.1,18.9z"/>
	<path class="st10" d="M52.1,26.6c0,1.7,0,3.4,0,5.1c-0.8,0-1.2-0.5-1.3-1.2c0,0,0-0.1,0-0.1c0.1-0.9,0-1.5-1-2
		c-1.1-0.6-1.6-1.7-1.6-3c0-0.7,0.5-1.3,1.2-1.3c0.7,0,1.3,0.5,1.3,1.2C50.9,26.1,51.2,26.4,52.1,26.6z"/>
</g>
</svg>
